<?xml version="1.0" encoding="UTF-8" standalone="no"?>
<!-- Created with Inkscape (http://www.inkscape.org/) -->

<svg
   xmlns:dc="http://purl.org/dc/elements/1.1/"
   xmlns:cc="http://creativecommons.org/ns#"
   xmlns:rdf="http://www.w3.org/1999/02/22-rdf-syntax-ns#"
   xmlns:svg="http://www.w3.org/2000/svg"
   xmlns="http://www.w3.org/2000/svg"
   xmlns:sodipodi="http://sodipodi.sourceforge.net/DTD/sodipodi-0.dtd"
   xmlns:inkscape="http://www.inkscape.org/namespaces/inkscape"
   width="394.88779mm"
   height="261.1944mm"
   viewBox="0 0 355.39901 235.07495"
   version="1.1"
   id="svg5768"
   inkscape:version="0.92.5 (2060ec1f9f, 2020-04-08)"
   sodipodi:docname="izzet.svg">
  <defs
     id="defs5762">
    <inkscape:path-effect
       effect="simplify"
       id="path-effect4565"
       is_visible="true"
       steps="1"
       threshold="0.000408163"
       smooth_angles="360"
       helper_size="0"
       simplify_individual_paths="false"
       simplify_just_coalesce="false"
       simplifyindividualpaths="false"
       simplifyJustCoalesce="false" />
    <inkscape:path-effect
       effect="simplify"
       id="path-effect4543"
       is_visible="true"
       steps="1"
       threshold="0.000408163"
       smooth_angles="360"
       helper_size="0"
       simplify_individual_paths="false"
       simplify_just_coalesce="false"
       simplifyindividualpaths="false"
       simplifyJustCoalesce="false" />
    <inkscape:path-effect
       effect="simplify"
       id="path-effect8619"
       is_visible="true"
       steps="1"
       threshold="0.000408163"
       smooth_angles="360"
       helper_size="0"
       simplify_individual_paths="false"
       simplify_just_coalesce="false"
       simplifyindividualpaths="false"
       simplifyJustCoalesce="false" />
    <inkscape:path-effect
       effect="simplify"
       id="path-effect8615"
       is_visible="true"
       steps="1"
       threshold="0.000408163"
       smooth_angles="360"
       helper_size="0"
       simplify_individual_paths="false"
       simplify_just_coalesce="false"
       simplifyindividualpaths="false"
       simplifyJustCoalesce="false" />
    <inkscape:path-effect
       effect="simplify"
       id="path-effect8611"
       is_visible="true"
       steps="1"
       threshold="0.000408163"
       smooth_angles="360"
       helper_size="0"
       simplify_individual_paths="false"
       simplify_just_coalesce="false"
       simplifyindividualpaths="false"
       simplifyJustCoalesce="false" />
    <inkscape:path-effect
       effect="simplify"
       id="path-effect8607"
       is_visible="true"
       steps="1"
       threshold="0.000408163"
       smooth_angles="360"
       helper_size="0"
       simplify_individual_paths="false"
       simplify_just_coalesce="false"
       simplifyindividualpaths="false"
       simplifyJustCoalesce="false" />
    <inkscape:path-effect
       effect="simplify"
       id="path-effect8600"
       is_visible="true"
       steps="1"
       threshold="0.000408163"
       smooth_angles="360"
       helper_size="0"
       simplify_individual_paths="false"
       simplify_just_coalesce="false"
       simplifyindividualpaths="false"
       simplifyJustCoalesce="false" />
    <inkscape:path-effect
       effect="simplify"
       id="path-effect8584"
       is_visible="true"
       steps="1"
       threshold="0.000408163"
       smooth_angles="360"
       helper_size="0"
       simplify_individual_paths="false"
       simplify_just_coalesce="false"
       simplifyindividualpaths="false"
       simplifyJustCoalesce="false" />
    <inkscape:path-effect
       effect="simplify"
       id="path-effect8571"
       is_visible="true"
       steps="1"
       threshold="0.000408163"
       smooth_angles="360"
       helper_size="0"
       simplify_individual_paths="false"
       simplify_just_coalesce="false"
       simplifyindividualpaths="false"
       simplifyJustCoalesce="false" />
    <inkscape:path-effect
       effect="simplify"
       id="path-effect8556"
       is_visible="true"
       steps="1"
       threshold="0.000408163"
       smooth_angles="360"
       helper_size="0"
       simplify_individual_paths="false"
       simplify_just_coalesce="false"
       simplifyindividualpaths="false"
       simplifyJustCoalesce="false" />
    <inkscape:path-effect
       effect="simplify"
       id="path-effect8532"
       is_visible="true"
       steps="1"
       threshold="0.000408163"
       smooth_angles="360"
       helper_size="0"
       simplify_individual_paths="false"
       simplify_just_coalesce="false"
       simplifyindividualpaths="false"
       simplifyJustCoalesce="false" />
    <inkscape:path-effect
       effect="simplify"
       id="path-effect8528"
       is_visible="true"
       steps="1"
       threshold="0.000408163"
       smooth_angles="360"
       helper_size="0"
       simplify_individual_paths="false"
       simplify_just_coalesce="false"
       simplifyindividualpaths="false"
       simplifyJustCoalesce="false" />
    <inkscape:path-effect
       effect="simplify"
       id="path-effect8524"
       is_visible="true"
       steps="1"
       threshold="0.000408163"
       smooth_angles="360"
       helper_size="0"
       simplify_individual_paths="false"
       simplify_just_coalesce="false"
       simplifyindividualpaths="false"
       simplifyJustCoalesce="false" />
    <inkscape:path-effect
       effect="simplify"
       id="path-effect8449"
       is_visible="true"
       steps="1"
       threshold="0.000408163"
       smooth_angles="360"
       helper_size="0"
       simplify_individual_paths="false"
       simplify_just_coalesce="false"
       simplifyindividualpaths="false"
       simplifyJustCoalesce="false" />
    <inkscape:path-effect
       effect="simplify"
       id="path-effect8443"
       is_visible="true"
       steps="1"
       threshold="0.000408163"
       smooth_angles="360"
       helper_size="0"
       simplify_individual_paths="false"
       simplify_just_coalesce="false"
       simplifyindividualpaths="false"
       simplifyJustCoalesce="false" />
    <inkscape:path-effect
       effect="simplify"
       id="path-effect8434"
       is_visible="true"
       steps="1"
       threshold="0.000408163"
       smooth_angles="360"
       helper_size="0"
       simplify_individual_paths="false"
       simplify_just_coalesce="false"
       simplifyindividualpaths="false"
       simplifyJustCoalesce="false" />
    <inkscape:path-effect
       effect="simplify"
       id="path-effect8422"
       is_visible="true"
       steps="1"
       threshold="0.000408163"
       smooth_angles="360"
       helper_size="0"
       simplify_individual_paths="false"
       simplify_just_coalesce="false"
       simplifyindividualpaths="false"
       simplifyJustCoalesce="false" />
    <inkscape:path-effect
       effect="simplify"
       id="path-effect8418"
       is_visible="true"
       steps="1"
       threshold="0.000408163"
       smooth_angles="360"
       helper_size="0"
       simplify_individual_paths="false"
       simplify_just_coalesce="false"
       simplifyindividualpaths="false"
       simplifyJustCoalesce="false" />
    <inkscape:path-effect
       effect="simplify"
       id="path-effect8413"
       is_visible="true"
       steps="1"
       threshold="0.000408163"
       smooth_angles="360"
       helper_size="0"
       simplify_individual_paths="false"
       simplify_just_coalesce="false"
       simplifyindividualpaths="false"
       simplifyJustCoalesce="false" />
    <inkscape:path-effect
       effect="simplify"
       id="path-effect8391"
       is_visible="true"
       steps="1"
       threshold="0.000408163"
       smooth_angles="360"
       helper_size="0"
       simplify_individual_paths="false"
       simplify_just_coalesce="false"
       simplifyindividualpaths="false"
       simplifyJustCoalesce="false" />
    <inkscape:path-effect
       effect="simplify"
       id="path-effect8114"
       is_visible="true"
       steps="1"
       threshold="0.000408163"
       smooth_angles="360"
       helper_size="0"
       simplify_individual_paths="false"
       simplify_just_coalesce="false"
       simplifyindividualpaths="false"
       simplifyJustCoalesce="false" />
    <inkscape:path-effect
       effect="simplify"
       id="path-effect7808"
       is_visible="true"
       steps="1"
       threshold="0.000408163"
       smooth_angles="360"
       helper_size="0"
       simplify_individual_paths="false"
       simplify_just_coalesce="false"
       simplifyindividualpaths="false"
       simplifyJustCoalesce="false" />
    <inkscape:path-effect
       effect="simplify"
       id="path-effect6980"
       is_visible="true"
       steps="1"
       threshold="0.000408163"
       smooth_angles="360"
       helper_size="0"
       simplify_individual_paths="false"
       simplify_just_coalesce="false"
       simplifyindividualpaths="false"
       simplifyJustCoalesce="false" />
    <inkscape:path-effect
       effect="simplify"
       id="path-effect6741"
       is_visible="true"
       steps="1"
       threshold="0.000408163"
       smooth_angles="360"
       helper_size="0"
       simplify_individual_paths="false"
       simplify_just_coalesce="false"
       simplifyindividualpaths="false"
       simplifyJustCoalesce="false" />
  </defs>
  <sodipodi:namedview
     id="base"
     pagecolor="#ffffff"
     bordercolor="#666666"
     borderopacity="1.0"
     inkscape:pageopacity="0.0"
     inkscape:pageshadow="2"
     inkscape:zoom="0.088388348"
     inkscape:cx="-4866.0854"
     inkscape:cy="9.7182643"
     inkscape:document-units="mm"
     inkscape:current-layer="layer1"
     showgrid="false"
     inkscape:window-width="1920"
     inkscape:window-height="1020"
     inkscape:window-x="0"
     inkscape:window-y="0"
     inkscape:window-maximized="1"
     units="mm"
     scale-x="0.9"
     showborder="true"
     inkscape:snap-global="false" />
  <metadata
     id="metadata5765">
    <rdf:RDF>
      <cc:Work
         rdf:about="">
        <dc:format>image/svg+xml</dc:format>
        <dc:type
           rdf:resource="http://purl.org/dc/dcmitype/StillImage" />
        <dc:title></dc:title>
      </cc:Work>
    </rdf:RDF>
  </metadata>
  <g
     inkscape:label="Layer 1"
     inkscape:groupmode="layer"
     id="layer1"
     transform="translate(-2223.8208,-659.50441)">
    <flowRoot
       xml:space="preserve"
       id="flowRoot8482"
       style="font-style:normal;font-weight:normal;font-size:10.66666698px;line-height:1.25;font-family:sans-serif;letter-spacing:0px;word-spacing:0px;fill:#000000;fill-opacity:1;stroke:none"
       transform="matrix(0.238125,0,0,0.238125,-338.68394,-7.6973631)"><flowRegion
         id="flowRegion8484"><rect
           id="rect8486"
           width="1389.9698"
           height="387.89859"
           x="11806.663"
           y="3223.637" /></flowRegion><flowPara
         id="flowPara8488"
         style="font-size:192px">Izzet</flowPara></flowRoot>    <path
       style="fill:#000000;stroke-width:15.02942848"
       d="m 9777.9551,2769.5742 c -5.219,-0.1551 -10.5511,9.288 -18.4414,30.041 -8.8475,23.2702 -16.086,48.6333 -16.086,56.3614 0,7.728 17.3631,14.0507 38.586,14.0507 33.0608,0 37.1045,-4.8423 28.2402,-33.8164 -5.6899,-18.5988 -15.8153,-43.962 -22.5,-56.3613 -3.5772,-6.6348 -6.6674,-10.1823 -9.7988,-10.2754 z m -139.7344,18.625 v 48.4297 c 0,32.1461 7.2806,48.4277 21.6563,48.4277 11.9113,0 26.2584,-7.4449 31.8828,-16.5449 5.6239,-9.0999 -4.121,-30.8941 -21.6563,-48.4297 z m 265.3887,25.8418 c -0.158,-0.01 -0.3205,-0.01 -0.4883,0.01 -4.1755,0.2911 -11.4422,6.6523 -24.0762,18.0859 -16.3372,14.7852 -26.0821,32.7409 -21.6562,39.9024 4.4262,7.1614 17.7936,13.0214 29.7051,13.0214 13.418,0 21.6562,-15.1789 21.6562,-39.9023 0,-21.1387 -0.2446,-30.8663 -5.1406,-31.1133 z m -355.9981,55.9863 c -6.4802,0 -8.2452,13.5263 -3.9218,30.0586 4.3233,16.5324 12.7086,30.0586 18.6328,30.0586 5.9246,0 15.221,-4.4496 20.6601,-9.8886 5.4388,-5.4391 2.3569,-18.9653 -6.8496,-30.0586 -9.2065,-11.0933 -22.0413,-20.17 -28.5215,-20.17 z m 445.0528,15.0293 c -13.0881,0 -23.7969,10.7088 -23.7969,23.7969 0,13.0881 8.0318,21.1197 17.8476,17.8477 9.8163,-3.272 20.5252,-13.9808 23.7972,-23.7969 3.272,-9.8161 -4.76,-17.8477 -17.8479,-17.8477 z m -189.9004,1.3086 c -14.6441,-0.1002 -30.9033,0.7376 -50.1348,2.2813 -57.3648,4.6047 -121.6449,22.2146 -169.3769,46.4023 -42.3093,21.4398 -100.9224,67.0163 -130.252,101.2813 -29.3296,34.2648 -65.3115,86.9516 -79.9609,117.0801 -15.2097,31.2794 -29.2426,101.9198 -32.711,164.666 -4.4224,80.0031 1.0184,128.4575 20.0059,178.1758 14.3437,37.5591 46.2397,91.2498 70.8789,119.3125 24.6392,28.0626 50.3895,51.0214 57.2246,51.0214 6.8351,0 14.589,-13.654 17.2305,-30.3418 4.3279,-27.3439 15.7741,-22.8878 115.8476,45.0899 61.0751,41.4863 126.006,75.4297 144.293,75.4297 18.287,0 54.5499,-7.4251 80.582,-16.5 26.0322,-9.0748 47.3301,-21.5905 47.3301,-27.8125 0,-6.2219 34.2664,-32.6144 76.1465,-58.6485 41.8798,-26.0343 78.8648,-47.3339 82.1898,-47.3339 3.324,0 2.413,9.4602 -2.024,21.0234 -4.437,11.5632 -2.075,24.729 5.25,29.2558 7.325,4.5269 32.308,-9.3774 55.518,-30.8984 23.209,-21.5209 56.139,-70.1935 73.178,-108.1601 21.468,-47.8384 31.152,-101.3277 31.546,-174.2364 0.459,-84.9642 -7.399,-121.5769 -40.843,-190.2929 -22.777,-46.7979 -69.138,-110.1345 -103.024,-140.7481 -33.885,-30.6136 -98.727,-72.6543 -144.0935,-93.4238 -51.4756,-23.5662 -80.8688,-32.3222 -124.8008,-32.6231 z m -19.1602,43.836 c 45.6198,-0.041 75.3422,10.5619 109.0039,38.8867 25.4551,21.4189 42.4828,45.0908 37.8399,52.6035 -4.6434,7.5127 -22.9213,13.6582 -40.6192,13.6582 -25.0272,0 -28.1696,-4.0077 -14.1426,-18.0351 9.9196,-9.9195 18.0352,-24.1687 18.0352,-31.6661 0,-7.4973 -9.7071,-9.9066 -21.5723,-5.3535 -11.8652,4.5531 -24,1.0018 -26.9648,-7.8926 -3.4793,-10.4371 -23.8074,-6.8769 -57.3301,10.0411 -28.5673,14.4173 -73.9222,47.0736 -100.7871,72.5683 -26.8653,25.4947 -48.8457,54.8534 -48.8457,65.2422 0,10.3888 7.8481,36.1155 17.4414,57.1699 9.5929,21.0544 23.1194,38.2793 30.0586,38.2793 6.9392,0 12.6172,-10.5425 12.6172,-23.4297 0,-12.8874 6.763,-19.2513 15.0293,-14.1425 8.2662,5.1088 14.9971,17.3426 14.9551,27.1875 -0.041,9.8448 -15.767,37.5125 -34.9473,61.4824 l -34.873,43.5801 -34.209,-48.0411 c -18.8154,-26.4235 -37.67,-73.8386 -41.8985,-105.3652 -5.0549,-37.6863 1.4913,-76.6643 19.1094,-113.791 14.7381,-31.0586 47.6282,-69.1736 73.0879,-84.6992 25.7016,-15.6727 74.188,-28.2496 109.0117,-28.2832 z m 155.4043,120.1797 c 4.1898,0 8.513,5.0096 15.4824,15.0293 8.6249,12.3992 12.7506,52.0591 9.168,88.1347 -3.5826,36.0756 -19.505,82.9931 -35.3828,104.2598 -15.8778,21.2665 -35.5437,40.8901 -43.7012,43.6094 -9.1133,3.0377 -11.6574,-22.521 -6.5996,-66.2852 6.2005,-53.6519 16.4365,-75.3096 41.4805,-87.7617 28.7907,-14.315 30.3764,-19.407 11.8164,-37.9727 -14.799,-14.8035 -16.9492,-28.4189 -6.9473,-43.9843 6.4382,-10.0197 10.4938,-15.0293 14.6836,-15.0293 z m -404.8164,112.7207 22.7852,52.6015 c 12.532,28.9317 39.2113,69.77 59.289,90.75 32.0987,33.5417 35.1307,46.19 25.125,104.8008 l -11.3789,66.6543 -31.7637,-44.6836 c -17.4702,-24.5758 -39.2562,-71.736 -48.414,-104.8008 -9.1582,-33.0647 -16.4256,-83.789 -16.1485,-112.7207 z m 472.4296,15.0879 c 2.294,-0.1369 2.286,27.1714 -0.363,70.9062 -3.367,55.5638 -16.0926,120.308 -28.2795,143.875 -12.1869,23.5672 -32.6362,51.5447 -45.4433,62.1738 -19.7855,16.4204 -25.5827,13.285 -38.5645,-20.8593 -8.4031,-22.102 -15.2793,-47.9843 -15.2793,-57.5157 0,-9.5315 15.3887,-31.0716 34.1973,-47.8672 18.8086,-16.7955 45.2346,-47.9411 58.7246,-69.2128 13.49,-21.2716 28.1799,-55.0872 32.6467,-75.1465 0.837,-3.7611 1.549,-5.7968 2.131,-6.2539 0.08,-0.062 0.156,-0.095 0.23,-0.1 z"
       id="path8183"
       transform="scale(0.238125)"
       inkscape:connector-curvature="0" />
  </g>
</svg>
