<?xml version="1.0" encoding="UTF-8" standalone="no"?>
<!-- Created with Inkscape (http://www.inkscape.org/) -->

<svg
   xmlns:dc="http://purl.org/dc/elements/1.1/"
   xmlns:cc="http://creativecommons.org/ns#"
   xmlns:rdf="http://www.w3.org/1999/02/22-rdf-syntax-ns#"
   xmlns:svg="http://www.w3.org/2000/svg"
   xmlns="http://www.w3.org/2000/svg"
   xmlns:sodipodi="http://sodipodi.sourceforge.net/DTD/sodipodi-0.dtd"
   xmlns:inkscape="http://www.inkscape.org/namespaces/inkscape"
   width="164.92331mm"
   height="361.31583mm"
   viewBox="0 0 148.43098 325.18423"
   version="1.1"
   id="svg5768"
   inkscape:version="0.92.5 (2060ec1f9f, 2020-04-08)"
   sodipodi:docname="naya.svg">
  <defs
     id="defs5762">
    <inkscape:path-effect
       effect="simplify"
       id="path-effect4565"
       is_visible="true"
       steps="1"
       threshold="0.000408163"
       smooth_angles="360"
       helper_size="0"
       simplify_individual_paths="false"
       simplify_just_coalesce="false"
       simplifyindividualpaths="false"
       simplifyJustCoalesce="false" />
    <inkscape:path-effect
       effect="simplify"
       id="path-effect4543"
       is_visible="true"
       steps="1"
       threshold="0.000408163"
       smooth_angles="360"
       helper_size="0"
       simplify_individual_paths="false"
       simplify_just_coalesce="false"
       simplifyindividualpaths="false"
       simplifyJustCoalesce="false" />
    <inkscape:path-effect
       effect="simplify"
       id="path-effect8619"
       is_visible="true"
       steps="1"
       threshold="0.000408163"
       smooth_angles="360"
       helper_size="0"
       simplify_individual_paths="false"
       simplify_just_coalesce="false"
       simplifyindividualpaths="false"
       simplifyJustCoalesce="false" />
    <inkscape:path-effect
       effect="simplify"
       id="path-effect8615"
       is_visible="true"
       steps="1"
       threshold="0.000408163"
       smooth_angles="360"
       helper_size="0"
       simplify_individual_paths="false"
       simplify_just_coalesce="false"
       simplifyindividualpaths="false"
       simplifyJustCoalesce="false" />
    <inkscape:path-effect
       effect="simplify"
       id="path-effect8611"
       is_visible="true"
       steps="1"
       threshold="0.000408163"
       smooth_angles="360"
       helper_size="0"
       simplify_individual_paths="false"
       simplify_just_coalesce="false"
       simplifyindividualpaths="false"
       simplifyJustCoalesce="false" />
    <inkscape:path-effect
       effect="simplify"
       id="path-effect8607"
       is_visible="true"
       steps="1"
       threshold="0.000408163"
       smooth_angles="360"
       helper_size="0"
       simplify_individual_paths="false"
       simplify_just_coalesce="false"
       simplifyindividualpaths="false"
       simplifyJustCoalesce="false" />
    <inkscape:path-effect
       effect="simplify"
       id="path-effect8600"
       is_visible="true"
       steps="1"
       threshold="0.000408163"
       smooth_angles="360"
       helper_size="0"
       simplify_individual_paths="false"
       simplify_just_coalesce="false"
       simplifyindividualpaths="false"
       simplifyJustCoalesce="false" />
    <inkscape:path-effect
       effect="simplify"
       id="path-effect8584"
       is_visible="true"
       steps="1"
       threshold="0.000408163"
       smooth_angles="360"
       helper_size="0"
       simplify_individual_paths="false"
       simplify_just_coalesce="false"
       simplifyindividualpaths="false"
       simplifyJustCoalesce="false" />
    <inkscape:path-effect
       effect="simplify"
       id="path-effect8571"
       is_visible="true"
       steps="1"
       threshold="0.000408163"
       smooth_angles="360"
       helper_size="0"
       simplify_individual_paths="false"
       simplify_just_coalesce="false"
       simplifyindividualpaths="false"
       simplifyJustCoalesce="false" />
    <inkscape:path-effect
       effect="simplify"
       id="path-effect8556"
       is_visible="true"
       steps="1"
       threshold="0.000408163"
       smooth_angles="360"
       helper_size="0"
       simplify_individual_paths="false"
       simplify_just_coalesce="false"
       simplifyindividualpaths="false"
       simplifyJustCoalesce="false" />
    <inkscape:path-effect
       effect="simplify"
       id="path-effect8532"
       is_visible="true"
       steps="1"
       threshold="0.000408163"
       smooth_angles="360"
       helper_size="0"
       simplify_individual_paths="false"
       simplify_just_coalesce="false"
       simplifyindividualpaths="false"
       simplifyJustCoalesce="false" />
    <inkscape:path-effect
       effect="simplify"
       id="path-effect8528"
       is_visible="true"
       steps="1"
       threshold="0.000408163"
       smooth_angles="360"
       helper_size="0"
       simplify_individual_paths="false"
       simplify_just_coalesce="false"
       simplifyindividualpaths="false"
       simplifyJustCoalesce="false" />
    <inkscape:path-effect
       effect="simplify"
       id="path-effect8524"
       is_visible="true"
       steps="1"
       threshold="0.000408163"
       smooth_angles="360"
       helper_size="0"
       simplify_individual_paths="false"
       simplify_just_coalesce="false"
       simplifyindividualpaths="false"
       simplifyJustCoalesce="false" />
    <inkscape:path-effect
       effect="simplify"
       id="path-effect8449"
       is_visible="true"
       steps="1"
       threshold="0.000408163"
       smooth_angles="360"
       helper_size="0"
       simplify_individual_paths="false"
       simplify_just_coalesce="false"
       simplifyindividualpaths="false"
       simplifyJustCoalesce="false" />
    <inkscape:path-effect
       effect="simplify"
       id="path-effect8443"
       is_visible="true"
       steps="1"
       threshold="0.000408163"
       smooth_angles="360"
       helper_size="0"
       simplify_individual_paths="false"
       simplify_just_coalesce="false"
       simplifyindividualpaths="false"
       simplifyJustCoalesce="false" />
    <inkscape:path-effect
       effect="simplify"
       id="path-effect8434"
       is_visible="true"
       steps="1"
       threshold="0.000408163"
       smooth_angles="360"
       helper_size="0"
       simplify_individual_paths="false"
       simplify_just_coalesce="false"
       simplifyindividualpaths="false"
       simplifyJustCoalesce="false" />
    <inkscape:path-effect
       effect="simplify"
       id="path-effect8422"
       is_visible="true"
       steps="1"
       threshold="0.000408163"
       smooth_angles="360"
       helper_size="0"
       simplify_individual_paths="false"
       simplify_just_coalesce="false"
       simplifyindividualpaths="false"
       simplifyJustCoalesce="false" />
    <inkscape:path-effect
       effect="simplify"
       id="path-effect8418"
       is_visible="true"
       steps="1"
       threshold="0.000408163"
       smooth_angles="360"
       helper_size="0"
       simplify_individual_paths="false"
       simplify_just_coalesce="false"
       simplifyindividualpaths="false"
       simplifyJustCoalesce="false" />
    <inkscape:path-effect
       effect="simplify"
       id="path-effect8413"
       is_visible="true"
       steps="1"
       threshold="0.000408163"
       smooth_angles="360"
       helper_size="0"
       simplify_individual_paths="false"
       simplify_just_coalesce="false"
       simplifyindividualpaths="false"
       simplifyJustCoalesce="false" />
    <inkscape:path-effect
       effect="simplify"
       id="path-effect8391"
       is_visible="true"
       steps="1"
       threshold="0.000408163"
       smooth_angles="360"
       helper_size="0"
       simplify_individual_paths="false"
       simplify_just_coalesce="false"
       simplifyindividualpaths="false"
       simplifyJustCoalesce="false" />
    <inkscape:path-effect
       effect="simplify"
       id="path-effect8114"
       is_visible="true"
       steps="1"
       threshold="0.000408163"
       smooth_angles="360"
       helper_size="0"
       simplify_individual_paths="false"
       simplify_just_coalesce="false"
       simplifyindividualpaths="false"
       simplifyJustCoalesce="false" />
    <inkscape:path-effect
       effect="simplify"
       id="path-effect7808"
       is_visible="true"
       steps="1"
       threshold="0.000408163"
       smooth_angles="360"
       helper_size="0"
       simplify_individual_paths="false"
       simplify_just_coalesce="false"
       simplifyindividualpaths="false"
       simplifyJustCoalesce="false" />
    <inkscape:path-effect
       effect="simplify"
       id="path-effect6980"
       is_visible="true"
       steps="1"
       threshold="0.000408163"
       smooth_angles="360"
       helper_size="0"
       simplify_individual_paths="false"
       simplify_just_coalesce="false"
       simplifyindividualpaths="false"
       simplifyJustCoalesce="false" />
    <inkscape:path-effect
       effect="simplify"
       id="path-effect6741"
       is_visible="true"
       steps="1"
       threshold="0.000408163"
       smooth_angles="360"
       helper_size="0"
       simplify_individual_paths="false"
       simplify_just_coalesce="false"
       simplifyindividualpaths="false"
       simplifyJustCoalesce="false" />
  </defs>
  <sodipodi:namedview
     id="base"
     pagecolor="#ffffff"
     bordercolor="#666666"
     borderopacity="1.0"
     inkscape:pageopacity="0.0"
     inkscape:pageshadow="2"
     inkscape:zoom="0.35355339"
     inkscape:cx="312.28088"
     inkscape:cy="651.56066"
     inkscape:document-units="mm"
     inkscape:current-layer="layer1"
     showgrid="false"
     inkscape:window-width="1920"
     inkscape:window-height="1020"
     inkscape:window-x="0"
     inkscape:window-y="0"
     inkscape:window-maximized="1"
     units="mm"
     scale-x="0.9"
     showborder="true"
     inkscape:snap-global="false"
     fit-margin-top="0"
     fit-margin-left="0"
     fit-margin-right="0"
     fit-margin-bottom="0" />
  <metadata
     id="metadata5765">
    <rdf:RDF>
      <cc:Work
         rdf:about="">
        <dc:format>image/svg+xml</dc:format>
        <dc:type
           rdf:resource="http://purl.org/dc/dcmitype/StillImage" />
        <dc:title></dc:title>
      </cc:Work>
    </rdf:RDF>
  </metadata>
  <g
     inkscape:label="Layer 1"
     inkscape:groupmode="layer"
     id="layer1"
     transform="translate(-756.16916,-39.545493)">
    <g
       id="g14113">
      <path
         id="path7680"
         d="m 840.47659,306.62501 c -0.007,-0.003 -0.0126,-0.002 -0.0167,0.002 -0.13255,0.13939 -1.75744,3.89679 -3.61093,8.34973 -2.14894,5.16276 -3.62605,8.29477 -4.07651,8.64458 -0.68552,0.53242 -0.6271,0.54878 1.97291,0.55578 l 2.67936,0.007 -0.69482,-0.64742 c -0.77132,-0.71851 -0.84201,-1.14766 -0.38558,-2.34822 0.27618,-0.7263 0.4839,-0.81436 1.91803,-0.81436 1.15431,0 1.87242,-0.19503 2.54403,-0.69159 0.51468,-0.3805 1.04394,-0.58386 1.17622,-0.4516 0.1323,0.13228 0.61562,1.2652 1.07435,2.51753 l 0.83436,2.27707 2.50125,0.087 2.50124,0.087 -0.83204,-0.72183 c -0.59533,-0.51659 -1.7606,-3.05174 -4.09651,-8.91295 -1.73929,-4.36426 -3.27384,-7.85296 -3.48862,-7.93997 z m 25.7175,0 c -0.007,-0.003 -0.0126,-0.002 -0.0167,0.002 -0.13255,0.13939 -1.75744,3.89679 -3.61093,8.34973 -2.14894,5.16276 -3.62605,8.29523 -4.07651,8.64506 -0.68552,0.53242 -0.6271,0.5483 1.97291,0.5553 l 2.67936,0.007 -0.69482,-0.64742 c -0.77132,-0.71851 -0.84201,-1.14766 -0.38558,-2.34822 0.27678,-0.72792 0.48273,-0.81436 1.9357,-0.81436 1.14481,0 1.90366,-0.19817 2.56589,-0.66973 0.51725,-0.36828 1.03892,-0.57121 1.159,-0.45113 0.12009,0.12007 0.59331,1.24287 1.05204,2.4952 l 0.83436,2.27707 2.50125,0.087 2.50124,0.087 -0.83204,-0.72183 c -0.59533,-0.51659 -1.7606,-3.05174 -4.09651,-8.91295 -1.73929,-4.36426 -3.27384,-7.85296 -3.48862,-7.93997 z m -49.03327,0.0972 1.0232,0.93435 1.02318,0.93483 v 7.18978 c 0,7.06819 -0.0121,7.20019 -0.71438,7.78605 -0.70925,0.59081 -0.69392,0.5969 2.14313,0.5939 2.70064,-0.002 2.81013,-0.0279 1.99244,-0.47158 -0.4758,-0.25822 -1.01158,-0.74312 -1.19063,-1.07761 -0.37154,-0.69437 -0.45329,-10.494 -0.0874,-10.491 0.13097,0 0.94326,1.03706 1.80501,2.30219 0.8618,1.26518 2.93363,4.22915 4.60391,6.58659 l 3.03703,4.28625 0.0837,-8.73112 c 0.0826,-8.61627 0.0928,-8.73852 0.79343,-9.2799 0.68759,-0.5313 0.61482,-0.54883 -2.3059,-0.55483 l -3.01657,-0.007 1.11157,0.55483 1.11109,0.55533 0.15859,3.65141 c 0.25122,5.77791 0.38643,5.77048 -3.39328,0.18138 l -3.34352,-4.94388 h -2.41751 z m 33.50586,0 -2.47286,0.003 h -2.47243 l 0.85066,0.71297 c 0.46784,0.39203 1.78958,2.60378 2.93703,4.91507 l 2.08593,4.20253 -0.003,3.25886 -0.003,3.25888 -1.18877,0.52509 h 0.003 c -1.18501,0.52318 -1.1752,0.52542 2.93841,0.54321 3.86179,0.0167 4.07041,-0.0133 3.23981,-0.4637 -1.1996,-0.65042 -1.4934,-1.5903 -1.4934,-4.7755 v -2.70077 l 2.12034,-4.18395 c 1.16626,-2.30129 2.21746,-4.22508 2.33615,-4.27508 0.11863,-0.0499 0.48632,-0.29544 0.81669,-0.54555 0.53688,-0.40638 0.31849,-0.45563 -2.0543,-0.46463 -2.60954,-0.01 -2.64224,0 -1.94546,0.56369 0.91211,0.73862 0.72109,1.67512 -0.95019,4.66159 l -1.24177,2.21894 -1.75153,-3.72723 z m -4.95831,25.01939 c -0.0408,0.002 -0.0812,0.008 -0.12045,0.021 -0.0565,0.0181 -0.0807,0.0677 -0.16045,0.0679 -0.0937,1.9e-4 -0.23319,-0.0854 -0.28139,-0.005 -0.0393,0.0659 -0.10937,0.076 -0.18045,0.06 -0.071,-0.016 -0.10444,0.0496 -0.18045,0.0605 -0.11613,0.0167 -0.26527,-0.0828 -0.35114,-0.003 -0.0474,0.0441 -0.0996,0.0969 -0.17254,0.0605 -0.0869,-0.0435 -0.10978,0.0897 -0.18698,0.0674 -0.0915,-0.0263 -0.16278,0.0369 -0.2516,0.0549 -0.0795,0.0162 -0.19898,-0.0698 -0.24046,0 -0.0408,0.0687 -0.11192,0.0701 -0.18695,0.0544 -0.0818,-0.0172 -0.0942,0.0761 -0.19303,0.067 -0.0448,-0.004 -0.0283,0.002 -0.0977,0.053 -0.0489,0.0357 -0.10118,-0.01 -0.16745,0.053 -0.0603,0.057 -0.17821,-0.0491 -0.21348,0.026 -0.0403,0.0858 -0.15131,0.006 -0.21346,0.0442 -0.0303,0.0183 0.014,0.0757 -0.0461,0.0912 -0.046,0.0119 0.015,-0.0976 -0.0488,-0.0372 -0.0557,0.0526 -0.0332,0.10592 -0.0828,0.17302 -0.0412,0.0557 0.004,0.1138 -0.0586,0.18138 -0.0238,0.0257 -0.0585,-0.0162 -0.009,0.0126 0.0517,0.0301 -0.0805,0.0979 -0.0679,0.13768 0.0229,0.0721 -0.0601,0.11497 -0.10418,0.15674 -0.225,0.21298 -0.4176,0.46191 -0.6623,0.65203 -0.0534,0.0415 -0.0294,0.11416 -0.0735,0.16371 -0.0516,0.0581 -0.11802,0.0219 -0.17626,0.0847 -0.0799,0.086 -0.15555,0.17745 -0.24882,0.24881 -0.0412,0.0315 -0.026,0.0807 -0.0558,0.1228 -0.0446,0.0629 -0.0404,-0.0672 -0.0661,-0.0372 -0.0403,0.047 -0.0102,0.17562 -0.06,0.16138 -0.10529,-0.0301 -0.14366,0.10463 -0.20928,0.16 -0.0412,0.0348 -0.0706,0.0217 -0.12931,0.0637 -0.0387,0.0277 -0.0631,0.0229 -0.11999,0.06 -0.0592,0.0386 -0.0964,0.0331 -0.18835,0.0674 -0.069,0.0258 -0.15069,0.0257 -0.21905,0.002 -0.0774,-0.027 -0.10749,0.0635 -0.17024,0.0697 -0.0659,0.006 -0.12985,-0.0265 -0.19719,0.033 -0.0583,0.0516 -0.1525,0.0112 -0.22465,0.0238 -0.0788,0.0136 -0.20672,-0.0549 -0.24322,0.019 -0.0354,0.0716 -0.12697,0.0583 -0.18512,0.0363 -0.0738,-0.0279 -0.10361,0.0649 -0.16416,0.0651 -0.11911,0 -0.23844,-0.002 -0.35767,-0.002 -0.60931,0 -1.2185,0.004 -1.8278,0 -0.0693,0 -0.15973,-0.049 -0.20788,0 -0.0344,0.0357 -0.0883,0.01 -0.12047,0.06 -0.0387,0.0604 -0.0971,0.0385 -0.16649,0.0558 -0.0686,0.0171 -0.0827,0.15297 -0.14835,0.12696 -0.077,-0.0304 -0.0829,0.08 -0.18186,0.0544 -0.073,-0.0188 -0.1052,0.002 -0.16464,0.0633 -0.0344,0.0357 -0.0791,0.0174 -0.12047,0.0605 -0.0344,0.0358 -0.0791,0.0169 -0.12044,0.06 -0.0344,0.0358 -0.0786,0.0169 -0.12002,0.06 -0.0343,0.0358 -0.079,0.0169 -0.12044,0.06 -0.0344,0.0357 -0.0786,0.0174 -0.11999,0.0605 -0.0344,0.0358 -0.0655,0.0364 -0.12047,0.06 -0.0604,0.0259 -0.0748,0.1308 -0.15021,0.12046 -0.0754,-0.0102 -0.0866,0.13624 -0.15023,0.12 -0.0859,-0.0219 -0.13854,0.0669 -0.18929,0.12092 -0.0981,0.10432 -0.17526,0.239 -0.30277,0.30415 -0.0768,0.0393 -0.0369,0.1099 -0.0953,0.17024 -0.0637,0.0658 -0.22374,0.1048 -0.19674,0.19348 0.0249,0.0817 -0.0724,0.12322 -0.11813,0.17347 -0.0457,0.0502 -0.0588,0.11156 -0.11766,0.17347 -0.042,0.0443 -0.0487,0.0805 -0.0577,0.15814 -0.007,0.0617 -0.0685,0.0779 -0.0684,0.15812 0,0.14673 -0.0124,0.29368 0,0.43998 0.008,0.10397 0.21408,0.1209 0.18419,0.21255 -0.0248,0.0761 0.0552,0.11056 0.0977,0.15812 0.045,0.0503 0.15866,0.0778 0.1428,0.14278 -0.0249,0.10168 0.0918,0.1469 0.15347,0.20326 0.0489,0.0447 0.057,0.0707 0.0814,0.14883 0.0195,0.0628 0.0282,0.0952 0.0605,0.17997 0.019,0.0501 0.0272,0.2432 0.0591,0.15581 0.0102,-0.028 -0.0107,-0.0896 0.0307,-0.0358 0.0376,0.0488 0.0363,0.10523 0.0358,0.16419 -0.002,0.22036 0.0124,0.44077 0.003,0.66089 -0.003,0.0599 0.0112,0.16486 -0.0628,0.1465 -0.0396,-0.01 -0.0941,0.002 -0.0637,0.0572 0.0473,0.0869 -0.0773,0.0951 -0.0535,0.19908 0.0174,0.0756 -0.085,0.0836 -0.06,0.18045 0.0188,0.073 0.009,0.11835 -0.0633,0.16464 -0.0604,0.0387 -0.0319,0.0986 -0.0558,0.16604 -0.0117,0.0329 -0.0274,0.16157 -0.0646,0.0665 -0.0238,-0.0607 -0.0599,0.0239 -0.06,0.0767 -1.2e-4,0.07 -0.004,0.13771 -0.0238,0.20698 -0.008,0.0289 -0.0172,0.0582 -0.0242,0.0874 -0.16436,0.0795 -0.41027,0.0758 -0.493,0.2386 -0.0278,0.0547 -0.10715,0.0188 -0.1293,0.0656 -0.0254,0.0537 -0.10253,0.015 -0.11999,0.0605 -0.0329,0.0857 -0.11894,0.0322 -0.17069,0.10511 -0.0475,0.067 -0.15204,0.0548 -0.19021,0.13535 -0.0254,0.0537 -0.10094,0.0155 -0.12044,0.06 -0.0333,0.0759 -0.11857,0.0181 -0.17117,0.0544 -0.0942,0.0649 -0.13702,0.28883 -0.24091,0.24091 -0.0806,-0.0371 -0.0987,0.0145 -0.17347,0.0577 -0.077,0.0444 -0.14481,0.11039 -0.18512,0.18838 -0.0411,0.0794 -0.12533,0.0339 -0.17674,0.1037 -0.0392,0.0532 -0.13647,0.0923 -0.12604,0.16138 0.01,0.0626 0.019,0.15492 -0.06,0.15023 -0.0323,-0.002 -0.0475,-0.0186 -0.0586,0.0451 -0.009,0.0498 0.003,0.0884 -0.0581,0.12931 -0.027,0.0181 -0.0402,-0.0231 -0.06,0.0525 -0.01,0.0381 -0.0499,-0.0276 -0.0623,0.0586 -0.0102,0.07 -0.15216,0.0847 -0.12465,0.14976 0.0313,0.074 0.0181,0.12254 -0.0576,0.16557 -0.0759,0.043 -0.062,0.1263 -0.0614,0.20371 0.003,0.35564 0.003,0.71124 0.002,1.06692 0,0.0775 -0.0561,0.17926 0,0.23301 0.0358,0.0343 0.0169,0.0786 0.06,0.11999 0.0357,0.0344 0.0174,0.079 0.0605,0.12044 0.0357,0.0344 0.0169,0.0786 0.06,0.12002 0.0358,0.0344 0.036,0.0657 0.06,0.12044 0.0379,0.0866 0.19398,0.10949 0.18046,0.21069 -0.009,0.0652 0.0722,0.0726 0.0572,0.16603 -0.0121,0.0764 0.0628,0.0895 0.0665,0.18745 0.002,0.0615 -0.0374,0.1468 0.0265,0.18788 0.0756,0.0486 0.0991,0.0923 0.0847,0.20138 -0.009,0.071 0.0451,0.11337 0.1,0.15628 0.0669,0.0524 -0.0261,0.15509 0.0224,0.20417 0.0461,0.0467 0.0982,0.0997 0.0614,0.17207 -0.0427,0.0842 0.0668,0.10451 0.067,0.17859 0,0.14762 -0.0239,0.29694 0,0.44277 0.0138,0.0846 -0.0143,0.16426 -0.0944,0.20791 -0.0628,0.0342 -0.0339,0.13464 -0.0963,0.15952 -0.082,0.0327 -0.0176,0.20007 -0.0893,0.17069 -0.0877,-0.036 -0.17322,0.0527 -0.20651,0.13023 -0.0363,0.0843 -0.23912,0.0342 -0.18371,0.10463 0.0608,0.0772 -0.0202,0.0971 -0.0535,0.17952 -0.0357,0.0884 -0.21862,0.11152 -0.18512,0.20186 0.0285,0.0767 -0.10082,0.0946 -0.06,0.18371 0.0327,0.0713 -0.0574,0.10452 -0.0591,0.16881 -0.005,0.1926 0.002,0.38541 0.002,0.57812 0,0.40277 -0.0152,0.80577 -0.002,1.20829 0.002,0.0664 -0.0532,0.17315 0.007,0.20093 0.069,0.0318 0.0162,0.10561 0.047,0.15998 0.019,0.0334 0.0426,-0.024 0.0656,0.0567 0.0143,0.0499 0.0344,0.069 0.0619,0.13535 0.025,0.0605 0.13392,0.0754 0.11859,0.15162 -0.0133,0.0662 0.0545,0.015 0.10232,0.0642 0.0481,0.0496 0.16454,0.0865 0.14232,0.15162 -0.0275,0.0803 0.0643,0.11868 0.11114,0.16511 0.083,0.0822 0.2536,0.13195 0.24743,0.24882 -0.004,0.071 -0.0148,0.1554 0.0688,0.18697 0.0564,0.0214 0.0214,0.1344 0.0572,0.11721 0.0421,-0.0202 0.0351,0 0.0521,0.0497 0.0212,0.0632 0.15171,0.079 0.12509,0.14185 -0.0313,0.074 -0.006,0.10521 0.0572,0.1656 0.0358,0.0343 0.0174,0.079 0.0605,0.12044 0.0358,0.0344 0.0169,0.0791 0.06,0.12047 0.0357,0.0344 0.0169,0.0786 0.06,0.11999 0.0358,0.0344 0.0414,0.0638 0.0605,0.12044 0.0164,0.0486 0.0411,0.0331 0.0939,0.0507 0.071,0.0238 0.10883,0.0972 0.16141,0.14745 0.0572,0.0546 0.10106,0.19797 0.17254,0.16464 0.0586,-0.0273 0.0122,0.0488 0.053,0.0581 0.0605,0.0138 0.0878,0.0281 0.17161,0.0544 0.0627,0.0198 0.10483,0.01 0.18046,0.06 0.0649,0.0429 0.17411,-0.0522 0.21255,0.027 0.0393,0.0808 0.13885,0.003 0.19766,0.033 0.0554,0.0286 0.0847,0.0718 0.1665,0.0693 0.22867,-0.007 0.45775,-0.007 0.68647,-0.003 0.0983,0.002 0.20602,0.0458 0.29487,0.004 0.0502,-0.0238 0.0701,-0.0737 0.15023,-0.0609 0.0764,0.0121 0.0895,-0.0628 0.18743,-0.0665 0.0615,-0.002 0.14452,0.0358 0.18788,-0.0265 0.0428,-0.0615 0.13037,-0.0335 0.19443,-0.0321 0.2351,0.005 0.47037,0.008 0.70552,0.005 0.0665,0 0.0889,-0.10532 0.16975,-0.066 0.0767,0.0372 0.11419,-0.0814 0.17674,-0.0623 0.0684,0.0207 0.0968,-0.0729 0.1665,-0.0558 0.10172,0.0249 0.14911,-0.0898 0.20326,-0.1535 0.0593,-0.0698 0.15516,0.0133 0.21672,-0.0777 0.0453,-0.067 0.21938,-0.0626 0.18464,-0.13583 -0.0262,-0.0552 0.0133,-0.0357 0.0567,-0.0539 0.0869,-0.0366 0.11199,-0.20315 0.21207,-0.1786 0.0605,0.0148 0.0523,-0.17102 0.0823,-0.0888 0.0102,0.028 -0.0198,0.0815 0.0307,0.0363 0.071,-0.0635 -0.002,-0.16333 0.0633,-0.22186 0.0927,-0.0837 0.28768,-0.13828 0.26884,-0.26184 -0.0126,-0.0833 0.0632,-0.13709 0.11952,-0.18974 0.12247,-0.11456 0.24755,-0.2272 0.35626,-0.35488 0.0349,-0.041 0.14271,-0.008 0.12975,-0.0633 -0.0124,-0.0522 0.0112,-0.0265 0.0605,-0.0605 0.0942,-0.0649 0.12621,-0.23436 0.24046,-0.24045 0.16859,-0.009 0.33797,0 0.50694,0 0.0697,0 0.17924,-0.0664 0.20882,-0.004 0.014,0.0297 -0.0136,0.0882 0.0549,0.0716 0.0557,-0.0136 0.0332,0.0306 0.13164,0.053 0.0604,0.0138 0.0902,0.0214 0.17162,0.0544 0.0332,0.0136 0.0356,-0.0188 0.0646,0.0521 0.0155,0.038 0.0649,-0.002 0.10094,0.0526 0.0286,0.0427 0.18591,0.0471 0.11023,0.0749 -0.028,0.0102 -0.0825,-0.019 -0.0358,0.0302 0.0526,0.0556 0.13585,0.009 0.17626,0.0786 0.0291,0.0501 0.14785,0.0174 0.13349,0.0777 -0.01,0.0405 0.002,0.0951 0.0572,0.0642 0.0834,-0.0467 0.13423,-0.0202 0.18324,0.0563 0.0387,0.0604 0.10118,0.0267 0.16649,0.0558 0.0483,0.0217 0.0858,0.0136 0.13443,0.0642 0.0344,0.0358 0.0786,0.0174 0.11999,0.0605 0.0344,0.0358 0.0791,0.0169 0.12046,0.06 0.0343,0.0358 0.0656,0.0366 0.12045,0.06 0.0604,0.0258 0.0752,0.13366 0.15023,0.12045 0.0629,-0.0112 0.0938,0.002 0.15021,0.06 0.0344,0.0358 0.0648,0.0371 0.11999,0.06 0.0605,0.0251 0.0761,0.1353 0.15209,0.11859 0.0656,-0.0145 0.0186,0.0448 0.0609,0.0939 0.0193,0.0224 0.0891,0.002 0.0224,0.0251 -0.0384,0.0133 0.0214,0.1518 0.0507,0.12975 0.0538,-0.0405 0.10796,0.006 0.12604,0.0874 0.0131,0.0583 0.003,0.10783 0.0693,0.1465 0.0718,0.0417 0.0586,0.11975 0.0623,0.19535 0.004,0.0798 -0.0417,0.17815 0.009,0.24323 0.037,0.0476 0.0428,0.0933 0.10277,0.15209 0.0393,0.0386 0.0825,-0.0336 0.1265,0.0707 0.0367,0.0869 0.20978,0.11384 0.17859,0.21207 -0.0217,0.0682 0.1107,-0.009 0.067,0.0716 -0.0285,0.0525 0.0245,0.0207 0.0554,0.0772 0.0209,0.0384 -0.0433,0.0731 0.0465,0.11673 0.0503,0.0245 0.0262,0.0124 0.0674,0.12046 0.0226,0.0591 -0.006,0.141 0.002,0.20884 0.008,0.0636 -0.0202,0.14214 0.0428,0.19207 0.0616,0.0489 -0.008,0.12197 0.0684,0.18743 0.0557,0.0477 -0.0407,0.204 0.0432,0.19674 0.0716,-0.006 0.0253,0.1168 0.0288,0.16371 0.004,0.0483 0.027,0.0371 0.0549,0.13347 0.0172,0.0594 0.006,0.13509 0.006,0.20093 0,0.28168 -0.0282,0.56519 0.004,0.84506 0.008,0.0726 -0.10213,0.0919 -0.066,0.17814 0.0304,0.0726 -0.0102,0.13994 -0.0754,0.17578 -0.0761,0.042 -0.0252,0.13054 -0.0358,0.19674 -0.0162,0.1018 -0.21496,0.11871 -0.18698,0.21115 0.0174,0.0573 -0.0784,0.01 -0.0605,0.06 0.0186,0.0524 -0.0131,0.0834 -0.0684,0.0577 -0.0573,-0.0267 -0.0157,0.0523 -0.0516,0.0623 -0.0515,0.0143 -0.0205,0.095 -0.12047,0.0605 -0.0595,-0.0205 -0.0807,0.0835 -0.12742,0.0623 -0.0798,-0.0361 -0.0937,0.0956 -0.17859,0.0623 -0.0696,-0.0272 -0.10216,0.0497 -0.17488,0.0558 -0.0478,0.004 -0.0972,1.1e-4 -0.14604,0 -0.42544,0 -0.85123,-0.003 -1.27666,-0.002 -0.087,1.7e-4 -0.21441,-0.0715 -0.26139,0.002 -0.0387,0.0604 -0.10258,0.0236 -0.1665,0.0558 -0.0498,0.0251 -0.0703,0.0763 -0.14975,0.0614 -0.0845,-0.0157 -0.0979,0.14495 -0.16464,0.12325 -0.065,-0.0212 -0.17767,0.12452 -0.13907,0.0833 0.0731,-0.0781 -0.0684,-0.0241 -0.0884,0.0195 -0.0291,0.0637 -0.093,0.0558 -0.14649,0.0851 -0.0789,0.0433 -0.1084,0.13959 -0.213,0.17024 -0.0925,0.0271 -0.1149,0.2242 -0.20186,0.18509 -0.0786,-0.0354 -0.11206,-0.006 -0.17348,0.0582 -0.0344,0.0358 -0.0785,0.0169 -0.11999,0.06 -0.0344,0.0357 -0.0808,0.0157 -0.12047,0.0605 -0.0339,0.0383 -0.1098,0.004 -0.11999,0.06 -0.005,0.0298 0.044,0.0417 -0.0171,0.0395 -0.0832,-0.003 -0.0428,-0.0138 -0.10325,0.0805 -0.0387,0.0604 -0.10259,0.0236 -0.16652,0.0558 -0.0498,0.0251 -0.0716,0.0816 -0.14976,0.0614 -0.073,-0.0188 -0.1188,-0.009 -0.16509,0.0633 -0.0387,0.0604 -0.10216,0.0236 -0.16605,0.0558 -0.0498,0.0251 -0.0696,0.0663 -0.15021,0.0614 -0.11206,-0.007 -0.13049,0.2136 -0.22464,0.18324 -0.0766,-0.0247 -0.10764,0.0598 -0.15488,0.10232 -0.0408,0.0367 -0.0794,0.0164 -0.13068,0.0637 -0.0257,0.0238 0.015,0.0593 -0.0122,0.009 -0.0267,-0.0491 -0.0925,0.0646 -0.13209,0.0679 -0.11708,0.01 -0.27796,-0.0941 -0.35206,-0.003 -0.0382,0.0471 -0.0789,0.0601 -0.14743,0.06 -0.11115,-1.2e-4 -0.27346,-0.0931 -0.33347,0 -0.0387,0.0604 -0.10237,0.0236 -0.16652,0.0553 -0.0479,0.0236 -0.15004,-0.002 -0.1344,0.0647 0.0131,0.0556 -0.0761,0.005 -0.06,0.06 0.0162,0.0548 -0.0757,0.0717 -0.06,0.12046 0.0247,0.0766 -0.06,0.10747 -0.10232,0.15488 -0.0471,0.0528 -0.0384,0.13371 -0.0145,0.19207 0.0387,0.0942 -0.0877,0.10618 -0.0609,0.20977 0.0188,0.073 0.009,0.11882 -0.0632,0.16511 -0.0605,0.0386 -0.0381,0.0967 -0.0554,0.16602 -0.0171,0.0686 -0.14823,0.0813 -0.12742,0.14883 0.0233,0.0756 -0.0496,0.13645 -0.10882,0.16045 -0.0329,0.0133 -0.14009,0.0179 -0.0768,0.0521 0.0608,0.0329 0.15366,0.002 0.22651,0.014 0.025,0.004 0.082,0.0152 0.12463,0.0265 0.006,-0.009 0.007,-0.01 0.0171,-0.027 0.0398,-0.0685 0.11251,-0.0652 0.18464,-0.0628 0.184,0.006 0.37223,-0.0327 0.55252,0.004 0.0756,0.0155 0.0873,-0.0619 0.18231,-0.0618 0.76681,0 1.53355,-0.005 2.30031,0 0.0693,0 0.1679,0.0558 0.20791,0 0.0374,-0.053 0.0827,-0.053 0.15487,-0.0507 0.0636,0.002 -0.008,-0.12004 0.0665,-0.0772 0.0711,0.0411 0.20095,-0.12059 0.15859,-0.0754 -0.0731,0.0781 0.0665,0.0233 0.0879,-0.0195 0.0331,-0.0664 0.10626,-0.11123 0.17629,-0.0754 0.0906,0.0465 0.11196,-0.098 0.19767,-0.0623 0.0849,0.0354 0.0941,-0.0612 0.19347,-0.0605 0.14609,0 0.30102,-0.0486 0.4381,0.002 0.0692,0.0255 0.0972,-0.0606 0.15674,-0.0637 0.14656,-0.008 0.29363,0.004 0.44043,0.002 0.10692,-0.002 0.2321,-0.0639 0.32045,-0.004 0.0509,0.0347 0.0858,0.0668 0.1665,0.0665 0.0622,-2.3e-4 0.12944,-0.0209 0.18511,0.0363 0.0521,0.0536 0.13993,0.0341 0.20463,0.0195 0.088,-0.0198 0.15475,0.0618 0.24,0.0619 0.15978,1.9e-4 0.33478,0.0659 0.4809,0 0.0592,-0.0267 0.015,0.0469 0.06,0.06 0.0371,0.0107 0.08,0 0.12047,0 0.58133,0 1.19753,0.19805 1.74407,0 0.0872,-0.0316 0.099,0.0598 0.20279,0.0637 0.0615,0.002 0.14895,-0.0387 0.18788,0.0265 0.0449,0.0752 0.15064,-0.019 0.20093,0.0265 0.0448,0.0407 0.0818,0.0675 0.1544,0.0665 0.1474,-0.002 0.31773,-0.0851 0.44232,-0.006 0.0507,0.032 0.0914,0.10139 0.16464,0.0642 0.0773,-0.0393 0.10851,0.0596 0.16976,0.0646 0.0736,0.006 0.17997,-0.0668 0.2209,-0.005 0.0386,0.0585 0.0991,0.0309 0.16605,0.0572 0.0808,0.0318 0.15385,0.0772 0.24974,0.0628 0.0659,-0.01 0.10423,0.0242 0.17674,0.0549 0.0629,0.0266 0.13599,0.0121 0.20138,0 0.0786,-0.0148 0.0964,0.10549 0.18603,0.0679 0.0669,-0.028 0.0966,0.0554 0.16278,0.0577 0.0875,0.003 0.178,-0.0129 0.26603,-0.003 0.0675,0.008 0.12387,0.006 0.1986,0.0502 0.0577,0.0339 0.13387,0.0152 0.19952,0.0145 0.29973,-0.003 0.90202,0.2983 0.89947,-0.002 0,-0.0318 -0.0188,-0.0642 0.0442,-0.0623 0.15254,0.005 0.30582,0.002 0.45858,0.002 1.18348,0 2.36701,0.006 3.55047,0 0.0921,0 0.229,-0.0787 0.27627,0 0.0393,0.0659 0.10937,0.0765 0.18045,0.0605 0.071,-0.016 0.10568,0.0427 0.18045,0.06 0.0791,0.0183 0.19674,-0.0681 0.24091,0 0.0356,0.0549 0.0858,0.0603 0.15024,0.06 0.1554,0 0.31501,0.0356 0.46601,0 0.0748,-0.0181 0.0865,0.068 0.17719,0.0651 0.23783,-0.008 0.47596,-0.004 0.71392,-0.004 0.37943,0 0.78352,-0.13388 1.13852,0 0.10173,0.0384 0.0662,-0.0983 0.0581,-0.15209 -0.007,-0.0468 0.0367,-0.0143 0.0558,-0.0851 0.0159,-0.0588 0.008,-0.13287 0.006,-0.19767 -0.002,-0.13573 0.11382,-0.33411 0,-0.4074 -0.0604,-0.0387 -0.0266,-0.10111 -0.0558,-0.1665 -0.0217,-0.0483 -0.0217,-0.078 -0.0642,-0.13395 -0.0326,-0.0429 -0.0753,-0.0776 -0.11488,-0.11487 -0.0407,-0.0384 -0.0616,-0.12839 -0.11672,-0.12046 -0.0959,0.0138 -0.151,-0.0778 -0.20139,-0.14743 -0.0449,-0.062 -0.0814,-0.0696 -0.15952,-0.093 -0.0632,-0.019 -0.10653,-0.008 -0.18047,-0.06 -0.0397,-0.0281 -0.0911,0.0461 -0.12509,-0.0521 -0.0136,-0.0389 -0.0569,-0.004 -0.0977,-0.0442 -0.07,-0.069 -0.23546,-0.11571 -0.20695,-0.20976 0.0171,-0.057 -0.0746,-0.009 -0.0605,-0.0605 0.0131,-0.0481 -0.0607,-0.0878 -0.0609,-0.12928 0,-0.097 0.0854,-0.24368 0,-0.29163 -0.0758,-0.0431 -0.0634,-0.12583 -0.0614,-0.20324 0.004,-0.15786 -0.0652,-0.33174 0.003,-0.47392 0.0412,-0.0856 -0.0687,5e-5 -0.0623,-0.0744 0.006,-0.0715 -0.11635,-0.0258 -0.16324,-0.0293 -0.0483,-0.004 -0.0376,-0.0268 -0.13394,-0.0549 -0.0593,-0.0174 -0.13509,-0.006 -0.20093,-0.006 -0.24158,0 -0.48437,0.0224 -0.72459,-0.003 -0.0717,-0.008 -0.084,0.0709 -0.1721,0.067 -0.18135,-0.008 -0.36909,0.0414 -0.54461,-0.005 -0.0758,-0.0198 -0.0849,0.06 -0.1786,0.0651 -0.0618,0.003 -0.15861,-0.0468 -0.19021,0.0172 -0.0354,0.0717 -0.12704,0.0572 -0.18557,0.0363 -0.072,-0.0258 -0.10006,0.059 -0.16093,0.066 -0.0969,0.0112 -0.24281,-0.0879 -0.2916,-0.003 -0.0397,0.0688 -0.11216,0.0662 -0.18465,0.0637 -0.193,-0.007 -0.38976,0.0365 -0.57902,-0.002 -0.0532,-0.0107 -0.0895,-0.007 -0.13861,-0.0623 -0.034,-0.0383 -0.0761,-0.0233 -0.12,-0.06 -0.0596,-0.05 -0.0464,-0.22003 -0.12742,-0.18231 -0.059,0.0274 -0.0121,-0.0662 -0.053,-0.0582 -0.0393,0.008 -0.0267,0.004 -0.0549,-0.0493 -0.0347,-0.0658 -0.20944,0.0542 -0.18324,-0.0498 0.0143,-0.0571 -0.0828,0.02 -0.0628,-0.0512 0.0193,-0.0681 -0.0636,-0.008 -0.1,-0.0642 -0.0326,-0.0504 -0.12235,-0.0217 -0.14045,-0.0865 -0.0143,-0.0514 -0.0898,-0.0186 -0.06,-0.11999 0.0162,-0.0547 -0.0712,-0.0705 -0.06,-0.12047 0.009,-0.0387 0.004,-0.0238 -0.047,-0.0563 -0.0545,-0.035 0.028,-0.13204 -0.0558,-0.17117 -0.0725,-0.0338 -0.0389,-0.10956 -0.0735,-0.17952 -0.0236,-0.0479 0.002,-0.14957 -0.0642,-0.1344 -0.0521,0.0119 -0.01,-0.0277 -0.0605,-0.06 -0.0604,-0.0387 -0.0262,-0.10115 -0.0553,-0.16649 -0.0214,-0.0483 -0.0119,-0.0873 -0.0647,-0.13395 -0.0383,-0.0339 -0.005,-0.13418 -0.0605,-0.12047 -0.0406,0.01 -0.0939,-0.002 -0.0637,-0.0572 0.0473,-0.0868 -0.0768,-0.0951 -0.053,-0.19905 0.0174,-0.0756 -0.0828,-0.083 -0.0605,-0.18045 0.0174,-0.0756 -0.0757,-0.0818 -0.06,-0.18048 0.0119,-0.0752 -0.0691,-0.0898 -0.0679,-0.18324 0,-0.0737 0.0673,-0.1818 0.005,-0.22183 -0.0604,-0.0387 -0.0152,-0.10761 -0.0558,-0.16652 -0.0344,-0.05 -0.0703,-0.0834 -0.0679,-0.1609 0.007,-0.22868 0.007,-0.45775 0.003,-0.68647 0,-0.0583 -0.0287,-0.12214 -0.004,-0.17488 0.0238,-0.0502 0.079,-0.0707 0.0609,-0.14976 -0.0174,-0.0756 0.0798,-0.0825 0.06,-0.18045 -0.0152,-0.0754 0.10529,-0.0953 0.0656,-0.18278 -0.0205,-0.0453 0.0169,-0.11664 0.0479,-0.15952 -0.009,-0.002 -0.0138,-0.0114 -0.003,-0.0349 0.0284,-0.0609 0.1133,-0.0969 0.073,-0.17859 -0.0364,-0.0738 0.0513,-0.10652 0.0628,-0.16464 0.0119,-0.0605 0.0892,-0.0574 0.0572,-0.16605 -0.0162,-0.0548 0.0611,-0.0693 0.0605,-0.12046 0,-0.0638 0,-0.11197 0.0498,-0.16743 -0.004,0.002 -0.008,0 -0.008,-0.007 -0.005,-0.0754 0.0742,-0.11356 0.12046,-0.16047 0.0387,-0.0392 0.0229,-0.0696 0.0656,-0.12928 0.0277,-0.0387 0.0245,-0.0622 0.06,-0.11999 0.0256,-0.0418 0.003,-0.0976 0.0642,-0.13023 0.0493,-0.0264 0.0188,-0.1519 0.0693,-0.12697 0.0347,0.0171 0.13218,-0.0583 0.0786,-0.0577 -0.0321,0 -0.0726,0.0131 -0.0279,-0.0265 0.063,-0.056 0.14602,-0.0171 0.19905,-0.0995 0.0424,-0.0659 0.11084,-0.077 0.17999,-0.12232 0.0545,-0.0357 0.0766,-0.13773 0.153,-0.12137 0.069,0.0148 0.10349,-0.0413 0.18976,-0.0479 0.0485,-0.004 0.0613,-0.0554 0.12047,-0.06 0.0485,-0.004 0.0638,-0.0422 0.12044,-0.06 0.0628,-0.0198 0.09,-0.0535 0.18045,-0.0605 0.0485,-0.004 0.0705,-0.0272 0.12,-0.06 0.0649,-0.043 0.17807,0.0538 0.21302,-0.027 0.0399,-0.0923 0.10987,-0.027 0.20046,-0.086 0.0592,-0.0386 0.0942,-0.0375 0.18788,-0.067 0.0627,-0.0198 0.0938,-0.0334 0.18045,-0.0605 0.0628,-0.0195 0.10487,-0.01 0.18047,-0.06 0.0649,-0.043 0.1776,0.0539 0.21253,-0.027 0.0399,-0.0923 0.11401,-0.0217 0.20093,-0.086 0.0557,-0.0412 0.11382,0.004 0.18138,-0.0581 0.0257,-0.0238 -0.0117,-0.061 0.0121,-0.009 0.021,0.0457 0.0848,-0.0639 0.12326,-0.0656 0.0637,-0.003 0.0925,-0.0297 0.17161,-0.0544 0.0627,-0.0195 0.1048,-0.01 0.18045,-0.06 0.0649,-0.0429 0.17398,0.0519 0.21301,-0.027 0.0354,-0.0716 0.12694,-0.0583 0.18512,-0.0363 0.0738,0.0279 0.10313,-0.0649 0.16371,-0.0651 0.11908,0 0.23843,0.005 0.35764,0.002 0.11346,-0.002 0.24491,0.0638 0.34044,0.003 0.0476,-0.0304 0.0751,-0.0627 0.14928,-0.0628 0.78682,0 1.57358,0.004 2.36035,0 0.0893,0 0.22341,-0.0764 0.26834,0 0.0417,0.0718 0.11975,0.0576 0.19533,0.0623 0.0791,0.005 0.21553,-0.0666 0.24232,0.0107 0.0354,0.10213 0.12418,0.0205 0.20045,0.0861 0.0609,0.0523 0.15805,0.0102 0.23256,0.0242 0.077,0.0143 0.17307,-0.0315 0.23672,0.0224 0.0217,0.0183 -0.004,0.0957 0.0321,0.0293 0.0264,-0.0487 0.0921,0.0627 0.13161,0.0684 0.0772,0.0112 0.19281,-0.0704 0.23207,-0.003 0.0417,0.0718 0.11983,0.058 0.19534,0.0628 0.079,0.005 0.20845,-0.0642 0.24231,0.0102 0.0343,0.0753 0.12307,0.0542 0.18836,0.0498 0.11204,-0.008 0.25856,0.0781 0.33626,-0.003 0.0344,-0.0357 0.0791,-0.0169 0.12046,-0.06 0.0344,-0.0358 0.0786,-0.0169 0.12,-0.06 0.0344,-0.0357 0.09,-0.009 0.12046,-0.06 0.0408,-0.0687 0.11237,-0.0721 0.18695,-0.0544 0.0813,0.0193 0.0937,-0.0958 0.18836,-0.0693 0.0684,0.019 0.10099,-0.028 0.16557,-0.0568 0.0651,-0.0289 0.16919,0.0547 0.20419,-0.0214 0.0417,-0.0905 0.12459,-0.0129 0.20184,-0.0842 0.0258,-0.0238 -0.0174,-0.0579 0.0121,-0.009 0.0259,0.0428 0.12316,-0.038 0.13628,-0.0832 0.0179,-0.0621 0.12206,-0.0167 0.11209,-0.0553 -0.0278,-0.10752 0.15125,-0.12604 0.16787,-0.21441 0.009,-0.0489 0.0706,-0.0622 0.0623,-0.12463 -0.009,-0.071 0.0486,-0.10926 0.1,-0.15629 0.0483,-0.0442 0.007,-0.12177 0.086,-0.15302 0.0876,-0.0345 0.0268,-0.13375 0.0651,-0.18973 0.0388,-0.0568 0.15314,-0.0861 0.11535,-0.17117 -0.0381,-0.0857 0.0803,-0.0933 0.0567,-0.19626 -0.0174,-0.0756 0.079,-0.0823 0.06,-0.18045 -0.0143,-0.0736 0.0684,-0.0857 0.067,-0.17348 -0.003,-0.19452 -0.0748,-0.40409 0,-0.58369 0.0344,-0.0825 -0.0355,-0.0996 -0.0609,-0.17488 -0.0167,-0.0493 -0.0342,-0.0691 -0.0628,-0.13439 -0.0379,-0.0866 -0.18386,-0.10866 -0.18045,-0.2107 0.002,-0.0669 -0.0675,-0.11837 -0.12,-0.15023 -0.0424,-0.0257 -0.0857,0.0322 -0.10884,-0.0381 -0.0181,-0.0551 -0.0102,-0.11221 -0.0749,-0.15209 -0.0689,-0.0426 -0.0646,-0.12633 -0.11768,-0.19534 -0.0326,-0.0424 -0.13973,-0.007 -0.12323,-0.0414 0.0264,-0.0553 -0.0136,-0.0358 -0.0568,-0.054 -0.0869,-0.0366 -0.11341,-0.20986 -0.21162,-0.1786 -0.0676,0.0214 0.0188,-0.0296 -0.0739,-0.0605 -0.0704,-0.0233 -0.11338,-0.0963 -0.16048,-0.15116 -0.0409,-0.0476 -0.14213,-0.0219 -0.15533,-0.0912 -0.015,-0.0791 0.0662,-0.19391 0,-0.24044 -0.0531,-0.0374 -0.0579,-0.0827 -0.0502,-0.15442 0.007,-0.0657 -0.0791,0.014 -0.0646,-0.0581 0.0133,-0.067 -0.12063,0.004 -0.073,-0.0688 0.0467,-0.0713 -0.074,-0.10154 -0.0549,-0.15395 0.0276,-0.0757 -0.0647,-0.086 -0.0614,-0.17812 0.006,-0.1613 0.0937,-0.35123 0.002,-0.48415 -0.0324,-0.0471 0.0941,-0.12328 0.073,-0.11349 -0.0776,0.0361 0.0582,-0.0751 0.0488,-0.11161 -0.0219,-0.0859 0.0679,-0.13749 0.12092,-0.18931 0.0771,-0.0753 0.24941,-0.11635 0.23441,-0.22277 -0.01,-0.0715 0.0428,-0.11592 0.0995,-0.15628 0.0517,-0.0368 0.0322,-0.0702 0.073,-0.13673 0.0256,-0.0418 0,-0.1043 0.0642,-0.13021 0.0625,-0.0252 0.0464,-0.0952 0.0781,-0.13582 0.0214,-0.0276 0.0698,0.0418 0.0381,-0.0451 -0.0219,-0.0604 0.0594,-0.11961 0.10744,-0.15347 0.0518,-0.0365 0.0579,0.003 0.086,-0.093 0.0107,-0.0371 9e-5,-0.08 0,-0.12044 0,-0.15336 0.0407,-0.31135 0.003,-0.45999 -0.0145,-0.0575 -0.0831,-0.0743 -0.0558,-0.16045 0.0267,-0.0842 -0.0485,0.0124 -0.066,-0.086 -0.009,-0.0497 0.002,-0.0862 -0.0581,-0.12931 -0.0256,-0.0186 -0.0508,0.0243 -0.0618,-0.0511 -0.0102,-0.07 -0.1408,-0.081 -0.12466,-0.14976 0.0195,-0.0833 -0.0766,-0.1344 -0.13021,-0.18233 -0.11982,-0.10721 -0.18249,-0.36317 -0.34137,-0.3395 -0.0746,0.0112 -0.11663,-0.0588 -0.17024,-0.10558 -0.0526,-0.0459 -0.0902,-0.13914 -0.16742,-0.13952 -0.10206,0 -0.14,-0.11773 -0.2107,-0.18048 -0.0355,-0.0315 0.006,0.0767 -0.0409,0.0229 -0.0602,-0.0687 -0.20681,-0.1041 -0.19395,-0.1944 0.011,-0.0774 -0.0546,-0.12611 -0.10744,-0.17671 -0.15878,-0.15228 -0.32011,-0.30323 -0.46646,-0.46742 -0.0443,-0.0497 -0.11921,-0.008 -0.15302,-0.0865 -0.0246,-0.0574 -0.10402,-0.0222 -0.1293,-0.0656 -0.0257,-0.0442 -0.11985,-0.006 -0.11161,-0.0549 0.009,-0.0542 -0.078,-0.20512 -0.06,-0.15625 0.024,0.0653 -0.0953,0.0814 -0.0642,0.0229 0.032,-0.0603 -0.0595,-0.0131 -0.0558,-0.047 0.004,-0.037 0.0162,-0.0521 -0.047,-0.0558 -0.0432,-0.003 0.0255,-0.0788 -0.0432,-0.0642 -0.0881,0.0188 -0.0753,0.0179 -0.0828,-0.11394 -0.003,-0.056 0.1058,0.037 0.14278,-0.0363 0.0274,-0.0543 0.0893,-0.0299 0.1372,-0.0302 0.0844,0 0.21098,0.0731 0.25349,0 0.0398,-0.0685 0.11294,-0.0649 0.18509,-0.0628 0.24839,0.007 0.49697,-0.007 0.74507,0.006 0.0646,0.004 0.0914,-0.0114 0.15254,-0.0642 0.0643,-0.0556 0.17669,-0.0956 0.18048,-0.18045 0.003,-0.0638 0.027,-0.0934 0.0544,-0.17162 0.0226,-0.0649 0.006,-0.13766 0.005,-0.20603 0,-0.19473 0.18935,-0.62938 0,-0.58414 -0.0522,0.0124 -0.0155,-0.0207 -0.06,-0.0605 -0.0382,-0.0339 -0.004,-0.13278 -0.06,-0.11999 -0.0521,0.0119 -0.0157,-0.0203 -0.0605,-0.06 -0.0383,-0.034 -0.0269,-0.0738 -0.06,-0.12047 -0.0447,-0.0629 -0.0398,0.0668 -0.066,0.0372 -0.0439,-0.0495 -0.0238,-0.12856 -0.0637,-0.16976 -0.057,-0.0588 -0.10173,-0.19854 -0.17812,-0.17023 -0.0792,0.0294 -0.10173,-0.0754 -0.15581,-0.10697 -0.0414,-0.0242 -0.0668,-0.0195 -0.12139,-0.0586 -0.0387,-0.0277 -0.0649,-0.0202 -0.11999,-0.06 -0.0386,-0.0279 -0.0636,-0.0229 -0.12045,-0.06 -0.0592,-0.0385 -0.11032,-0.007 -0.1879,-0.0674 -0.0508,-0.0394 -0.19808,0.0439 -0.18929,-0.0358 0.01,-0.0899 -0.0861,-0.005 -0.15257,-0.0628 -0.0224,-0.0195 0.0107,-0.0835 -0.0246,-0.0224 -0.0247,0.0427 -0.11737,-0.0441 -0.14323,-0.0818 -0.0378,-0.0551 -0.17734,-0.0303 -0.16048,-0.10373 0.0119,-0.0521 -0.0207,-0.015 -0.0605,-0.06 -0.0339,-0.0384 -0.13325,-0.005 -0.11999,-0.0605 0.0124,-0.0522 -0.021,-0.0155 -0.0605,-0.06 -0.034,-0.0383 -0.13332,-0.004 -0.11999,-0.06 0.024,-0.0999 -0.0914,-0.14651 -0.15347,-0.20323 -0.0489,-0.0447 -0.0703,-0.0677 -0.0814,-0.14883 -0.005,-0.0368 -0.0383,-0.15381 -0.0595,-0.0958 -0.0102,0.028 0.009,0.0917 -0.0302,0.0363 -0.0336,-0.0476 -3e-5,-0.11861 -0.0367,-0.1544 -0.0413,-0.0403 -0.10484,-0.0114 -0.14463,-0.0358 -0.0498,-0.0304 -0.009,-0.13478 -0.0479,-0.12463 -0.10742,0.0279 -0.12533,-0.16028 -0.21486,-0.1679 -0.0557,-0.005 -0.11607,-0.0126 -0.13952,-0.0768 -0.0301,-0.0822 -0.12549,-0.0198 -0.16093,-0.0935 -0.0294,-0.061 -0.088,-0.0588 -0.14463,-0.0837 -0.0336,-0.0148 -0.13088,-0.0309 -0.0409,-0.0549 0.0579,-0.0155 -0.0434,-0.007 -0.0619,-0.0563 -0.0133,-0.0352 -0.01,-0.0669 -0.0535,-0.10696 -0.0315,-0.0288 0.0188,-0.0405 -0.0595,-0.0726 -0.0378,-0.0155 0.006,-0.0746 -0.0525,-0.10094 -0.0492,-0.0219 0.0176,-0.0425 -0.0679,-0.0795 -0.0379,-0.0164 -0.0198,-0.0616 -0.04,-0.11256 -0.02,-0.0501 -0.0322,0.0205 -0.0726,-0.0326 -0.0388,-0.051 -0.0487,-0.0749 -0.0753,-0.15068 -0.0229,-0.0648 -0.006,-0.13816 -0.006,-0.2065 0,-0.13971 -0.0229,-0.28156 0.002,-0.41906 0.014,-0.079 -0.0732,-0.11694 -0.12137,-0.16509 -0.06,-0.0601 -0.0976,-0.20071 -0.18045,-0.18045 -0.10166,0.0249 -0.1443,-0.0943 -0.20324,-0.15349 -0.0474,-0.0476 -0.10049,-0.0242 -0.15861,-0.0818 -0.0788,-0.0783 -0.14233,-0.17369 -0.23068,-0.24046 -0.0512,-0.0387 -0.19755,0.044 -0.18928,-0.0353 0.009,-0.0904 -0.0992,0.007 -0.15721,-0.0689 -0.0341,-0.0449 -0.0645,-0.0277 -0.12697,-0.0684 -0.0592,-0.0385 -0.0946,-0.038 -0.18836,-0.0674 -0.0627,-0.0198 -0.10477,-0.0105 -0.18045,-0.0605 -0.0649,-0.0429 -0.17373,0.0525 -0.21255,-0.0265 -0.0347,-0.0707 -0.12192,-0.0452 -0.18278,-0.0377 -0.0452,0.006 -0.0126,-0.0343 -0.0907,-0.0554 -0.0589,-0.016 -0.13285,-0.007 -0.19767,-0.006 -0.30294,0.002 -0.60877,-0.0383 -0.90878,0.004 -0.0729,0.0102 -0.0809,-0.0823 -0.17581,-0.0605 -0.0757,0.0174 -0.0836,-0.085 -0.18045,-0.06 -0.073,0.0188 -0.11508,0.007 -0.16464,-0.0633 -0.0375,-0.053 -0.0846,-0.0341 -0.15487,-0.0507 -0.0746,-0.0176 -0.0426,-0.17035 -0.15952,-0.12927 -0.0742,0.026 -0.0884,-0.0226 -0.1665,-0.0605 -0.0631,-0.0306 -0.0898,-0.166 -0.16466,-0.12373 -0.0898,0.0507 -0.21727,0.0313 -0.19627,-0.0567 0.0124,-0.0522 -0.019,-0.0174 -0.0605,-0.0605 -0.0344,-0.0358 -0.0878,-0.01 -0.11999,-0.06 -0.0387,-0.0604 -0.10818,-0.0143 -0.1665,-0.0558 -0.0505,-0.036 -0.0856,-0.0673 -0.16604,-0.067 -0.0622,2.1e-4 -0.12775,0.0193 -0.18509,-0.0363 -0.0503,-0.0487 -0.13309,-0.0267 -0.19767,-0.0229 -0.1023,0.006 -0.21096,-0.0344 -0.30697,0.002 -0.0629,0.0236 -0.056,0.0547 -0.13533,0.06 -0.0708,0.005 -0.12256,0.0198 -0.20883,0.0475 -0.0663,0.0212 -0.17731,0.0392 -0.23067,-0.0162 -0.0518,-0.0538 -0.14493,-0.0912 -0.15302,-0.16557 -0.004,-0.0401 0.0275,-0.0719 -0.0316,-0.0944 -0.0501,-0.019 -0.0705,-0.0373 -0.13394,-0.066 -0.0317,-0.0143 -0.0386,0.0183 -0.067,-0.0507 -0.0252,-0.0613 -0.10585,-0.093 -0.13488,-0.1535 -0.0246,-0.0513 -0.12711,-0.0138 -0.11116,-0.0479 0.0207,-0.0443 -0.0176,-0.009 -0.0502,-0.0507 -0.019,-0.0248 0.0226,-0.0412 -0.0512,-0.0619 -0.05,-0.014 -0.0966,-0.002 -0.13535,-0.0619 -0.0387,-0.0604 -0.10684,-0.0164 -0.16649,-0.0558 -0.0503,-0.0333 -0.0923,-0.10239 -0.16464,-0.0642 -0.0833,0.044 -0.11359,-0.0717 -0.18045,-0.0674 -0.0669,0.004 -0.12811,0.0217 -0.19348,-0.04 -0.0604,-0.0569 -0.18712,0.0526 -0.21348,-0.026 -0.0266,-0.0794 -0.0794,-0.0457 -0.14745,-0.0944 -0.0387,-0.0277 -0.0636,-0.0231 -0.12044,-0.06 -0.0592,-0.0386 -0.0942,-0.038 -0.1879,-0.0674 -0.0627,-0.0198 -0.0939,-0.0329 -0.18046,-0.06 -0.0627,-0.0195 -0.0943,-0.0315 -0.18045,-0.06 -0.0787,-0.026 -0.1678,-0.0162 -0.24881,-0.002 -0.0715,0.0124 -0.10475,-0.0603 -0.18093,-0.0637 -0.0638,-0.003 -0.094,-0.0254 -0.17162,-0.0544 -0.069,-0.0258 -0.14959,-0.0217 -0.21905,-0.002 -0.0688,0.0202 -0.0963,-0.0628 -0.15673,-0.066 -0.14657,-0.008 -0.29363,0.002 -0.44044,0.002 -0.12361,5e-5 -0.25148,-0.0303 -0.37395,-0.0242 z m 4.1779,21.62379 c 0,0 0,0 0,0 0.014,-0.005 0.036,-0.0402 0.005,-0.008 -0.003,0.003 -0.004,0.005 -0.006,0.008 z m -0.30044,0.83206 c 0.01,0.002 0.0255,-0.007 0.0311,-0.021 0.0114,-0.0284 -0.009,-0.0102 -0.0311,0.021 z m -14.13915,7.36047 c -0.0231,0.0332 -0.0282,0.0362 0.0238,0.0312 0.0543,-0.005 0.0243,-0.0183 -0.0238,-0.0312 z m 51.04014,-29.62099 c -0.30018,-0.0718 -2.73751,1.59384 -3.88394,2.68172 -1.84261,1.74848 -1.99363,2.18017 -1.02739,2.94027 0.51559,0.4055 0.81272,0.95231 0.80972,1.49061 -0.006,1.03099 -0.2532,1.43409 -1.17853,1.92127 -0.63412,0.3338 -0.78105,0.25841 -1.42875,-0.73019 -0.84115,-1.2839 -1.48635,-1.52807 -2.76356,-1.04596 -1.19922,0.4527 -1.80753,-0.0301 -2.25799,-1.79247 -0.1845,-0.7218 -0.41703,-1.52683 -0.51671,-1.78872 -0.24134,-0.63401 -1.01098,2.94149 -1.0367,4.81598 -0.0303,2.2014 0.17619,2.53794 1.41527,2.30543 0.80887,-0.15168 1.19446,-0.0459 1.70919,0.46882 0.79162,0.7917 0.84249,1.53982 0.16976,2.50032 -0.40922,0.58419 -0.60698,0.6466 -1.14086,0.3609 -0.93042,-0.4979 -1.92045,-0.13587 -2.65006,0.96831 -0.77193,1.16831 -1.30805,1.19556 -3.33235,0.16976 l -1.56503,-0.79298 1.29573,2.0664 c 1.23387,1.96789 2.83148,3.64722 3.47003,3.64722 0.16281,0 0.74474,-0.4286 1.29295,-0.9525 1.21942,-1.16541 1.99137,-1.20629 2.68819,-0.14278 0.51585,0.78719 0.50335,0.83772 -0.45858,1.83011 -0.72347,0.7465 -0.93976,1.21096 -0.80412,1.72967 0.28191,1.07789 -0.6958,2.26935 -2.53427,3.08724 l -1.64037,0.72926 1.27016,0.27163 c 1.57012,0.33578 5.73495,0.35961 6.06009,0.0344 0.13166,-0.13162 0.26017,-0.83604 0.28558,-1.56503 0.0553,-1.5908 0.90769,-2.18844 2.24126,-1.58084 0.66834,0.30451 0.74811,0.46903 0.47391,0.98133 -0.53756,1.00451 -0.38976,1.54117 0.78182,2.83798 1.31728,1.45799 1.36526,2.00515 0.32556,3.69327 -0.42963,0.69754 -0.7861,1.39236 -0.79205,1.54595 0,0 0,0 0,0 0,0 0,0 0,0 -0.005,0.15148 0.16919,0.13985 0.38695,-0.026 0.21829,-0.16621 1.26804,-0.96093 2.33241,-1.76593 1.0644,-0.80501 2.18156,-1.83945 2.48265,-2.29893 0.53318,-0.8137 0.5262,-0.85513 -0.26835,-1.59153 -1.10066,-1.02001 -1.10533,-2.48743 -0.0102,-3.20493 0.76017,-0.4982 0.83139,-0.49401 1.25992,0.0721 0.24982,0.33002 0.45916,0.70376 0.46416,0.83065 0.005,0.12702 0.3394,0.44696 0.74183,0.71066 0.59702,0.3911 0.91375,0.41027 1.72081,0.10559 1.32269,-0.49921 1.85404,-0.0329 2.50124,2.19334 0.27632,0.9506 0.56986,1.66052 0.65206,1.57851 0.34323,-0.34321 1.03153,-5.36641 0.85577,-6.24521 -0.16762,-0.83798 -0.32387,-0.95481 -1.27714,-0.95481 -0.72968,0 -1.34133,-0.25544 -1.86499,-0.77902 -1.40003,-1.40001 -0.79472,-2.42905 1.37898,-2.34406 1.08797,0.0426 1.45594,-0.11501 2.24916,-0.96412 1.05204,-1.1254 1.65852,-1.12424 3.92254,0.01 l 1.18646,0.59439 -1.4469,-2.38311 c -2.16501,-3.56599 -3.37963,-4.1494 -4.88527,-2.34591 -0.63949,0.76662 -0.98772,0.94493 -1.51481,0.77764 -1.17829,-0.374 -1.20496,-1.35836 -0.0656,-2.42266 0.9204,-0.8598 1.00205,-1.08497 0.85763,-2.36636 -0.18981,-1.684 -0.0589,-1.82118 2.45938,-2.56868 l 1.905,-0.56555 -2.22218,-0.39764 c -4.65547,-0.83261 -6.03266,-0.44866 -6.03266,1.68175 0,1.0965 -0.0876,1.22606 -0.8925,1.31807 -1.27954,0.14669 -1.85911,-0.44929 -1.6292,-1.67478 0.15754,-0.83982 0,-1.2351 -0.94645,-2.36729 -1.34376,-1.60832 -1.40772,-2.33872 -0.34185,-3.90723 0.43655,-0.64249 0.79391,-1.24882 0.79391,-1.34781 0,-0.021 -0.0107,-0.0334 -0.0307,-0.0381 z m -79.39097,1.13669 c -1.39141,0 -3.20026,0.17064 -4.01976,0.37905 -1.34136,0.34109 -1.41082,0.40112 -0.69623,0.60321 0.43655,0.1235 1.43684,0.23965 2.22266,0.25766 2.74653,0.0642 5.46504,1.24144 4.44484,1.92452 -0.26194,0.17531 -0.97615,0.40346 -1.58734,0.50695 -1.97942,0.33521 -2.14408,0.45753 -1.27016,0.94414 1.14059,0.6352 2.87005,0.5635 4.57181,-0.18929 1.67878,-0.74261 2.43401,-0.61729 3.35746,0.55672 0.62249,0.79128 0.92888,3.26467 0.4051,3.27467 -0.13097,0.002 -0.64191,-0.46247 -1.13528,-1.03156 l -0.89669,-1.03482 0.15395,1.36131 c 0.20462,1.8082 1.37491,3.27189 3.37283,4.21789 1.78643,0.84589 1.83775,1.08196 0.7404,3.40256 -0.89314,1.8885 -1.49021,0.79241 -0.95807,-1.75848 0.23403,-1.1218 0.0334,-1.26285 -0.86368,-0.60695 -0.45184,0.33039 -0.63422,1.06234 -0.81856,3.28724 -0.13037,1.5742 -0.39543,3.15756 -0.58878,3.51887 -0.55253,1.03239 -1.94489,1.97615 -2.91565,1.97615 -0.87357,0 -1.885,-0.70164 -1.885,-1.30783 0,-0.40691 1.51262,-1.80049 2.18639,-2.0143 1.17436,-0.37269 3.44786,-5.43718 2.75284,-6.13217 -0.11689,-0.11692 -0.59752,0.026 -1.06784,0.31718 -2.75318,1.7045 -4.24177,2.22885 -5.72801,2.01894 -4.0536,-0.57259 -4.52056,-0.57733 -5.87268,-0.0609 -1.53517,0.58619 -3.17785,2.05188 -3.92999,3.5063 -0.66347,1.28309 -0.88752,4.7555 -0.41858,6.4889 0.72145,2.66679 3.35513,4.79748 6.83912,5.53267 v 0 c 2.08431,0.43979 9.10959,-0.4606 11.42164,-1.46411 l 1.59618,-0.69297 -2.46079,-0.1744 c -4.60172,-0.3264 -3.89127,-1.25854 1.672,-2.19382 4.42136,-0.74331 5.37162,-1.31207 6.69867,-4.00767 0.55516,-1.12769 0.94942,-2.1106 0.8762,-2.18358 -0.0732,-0.0732 -0.84415,0.33697 -1.71338,0.91156 -1.49416,0.98751 -3.61788,1.906 -3.85603,1.66781 -0.06,-0.0599 0.81894,-1.16331 1.95336,-2.4524 2.47924,-2.81721 3.09699,-4.01853 3.27422,-6.36754 0.17645,-2.33889 -0.53452,-4.71544 -2.16498,-7.23814 -1.39108,-2.1522 -2.02918,-2.40697 -1.0925,-0.43627 0.31423,0.66111 0.61751,1.9165 0.67392,2.78961 0.076,1.1762 0.0335,1.38201 -0.16419,0.79391 -1.85666,-5.52121 -6.82463,-8.89016 -13.10942,-8.89016 z m -5.43268,1.61756 c -0.5169,-0.008 -1.1118,0.17928 -1.81989,0.55904 -1.21189,0.64992 -3.17728,3.25894 -3.17842,4.21882 0,0.5684 0.0845,0.55423 1.19062,-0.20046 l 1.19063,-0.8125 0.10046,0.80088 c 0.12816,1.02239 0.48013,1.01563 1.15993,-0.0219 0.29678,-0.45292 1.1702,-1.10264 1.94127,-1.44364 1.57584,-0.69711 1.80844,-1.4537 0.76693,-2.49519 -0.39586,-0.39576 -0.83465,-0.5976 -1.35153,-0.6051 z m 3.35699,4.08534 c -0.32561,0.0409 0.12552,0.75767 1.35296,2.1608 1.10104,1.2587 1.66794,1.6613 2.33846,1.6613 1.80882,0 3.24173,-2.04723 2.17753,-3.11144 -0.5273,-0.5273 -1.88138,-0.47651 -2.70634,0.1014 -0.62596,0.43838 -0.78345,0.42403 -1.73757,-0.15769 -0.75474,-0.46015 -1.22968,-0.67889 -1.42504,-0.65437 z"
         style="fill:#000000;stroke-width:0.3175"
         inkscape:connector-curvature="0" />
      <path
         id="path7632"
         d="m 887.71371,39.545493 1.10321,1.42875 c 7.00845,9.07872 10.4424,18.266221 9.96915,26.67 -0.45577,8.093361 -3.66667,14.772251 -10.51145,21.862851 -5.51669,5.714841 -13.53927,11.284286 -21.12476,14.665156 -1.30969,0.58376 -2.45255,1.11969 -2.53984,1.19109 -0.0873,0.0714 1.05553,1.25486 2.53984,2.6296 1.4843,1.37475 2.78261,2.50283 2.88495,2.50683 0.36738,0.0145 6.85591,-4.56341 9.65614,-6.81261 18.87821,-15.163289 25.09592,-31.842245 18.2533,-48.964454 -1.81646,-4.54533 -5.37274,-10.090904 -8.71435,-13.589403 z m -83.52791,0.295796 c -0.39955,0.09535 -3.98948,4.483841 -5.52293,6.770284 -1.93317,2.882461 -4.26458,7.61495 -5.27828,10.71423 -5.88124,17.982031 2.82635,35.40607 25.53148,51.088507 1.64444,1.13585 3.13641,2.07095 3.31515,2.07895 0.17871,0.008 1.46459,-1.14588 2.8575,-2.5631 1.81894,-1.85071 2.3982,-2.624 2.05614,-2.74449 -1.78165,-0.6276 -9.54782,-4.88969 -12.48806,-6.853532 -11.67615,-7.798751 -18.74549,-16.867351 -20.71085,-26.566752 -0.79256,-3.911639 -0.50595,-10.279123 0.63579,-14.122393 1.49545,-5.03403 4.74495,-11.250959 8.18693,-15.66323 0.86284,-1.10604 1.51366,-2.066222 1.44596,-2.133823 -0.006,-0.0061 -0.016,-0.0077 -0.0288,-0.0046 z m 41.82768,17.372893 c -0.0925,-0.01526 -0.23701,0.173505 -0.34464,0.462762 -0.12299,0.33058 -3.12804,8.171379 -6.67772,17.423588 l -6.45402,16.822228 6.74794,6.753078 6.74751,6.753072 6.73401,-6.747957 6.73401,-6.74796 -6.64657,-17.271038 c -3.65565,-9.499101 -6.71765,-17.341638 -6.80426,-17.42824 -0.0107,-0.01083 -0.0231,-0.01736 -0.0363,-0.01953 z m 37.44794,53.610218 c -0.15585,0 -3.27322,2.99242 -6.92749,6.64983 l -6.64423,6.64982 6.64702,6.66285 c 3.65586,3.66446 6.71036,6.67277 6.78797,6.68517 0.2482,0.0397 21.25985,-13.14571 21.27544,-13.35081 0.0181,-0.2401 -20.73902,-13.29686 -21.13871,-13.29686 z m -37.42004,2.8575 -6.74936,6.74424 -6.74982,6.74424 6.74425,6.74935 6.74424,6.74982 6.74982,-6.74424 6.74935,-6.74424 -6.74423,-6.74935 z m -34.29511,0.0284 -24.44782,5.86243 c -13.44611,3.22424 -26.0188,6.24045 -27.93968,6.70285 -1.92089,0.46241 -3.34978,0.88819 -3.17516,0.94599 0.17464,0.0578 11.9618,2.89219 26.19375,6.29868 14.23194,3.40649 26.66207,6.38899 27.6225,6.62797 l 1.74641,0.43439 6.71819,-6.67215 c 3.69513,-3.66976 6.6354,-6.8292 6.53356,-7.02097 -0.10187,-0.1918 -3.12539,-3.23545 -6.71865,-6.76377 z m 48.63469,25.76959 c -0.0538,-0.002 -0.0863,0.002 -0.0958,0.0112 -0.0756,0.0756 0.97338,0.53131 2.33148,1.0125 4.6758,1.65657 8.25989,3.84173 10.63702,6.48564 5.31378,5.9102 3.68601,13.48831 -4.80715,22.38003 -1.90595,1.99543 -6.45164,5.98738 -8.25996,7.25398 -0.66218,0.46381 -0.85506,1.25735 -1.9608,8.07718 -0.67441,4.1596 -1.2281,7.75146 -1.2311,7.98184 -0.006,0.52286 3.62426,-2.4621 8.85341,-7.27956 12.44982,-11.46959 18.77411,-22.28349 17.50591,-29.93352 -1.1886,-7.16991 -8.04058,-12.52699 -19.57833,-15.30744 -1.6138,-0.38891 -3.01814,-0.66863 -3.39469,-0.68181 z m -14.35027,9.44454 -6.74053,6.74703 -6.74099,6.74703 6.66427,52.34192 c 3.66522,28.78813 6.68066,52.50555 6.70098,52.70514 0.098,0.96567 -0.47121,5.36163 9.63337,-74.40847 2.00182,-15.80356 3.7041,-29.17609 3.78302,-29.71679 0.13399,-0.91844 -0.29885,-1.42529 -6.57821,-7.69953 z m -12.54156,33.68027 -1.34643,0.58322 c -6.12944,2.6557 -14.33484,7.02574 -19.603,10.44029 -4.14931,2.68939 -4.7972,3.19195 -7.5093,5.82383 -3.14818,3.05502 -3.34811,4.48862 -0.94693,6.78936 2.85443,2.73503 9.107,5.34255 23.68925,9.87893 5.32214,1.65567 9.73946,3.07287 9.81616,3.14957 0.45531,0.45529 0.70006,-0.0194 0.54183,-1.0511 -0.10042,-0.65484 -0.33333,-2.47649 -0.51764,-4.04812 -0.18431,-1.57162 -0.39731,-3.15452 -0.47301,-3.51746 -0.1113,-0.53397 -1.12305,-1.01224 -5.30433,-2.50776 -7.42931,-2.65719 -11.04071,-4.477 -11.04071,-5.56384 0,-0.53616 3.81152,-2.89205 9.1027,-5.62617 l 5.22804,-2.7017 -0.17719,-1.15388 c -0.0974,-0.63471 -0.39474,-2.94012 -0.66042,-5.12294 -0.2657,-2.18281 -0.5539,-4.28439 -0.64089,-4.67041 z m 20.99824,33.63004 c -0.33176,0 -0.50135,0.87113 -1.04551,5.36897 -0.37743,3.11985 -0.36712,3.32524 0.18928,3.65141 4.32461,2.53514 5.89872,4.23019 5.89872,6.3517 0,1.08121 -0.20865,1.45522 -1.50829,2.70728 -0.82946,0.79912 -2.68652,2.06594 -4.12718,2.81518 -1.44066,0.74927 -2.62461,1.46245 -2.62961,1.58456 -0.005,0.12214 -0.21515,1.72203 -0.46601,3.55559 -0.25087,1.83356 -0.46149,3.44091 -0.46649,3.57187 -0.014,0.33331 -0.44168,0.45513 6.85028,-1.94686 13.20527,-4.34988 18.94249,-7.14462 20.81641,-10.13938 2.29031,-3.6602 -2.7305,-8.56462 -14.02427,-13.70009 -3.5865,-1.63087 -9.0237,-3.82023 -9.48733,-3.82023 z m -13.708,26.27234 c -0.82246,0.0503 -3.24757,0.79022 -8.60086,2.59473 -20.56048,6.93074 -23.845,10.59008 -14.91398,16.61667 4.46129,3.01047 9.26737,5.00891 20.83408,8.66225 3.4925,1.10309 6.47385,2.01556 6.62518,2.02825 0.25844,0.0214 -0.009,-3.77264 -0.32371,-4.59274 -0.13704,-0.35714 -3.92589,-1.52486 -13.28663,-4.09556 -5.01722,-1.37786 -7.9931,-2.79873 -8.81294,-4.20764 -0.53499,-0.91943 -0.54592,-1.09695 -0.1172,-1.92593 0.99605,-1.92622 5.43884,-4.15624 14.12843,-7.09213 4.69085,-1.58486 5.74608,-2.04804 5.62244,-2.46869 -0.0837,-0.28484 -0.24803,-1.53688 -0.36462,-2.78216 -0.11658,-1.24527 -0.32366,-2.44504 -0.46043,-2.66635 -0.0354,-0.0573 -0.13995,-0.0823 -0.32976,-0.0707 z m 6.85214,26.09702 -0.213,0.7967 c -0.11713,0.43805 -0.26168,1.45287 -0.32137,2.25521 l -0.10837,1.45851 2.7231,1.05435 c 3.69429,1.43022 5.5912,2.42359 7.48279,3.91885 1.91443,1.51326 2.65286,2.93522 2.65286,5.10804 0,0.8904 0.0652,1.61899 0.14511,1.61899 0.08,0 0.50859,-0.62008 0.9525,-1.3776 0.99974,-1.70593 1.07097,-3.84594 0.18557,-5.58151 -1.15345,-2.26093 -4.23301,-4.65777 -9.05806,-7.04981 z"
         style="fill:#000000;stroke-width:0.3175"
         inkscape:connector-curvature="0" />
    </g>
    <g
       id="g14793">
      <path
         inkscape:connector-curvature="0"
         style="fill:#000000;stroke-width:0.3175"
         d="m 840.47659,306.62501 c -0.007,-0.003 -0.0126,-0.002 -0.0167,0.002 -0.13255,0.13939 -1.75744,3.89679 -3.61093,8.34973 -2.14894,5.16276 -3.62605,8.29477 -4.07651,8.64458 -0.68552,0.53242 -0.6271,0.54878 1.97291,0.55578 l 2.67936,0.007 -0.69482,-0.64742 c -0.77132,-0.71851 -0.84201,-1.14766 -0.38558,-2.34822 0.27618,-0.7263 0.4839,-0.81436 1.91803,-0.81436 1.15431,0 1.87242,-0.19503 2.54403,-0.69159 0.51468,-0.3805 1.04394,-0.58386 1.17622,-0.4516 0.1323,0.13228 0.61562,1.2652 1.07435,2.51753 l 0.83436,2.27707 2.50125,0.087 2.50124,0.087 -0.83204,-0.72183 c -0.59533,-0.51659 -1.7606,-3.05174 -4.09651,-8.91295 -1.73929,-4.36426 -3.27384,-7.85296 -3.48862,-7.93997 z m 25.7175,0 c -0.007,-0.003 -0.0126,-0.002 -0.0167,0.002 -0.13255,0.13939 -1.75744,3.89679 -3.61093,8.34973 -2.14894,5.16276 -3.62605,8.29523 -4.07651,8.64506 -0.68552,0.53242 -0.6271,0.5483 1.97291,0.5553 l 2.67936,0.007 -0.69482,-0.64742 c -0.77132,-0.71851 -0.84201,-1.14766 -0.38558,-2.34822 0.27678,-0.72792 0.48273,-0.81436 1.9357,-0.81436 1.14481,0 1.90366,-0.19817 2.56589,-0.66973 0.51725,-0.36828 1.03892,-0.57121 1.159,-0.45113 0.12009,0.12007 0.59331,1.24287 1.05204,2.4952 l 0.83436,2.27707 2.50125,0.087 2.50124,0.087 -0.83204,-0.72183 c -0.59533,-0.51659 -1.7606,-3.05174 -4.09651,-8.91295 -1.73929,-4.36426 -3.27384,-7.85296 -3.48862,-7.93997 z m -49.03327,0.0972 1.0232,0.93435 1.02318,0.93483 v 7.18978 c 0,7.06819 -0.0121,7.20019 -0.71438,7.78605 -0.70925,0.59081 -0.69392,0.5969 2.14313,0.5939 2.70064,-0.002 2.81013,-0.0279 1.99244,-0.47158 -0.4758,-0.25822 -1.01158,-0.74312 -1.19063,-1.07761 -0.37154,-0.69437 -0.45329,-10.494 -0.0874,-10.491 0.13097,0 0.94326,1.03706 1.80501,2.30219 0.8618,1.26518 2.93363,4.22915 4.60391,6.58659 l 3.03703,4.28625 0.0837,-8.73112 c 0.0826,-8.61627 0.0928,-8.73852 0.79343,-9.2799 0.68759,-0.5313 0.61482,-0.54883 -2.3059,-0.55483 l -3.01657,-0.007 1.11157,0.55483 1.11109,0.55533 0.15859,3.65141 c 0.25122,5.77791 0.38643,5.77048 -3.39328,0.18138 l -3.34352,-4.94388 h -2.41751 z m 33.50586,0 -2.47286,0.003 h -2.47243 l 0.85066,0.71297 c 0.46784,0.39203 1.78958,2.60378 2.93703,4.91507 l 2.08593,4.20253 -0.003,3.25886 -0.003,3.25888 -1.18877,0.52509 h 0.003 c -1.18501,0.52318 -1.1752,0.52542 2.93841,0.54321 3.86179,0.0167 4.07041,-0.0133 3.23981,-0.4637 -1.1996,-0.65042 -1.4934,-1.5903 -1.4934,-4.7755 v -2.70077 l 2.12034,-4.18395 c 1.16626,-2.30129 2.21746,-4.22508 2.33615,-4.27508 0.11863,-0.0499 0.48632,-0.29544 0.81669,-0.54555 0.53688,-0.40638 0.31849,-0.45563 -2.0543,-0.46463 -2.60954,-0.01 -2.64224,0 -1.94546,0.56369 0.91211,0.73862 0.72109,1.67512 -0.95019,4.66159 l -1.24177,2.21894 -1.75153,-3.72723 z m -4.95831,25.01939 c -0.0408,0.002 -0.0812,0.008 -0.12045,0.021 -0.0565,0.0181 -0.0807,0.0677 -0.16045,0.0679 -0.0937,1.9e-4 -0.23319,-0.0854 -0.28139,-0.005 -0.0393,0.0659 -0.10937,0.076 -0.18045,0.06 -0.071,-0.016 -0.10444,0.0496 -0.18045,0.0605 -0.11613,0.0167 -0.26527,-0.0828 -0.35114,-0.003 -0.0474,0.0441 -0.0996,0.0969 -0.17254,0.0605 -0.0869,-0.0435 -0.10978,0.0897 -0.18698,0.0674 -0.0915,-0.0263 -0.16278,0.0369 -0.2516,0.0549 -0.0795,0.0162 -0.19898,-0.0698 -0.24046,0 -0.0408,0.0687 -0.11192,0.0701 -0.18695,0.0544 -0.0818,-0.0172 -0.0942,0.0761 -0.19303,0.067 -0.0448,-0.004 -0.0283,0.002 -0.0977,0.053 -0.0489,0.0357 -0.10118,-0.01 -0.16745,0.053 -0.0603,0.057 -0.17821,-0.0491 -0.21348,0.026 -0.0403,0.0858 -0.15131,0.006 -0.21346,0.0442 -0.0303,0.0183 0.014,0.0757 -0.0461,0.0912 -0.046,0.0119 0.015,-0.0976 -0.0488,-0.0372 -0.0557,0.0526 -0.0332,0.10592 -0.0828,0.17302 -0.0412,0.0557 0.004,0.1138 -0.0586,0.18138 -0.0238,0.0257 -0.0585,-0.0162 -0.009,0.0126 0.0517,0.0301 -0.0805,0.0979 -0.0679,0.13768 0.0229,0.0721 -0.0601,0.11497 -0.10418,0.15674 -0.225,0.21298 -0.4176,0.46191 -0.6623,0.65203 -0.0534,0.0415 -0.0294,0.11416 -0.0735,0.16371 -0.0516,0.0581 -0.11802,0.0219 -0.17626,0.0847 -0.0799,0.086 -0.15555,0.17745 -0.24882,0.24881 -0.0412,0.0315 -0.026,0.0807 -0.0558,0.1228 -0.0446,0.0629 -0.0404,-0.0672 -0.0661,-0.0372 -0.0403,0.047 -0.0102,0.17562 -0.06,0.16138 -0.10529,-0.0301 -0.14366,0.10463 -0.20928,0.16 -0.0412,0.0348 -0.0706,0.0217 -0.12931,0.0637 -0.0387,0.0277 -0.0631,0.0229 -0.11999,0.06 -0.0592,0.0386 -0.0964,0.0331 -0.18835,0.0674 -0.069,0.0258 -0.15069,0.0257 -0.21905,0.002 -0.0774,-0.027 -0.10749,0.0635 -0.17024,0.0697 -0.0659,0.006 -0.12985,-0.0265 -0.19719,0.033 -0.0583,0.0516 -0.1525,0.0112 -0.22465,0.0238 -0.0788,0.0136 -0.20672,-0.0549 -0.24322,0.019 -0.0354,0.0716 -0.12697,0.0583 -0.18512,0.0363 -0.0738,-0.0279 -0.10361,0.0649 -0.16416,0.0651 -0.11911,0 -0.23844,-0.002 -0.35767,-0.002 -0.60931,0 -1.2185,0.004 -1.8278,0 -0.0693,0 -0.15973,-0.049 -0.20788,0 -0.0344,0.0357 -0.0883,0.01 -0.12047,0.06 -0.0387,0.0604 -0.0971,0.0385 -0.16649,0.0558 -0.0686,0.0171 -0.0827,0.15297 -0.14835,0.12696 -0.077,-0.0304 -0.0829,0.08 -0.18186,0.0544 -0.073,-0.0188 -0.1052,0.002 -0.16464,0.0633 -0.0344,0.0357 -0.0791,0.0174 -0.12047,0.0605 -0.0344,0.0358 -0.0791,0.0169 -0.12044,0.06 -0.0344,0.0358 -0.0786,0.0169 -0.12002,0.06 -0.0343,0.0358 -0.079,0.0169 -0.12044,0.06 -0.0344,0.0357 -0.0786,0.0174 -0.11999,0.0605 -0.0344,0.0358 -0.0655,0.0364 -0.12047,0.06 -0.0604,0.0259 -0.0748,0.1308 -0.15021,0.12046 -0.0754,-0.0102 -0.0866,0.13624 -0.15023,0.12 -0.0859,-0.0219 -0.13854,0.0669 -0.18929,0.12092 -0.0981,0.10432 -0.17526,0.239 -0.30277,0.30415 -0.0768,0.0393 -0.0369,0.1099 -0.0953,0.17024 -0.0637,0.0658 -0.22374,0.1048 -0.19674,0.19348 0.0249,0.0817 -0.0724,0.12322 -0.11813,0.17347 -0.0457,0.0502 -0.0588,0.11156 -0.11766,0.17347 -0.042,0.0443 -0.0487,0.0805 -0.0577,0.15814 -0.007,0.0617 -0.0685,0.0779 -0.0684,0.15812 0,0.14673 -0.0124,0.29368 0,0.43998 0.008,0.10397 0.21408,0.1209 0.18419,0.21255 -0.0248,0.0761 0.0552,0.11056 0.0977,0.15812 0.045,0.0503 0.15866,0.0778 0.1428,0.14278 -0.0249,0.10168 0.0918,0.1469 0.15347,0.20326 0.0489,0.0447 0.057,0.0707 0.0814,0.14883 0.0195,0.0628 0.0282,0.0952 0.0605,0.17997 0.019,0.0501 0.0272,0.2432 0.0591,0.15581 0.0102,-0.028 -0.0107,-0.0896 0.0307,-0.0358 0.0376,0.0488 0.0363,0.10523 0.0358,0.16419 -0.002,0.22036 0.0124,0.44077 0.003,0.66089 -0.003,0.0599 0.0112,0.16486 -0.0628,0.1465 -0.0396,-0.01 -0.0941,0.002 -0.0637,0.0572 0.0473,0.0869 -0.0773,0.0951 -0.0535,0.19908 0.0174,0.0756 -0.085,0.0836 -0.06,0.18045 0.0188,0.073 0.009,0.11835 -0.0633,0.16464 -0.0604,0.0387 -0.0319,0.0986 -0.0558,0.16604 -0.0117,0.0329 -0.0274,0.16157 -0.0646,0.0665 -0.0238,-0.0607 -0.0599,0.0239 -0.06,0.0767 -1.2e-4,0.07 -0.004,0.13771 -0.0238,0.20698 -0.008,0.0289 -0.0172,0.0582 -0.0242,0.0874 -0.16436,0.0795 -0.41027,0.0758 -0.493,0.2386 -0.0278,0.0547 -0.10715,0.0188 -0.1293,0.0656 -0.0254,0.0537 -0.10253,0.015 -0.11999,0.0605 -0.0329,0.0857 -0.11894,0.0322 -0.17069,0.10511 -0.0475,0.067 -0.15204,0.0548 -0.19021,0.13535 -0.0254,0.0537 -0.10094,0.0155 -0.12044,0.06 -0.0333,0.0759 -0.11857,0.0181 -0.17117,0.0544 -0.0942,0.0649 -0.13702,0.28883 -0.24091,0.24091 -0.0806,-0.0371 -0.0987,0.0145 -0.17347,0.0577 -0.077,0.0444 -0.14481,0.11039 -0.18512,0.18838 -0.0411,0.0794 -0.12533,0.0339 -0.17674,0.1037 -0.0392,0.0532 -0.13647,0.0923 -0.12604,0.16138 0.01,0.0626 0.019,0.15492 -0.06,0.15023 -0.0323,-0.002 -0.0475,-0.0186 -0.0586,0.0451 -0.009,0.0498 0.003,0.0884 -0.0581,0.12931 -0.027,0.0181 -0.0402,-0.0231 -0.06,0.0525 -0.01,0.0381 -0.0499,-0.0276 -0.0623,0.0586 -0.0102,0.07 -0.15216,0.0847 -0.12465,0.14976 0.0313,0.074 0.0181,0.12254 -0.0576,0.16557 -0.0759,0.043 -0.062,0.1263 -0.0614,0.20371 0.003,0.35564 0.003,0.71124 0.002,1.06692 0,0.0775 -0.0561,0.17926 0,0.23301 0.0358,0.0343 0.0169,0.0786 0.06,0.11999 0.0357,0.0344 0.0174,0.079 0.0605,0.12044 0.0357,0.0344 0.0169,0.0786 0.06,0.12002 0.0358,0.0344 0.036,0.0657 0.06,0.12044 0.0379,0.0866 0.19398,0.10949 0.18046,0.21069 -0.009,0.0652 0.0722,0.0726 0.0572,0.16603 -0.0121,0.0764 0.0628,0.0895 0.0665,0.18745 0.002,0.0615 -0.0374,0.1468 0.0265,0.18788 0.0756,0.0486 0.0991,0.0923 0.0847,0.20138 -0.009,0.071 0.0451,0.11337 0.1,0.15628 0.0669,0.0524 -0.0261,0.15509 0.0224,0.20417 0.0461,0.0467 0.0982,0.0997 0.0614,0.17207 -0.0427,0.0842 0.0668,0.10451 0.067,0.17859 0,0.14762 -0.0239,0.29694 0,0.44277 0.0138,0.0846 -0.0143,0.16426 -0.0944,0.20791 -0.0628,0.0342 -0.0339,0.13464 -0.0963,0.15952 -0.082,0.0327 -0.0176,0.20007 -0.0893,0.17069 -0.0877,-0.036 -0.17322,0.0527 -0.20651,0.13023 -0.0363,0.0843 -0.23912,0.0342 -0.18371,0.10463 0.0608,0.0772 -0.0202,0.0971 -0.0535,0.17952 -0.0357,0.0884 -0.21862,0.11152 -0.18512,0.20186 0.0285,0.0767 -0.10082,0.0946 -0.06,0.18371 0.0327,0.0713 -0.0574,0.10452 -0.0591,0.16881 -0.005,0.1926 0.002,0.38541 0.002,0.57812 0,0.40277 -0.0152,0.80577 -0.002,1.20829 0.002,0.0664 -0.0532,0.17315 0.007,0.20093 0.069,0.0318 0.0162,0.10561 0.047,0.15998 0.019,0.0334 0.0426,-0.024 0.0656,0.0567 0.0143,0.0499 0.0344,0.069 0.0619,0.13535 0.025,0.0605 0.13392,0.0754 0.11859,0.15162 -0.0133,0.0662 0.0545,0.015 0.10232,0.0642 0.0481,0.0496 0.16454,0.0865 0.14232,0.15162 -0.0275,0.0803 0.0643,0.11868 0.11114,0.16511 0.083,0.0822 0.2536,0.13195 0.24743,0.24882 -0.004,0.071 -0.0148,0.1554 0.0688,0.18697 0.0564,0.0214 0.0214,0.1344 0.0572,0.11721 0.0421,-0.0202 0.0351,0 0.0521,0.0497 0.0212,0.0632 0.15171,0.079 0.12509,0.14185 -0.0313,0.074 -0.006,0.10521 0.0572,0.1656 0.0358,0.0343 0.0174,0.079 0.0605,0.12044 0.0358,0.0344 0.0169,0.0791 0.06,0.12047 0.0357,0.0344 0.0169,0.0786 0.06,0.11999 0.0358,0.0344 0.0414,0.0638 0.0605,0.12044 0.0164,0.0486 0.0411,0.0331 0.0939,0.0507 0.071,0.0238 0.10883,0.0972 0.16141,0.14745 0.0572,0.0546 0.10106,0.19797 0.17254,0.16464 0.0586,-0.0273 0.0122,0.0488 0.053,0.0581 0.0605,0.0138 0.0878,0.0281 0.17161,0.0544 0.0627,0.0198 0.10483,0.01 0.18046,0.06 0.0649,0.0429 0.17411,-0.0522 0.21255,0.027 0.0393,0.0808 0.13885,0.003 0.19766,0.033 0.0554,0.0286 0.0847,0.0718 0.1665,0.0693 0.22867,-0.007 0.45775,-0.007 0.68647,-0.003 0.0983,0.002 0.20602,0.0458 0.29487,0.004 0.0502,-0.0238 0.0701,-0.0737 0.15023,-0.0609 0.0764,0.0121 0.0895,-0.0628 0.18743,-0.0665 0.0615,-0.002 0.14452,0.0358 0.18788,-0.0265 0.0428,-0.0615 0.13037,-0.0335 0.19443,-0.0321 0.2351,0.005 0.47037,0.008 0.70552,0.005 0.0665,0 0.0889,-0.10532 0.16975,-0.066 0.0767,0.0372 0.11419,-0.0814 0.17674,-0.0623 0.0684,0.0207 0.0968,-0.0729 0.1665,-0.0558 0.10172,0.0249 0.14911,-0.0898 0.20326,-0.1535 0.0593,-0.0698 0.15516,0.0133 0.21672,-0.0777 0.0453,-0.067 0.21938,-0.0626 0.18464,-0.13583 -0.0262,-0.0552 0.0133,-0.0357 0.0567,-0.0539 0.0869,-0.0366 0.11199,-0.20315 0.21207,-0.1786 0.0605,0.0148 0.0523,-0.17102 0.0823,-0.0888 0.0102,0.028 -0.0198,0.0815 0.0307,0.0363 0.071,-0.0635 -0.002,-0.16333 0.0633,-0.22186 0.0927,-0.0837 0.28768,-0.13828 0.26884,-0.26184 -0.0126,-0.0833 0.0632,-0.13709 0.11952,-0.18974 0.12247,-0.11456 0.24755,-0.2272 0.35626,-0.35488 0.0349,-0.041 0.14271,-0.008 0.12975,-0.0633 -0.0124,-0.0522 0.0112,-0.0265 0.0605,-0.0605 0.0942,-0.0649 0.12621,-0.23436 0.24046,-0.24045 0.16859,-0.009 0.33797,0 0.50694,0 0.0697,0 0.17924,-0.0664 0.20882,-0.004 0.014,0.0297 -0.0136,0.0882 0.0549,0.0716 0.0557,-0.0136 0.0332,0.0306 0.13164,0.053 0.0604,0.0138 0.0902,0.0214 0.17162,0.0544 0.0332,0.0136 0.0356,-0.0188 0.0646,0.0521 0.0155,0.038 0.0649,-0.002 0.10094,0.0526 0.0286,0.0427 0.18591,0.0471 0.11023,0.0749 -0.028,0.0102 -0.0825,-0.019 -0.0358,0.0302 0.0526,0.0556 0.13585,0.009 0.17626,0.0786 0.0291,0.0501 0.14785,0.0174 0.13349,0.0777 -0.01,0.0405 0.002,0.0951 0.0572,0.0642 0.0834,-0.0467 0.13423,-0.0202 0.18324,0.0563 0.0387,0.0604 0.10118,0.0267 0.16649,0.0558 0.0483,0.0217 0.0858,0.0136 0.13443,0.0642 0.0344,0.0358 0.0786,0.0174 0.11999,0.0605 0.0344,0.0358 0.0791,0.0169 0.12046,0.06 0.0343,0.0358 0.0656,0.0366 0.12045,0.06 0.0604,0.0258 0.0752,0.13366 0.15023,0.12045 0.0629,-0.0112 0.0938,0.002 0.15021,0.06 0.0344,0.0358 0.0648,0.0371 0.11999,0.06 0.0605,0.0251 0.0761,0.1353 0.15209,0.11859 0.0656,-0.0145 0.0186,0.0448 0.0609,0.0939 0.0193,0.0224 0.0891,0.002 0.0224,0.0251 -0.0384,0.0133 0.0214,0.1518 0.0507,0.12975 0.0538,-0.0405 0.10796,0.006 0.12604,0.0874 0.0131,0.0583 0.003,0.10783 0.0693,0.1465 0.0718,0.0417 0.0586,0.11975 0.0623,0.19535 0.004,0.0798 -0.0417,0.17815 0.009,0.24323 0.037,0.0476 0.0428,0.0933 0.10277,0.15209 0.0393,0.0386 0.0825,-0.0336 0.1265,0.0707 0.0367,0.0869 0.20978,0.11384 0.17859,0.21207 -0.0217,0.0682 0.1107,-0.009 0.067,0.0716 -0.0285,0.0525 0.0245,0.0207 0.0554,0.0772 0.0209,0.0384 -0.0433,0.0731 0.0465,0.11673 0.0503,0.0245 0.0262,0.0124 0.0674,0.12046 0.0226,0.0591 -0.006,0.141 0.002,0.20884 0.008,0.0636 -0.0202,0.14214 0.0428,0.19207 0.0616,0.0489 -0.008,0.12197 0.0684,0.18743 0.0557,0.0477 -0.0407,0.204 0.0432,0.19674 0.0716,-0.006 0.0253,0.1168 0.0288,0.16371 0.004,0.0483 0.027,0.0371 0.0549,0.13347 0.0172,0.0594 0.006,0.13509 0.006,0.20093 0,0.28168 -0.0282,0.56519 0.004,0.84506 0.008,0.0726 -0.10213,0.0919 -0.066,0.17814 0.0304,0.0726 -0.0102,0.13994 -0.0754,0.17578 -0.0761,0.042 -0.0252,0.13054 -0.0358,0.19674 -0.0162,0.1018 -0.21496,0.11871 -0.18698,0.21115 0.0174,0.0573 -0.0784,0.01 -0.0605,0.06 0.0186,0.0524 -0.0131,0.0834 -0.0684,0.0577 -0.0573,-0.0267 -0.0157,0.0523 -0.0516,0.0623 -0.0515,0.0143 -0.0205,0.095 -0.12047,0.0605 -0.0595,-0.0205 -0.0807,0.0835 -0.12742,0.0623 -0.0798,-0.0361 -0.0937,0.0956 -0.17859,0.0623 -0.0696,-0.0272 -0.10216,0.0497 -0.17488,0.0558 -0.0478,0.004 -0.0972,1.1e-4 -0.14604,0 -0.42544,0 -0.85123,-0.003 -1.27666,-0.002 -0.087,1.7e-4 -0.21441,-0.0715 -0.26139,0.002 -0.0387,0.0604 -0.10258,0.0236 -0.1665,0.0558 -0.0498,0.0251 -0.0703,0.0763 -0.14975,0.0614 -0.0845,-0.0157 -0.0979,0.14495 -0.16464,0.12325 -0.065,-0.0212 -0.17767,0.12452 -0.13907,0.0833 0.0731,-0.0781 -0.0684,-0.0241 -0.0884,0.0195 -0.0291,0.0637 -0.093,0.0558 -0.14649,0.0851 -0.0789,0.0433 -0.1084,0.13959 -0.213,0.17024 -0.0925,0.0271 -0.1149,0.2242 -0.20186,0.18509 -0.0786,-0.0354 -0.11206,-0.006 -0.17348,0.0582 -0.0344,0.0358 -0.0785,0.0169 -0.11999,0.06 -0.0344,0.0357 -0.0808,0.0157 -0.12047,0.0605 -0.0339,0.0383 -0.1098,0.004 -0.11999,0.06 -0.005,0.0298 0.044,0.0417 -0.0171,0.0395 -0.0832,-0.003 -0.0428,-0.0138 -0.10325,0.0805 -0.0387,0.0604 -0.10259,0.0236 -0.16652,0.0558 -0.0498,0.0251 -0.0716,0.0816 -0.14976,0.0614 -0.073,-0.0188 -0.1188,-0.009 -0.16509,0.0633 -0.0387,0.0604 -0.10216,0.0236 -0.16605,0.0558 -0.0498,0.0251 -0.0696,0.0663 -0.15021,0.0614 -0.11206,-0.007 -0.13049,0.2136 -0.22464,0.18324 -0.0766,-0.0247 -0.10764,0.0598 -0.15488,0.10232 -0.0408,0.0367 -0.0794,0.0164 -0.13068,0.0637 -0.0257,0.0238 0.015,0.0593 -0.0122,0.009 -0.0267,-0.0491 -0.0925,0.0646 -0.13209,0.0679 -0.11708,0.01 -0.27796,-0.0941 -0.35206,-0.003 -0.0382,0.0471 -0.0789,0.0601 -0.14743,0.06 -0.11115,-1.2e-4 -0.27346,-0.0931 -0.33347,0 -0.0387,0.0604 -0.10237,0.0236 -0.16652,0.0553 -0.0479,0.0236 -0.15004,-0.002 -0.1344,0.0647 0.0131,0.0556 -0.0761,0.005 -0.06,0.06 0.0162,0.0548 -0.0757,0.0717 -0.06,0.12046 0.0247,0.0766 -0.06,0.10747 -0.10232,0.15488 -0.0471,0.0528 -0.0384,0.13371 -0.0145,0.19207 0.0387,0.0942 -0.0877,0.10618 -0.0609,0.20977 0.0188,0.073 0.009,0.11882 -0.0632,0.16511 -0.0605,0.0386 -0.0381,0.0967 -0.0554,0.16602 -0.0171,0.0686 -0.14823,0.0813 -0.12742,0.14883 0.0233,0.0756 -0.0496,0.13645 -0.10882,0.16045 -0.0329,0.0133 -0.14009,0.0179 -0.0768,0.0521 0.0608,0.0329 0.15366,0.002 0.22651,0.014 0.025,0.004 0.082,0.0152 0.12463,0.0265 0.006,-0.009 0.007,-0.01 0.0171,-0.027 0.0398,-0.0685 0.11251,-0.0652 0.18464,-0.0628 0.184,0.006 0.37223,-0.0327 0.55252,0.004 0.0756,0.0155 0.0873,-0.0619 0.18231,-0.0618 0.76681,0 1.53355,-0.005 2.30031,0 0.0693,0 0.1679,0.0558 0.20791,0 0.0374,-0.053 0.0827,-0.053 0.15487,-0.0507 0.0636,0.002 -0.008,-0.12004 0.0665,-0.0772 0.0711,0.0411 0.20095,-0.12059 0.15859,-0.0754 -0.0731,0.0781 0.0665,0.0233 0.0879,-0.0195 0.0331,-0.0664 0.10626,-0.11123 0.17629,-0.0754 0.0906,0.0465 0.11196,-0.098 0.19767,-0.0623 0.0849,0.0354 0.0941,-0.0612 0.19347,-0.0605 0.14609,0 0.30102,-0.0486 0.4381,0.002 0.0692,0.0255 0.0972,-0.0606 0.15674,-0.0637 0.14656,-0.008 0.29363,0.004 0.44043,0.002 0.10692,-0.002 0.2321,-0.0639 0.32045,-0.004 0.0509,0.0347 0.0858,0.0668 0.1665,0.0665 0.0622,-2.3e-4 0.12944,-0.0209 0.18511,0.0363 0.0521,0.0536 0.13993,0.0341 0.20463,0.0195 0.088,-0.0198 0.15475,0.0618 0.24,0.0619 0.15978,1.9e-4 0.33478,0.0659 0.4809,0 0.0592,-0.0267 0.015,0.0469 0.06,0.06 0.0371,0.0107 0.08,0 0.12047,0 0.58133,0 1.19753,0.19805 1.74407,0 0.0872,-0.0316 0.099,0.0598 0.20279,0.0637 0.0615,0.002 0.14895,-0.0387 0.18788,0.0265 0.0449,0.0752 0.15064,-0.019 0.20093,0.0265 0.0448,0.0407 0.0818,0.0675 0.1544,0.0665 0.1474,-0.002 0.31773,-0.0851 0.44232,-0.006 0.0507,0.032 0.0914,0.10139 0.16464,0.0642 0.0773,-0.0393 0.10851,0.0596 0.16976,0.0646 0.0736,0.006 0.17997,-0.0668 0.2209,-0.005 0.0386,0.0585 0.0991,0.0309 0.16605,0.0572 0.0808,0.0318 0.15385,0.0772 0.24974,0.0628 0.0659,-0.01 0.10423,0.0242 0.17674,0.0549 0.0629,0.0266 0.13599,0.0121 0.20138,0 0.0786,-0.0148 0.0964,0.10549 0.18603,0.0679 0.0669,-0.028 0.0966,0.0554 0.16278,0.0577 0.0875,0.003 0.178,-0.0129 0.26603,-0.003 0.0675,0.008 0.12387,0.006 0.1986,0.0502 0.0577,0.0339 0.13387,0.0152 0.19952,0.0145 0.29973,-0.003 0.90202,0.2983 0.89947,-0.002 0,-0.0318 -0.0188,-0.0642 0.0442,-0.0623 0.15254,0.005 0.30582,0.002 0.45858,0.002 1.18348,0 2.36701,0.006 3.55047,0 0.0921,0 0.229,-0.0787 0.27627,0 0.0393,0.0659 0.10937,0.0765 0.18045,0.0605 0.071,-0.016 0.10568,0.0427 0.18045,0.06 0.0791,0.0183 0.19674,-0.0681 0.24091,0 0.0356,0.0549 0.0858,0.0603 0.15024,0.06 0.1554,0 0.31501,0.0356 0.46601,0 0.0748,-0.0181 0.0865,0.068 0.17719,0.0651 0.23783,-0.008 0.47596,-0.004 0.71392,-0.004 0.37943,0 0.78352,-0.13388 1.13852,0 0.10173,0.0384 0.0662,-0.0983 0.0581,-0.15209 -0.007,-0.0468 0.0367,-0.0143 0.0558,-0.0851 0.0159,-0.0588 0.008,-0.13287 0.006,-0.19767 -0.002,-0.13573 0.11382,-0.33411 0,-0.4074 -0.0604,-0.0387 -0.0266,-0.10111 -0.0558,-0.1665 -0.0217,-0.0483 -0.0217,-0.078 -0.0642,-0.13395 -0.0326,-0.0429 -0.0753,-0.0776 -0.11488,-0.11487 -0.0407,-0.0384 -0.0616,-0.12839 -0.11672,-0.12046 -0.0959,0.0138 -0.151,-0.0778 -0.20139,-0.14743 -0.0449,-0.062 -0.0814,-0.0696 -0.15952,-0.093 -0.0632,-0.019 -0.10653,-0.008 -0.18047,-0.06 -0.0397,-0.0281 -0.0911,0.0461 -0.12509,-0.0521 -0.0136,-0.0389 -0.0569,-0.004 -0.0977,-0.0442 -0.07,-0.069 -0.23546,-0.11571 -0.20695,-0.20976 0.0171,-0.057 -0.0746,-0.009 -0.0605,-0.0605 0.0131,-0.0481 -0.0607,-0.0878 -0.0609,-0.12928 0,-0.097 0.0854,-0.24368 0,-0.29163 -0.0758,-0.0431 -0.0634,-0.12583 -0.0614,-0.20324 0.004,-0.15786 -0.0652,-0.33174 0.003,-0.47392 0.0412,-0.0856 -0.0687,5e-5 -0.0623,-0.0744 0.006,-0.0715 -0.11635,-0.0258 -0.16324,-0.0293 -0.0483,-0.004 -0.0376,-0.0268 -0.13394,-0.0549 -0.0593,-0.0174 -0.13509,-0.006 -0.20093,-0.006 -0.24158,0 -0.48437,0.0224 -0.72459,-0.003 -0.0717,-0.008 -0.084,0.0709 -0.1721,0.067 -0.18135,-0.008 -0.36909,0.0414 -0.54461,-0.005 -0.0758,-0.0198 -0.0849,0.06 -0.1786,0.0651 -0.0618,0.003 -0.15861,-0.0468 -0.19021,0.0172 -0.0354,0.0717 -0.12704,0.0572 -0.18557,0.0363 -0.072,-0.0258 -0.10006,0.059 -0.16093,0.066 -0.0969,0.0112 -0.24281,-0.0879 -0.2916,-0.003 -0.0397,0.0688 -0.11216,0.0662 -0.18465,0.0637 -0.193,-0.007 -0.38976,0.0365 -0.57902,-0.002 -0.0532,-0.0107 -0.0895,-0.007 -0.13861,-0.0623 -0.034,-0.0383 -0.0761,-0.0233 -0.12,-0.06 -0.0596,-0.05 -0.0464,-0.22003 -0.12742,-0.18231 -0.059,0.0274 -0.0121,-0.0662 -0.053,-0.0582 -0.0393,0.008 -0.0267,0.004 -0.0549,-0.0493 -0.0347,-0.0658 -0.20944,0.0542 -0.18324,-0.0498 0.0143,-0.0571 -0.0828,0.02 -0.0628,-0.0512 0.0193,-0.0681 -0.0636,-0.008 -0.1,-0.0642 -0.0326,-0.0504 -0.12235,-0.0217 -0.14045,-0.0865 -0.0143,-0.0514 -0.0898,-0.0186 -0.06,-0.11999 0.0162,-0.0547 -0.0712,-0.0705 -0.06,-0.12047 0.009,-0.0387 0.004,-0.0238 -0.047,-0.0563 -0.0545,-0.035 0.028,-0.13204 -0.0558,-0.17117 -0.0725,-0.0338 -0.0389,-0.10956 -0.0735,-0.17952 -0.0236,-0.0479 0.002,-0.14957 -0.0642,-0.1344 -0.0521,0.0119 -0.01,-0.0277 -0.0605,-0.06 -0.0604,-0.0387 -0.0262,-0.10115 -0.0553,-0.16649 -0.0214,-0.0483 -0.0119,-0.0873 -0.0647,-0.13395 -0.0383,-0.0339 -0.005,-0.13418 -0.0605,-0.12047 -0.0406,0.01 -0.0939,-0.002 -0.0637,-0.0572 0.0473,-0.0868 -0.0768,-0.0951 -0.053,-0.19905 0.0174,-0.0756 -0.0828,-0.083 -0.0605,-0.18045 0.0174,-0.0756 -0.0757,-0.0818 -0.06,-0.18048 0.0119,-0.0752 -0.0691,-0.0898 -0.0679,-0.18324 0,-0.0737 0.0673,-0.1818 0.005,-0.22183 -0.0604,-0.0387 -0.0152,-0.10761 -0.0558,-0.16652 -0.0344,-0.05 -0.0703,-0.0834 -0.0679,-0.1609 0.007,-0.22868 0.007,-0.45775 0.003,-0.68647 0,-0.0583 -0.0287,-0.12214 -0.004,-0.17488 0.0238,-0.0502 0.079,-0.0707 0.0609,-0.14976 -0.0174,-0.0756 0.0798,-0.0825 0.06,-0.18045 -0.0152,-0.0754 0.10529,-0.0953 0.0656,-0.18278 -0.0205,-0.0453 0.0169,-0.11664 0.0479,-0.15952 -0.009,-0.002 -0.0138,-0.0114 -0.003,-0.0349 0.0284,-0.0609 0.1133,-0.0969 0.073,-0.17859 -0.0364,-0.0738 0.0513,-0.10652 0.0628,-0.16464 0.0119,-0.0605 0.0892,-0.0574 0.0572,-0.16605 -0.0162,-0.0548 0.0611,-0.0693 0.0605,-0.12046 0,-0.0638 0,-0.11197 0.0498,-0.16743 -0.004,0.002 -0.008,0 -0.008,-0.007 -0.005,-0.0754 0.0742,-0.11356 0.12046,-0.16047 0.0387,-0.0392 0.0229,-0.0696 0.0656,-0.12928 0.0277,-0.0387 0.0245,-0.0622 0.06,-0.11999 0.0256,-0.0418 0.003,-0.0976 0.0642,-0.13023 0.0493,-0.0264 0.0188,-0.1519 0.0693,-0.12697 0.0347,0.0171 0.13218,-0.0583 0.0786,-0.0577 -0.0321,0 -0.0726,0.0131 -0.0279,-0.0265 0.063,-0.056 0.14602,-0.0171 0.19905,-0.0995 0.0424,-0.0659 0.11084,-0.077 0.17999,-0.12232 0.0545,-0.0357 0.0766,-0.13773 0.153,-0.12137 0.069,0.0148 0.10349,-0.0413 0.18976,-0.0479 0.0485,-0.004 0.0613,-0.0554 0.12047,-0.06 0.0485,-0.004 0.0638,-0.0422 0.12044,-0.06 0.0628,-0.0198 0.09,-0.0535 0.18045,-0.0605 0.0485,-0.004 0.0705,-0.0272 0.12,-0.06 0.0649,-0.043 0.17807,0.0538 0.21302,-0.027 0.0399,-0.0923 0.10987,-0.027 0.20046,-0.086 0.0592,-0.0386 0.0942,-0.0375 0.18788,-0.067 0.0627,-0.0198 0.0938,-0.0334 0.18045,-0.0605 0.0628,-0.0195 0.10487,-0.01 0.18047,-0.06 0.0649,-0.043 0.1776,0.0539 0.21253,-0.027 0.0399,-0.0923 0.11401,-0.0217 0.20093,-0.086 0.0557,-0.0412 0.11382,0.004 0.18138,-0.0581 0.0257,-0.0238 -0.0117,-0.061 0.0121,-0.009 0.021,0.0457 0.0848,-0.0639 0.12326,-0.0656 0.0637,-0.003 0.0925,-0.0297 0.17161,-0.0544 0.0627,-0.0195 0.1048,-0.01 0.18045,-0.06 0.0649,-0.0429 0.17398,0.0519 0.21301,-0.027 0.0354,-0.0716 0.12694,-0.0583 0.18512,-0.0363 0.0738,0.0279 0.10313,-0.0649 0.16371,-0.0651 0.11908,0 0.23843,0.005 0.35764,0.002 0.11346,-0.002 0.24491,0.0638 0.34044,0.003 0.0476,-0.0304 0.0751,-0.0627 0.14928,-0.0628 0.78682,0 1.57358,0.004 2.36035,0 0.0893,0 0.22341,-0.0764 0.26834,0 0.0417,0.0718 0.11975,0.0576 0.19533,0.0623 0.0791,0.005 0.21553,-0.0666 0.24232,0.0107 0.0354,0.10213 0.12418,0.0205 0.20045,0.0861 0.0609,0.0523 0.15805,0.0102 0.23256,0.0242 0.077,0.0143 0.17307,-0.0315 0.23672,0.0224 0.0217,0.0183 -0.004,0.0957 0.0321,0.0293 0.0264,-0.0487 0.0921,0.0627 0.13161,0.0684 0.0772,0.0112 0.19281,-0.0704 0.23207,-0.003 0.0417,0.0718 0.11983,0.058 0.19534,0.0628 0.079,0.005 0.20845,-0.0642 0.24231,0.0102 0.0343,0.0753 0.12307,0.0542 0.18836,0.0498 0.11204,-0.008 0.25856,0.0781 0.33626,-0.003 0.0344,-0.0357 0.0791,-0.0169 0.12046,-0.06 0.0344,-0.0358 0.0786,-0.0169 0.12,-0.06 0.0344,-0.0357 0.09,-0.009 0.12046,-0.06 0.0408,-0.0687 0.11237,-0.0721 0.18695,-0.0544 0.0813,0.0193 0.0937,-0.0958 0.18836,-0.0693 0.0684,0.019 0.10099,-0.028 0.16557,-0.0568 0.0651,-0.0289 0.16919,0.0547 0.20419,-0.0214 0.0417,-0.0905 0.12459,-0.0129 0.20184,-0.0842 0.0258,-0.0238 -0.0174,-0.0579 0.0121,-0.009 0.0259,0.0428 0.12316,-0.038 0.13628,-0.0832 0.0179,-0.0621 0.12206,-0.0167 0.11209,-0.0553 -0.0278,-0.10752 0.15125,-0.12604 0.16787,-0.21441 0.009,-0.0489 0.0706,-0.0622 0.0623,-0.12463 -0.009,-0.071 0.0486,-0.10926 0.1,-0.15629 0.0483,-0.0442 0.007,-0.12177 0.086,-0.15302 0.0876,-0.0345 0.0268,-0.13375 0.0651,-0.18973 0.0388,-0.0568 0.15314,-0.0861 0.11535,-0.17117 -0.0381,-0.0857 0.0803,-0.0933 0.0567,-0.19626 -0.0174,-0.0756 0.079,-0.0823 0.06,-0.18045 -0.0143,-0.0736 0.0684,-0.0857 0.067,-0.17348 -0.003,-0.19452 -0.0748,-0.40409 0,-0.58369 0.0344,-0.0825 -0.0355,-0.0996 -0.0609,-0.17488 -0.0167,-0.0493 -0.0342,-0.0691 -0.0628,-0.13439 -0.0379,-0.0866 -0.18386,-0.10866 -0.18045,-0.2107 0.002,-0.0669 -0.0675,-0.11837 -0.12,-0.15023 -0.0424,-0.0257 -0.0857,0.0322 -0.10884,-0.0381 -0.0181,-0.0551 -0.0102,-0.11221 -0.0749,-0.15209 -0.0689,-0.0426 -0.0646,-0.12633 -0.11768,-0.19534 -0.0326,-0.0424 -0.13973,-0.007 -0.12323,-0.0414 0.0264,-0.0553 -0.0136,-0.0358 -0.0568,-0.054 -0.0869,-0.0366 -0.11341,-0.20986 -0.21162,-0.1786 -0.0676,0.0214 0.0188,-0.0296 -0.0739,-0.0605 -0.0704,-0.0233 -0.11338,-0.0963 -0.16048,-0.15116 -0.0409,-0.0476 -0.14213,-0.0219 -0.15533,-0.0912 -0.015,-0.0791 0.0662,-0.19391 0,-0.24044 -0.0531,-0.0374 -0.0579,-0.0827 -0.0502,-0.15442 0.007,-0.0657 -0.0791,0.014 -0.0646,-0.0581 0.0133,-0.067 -0.12063,0.004 -0.073,-0.0688 0.0467,-0.0713 -0.074,-0.10154 -0.0549,-0.15395 0.0276,-0.0757 -0.0647,-0.086 -0.0614,-0.17812 0.006,-0.1613 0.0937,-0.35123 0.002,-0.48415 -0.0324,-0.0471 0.0941,-0.12328 0.073,-0.11349 -0.0776,0.0361 0.0582,-0.0751 0.0488,-0.11161 -0.0219,-0.0859 0.0679,-0.13749 0.12092,-0.18931 0.0771,-0.0753 0.24941,-0.11635 0.23441,-0.22277 -0.01,-0.0715 0.0428,-0.11592 0.0995,-0.15628 0.0517,-0.0368 0.0322,-0.0702 0.073,-0.13673 0.0256,-0.0418 0,-0.1043 0.0642,-0.13021 0.0625,-0.0252 0.0464,-0.0952 0.0781,-0.13582 0.0214,-0.0276 0.0698,0.0418 0.0381,-0.0451 -0.0219,-0.0604 0.0594,-0.11961 0.10744,-0.15347 0.0518,-0.0365 0.0579,0.003 0.086,-0.093 0.0107,-0.0371 9e-5,-0.08 0,-0.12044 0,-0.15336 0.0407,-0.31135 0.003,-0.45999 -0.0145,-0.0575 -0.0831,-0.0743 -0.0558,-0.16045 0.0267,-0.0842 -0.0485,0.0124 -0.066,-0.086 -0.009,-0.0497 0.002,-0.0862 -0.0581,-0.12931 -0.0256,-0.0186 -0.0508,0.0243 -0.0618,-0.0511 -0.0102,-0.07 -0.1408,-0.081 -0.12466,-0.14976 0.0195,-0.0833 -0.0766,-0.1344 -0.13021,-0.18233 -0.11982,-0.10721 -0.18249,-0.36317 -0.34137,-0.3395 -0.0746,0.0112 -0.11663,-0.0588 -0.17024,-0.10558 -0.0526,-0.0459 -0.0902,-0.13914 -0.16742,-0.13952 -0.10206,0 -0.14,-0.11773 -0.2107,-0.18048 -0.0355,-0.0315 0.006,0.0767 -0.0409,0.0229 -0.0602,-0.0687 -0.20681,-0.1041 -0.19395,-0.1944 0.011,-0.0774 -0.0546,-0.12611 -0.10744,-0.17671 -0.15878,-0.15228 -0.32011,-0.30323 -0.46646,-0.46742 -0.0443,-0.0497 -0.11921,-0.008 -0.15302,-0.0865 -0.0246,-0.0574 -0.10402,-0.0222 -0.1293,-0.0656 -0.0257,-0.0442 -0.11985,-0.006 -0.11161,-0.0549 0.009,-0.0542 -0.078,-0.20512 -0.06,-0.15625 0.024,0.0653 -0.0953,0.0814 -0.0642,0.0229 0.032,-0.0603 -0.0595,-0.0131 -0.0558,-0.047 0.004,-0.037 0.0162,-0.0521 -0.047,-0.0558 -0.0432,-0.003 0.0255,-0.0788 -0.0432,-0.0642 -0.0881,0.0188 -0.0753,0.0179 -0.0828,-0.11394 -0.003,-0.056 0.1058,0.037 0.14278,-0.0363 0.0274,-0.0543 0.0893,-0.0299 0.1372,-0.0302 0.0844,0 0.21098,0.0731 0.25349,0 0.0398,-0.0685 0.11294,-0.0649 0.18509,-0.0628 0.24839,0.007 0.49697,-0.007 0.74507,0.006 0.0646,0.004 0.0914,-0.0114 0.15254,-0.0642 0.0643,-0.0556 0.17669,-0.0956 0.18048,-0.18045 0.003,-0.0638 0.027,-0.0934 0.0544,-0.17162 0.0226,-0.0649 0.006,-0.13766 0.005,-0.20603 0,-0.19473 0.18935,-0.62938 0,-0.58414 -0.0522,0.0124 -0.0155,-0.0207 -0.06,-0.0605 -0.0382,-0.0339 -0.004,-0.13278 -0.06,-0.11999 -0.0521,0.0119 -0.0157,-0.0203 -0.0605,-0.06 -0.0383,-0.034 -0.0269,-0.0738 -0.06,-0.12047 -0.0447,-0.0629 -0.0398,0.0668 -0.066,0.0372 -0.0439,-0.0495 -0.0238,-0.12856 -0.0637,-0.16976 -0.057,-0.0588 -0.10173,-0.19854 -0.17812,-0.17023 -0.0792,0.0294 -0.10173,-0.0754 -0.15581,-0.10697 -0.0414,-0.0242 -0.0668,-0.0195 -0.12139,-0.0586 -0.0387,-0.0277 -0.0649,-0.0202 -0.11999,-0.06 -0.0386,-0.0279 -0.0636,-0.0229 -0.12045,-0.06 -0.0592,-0.0385 -0.11032,-0.007 -0.1879,-0.0674 -0.0508,-0.0394 -0.19808,0.0439 -0.18929,-0.0358 0.01,-0.0899 -0.0861,-0.005 -0.15257,-0.0628 -0.0224,-0.0195 0.0107,-0.0835 -0.0246,-0.0224 -0.0247,0.0427 -0.11737,-0.0441 -0.14323,-0.0818 -0.0378,-0.0551 -0.17734,-0.0303 -0.16048,-0.10373 0.0119,-0.0521 -0.0207,-0.015 -0.0605,-0.06 -0.0339,-0.0384 -0.13325,-0.005 -0.11999,-0.0605 0.0124,-0.0522 -0.021,-0.0155 -0.0605,-0.06 -0.034,-0.0383 -0.13332,-0.004 -0.11999,-0.06 0.024,-0.0999 -0.0914,-0.14651 -0.15347,-0.20323 -0.0489,-0.0447 -0.0703,-0.0677 -0.0814,-0.14883 -0.005,-0.0368 -0.0383,-0.15381 -0.0595,-0.0958 -0.0102,0.028 0.009,0.0917 -0.0302,0.0363 -0.0336,-0.0476 -3e-5,-0.11861 -0.0367,-0.1544 -0.0413,-0.0403 -0.10484,-0.0114 -0.14463,-0.0358 -0.0498,-0.0304 -0.009,-0.13478 -0.0479,-0.12463 -0.10742,0.0279 -0.12533,-0.16028 -0.21486,-0.1679 -0.0557,-0.005 -0.11607,-0.0126 -0.13952,-0.0768 -0.0301,-0.0822 -0.12549,-0.0198 -0.16093,-0.0935 -0.0294,-0.061 -0.088,-0.0588 -0.14463,-0.0837 -0.0336,-0.0148 -0.13088,-0.0309 -0.0409,-0.0549 0.0579,-0.0155 -0.0434,-0.007 -0.0619,-0.0563 -0.0133,-0.0352 -0.01,-0.0669 -0.0535,-0.10696 -0.0315,-0.0288 0.0188,-0.0405 -0.0595,-0.0726 -0.0378,-0.0155 0.006,-0.0746 -0.0525,-0.10094 -0.0492,-0.0219 0.0176,-0.0425 -0.0679,-0.0795 -0.0379,-0.0164 -0.0198,-0.0616 -0.04,-0.11256 -0.02,-0.0501 -0.0322,0.0205 -0.0726,-0.0326 -0.0388,-0.051 -0.0487,-0.0749 -0.0753,-0.15068 -0.0229,-0.0648 -0.006,-0.13816 -0.006,-0.2065 0,-0.13971 -0.0229,-0.28156 0.002,-0.41906 0.014,-0.079 -0.0732,-0.11694 -0.12137,-0.16509 -0.06,-0.0601 -0.0976,-0.20071 -0.18045,-0.18045 -0.10166,0.0249 -0.1443,-0.0943 -0.20324,-0.15349 -0.0474,-0.0476 -0.10049,-0.0242 -0.15861,-0.0818 -0.0788,-0.0783 -0.14233,-0.17369 -0.23068,-0.24046 -0.0512,-0.0387 -0.19755,0.044 -0.18928,-0.0353 0.009,-0.0904 -0.0992,0.007 -0.15721,-0.0689 -0.0341,-0.0449 -0.0645,-0.0277 -0.12697,-0.0684 -0.0592,-0.0385 -0.0946,-0.038 -0.18836,-0.0674 -0.0627,-0.0198 -0.10477,-0.0105 -0.18045,-0.0605 -0.0649,-0.0429 -0.17373,0.0525 -0.21255,-0.0265 -0.0347,-0.0707 -0.12192,-0.0452 -0.18278,-0.0377 -0.0452,0.006 -0.0126,-0.0343 -0.0907,-0.0554 -0.0589,-0.016 -0.13285,-0.007 -0.19767,-0.006 -0.30294,0.002 -0.60877,-0.0383 -0.90878,0.004 -0.0729,0.0102 -0.0809,-0.0823 -0.17581,-0.0605 -0.0757,0.0174 -0.0836,-0.085 -0.18045,-0.06 -0.073,0.0188 -0.11508,0.007 -0.16464,-0.0633 -0.0375,-0.053 -0.0846,-0.0341 -0.15487,-0.0507 -0.0746,-0.0176 -0.0426,-0.17035 -0.15952,-0.12927 -0.0742,0.026 -0.0884,-0.0226 -0.1665,-0.0605 -0.0631,-0.0306 -0.0898,-0.166 -0.16466,-0.12373 -0.0898,0.0507 -0.21727,0.0313 -0.19627,-0.0567 0.0124,-0.0522 -0.019,-0.0174 -0.0605,-0.0605 -0.0344,-0.0358 -0.0878,-0.01 -0.11999,-0.06 -0.0387,-0.0604 -0.10818,-0.0143 -0.1665,-0.0558 -0.0505,-0.036 -0.0856,-0.0673 -0.16604,-0.067 -0.0622,2.1e-4 -0.12775,0.0193 -0.18509,-0.0363 -0.0503,-0.0487 -0.13309,-0.0267 -0.19767,-0.0229 -0.1023,0.006 -0.21096,-0.0344 -0.30697,0.002 -0.0629,0.0236 -0.056,0.0547 -0.13533,0.06 -0.0708,0.005 -0.12256,0.0198 -0.20883,0.0475 -0.0663,0.0212 -0.17731,0.0392 -0.23067,-0.0162 -0.0518,-0.0538 -0.14493,-0.0912 -0.15302,-0.16557 -0.004,-0.0401 0.0275,-0.0719 -0.0316,-0.0944 -0.0501,-0.019 -0.0705,-0.0373 -0.13394,-0.066 -0.0317,-0.0143 -0.0386,0.0183 -0.067,-0.0507 -0.0252,-0.0613 -0.10585,-0.093 -0.13488,-0.1535 -0.0246,-0.0513 -0.12711,-0.0138 -0.11116,-0.0479 0.0207,-0.0443 -0.0176,-0.009 -0.0502,-0.0507 -0.019,-0.0248 0.0226,-0.0412 -0.0512,-0.0619 -0.05,-0.014 -0.0966,-0.002 -0.13535,-0.0619 -0.0387,-0.0604 -0.10684,-0.0164 -0.16649,-0.0558 -0.0503,-0.0333 -0.0923,-0.10239 -0.16464,-0.0642 -0.0833,0.044 -0.11359,-0.0717 -0.18045,-0.0674 -0.0669,0.004 -0.12811,0.0217 -0.19348,-0.04 -0.0604,-0.0569 -0.18712,0.0526 -0.21348,-0.026 -0.0266,-0.0794 -0.0794,-0.0457 -0.14745,-0.0944 -0.0387,-0.0277 -0.0636,-0.0231 -0.12044,-0.06 -0.0592,-0.0386 -0.0942,-0.038 -0.1879,-0.0674 -0.0627,-0.0198 -0.0939,-0.0329 -0.18046,-0.06 -0.0627,-0.0195 -0.0943,-0.0315 -0.18045,-0.06 -0.0787,-0.026 -0.1678,-0.0162 -0.24881,-0.002 -0.0715,0.0124 -0.10475,-0.0603 -0.18093,-0.0637 -0.0638,-0.003 -0.094,-0.0254 -0.17162,-0.0544 -0.069,-0.0258 -0.14959,-0.0217 -0.21905,-0.002 -0.0688,0.0202 -0.0963,-0.0628 -0.15673,-0.066 -0.14657,-0.008 -0.29363,0.002 -0.44044,0.002 -0.12361,5e-5 -0.25148,-0.0303 -0.37395,-0.0242 z m 4.1779,21.62379 c 0,0 0,0 0,0 0.014,-0.005 0.036,-0.0402 0.005,-0.008 -0.003,0.003 -0.004,0.005 -0.006,0.008 z m -0.30044,0.83206 c 0.01,0.002 0.0255,-0.007 0.0311,-0.021 0.0114,-0.0284 -0.009,-0.0102 -0.0311,0.021 z m -14.13915,7.36047 c -0.0231,0.0332 -0.0282,0.0362 0.0238,0.0312 0.0543,-0.005 0.0243,-0.0183 -0.0238,-0.0312 z m 51.04014,-29.62099 c -0.30018,-0.0718 -2.73751,1.59384 -3.88394,2.68172 -1.84261,1.74848 -1.99363,2.18017 -1.02739,2.94027 0.51559,0.4055 0.81272,0.95231 0.80972,1.49061 -0.006,1.03099 -0.2532,1.43409 -1.17853,1.92127 -0.63412,0.3338 -0.78105,0.25841 -1.42875,-0.73019 -0.84115,-1.2839 -1.48635,-1.52807 -2.76356,-1.04596 -1.19922,0.4527 -1.80753,-0.0301 -2.25799,-1.79247 -0.1845,-0.7218 -0.41703,-1.52683 -0.51671,-1.78872 -0.24134,-0.63401 -1.01098,2.94149 -1.0367,4.81598 -0.0303,2.2014 0.17619,2.53794 1.41527,2.30543 0.80887,-0.15168 1.19446,-0.0459 1.70919,0.46882 0.79162,0.7917 0.84249,1.53982 0.16976,2.50032 -0.40922,0.58419 -0.60698,0.6466 -1.14086,0.3609 -0.93042,-0.4979 -1.92045,-0.13587 -2.65006,0.96831 -0.77193,1.16831 -1.30805,1.19556 -3.33235,0.16976 l -1.56503,-0.79298 1.29573,2.0664 c 1.23387,1.96789 2.83148,3.64722 3.47003,3.64722 0.16281,0 0.74474,-0.4286 1.29295,-0.9525 1.21942,-1.16541 1.99137,-1.20629 2.68819,-0.14278 0.51585,0.78719 0.50335,0.83772 -0.45858,1.83011 -0.72347,0.7465 -0.93976,1.21096 -0.80412,1.72967 0.28191,1.07789 -0.6958,2.26935 -2.53427,3.08724 l -1.64037,0.72926 1.27016,0.27163 c 1.57012,0.33578 5.73495,0.35961 6.06009,0.0344 0.13166,-0.13162 0.26017,-0.83604 0.28558,-1.56503 0.0553,-1.5908 0.90769,-2.18844 2.24126,-1.58084 0.66834,0.30451 0.74811,0.46903 0.47391,0.98133 -0.53756,1.00451 -0.38976,1.54117 0.78182,2.83798 1.31728,1.45799 1.36526,2.00515 0.32556,3.69327 -0.42963,0.69754 -0.7861,1.39236 -0.79205,1.54595 0,0 0,0 0,0 0,0 0,0 0,0 -0.005,0.15148 0.16919,0.13985 0.38695,-0.026 0.21829,-0.16621 1.26804,-0.96093 2.33241,-1.76593 1.0644,-0.80501 2.18156,-1.83945 2.48265,-2.29893 0.53318,-0.8137 0.5262,-0.85513 -0.26835,-1.59153 -1.10066,-1.02001 -1.10533,-2.48743 -0.0102,-3.20493 0.76017,-0.4982 0.83139,-0.49401 1.25992,0.0721 0.24982,0.33002 0.45916,0.70376 0.46416,0.83065 0.005,0.12702 0.3394,0.44696 0.74183,0.71066 0.59702,0.3911 0.91375,0.41027 1.72081,0.10559 1.32269,-0.49921 1.85404,-0.0329 2.50124,2.19334 0.27632,0.9506 0.56986,1.66052 0.65206,1.57851 0.34323,-0.34321 1.03153,-5.36641 0.85577,-6.24521 -0.16762,-0.83798 -0.32387,-0.95481 -1.27714,-0.95481 -0.72968,0 -1.34133,-0.25544 -1.86499,-0.77902 -1.40003,-1.40001 -0.79472,-2.42905 1.37898,-2.34406 1.08797,0.0426 1.45594,-0.11501 2.24916,-0.96412 1.05204,-1.1254 1.65852,-1.12424 3.92254,0.01 l 1.18646,0.59439 -1.4469,-2.38311 c -2.16501,-3.56599 -3.37963,-4.1494 -4.88527,-2.34591 -0.63949,0.76662 -0.98772,0.94493 -1.51481,0.77764 -1.17829,-0.374 -1.20496,-1.35836 -0.0656,-2.42266 0.9204,-0.8598 1.00205,-1.08497 0.85763,-2.36636 -0.18981,-1.684 -0.0589,-1.82118 2.45938,-2.56868 l 1.905,-0.56555 -2.22218,-0.39764 c -4.65547,-0.83261 -6.03266,-0.44866 -6.03266,1.68175 0,1.0965 -0.0876,1.22606 -0.8925,1.31807 -1.27954,0.14669 -1.85911,-0.44929 -1.6292,-1.67478 0.15754,-0.83982 0,-1.2351 -0.94645,-2.36729 -1.34376,-1.60832 -1.40772,-2.33872 -0.34185,-3.90723 0.43655,-0.64249 0.79391,-1.24882 0.79391,-1.34781 0,-0.021 -0.0107,-0.0334 -0.0307,-0.0381 z m -79.39097,1.13669 c -1.39141,0 -3.20026,0.17064 -4.01976,0.37905 -1.34136,0.34109 -1.41082,0.40112 -0.69623,0.60321 0.43655,0.1235 1.43684,0.23965 2.22266,0.25766 2.74653,0.0642 5.46504,1.24144 4.44484,1.92452 -0.26194,0.17531 -0.97615,0.40346 -1.58734,0.50695 -1.97942,0.33521 -2.14408,0.45753 -1.27016,0.94414 1.14059,0.6352 2.87005,0.5635 4.57181,-0.18929 1.67878,-0.74261 2.43401,-0.61729 3.35746,0.55672 0.62249,0.79128 0.92888,3.26467 0.4051,3.27467 -0.13097,0.002 -0.64191,-0.46247 -1.13528,-1.03156 l -0.89669,-1.03482 0.15395,1.36131 c 0.20462,1.8082 1.37491,3.27189 3.37283,4.21789 1.78643,0.84589 1.83775,1.08196 0.7404,3.40256 -0.89314,1.8885 -1.49021,0.79241 -0.95807,-1.75848 0.23403,-1.1218 0.0334,-1.26285 -0.86368,-0.60695 -0.45184,0.33039 -0.63422,1.06234 -0.81856,3.28724 -0.13037,1.5742 -0.39543,3.15756 -0.58878,3.51887 -0.55253,1.03239 -1.94489,1.97615 -2.91565,1.97615 -0.87357,0 -1.885,-0.70164 -1.885,-1.30783 0,-0.40691 1.51262,-1.80049 2.18639,-2.0143 1.17436,-0.37269 3.44786,-5.43718 2.75284,-6.13217 -0.11689,-0.11692 -0.59752,0.026 -1.06784,0.31718 -2.75318,1.7045 -4.24177,2.22885 -5.72801,2.01894 -4.0536,-0.57259 -4.52056,-0.57733 -5.87268,-0.0609 -1.53517,0.58619 -3.17785,2.05188 -3.92999,3.5063 -0.66347,1.28309 -0.88752,4.7555 -0.41858,6.4889 0.72145,2.66679 3.35513,4.79748 6.83912,5.53267 v 0 c 2.08431,0.43979 9.10959,-0.4606 11.42164,-1.46411 l 1.59618,-0.69297 -2.46079,-0.1744 c -4.60172,-0.3264 -3.89127,-1.25854 1.672,-2.19382 4.42136,-0.74331 5.37162,-1.31207 6.69867,-4.00767 0.55516,-1.12769 0.94942,-2.1106 0.8762,-2.18358 -0.0732,-0.0732 -0.84415,0.33697 -1.71338,0.91156 -1.49416,0.98751 -3.61788,1.906 -3.85603,1.66781 -0.06,-0.0599 0.81894,-1.16331 1.95336,-2.4524 2.47924,-2.81721 3.09699,-4.01853 3.27422,-6.36754 0.17645,-2.33889 -0.53452,-4.71544 -2.16498,-7.23814 -1.39108,-2.1522 -2.02918,-2.40697 -1.0925,-0.43627 0.31423,0.66111 0.61751,1.9165 0.67392,2.78961 0.076,1.1762 0.0335,1.38201 -0.16419,0.79391 -1.85666,-5.52121 -6.82463,-8.89016 -13.10942,-8.89016 z m -5.43268,1.61756 c -0.5169,-0.008 -1.1118,0.17928 -1.81989,0.55904 -1.21189,0.64992 -3.17728,3.25894 -3.17842,4.21882 0,0.5684 0.0845,0.55423 1.19062,-0.20046 l 1.19063,-0.8125 0.10046,0.80088 c 0.12816,1.02239 0.48013,1.01563 1.15993,-0.0219 0.29678,-0.45292 1.1702,-1.10264 1.94127,-1.44364 1.57584,-0.69711 1.80844,-1.4537 0.76693,-2.49519 -0.39586,-0.39576 -0.83465,-0.5976 -1.35153,-0.6051 z m 3.35699,4.08534 c -0.32561,0.0409 0.12552,0.75767 1.35296,2.1608 1.10104,1.2587 1.66794,1.6613 2.33846,1.6613 1.80882,0 3.24173,-2.04723 2.17753,-3.11144 -0.5273,-0.5273 -1.88138,-0.47651 -2.70634,0.1014 -0.62596,0.43838 -0.78345,0.42403 -1.73757,-0.15769 -0.75474,-0.46015 -1.22968,-0.67889 -1.42504,-0.65437 z"
         id="path14789" />
      <path
         inkscape:connector-curvature="0"
         style="fill:#000000;stroke-width:0.3175"
         d="m 887.71371,39.545493 1.10321,1.42875 c 7.00845,9.07872 10.4424,18.266221 9.96915,26.67 -0.45577,8.093361 -3.66667,14.772251 -10.51145,21.862851 -5.51669,5.714841 -13.53927,11.284286 -21.12476,14.665156 -1.30969,0.58376 -2.45255,1.11969 -2.53984,1.19109 -0.0873,0.0714 1.05553,1.25486 2.53984,2.6296 1.4843,1.37475 2.78261,2.50283 2.88495,2.50683 0.36738,0.0145 6.85591,-4.56341 9.65614,-6.81261 18.87821,-15.163289 25.09592,-31.842245 18.2533,-48.964454 -1.81646,-4.54533 -5.37274,-10.090904 -8.71435,-13.589403 z m -83.52791,0.295796 c -0.39955,0.09535 -3.98948,4.483841 -5.52293,6.770284 -1.93317,2.882461 -4.26458,7.61495 -5.27828,10.71423 -5.88124,17.982031 2.82635,35.40607 25.53148,51.088507 1.64444,1.13585 3.13641,2.07095 3.31515,2.07895 0.17871,0.008 1.46459,-1.14588 2.8575,-2.5631 1.81894,-1.85071 2.3982,-2.624 2.05614,-2.74449 -1.78165,-0.6276 -9.54782,-4.88969 -12.48806,-6.853532 -11.67615,-7.798751 -18.74549,-16.867351 -20.71085,-26.566752 -0.79256,-3.911639 -0.50595,-10.279123 0.63579,-14.122393 1.49545,-5.03403 4.74495,-11.250959 8.18693,-15.66323 0.86284,-1.10604 1.51366,-2.066222 1.44596,-2.133823 -0.006,-0.0061 -0.016,-0.0077 -0.0288,-0.0046 z m 41.82768,17.372893 c -0.0925,-0.01526 -0.23701,0.173505 -0.34464,0.462762 -0.12299,0.33058 -3.12804,8.171379 -6.67772,17.423588 l -6.45402,16.822228 6.74794,6.753078 6.74751,6.753072 6.73401,-6.747957 6.73401,-6.74796 -6.64657,-17.271038 c -3.65565,-9.499101 -6.71765,-17.341638 -6.80426,-17.42824 -0.0107,-0.01083 -0.0231,-0.01736 -0.0363,-0.01953 z m 37.44794,53.610218 c -0.15585,0 -3.27322,2.99242 -6.92749,6.64983 l -6.64423,6.64982 6.64702,6.66285 c 3.65586,3.66446 6.71036,6.67277 6.78797,6.68517 0.2482,0.0397 21.25985,-13.14571 21.27544,-13.35081 0.0181,-0.2401 -20.73902,-13.29686 -21.13871,-13.29686 z m -37.42004,2.8575 -6.74936,6.74424 -6.74982,6.74424 6.74425,6.74935 6.74424,6.74982 6.74982,-6.74424 6.74935,-6.74424 -6.74423,-6.74935 z m -34.29511,0.0284 -24.44782,5.86243 c -13.44611,3.22424 -26.0188,6.24045 -27.93968,6.70285 -1.92089,0.46241 -3.34978,0.88819 -3.17516,0.94599 0.17464,0.0578 11.9618,2.89219 26.19375,6.29868 14.23194,3.40649 26.66207,6.38899 27.6225,6.62797 l 1.74641,0.43439 6.71819,-6.67215 c 3.69513,-3.66976 6.6354,-6.8292 6.53356,-7.02097 -0.10187,-0.1918 -3.12539,-3.23545 -6.71865,-6.76377 z m 48.63469,25.76959 c -0.0538,-0.002 -0.0863,0.002 -0.0958,0.0112 -0.0756,0.0756 0.97338,0.53131 2.33148,1.0125 4.6758,1.65657 8.25989,3.84173 10.63702,6.48564 5.31378,5.9102 3.68601,13.48831 -4.80715,22.38003 -1.90595,1.99543 -6.45164,5.98738 -8.25996,7.25398 -0.66218,0.46381 -0.85506,1.25735 -1.9608,8.07718 -0.67441,4.1596 -1.2281,7.75146 -1.2311,7.98184 -0.006,0.52286 3.62426,-2.4621 8.85341,-7.27956 12.44982,-11.46959 18.77411,-22.28349 17.50591,-29.93352 -1.1886,-7.16991 -8.04058,-12.52699 -19.57833,-15.30744 -1.6138,-0.38891 -3.01814,-0.66863 -3.39469,-0.68181 z m -14.35027,9.44454 -6.74053,6.74703 -6.74099,6.74703 6.66427,52.34192 c 3.66522,28.78813 6.68066,52.50555 6.70098,52.70514 0.098,0.96567 -0.47121,5.36163 9.63337,-74.40847 2.00182,-15.80356 3.7041,-29.17609 3.78302,-29.71679 0.13399,-0.91844 -0.29885,-1.42529 -6.57821,-7.69953 z m -12.54156,33.68027 -1.34643,0.58322 c -6.12944,2.6557 -14.33484,7.02574 -19.603,10.44029 -4.14931,2.68939 -4.7972,3.19195 -7.5093,5.82383 -3.14818,3.05502 -3.34811,4.48862 -0.94693,6.78936 2.85443,2.73503 9.107,5.34255 23.68925,9.87893 5.32214,1.65567 9.73946,3.07287 9.81616,3.14957 0.45531,0.45529 0.70006,-0.0194 0.54183,-1.0511 -0.10042,-0.65484 -0.33333,-2.47649 -0.51764,-4.04812 -0.18431,-1.57162 -0.39731,-3.15452 -0.47301,-3.51746 -0.1113,-0.53397 -1.12305,-1.01224 -5.30433,-2.50776 -7.42931,-2.65719 -11.04071,-4.477 -11.04071,-5.56384 0,-0.53616 3.81152,-2.89205 9.1027,-5.62617 l 5.22804,-2.7017 -0.17719,-1.15388 c -0.0974,-0.63471 -0.39474,-2.94012 -0.66042,-5.12294 -0.2657,-2.18281 -0.5539,-4.28439 -0.64089,-4.67041 z m 20.99824,33.63004 c -0.33176,0 -0.50135,0.87113 -1.04551,5.36897 -0.37743,3.11985 -0.36712,3.32524 0.18928,3.65141 4.32461,2.53514 5.89872,4.23019 5.89872,6.3517 0,1.08121 -0.20865,1.45522 -1.50829,2.70728 -0.82946,0.79912 -2.68652,2.06594 -4.12718,2.81518 -1.44066,0.74927 -2.62461,1.46245 -2.62961,1.58456 -0.005,0.12214 -0.21515,1.72203 -0.46601,3.55559 -0.25087,1.83356 -0.46149,3.44091 -0.46649,3.57187 -0.014,0.33331 -0.44168,0.45513 6.85028,-1.94686 13.20527,-4.34988 18.94249,-7.14462 20.81641,-10.13938 2.29031,-3.6602 -2.7305,-8.56462 -14.02427,-13.70009 -3.5865,-1.63087 -9.0237,-3.82023 -9.48733,-3.82023 z m -13.708,26.27234 c -0.82246,0.0503 -3.24757,0.79022 -8.60086,2.59473 -20.56048,6.93074 -23.845,10.59008 -14.91398,16.61667 4.46129,3.01047 9.26737,5.00891 20.83408,8.66225 3.4925,1.10309 6.47385,2.01556 6.62518,2.02825 0.25844,0.0214 -0.009,-3.77264 -0.32371,-4.59274 -0.13704,-0.35714 -3.92589,-1.52486 -13.28663,-4.09556 -5.01722,-1.37786 -7.9931,-2.79873 -8.81294,-4.20764 -0.53499,-0.91943 -0.54592,-1.09695 -0.1172,-1.92593 0.99605,-1.92622 5.43884,-4.15624 14.12843,-7.09213 4.69085,-1.58486 5.74608,-2.04804 5.62244,-2.46869 -0.0837,-0.28484 -0.24803,-1.53688 -0.36462,-2.78216 -0.11658,-1.24527 -0.32366,-2.44504 -0.46043,-2.66635 -0.0354,-0.0573 -0.13995,-0.0823 -0.32976,-0.0707 z m 6.85214,26.09702 -0.213,0.7967 c -0.11713,0.43805 -0.26168,1.45287 -0.32137,2.25521 l -0.10837,1.45851 2.7231,1.05435 c 3.69429,1.43022 5.5912,2.42359 7.48279,3.91885 1.91443,1.51326 2.65286,2.93522 2.65286,5.10804 0,0.8904 0.0652,1.61899 0.14511,1.61899 0.08,0 0.50859,-0.62008 0.9525,-1.3776 0.99974,-1.70593 1.07097,-3.84594 0.18557,-5.58151 -1.15345,-2.26093 -4.23301,-4.65777 -9.05806,-7.04981 z"
         id="path14791" />
    </g>
  </g>
</svg>
