<?xml version="1.0" encoding="UTF-8" standalone="no"?>
<!-- Created with Inkscape (http://www.inkscape.org/) -->

<svg
   xmlns:dc="http://purl.org/dc/elements/1.1/"
   xmlns:cc="http://creativecommons.org/ns#"
   xmlns:rdf="http://www.w3.org/1999/02/22-rdf-syntax-ns#"
   xmlns:svg="http://www.w3.org/2000/svg"
   xmlns="http://www.w3.org/2000/svg"
   xmlns:sodipodi="http://sodipodi.sourceforge.net/DTD/sodipodi-0.dtd"
   xmlns:inkscape="http://www.inkscape.org/namespaces/inkscape"
   width="210.24643mm"
   height="297.09778mm"
   viewBox="0 0 189.22179 267.38799"
   version="1.1"
   id="svg5768"
   inkscape:version="0.92.5 (2060ec1f9f, 2020-04-08)"
   sodipodi:docname="bant.svg">
  <defs
     id="defs5762">
    <inkscape:path-effect
       effect="simplify"
       id="path-effect4565"
       is_visible="true"
       steps="1"
       threshold="0.000408163"
       smooth_angles="360"
       helper_size="0"
       simplify_individual_paths="false"
       simplify_just_coalesce="false"
       simplifyindividualpaths="false"
       simplifyJustCoalesce="false" />
    <inkscape:path-effect
       effect="simplify"
       id="path-effect4543"
       is_visible="true"
       steps="1"
       threshold="0.000408163"
       smooth_angles="360"
       helper_size="0"
       simplify_individual_paths="false"
       simplify_just_coalesce="false"
       simplifyindividualpaths="false"
       simplifyJustCoalesce="false" />
    <inkscape:path-effect
       effect="simplify"
       id="path-effect8619"
       is_visible="true"
       steps="1"
       threshold="0.000408163"
       smooth_angles="360"
       helper_size="0"
       simplify_individual_paths="false"
       simplify_just_coalesce="false"
       simplifyindividualpaths="false"
       simplifyJustCoalesce="false" />
    <inkscape:path-effect
       effect="simplify"
       id="path-effect8615"
       is_visible="true"
       steps="1"
       threshold="0.000408163"
       smooth_angles="360"
       helper_size="0"
       simplify_individual_paths="false"
       simplify_just_coalesce="false"
       simplifyindividualpaths="false"
       simplifyJustCoalesce="false" />
    <inkscape:path-effect
       effect="simplify"
       id="path-effect8611"
       is_visible="true"
       steps="1"
       threshold="0.000408163"
       smooth_angles="360"
       helper_size="0"
       simplify_individual_paths="false"
       simplify_just_coalesce="false"
       simplifyindividualpaths="false"
       simplifyJustCoalesce="false" />
    <inkscape:path-effect
       effect="simplify"
       id="path-effect8607"
       is_visible="true"
       steps="1"
       threshold="0.000408163"
       smooth_angles="360"
       helper_size="0"
       simplify_individual_paths="false"
       simplify_just_coalesce="false"
       simplifyindividualpaths="false"
       simplifyJustCoalesce="false" />
    <inkscape:path-effect
       effect="simplify"
       id="path-effect8600"
       is_visible="true"
       steps="1"
       threshold="0.000408163"
       smooth_angles="360"
       helper_size="0"
       simplify_individual_paths="false"
       simplify_just_coalesce="false"
       simplifyindividualpaths="false"
       simplifyJustCoalesce="false" />
    <inkscape:path-effect
       effect="simplify"
       id="path-effect8584"
       is_visible="true"
       steps="1"
       threshold="0.000408163"
       smooth_angles="360"
       helper_size="0"
       simplify_individual_paths="false"
       simplify_just_coalesce="false"
       simplifyindividualpaths="false"
       simplifyJustCoalesce="false" />
    <inkscape:path-effect
       effect="simplify"
       id="path-effect8571"
       is_visible="true"
       steps="1"
       threshold="0.000408163"
       smooth_angles="360"
       helper_size="0"
       simplify_individual_paths="false"
       simplify_just_coalesce="false"
       simplifyindividualpaths="false"
       simplifyJustCoalesce="false" />
    <inkscape:path-effect
       effect="simplify"
       id="path-effect8556"
       is_visible="true"
       steps="1"
       threshold="0.000408163"
       smooth_angles="360"
       helper_size="0"
       simplify_individual_paths="false"
       simplify_just_coalesce="false"
       simplifyindividualpaths="false"
       simplifyJustCoalesce="false" />
    <inkscape:path-effect
       effect="simplify"
       id="path-effect8532"
       is_visible="true"
       steps="1"
       threshold="0.000408163"
       smooth_angles="360"
       helper_size="0"
       simplify_individual_paths="false"
       simplify_just_coalesce="false"
       simplifyindividualpaths="false"
       simplifyJustCoalesce="false" />
    <inkscape:path-effect
       effect="simplify"
       id="path-effect8528"
       is_visible="true"
       steps="1"
       threshold="0.000408163"
       smooth_angles="360"
       helper_size="0"
       simplify_individual_paths="false"
       simplify_just_coalesce="false"
       simplifyindividualpaths="false"
       simplifyJustCoalesce="false" />
    <inkscape:path-effect
       effect="simplify"
       id="path-effect8524"
       is_visible="true"
       steps="1"
       threshold="0.000408163"
       smooth_angles="360"
       helper_size="0"
       simplify_individual_paths="false"
       simplify_just_coalesce="false"
       simplifyindividualpaths="false"
       simplifyJustCoalesce="false" />
    <inkscape:path-effect
       effect="simplify"
       id="path-effect8449"
       is_visible="true"
       steps="1"
       threshold="0.000408163"
       smooth_angles="360"
       helper_size="0"
       simplify_individual_paths="false"
       simplify_just_coalesce="false"
       simplifyindividualpaths="false"
       simplifyJustCoalesce="false" />
    <inkscape:path-effect
       effect="simplify"
       id="path-effect8443"
       is_visible="true"
       steps="1"
       threshold="0.000408163"
       smooth_angles="360"
       helper_size="0"
       simplify_individual_paths="false"
       simplify_just_coalesce="false"
       simplifyindividualpaths="false"
       simplifyJustCoalesce="false" />
    <inkscape:path-effect
       effect="simplify"
       id="path-effect8434"
       is_visible="true"
       steps="1"
       threshold="0.000408163"
       smooth_angles="360"
       helper_size="0"
       simplify_individual_paths="false"
       simplify_just_coalesce="false"
       simplifyindividualpaths="false"
       simplifyJustCoalesce="false" />
    <inkscape:path-effect
       effect="simplify"
       id="path-effect8422"
       is_visible="true"
       steps="1"
       threshold="0.000408163"
       smooth_angles="360"
       helper_size="0"
       simplify_individual_paths="false"
       simplify_just_coalesce="false"
       simplifyindividualpaths="false"
       simplifyJustCoalesce="false" />
    <inkscape:path-effect
       effect="simplify"
       id="path-effect8418"
       is_visible="true"
       steps="1"
       threshold="0.000408163"
       smooth_angles="360"
       helper_size="0"
       simplify_individual_paths="false"
       simplify_just_coalesce="false"
       simplifyindividualpaths="false"
       simplifyJustCoalesce="false" />
    <inkscape:path-effect
       effect="simplify"
       id="path-effect8413"
       is_visible="true"
       steps="1"
       threshold="0.000408163"
       smooth_angles="360"
       helper_size="0"
       simplify_individual_paths="false"
       simplify_just_coalesce="false"
       simplifyindividualpaths="false"
       simplifyJustCoalesce="false" />
    <inkscape:path-effect
       effect="simplify"
       id="path-effect8391"
       is_visible="true"
       steps="1"
       threshold="0.000408163"
       smooth_angles="360"
       helper_size="0"
       simplify_individual_paths="false"
       simplify_just_coalesce="false"
       simplifyindividualpaths="false"
       simplifyJustCoalesce="false" />
    <inkscape:path-effect
       effect="simplify"
       id="path-effect8114"
       is_visible="true"
       steps="1"
       threshold="0.000408163"
       smooth_angles="360"
       helper_size="0"
       simplify_individual_paths="false"
       simplify_just_coalesce="false"
       simplifyindividualpaths="false"
       simplifyJustCoalesce="false" />
    <inkscape:path-effect
       effect="simplify"
       id="path-effect7808"
       is_visible="true"
       steps="1"
       threshold="0.000408163"
       smooth_angles="360"
       helper_size="0"
       simplify_individual_paths="false"
       simplify_just_coalesce="false"
       simplifyindividualpaths="false"
       simplifyJustCoalesce="false" />
    <inkscape:path-effect
       effect="simplify"
       id="path-effect6980"
       is_visible="true"
       steps="1"
       threshold="0.000408163"
       smooth_angles="360"
       helper_size="0"
       simplify_individual_paths="false"
       simplify_just_coalesce="false"
       simplifyindividualpaths="false"
       simplifyJustCoalesce="false" />
    <inkscape:path-effect
       effect="simplify"
       id="path-effect6741"
       is_visible="true"
       steps="1"
       threshold="0.000408163"
       smooth_angles="360"
       helper_size="0"
       simplify_individual_paths="false"
       simplify_just_coalesce="false"
       simplifyindividualpaths="false"
       simplifyJustCoalesce="false" />
  </defs>
  <sodipodi:namedview
     id="base"
     pagecolor="#ffffff"
     bordercolor="#666666"
     borderopacity="1.0"
     inkscape:pageopacity="0.0"
     inkscape:pageshadow="2"
     inkscape:zoom="0.1767767"
     inkscape:cx="-819.33527"
     inkscape:cy="53.371523"
     inkscape:document-units="mm"
     inkscape:current-layer="layer1"
     showgrid="false"
     inkscape:window-width="1920"
     inkscape:window-height="1020"
     inkscape:window-x="0"
     inkscape:window-y="0"
     inkscape:window-maximized="1"
     units="mm"
     scale-x="0.9"
     showborder="true"
     inkscape:snap-global="false" />
  <metadata
     id="metadata5765">
    <rdf:RDF>
      <cc:Work
         rdf:about="">
        <dc:format>image/svg+xml</dc:format>
        <dc:type
           rdf:resource="http://purl.org/dc/dcmitype/StillImage" />
        <dc:title></dc:title>
      </cc:Work>
    </rdf:RDF>
  </metadata>
  <g
     inkscape:label="Layer 1"
     inkscape:groupmode="layer"
     id="layer1"
     transform="translate(-935.17284,293.12687)">
    <g
       id="g7849">
      <path
         id="path7566"
         transform="scale(0.238125)"
         d="m 4293.5547,-362.99609 c -0.029,-0.0119 -0.051,-0.0104 -0.068,0.008 -0.5535,0.58238 -7.3764,16.36054 -15.1601,35.06055 -9.0247,21.68088 -15.2277,34.83371 -17.1192,36.30273 -2.8787,2.23546 -2.6334,2.30459 8.2852,2.33398 l 11.2519,0.0293 -2.9179,-2.71875 c -3.2391,-3.01757 -3.5358,-4.81961 -1.6192,-9.86133 1.1624,-3.05646 2.0271,-3.41992 8.1289,-3.41992 4.8076,0 7.9941,-0.83219 10.7754,-2.8125 2.172,-1.54667 4.3629,-2.39884 4.8672,-1.89453 0.5044,0.50427 2.4932,5.21947 4.4199,10.47852 l 3.502,9.56054 10.4297,0.39453 10.4316,0.39454 -3.3027,-3.06055 c -2.1531,-1.99572 -8.1156,-15.02843 -17.1348,-37.45313 -7.37,-18.32466 -13.867,-32.97359 -14.7695,-33.34179 z m 35.7363,0.40039 4.1406,3.86914 4.1407,3.86718 v 30.25196 c 0,29.74131 -0.05,30.29339 -3,32.7539 -2.9783,2.48525 -2.9144,2.50254 9,2.49414 11.3411,-0.009 11.8011,-0.11703 8.3672,-1.98046 -1.9982,-1.08443 -4.2483,-3.12071 -5,-4.52539 -1.5589,-2.91595 -1.9014,-44.06729 -0.3653,-44.05469 0.5501,0.005 5.0213,5.8551 9.9356,13 4.9142,7.1449 13.6132,19.59151 19.332,27.6582 l 10.4004,14.66602 0.3535,-36.66602 c 0.3469,-36.18389 0.3895,-36.69736 3.332,-38.9707 2.8863,-2.22992 2.5757,-2.30225 -9.6855,-2.28125 -12.1037,0.0215 -12.4725,0.10614 -8.3125,1.91406 2.3945,1.04063 4.665,2.70144 5.043,3.68945 0.3779,0.98806 0.5182,9.26267 0.3125,18.38868 l -0.379,16.59375 -13.7636,-20.33399 -13.7617,-20.33398 h -10.045 z m 68.2598,0 0.062,10.33398 c 0.05,9.82144 0.1417,10.13004 1.8437,6.2207 2.4886,-5.71523 8.2335,-9.88671 13.6172,-9.88671 h 4.4863 v 31 31 l -4.9921,2.20507 h -0.024 c -4.9764,2.19763 -4.9355,2.20497 12.3399,2.2793 16.2171,0.0699 17.0935,-0.056 13.6054,-1.94726 -2.0506,-1.11177 -4.3003,-3.52528 -5,-5.36524 -0.6996,-1.83996 -1.2714,-15.90749 -1.2714,-31.25976 v -27.91211 h 4.4863 c 5.3837,0 11.129,4.17148 13.6172,9.88671 1.7003,3.90934 1.7933,3.60074 1.8437,-6.2207 l 0.051,-10.33398 h -27.334 z m -175.7012,0.15625 c -1.8379,0.007 -3.6637,0.0365 -5.373,0.0937 l -12.4317,0.41797 9.0977,5.33203 9.0996,5.33398 -6.334,0.40625 -6.334,0.40625 v 29.05664 c 0,28.79429 -0.027,29.07077 -3,30.57422 -2.3475,1.18723 1.3486,1.44424 17,1.18555 15.8917,-0.26251 20.9703,-0.81033 24.7246,-2.66797 6.2325,-3.08351 9.2715,-8.50093 9.2715,-16.5 -0.01,-8.01319 -3.6351,-14.36318 -9.918,-17.35938 l -4.6054,-2.19531 5.3613,-4.78711 c 12.4019,-11.07288 5.628,-26.58387 -12.5684,-28.78125 -2.8598,-0.344 -8.4764,-0.53694 -13.9902,-0.51562 z m 2.3906,6.51172 h 4.0879 c 2.248,0 5.2232,0.60569 6.6094,1.34765 3.4625,1.8531 5.4016,9.51722 3.8398,15.17383 -1.4232,5.15393 -3.5162,7.25729 -8.5644,8.60742 l -3.5313,0.94336 5.0098,3.29688 c 7.8371,5.15834 10.5649,9.75599 10.4473,17.59961 -0.085,5.65047 -0.7024,7.28735 -3.7403,9.90039 -2.4886,2.14072 -5.302,3.13086 -8.8984,3.13086 h -5.2598 v -30 z m 66.6075,20.88671 c 0.041,-0.009 0.076,2.5e-4 0.1035,0.0293 0.9054,0.97176 7.957,19.72564 7.957,21.16211 0,0.32307 -3.8996,0.58789 -8.666,0.58789 -4.7668,0 -8.6758,-0.44999 -8.6758,-1 -0.019,-2.71352 7.9929,-20.51458 9.2813,-20.7793 z m -114.1661,86.46875 c -8.1579,-0.0268 -16.6198,0.36405 -18.4394,1.19532 -3.2764,1.49656 -4.1093,1.73798 -6.7461,1.94922 -1.2111,0.0973 -1.6821,0.80697 -1.127,1.70507 0.5779,0.93506 0.366,1.17843 -0.539,0.61914 -1.7453,-1.0785 -12.8125,4.26353 -17.6016,8.4961 l -3.3203,2.93554 5.334,-2.80664 c 3.6628,-1.92751 4.3384,-2.07152 2.1601,-0.46093 -1.744,1.28974 -4.8924,3.94793 -6.998,5.9082 -2.106,1.96027 -3.8301,3.04577 -3.8301,2.41211 0,-0.63362 0.6008,-1.52336 1.334,-1.97656 0.7332,-0.45325 1.332,-1.37519 1.332,-2.04883 0,-0.67368 -2.3987,1.37827 -5.332,4.56055 -2.9333,3.18232 -5.334,6.47004 -5.334,7.30468 0,0.83465 -0.5118,1.51758 -1.1367,1.51758 -1.6542,0 -9.161,16.92621 -10.8164,24.38867 -0.7794,3.51412 -1.3568,9.81413 -1.2813,14 0.1773,10.01025 3.8772,27.11717 5.6309,26.03321 0.7416,-0.45867 0.9482,-0.18754 0.459,0.60351 -1.1162,1.80611 4.9501,13.54356 8.5625,16.56836 1.4849,1.24363 2.8093,2.74425 2.9394,3.33399 0.4821,2.1547 4.1488,5.58255 5.2461,4.90429 0.6195,-0.38358 0.9653,0.0602 0.7637,0.98633 -0.2016,0.92598 2.551,3.67118 6.1172,6.09961 6.6213,4.50893 9.7559,5.62717 8.0547,2.875 -0.5938,-0.9613 -0.3653,-1.17672 0.6094,-0.57422 0.8583,0.53069 1.2782,1.42448 0.9296,1.98633 -0.3473,0.56189 1.4635,2.0214 4.0235,3.24219 5.4429,2.59561 7.7733,2.84115 6.4375,0.67968 -0.5938,-0.9613 -0.3653,-1.17671 0.6094,-0.57421 0.8529,0.53068 1.244,1.48102 0.8535,2.11132 -0.3893,0.63026 0.6516,1.40545 2.3125,1.72461 1.6609,0.31921 9.4565,0.66177 17.3242,0.76172 11.3764,0.14442 16.0856,-0.40197 23,-2.67187 4.782,-1.56985 8.6953,-3.40466 8.6953,-4.07813 0,-0.6738 0.4938,-0.92021 1.0977,-0.54687 1.7129,1.05864 13.5575,-7.84456 20.6836,-15.54883 12.6761,-13.70549 19.0434,-31.95416 17.789,-50.97266 -0.732,-11.09589 -3.7869,-23.26739 -6.6035,-26.30273 -0.8983,-0.96823 -1.8329,-2.64598 -2.0723,-3.72852 -0.5463,-2.45287 -4.2325,-6.63476 -5.8476,-6.63476 -0.669,0 -0.9461,0.44999 -0.627,1 0.3183,0.55 0.067,2.19935 -0.5605,3.66601 -0.9016,2.10688 -1.0374,1.82829 -0.6426,-1.33203 0.2751,-2.20002 0.7087,-4.60067 0.9648,-5.33398 0.2554,-0.73336 -0.5819,-2.8157 -1.8593,-4.62891 -1.2779,-1.81312 -2.3601,-2.71315 -2.4063,-2 -0.047,0.7132 -0.6275,-0.0551 -1.291,-1.70508 -0.6631,-1.65001 -1.8617,-3 -2.6621,-3 -0.8017,0 -1.0252,0.6944 -0.502,1.54102 0.5943,0.9613 0.3634,1.1768 -0.6113,0.57422 -0.842,-0.53065 -1.2566,-1.45814 -0.8828,-2.06055 0.7584,-1.22784 -5.0021,-5.38672 -7.4609,-5.38672 -0.9579,0 -0.6408,1.04422 0.7988,2.63477 1.3115,1.44936 2.8056,2.37565 3.3183,2.05859 0.5132,-0.31714 0.9317,0.31447 0.9317,1.40234 0,1.43513 -0.9443,1.10079 -3.4434,-1.21484 -1.8944,-1.7553 -4.5718,-3.78758 -5.9492,-4.51758 -1.6634,-0.88138 -1.999,-1.64036 -1,-2.25781 0.8277,-0.51145 1.5039,-0.29419 1.5039,0.48242 0,0.77661 0.6008,1.41211 1.334,1.41211 5.5727,0 -7.3492,-7.76068 -14,-8.4082 -1.4669,-0.14278 -3.0943,-0.85849 -3.6172,-1.5918 -0.598,-0.83916 -8.4515,-1.28375 -16.6094,-1.31055 z m 161.7012,1.77735 c -1.0056,0.13898 -3.9464,2.14066 -9.4746,6.09375 -3.667,2.62194 -8.3498,7.01803 -10.4062,9.76953 l -3.7383,5.00391 3.4062,2.71484 c 3.9933,3.1856 4.548,9.14353 1.1973,12.8457 -3.1916,3.52706 -6.1354,2.99011 -8.7442,-1.59375 -2.8926,-5.08346 -5.6972,-6.14961 -10.9121,-4.15234 -3.7509,1.43664 -4.4038,1.27747 -7.0058,-1.70508 -1.5786,-1.80905 -3.2918,-5.78212 -3.8067,-8.82812 -1.1695,-6.92313 -2.5126,-5.53688 -4.4687,4.60742 -3.2059,16.62383 -2.0611,20.77734 5.7285,20.77734 4.6589,0 5.9439,0.58178 7.4356,3.36914 1.3047,2.43767 1.4438,4.37348 0.5019,7 -1.3228,3.68949 -4.001,4.39213 -8.8711,2.32813 -1.7268,-0.73172 -3.521,0.28217 -6.7617,3.82031 -5.0801,5.54625 -8.8132,6.07133 -15.2539,2.14453 -5.8029,-3.53823 -8.0726,-3.37675 -4.75,0.33789 1.4757,1.65002 3.9764,5.16381 5.5566,7.8086 6.833,11.43748 14.1687,14.90405 18.2754,8.63671 2.6453,-4.03704 5.4323,-5.15095 8.6231,-3.44336 4.4917,2.40387 4.579,6.38109 0.2304,10.44336 -3.066,2.86413 -3.8097,4.51817 -3.2793,7.29297 1.0167,5.31801 -2.6077,9.69475 -10.4472,12.61914 -4.1655,1.55389 -6.2756,2.96355 -5.3223,3.55274 2.5676,1.58681 25.9602,2.38025 28.041,0.95117 1.0423,-0.71572 2.2419,-3.90299 2.666,-7.08203 0.7219,-5.41027 1.0604,-5.80821 5.2754,-6.21094 5.254,-0.5023 8.2216,1.57351 5.7637,4.03125 -2.7145,2.7145 -1.797,6.17567 3.0664,11.55859 5.5337,6.12536 5.7112,8.28842 1.3164,15.97657 -1.8247,3.19147 -3.3164,6.07699 -3.3164,6.41211 0,1.33724 10.7014,-6.25227 17.1094,-12.13477 6.9123,-6.34562 7.4307,-8.08482 3.5664,-11.94922 -3.8001,-3.80015 -4.3343,-8.94875 -1.2481,-12.03515 3.1139,-3.11358 4.8349,-2.60113 9.0625,2.69726 3.7859,4.74482 5.5806,5.16978 11.5098,2.72656 3.3075,-1.36294 5.3723,0.99866 8.5488,9.77149 l 3.0215,8.34375 1.5488,-7.70508 c 0.8513,-4.23828 1.5469,-11.5464 1.5469,-16.24023 0,-7.81876 -0.2145,-8.46572 -2.5683,-7.71875 -3.6166,1.14784 -11.6729,-2.52591 -12.711,-5.79688 -0.4779,-1.50597 -0.2303,-3.93168 0.5508,-5.39062 1.2183,-2.27629 2.3433,-2.54348 7.9219,-1.88282 6.1677,0.73054 6.594,0.57314 8.3301,-3.06445 2.3437,-4.91162 7.0835,-5.53841 15.0957,-1.99414 3.3268,1.47145 6.0468,2.45265 6.0468,2.17969 0,-1.99639 -10.4457,-17.38611 -13.6054,-20.04492 -5.0911,-4.28372 -7.0102,-4.16982 -10.5567,0.62695 -4.0441,5.4699 -6.1281,5.89306 -9.9883,2.0332 l -3.3359,-3.33594 4.8594,-4.58398 c 4.4737,-4.21909 4.8259,-5.09165 4.4101,-10.9707 l -0.4492,-6.38868 8.666,-2.76757 c 7.5427,-2.40903 8.235,-2.88917 5.334,-3.70508 -1.8335,-0.51566 -8.1711,-1.30692 -14.084,-1.75781 -13.6193,-1.03853 -16.7242,0.29691 -15.6777,6.74609 0.9142,5.63095 -2.6125,8.26585 -8.2129,6.13672 -3.058,-1.16195 -3.383,-1.85819 -2.6641,-5.68946 0.6829,-3.64132 0.029,-5.39998 -3.9375,-10.5957 -2.6162,-3.42643 -4.7578,-7.3497 -4.7578,-8.7168 0,-1.36705 1.8019,-5.32344 4.002,-8.79296 2.2169,-3.49544 3.1462,-5.21906 2.1406,-5.08008 z m 153.7442,8.19922 c -2.1813,0 -22.5137,23.08079 -29.5293,33.52148 -9.2771,13.80573 -13.7003,23.5023 -15.6661,34.34375 -3.4309,18.9196 5.8746,38.34239 21.8418,45.59375 v 0 c 3.4986,1.58891 8.582,2.49492 14.1152,2.51172 25.9687,0.088 43.6039,-26.95887 32.7617,-50.24609 -1.7776,-3.818 -7.1753,-12.43031 -11.9921,-19.13868 -11.1026,-15.46225 -13.5094,-22.94993 -11.8145,-36.73437 0.6635,-5.41812 0.7919,-9.85156 0.2813,-9.85156 z m 11.5878,58.60547 2.8164,5.03125 c 4.1987,7.50148 5.1281,14.34952 2.4942,18.36914 v 0 c -2.4961,3.8101 -7.5536,4.41879 -10.2031,1.22656 -1.4223,-1.71175 -1.4337,-3.13758 -0.066,-7.66797 0.9239,-3.06041 2.4167,-8.12824 3.3184,-11.26172 z"
         style="fill:#000000;stroke-width:1.33333325"
         inkscape:connector-curvature="0" />
      <path
         id="path7294"
         transform="scale(0.238125)"
         d="m 4324.0938,-1230.9766 c -11.9672,-0.047 -23.6901,0.5967 -29.8516,1.9532 l -8,1.7617 -10.0567,39.334 c -12.9461,50.6373 -19.8087,73.6197 -28.8027,96.4765 -35.4847,90.1751 -24.3861,172.76248 29.2617,217.76175 4.5275,3.79767 8.4158,6.71812 8.6426,6.49218 0.2259,-0.22601 -0.2171,-5.4161 -0.9844,-11.53515 -1.9309,-15.40057 -1.7003,-40.50839 0.5254,-57.22461 5.0562,-37.973 16.7208,-66.53467 39.4668,-96.63867 11.9731,-15.8457 25.4965,-37.2227 33.043,-52.2285 7.1912,-14.2996 18.7573,-44.9286 23.5762,-62.4375 8.5031,-30.9003 12.4533,-62.9111 8.6406,-70.0352 -1.5853,-2.9622 -16.6631,-8.0342 -34.1485,-11.4863 -7.1351,-1.4086 -19.3453,-2.1464 -31.3124,-2.1934 z m -120.4727,22.1797 -13.3574,6.1992 c -7.3462,3.4096 -19.6553,8.8166 -27.3555,12.0157 -7.7002,3.1991 -14.451,6.454 -15.002,7.2343 -2.093,2.9667 -10.2089,29.9002 -12.2792,40.752 -3.0237,15.8476 -4.0361,43.2688 -2.211,59.873 4.8878,44.4633 20.5089,88.29383 46.5137,130.51372 3.2924,5.34521 6.2292,9.47394 6.5273,9.17578 0.2982,-0.29808 -1.2184,-6.8145 -3.3711,-14.48047 -23.7291,-84.50603 -17.9969,-176.49163 14.9883,-240.51563 z m 231.9434,0.6016 c -1.7173,0.07 -3.2462,3.2258 -7.0938,14.2676 -6.956,19.9626 -15.3283,38.8568 -31.9082,72 -27.0492,54.0719 -51.5583,113.8981 -79.0645,192.99997 -4.2712,12.28333 -7.5552,22.33203 -7.2949,22.33203 0.2587,0 3.2579,-3.90432 6.6641,-8.67774 51.6023,-72.31412 142.8263,-108.83376 257.7441,-103.18166 30.345,1.4925 72.6201,7.5096 91.9629,13.0899 2.3836,0.6877 4.334,1.1058 4.334,0.9277 0,-0.1779 -1.7388,-5.467 -3.8633,-11.752 -14.2971,-42.2966 -39.9081,-75.2684 -74.1699,-95.4902 -5.1515,-3.0402 -11.15,-5.8579 -13.332,-6.2598 -2.6201,-0.4824 -13.4802,1.9388 -31.9688,7.127 -15.4003,4.3214 -28.2034,7.6846 -28.4512,7.4746 -0.2477,-0.2101 2.002,-13.2419 5,-28.9609 2.9981,-15.719 5.4512,-29.8233 5.4512,-31.3418 0,-5.9278 -16.8758,-16.04 -46.666,-27.9629 -16.3532,-6.545 -42.3998,-15.7267 -46.9961,-16.5664 -0.1169,-0.021 -0.2332,-0.03 -0.3476,-0.025 z m -353.5957,60.3926 c -4.2438,-0.6496 -33.5808,28.1937 -52.8497,52.1504 -11.3285,14.0844 -11.5763,14.8786 -14.332,45.7246 -3.2525,36.4068 1.496,84.00498 12.877,129.06832 13.1876,52.21724 43.443,122.51803 71.8164,166.87305 l 4.7343,7.40235 8.3008,-6.68946 c 9.8134,-7.90765 29.0833,-17.68212 40.584,-20.58594 4.5716,-1.15435 13.7073,-2.05781 20.668,-2.04101 14.6515,0.0331 26.3166,3.51882 38.3301,11.45117 20.3053,13.40741 41.2751,43.59021 47.6054,68.52149 3.2924,12.96663 2.0063,37.11135 -2.7324,51.27539 -14.7607,44.12077 -55.2303,90.248 -116.4121,132.68554 l -16.2832,11.29297 6.3164,2.48242 c 9.4635,3.71772 34.6113,9.95218 45.7891,11.35157 60.076,7.52138 110.4436,-18.36937 145.5273,-74.80469 15.1173,-24.31799 28.8552,-58.10046 36.4453,-89.61719 3.3642,-13.96892 3.4985,-15.87187 2.8203,-40 -0.9831,-34.9731 -5.4247,-54.87862 -17.8086,-79.79297 -8.8504,-17.80623 -15.466,-26.82629 -30.9902,-42.26172 -15.8602,-15.76961 -28.6043,-24.73534 -50.1758,-35.30273 -35.3293,-17.30688 -76.9653,-26.84117 -128.4433,-29.41016 l -19.1543,-0.95508 -3.92,-6.13867 c -15.4767,-24.23265 -26.2818,-61.13149 -31.2754,-106.80468 -3.9886,-36.48207 -2.8621,-108.18387 2.2911,-145.86527 0.6925,-5.0593 0.9646,-9.494 0.6035,-9.8535 -0.084,-0.083 -0.1952,-0.1353 -0.332,-0.1562 z m 508.9394,144.6308 c -33.9318,-0.069 -47.6684,1.6503 -73.9004,9.25198 -65.298,18.92266 -133.9316,63.82273 -185.082,121.08203 l -8.1211,9.0918 13.3652,13.57617 c 7.3504,7.46637 16.4629,17.37298 20.25,22.01562 22.8678,28.03414 38.4057,60.62032 44.9531,94.27344 2.8788,14.79652 3.2712,50.09647 0.7188,64.61914 -5.2506,29.8702 -12.5629,51.67946 -27.4941,82 -22.1019,44.88147 -55.2117,89.05195 -97.1153,129.55664 l -16.7715,16.21094 6.9317,0.95508 c 3.8127,0.52464 12.6311,1.38951 19.5976,1.92187 27.6847,2.1154 82.5915,1.19458 127.1504,-2.13086 l 11.8164,-0.88086 10.1836,-8.14453 c 15.1123,-12.08449 33.0797,-30.66599 44.9903,-46.52929 54.9954,-73.24553 63.5566,-175.0868 24.541,-291.96289 -7.1664,-21.46839 -17.2318,-46.18814 -25.5098,-62.65235 l -5.2871,-10.51562 6.6875,-7.7168 c 25.7642,-29.74026 67.7165,-53.74942 108.3691,-62.01953 33.7369,-6.86325 70.3944,-5.94496 108.0586,2.70898 3.2466,0.74633 3.668,0.46248 3.668,-2.49609 0,-6.763 -6.9464,-27.38745 -14.125,-41.9375 l -7.3828,-14.96485 -12.5566,-4.02148 c -6.9069,-2.21237 -20.2182,-5.64369 -29.5801,-7.625 -15.6553,-3.31304 -19.5383,-3.60764 -48.3555,-3.66604 z m -617.7949,7.16018 c -0.8412,0.16962 -3.0762,2.65838 -5.4219,6.45899 -27.4079,44.40747 -26.9346,43.49535 -29.9629,57.92773 -10.0859,48.07391 -13.1427,104.45317 -8.1172,149.69727 10.6478,95.85394 49.9477,171.4613 117.209,225.49023 l 13.9141,11.17578 15.4199,-0.008 c 58.0985,-0.0296 106.1941,-24.67241 125.875,-64.49414 10.172,-20.58121 15.0788,-48.19306 13.3574,-75.16406 -0.48,-7.51669 -1.2336,-13.66537 -1.6758,-13.66407 -0.4417,10e-4 -2.4702,2.63987 -4.5078,5.86524 -5.0217,7.94851 -21.495,23.31355 -29.7558,27.7539 -27.1114,14.57311 -62.0605,8.45215 -95.5157,-16.73046 -10.9056,-8.20918 -33.3154,-30.80414 -42.5429,-42.89258 -30.2341,-39.60933 -52.4903,-89.90076 -63.209,-142.83985 -6.0691,-29.97451 -7.619,-49.68689 -6.9551,-88.49218 0.3326,-19.43333 1.0634,-36.38466 1.6211,-37.66797 0.7764,-1.78539 0.7723,-2.51779 0.2676,-2.41602 z m 663.9707,104.29102 c -19.2983,0.18295 -40.5428,5.3689 -63.3652,15.55273 -14.883,6.64114 -42.8106,22.58822 -42.8106,24.44531 0,0.59066 2.3523,4.18253 5.2285,7.98243 26.8515,35.4767 48.3923,92.13199 55.4395,145.8125 2.4567,18.71613 2.8374,61.77887 0.7129,80.66601 -3.405,30.26868 -10.5956,62.3368 -20.3829,90.89844 -5.7171,16.68481 -5.7478,16.8673 -2.3945,14.4707 1.8675,-1.33501 9.7169,-8.93946 17.4414,-16.89844 33.4543,-34.46941 60.8564,-74.3632 83.9317,-122.1875 25.8603,-53.59659 41.3736,-107.64551 48.7441,-169.83398 l 2.2383,-18.88477 -3.7442,-6.87695 c -5.4101,-9.94003 -18.4302,-23.55412 -29.3476,-30.68555 -15.0411,-9.82488 -32.3931,-14.64389 -51.6914,-14.46093 z"
         style="fill:#000000;stroke-width:1.33333325"
         inkscape:connector-curvature="0" />
    </g>
    <g
       id="g12586">
      <path
         style="fill:#000000;stroke-width:1.33333325"
         d="m 4293.5547,-362.99609 c -0.029,-0.0119 -0.051,-0.0104 -0.068,0.008 -0.5535,0.58238 -7.3764,16.36054 -15.1601,35.06055 -9.0247,21.68088 -15.2277,34.83371 -17.1192,36.30273 -2.8787,2.23546 -2.6334,2.30459 8.2852,2.33398 l 11.2519,0.0293 -2.9179,-2.71875 c -3.2391,-3.01757 -3.5358,-4.81961 -1.6192,-9.86133 1.1624,-3.05646 2.0271,-3.41992 8.1289,-3.41992 4.8076,0 7.9941,-0.83219 10.7754,-2.8125 2.172,-1.54667 4.3629,-2.39884 4.8672,-1.89453 0.5044,0.50427 2.4932,5.21947 4.4199,10.47852 l 3.502,9.56054 10.4297,0.39453 10.4316,0.39454 -3.3027,-3.06055 c -2.1531,-1.99572 -8.1156,-15.02843 -17.1348,-37.45313 -7.37,-18.32466 -13.867,-32.97359 -14.7695,-33.34179 z m 35.7363,0.40039 4.1406,3.86914 4.1407,3.86718 v 30.25196 c 0,29.74131 -0.05,30.29339 -3,32.7539 -2.9783,2.48525 -2.9144,2.50254 9,2.49414 11.3411,-0.009 11.8011,-0.11703 8.3672,-1.98046 -1.9982,-1.08443 -4.2483,-3.12071 -5,-4.52539 -1.5589,-2.91595 -1.9014,-44.06729 -0.3653,-44.05469 0.5501,0.005 5.0213,5.8551 9.9356,13 4.9142,7.1449 13.6132,19.59151 19.332,27.6582 l 10.4004,14.66602 0.3535,-36.66602 c 0.3469,-36.18389 0.3895,-36.69736 3.332,-38.9707 2.8863,-2.22992 2.5757,-2.30225 -9.6855,-2.28125 -12.1037,0.0215 -12.4725,0.10614 -8.3125,1.91406 2.3945,1.04063 4.665,2.70144 5.043,3.68945 0.3779,0.98806 0.5182,9.26267 0.3125,18.38868 l -0.379,16.59375 -13.7636,-20.33399 -13.7617,-20.33398 h -10.045 z m 68.2598,0 0.062,10.33398 c 0.05,9.82144 0.1417,10.13004 1.8437,6.2207 2.4886,-5.71523 8.2335,-9.88671 13.6172,-9.88671 h 4.4863 v 31 31 l -4.9921,2.20507 h -0.024 c -4.9764,2.19763 -4.9355,2.20497 12.3399,2.2793 16.2171,0.0699 17.0935,-0.056 13.6054,-1.94726 -2.0506,-1.11177 -4.3003,-3.52528 -5,-5.36524 -0.6996,-1.83996 -1.2714,-15.90749 -1.2714,-31.25976 v -27.91211 h 4.4863 c 5.3837,0 11.129,4.17148 13.6172,9.88671 1.7003,3.90934 1.7933,3.60074 1.8437,-6.2207 l 0.051,-10.33398 h -27.334 z m -175.7012,0.15625 c -1.8379,0.007 -3.6637,0.0365 -5.373,0.0937 l -12.4317,0.41797 9.0977,5.33203 9.0996,5.33398 -6.334,0.40625 -6.334,0.40625 v 29.05664 c 0,28.79429 -0.027,29.07077 -3,30.57422 -2.3475,1.18723 1.3486,1.44424 17,1.18555 15.8917,-0.26251 20.9703,-0.81033 24.7246,-2.66797 6.2325,-3.08351 9.2715,-8.50093 9.2715,-16.5 -0.01,-8.01319 -3.6351,-14.36318 -9.918,-17.35938 l -4.6054,-2.19531 5.3613,-4.78711 c 12.4019,-11.07288 5.628,-26.58387 -12.5684,-28.78125 -2.8598,-0.344 -8.4764,-0.53694 -13.9902,-0.51562 z m 2.3906,6.51172 h 4.0879 c 2.248,0 5.2232,0.60569 6.6094,1.34765 3.4625,1.8531 5.4016,9.51722 3.8398,15.17383 -1.4232,5.15393 -3.5162,7.25729 -8.5644,8.60742 l -3.5313,0.94336 5.0098,3.29688 c 7.8371,5.15834 10.5649,9.75599 10.4473,17.59961 -0.085,5.65047 -0.7024,7.28735 -3.7403,9.90039 -2.4886,2.14072 -5.302,3.13086 -8.8984,3.13086 h -5.2598 v -30 z m 66.6075,20.88671 c 0.041,-0.009 0.076,2.5e-4 0.1035,0.0293 0.9054,0.97176 7.957,19.72564 7.957,21.16211 0,0.32307 -3.8996,0.58789 -8.666,0.58789 -4.7668,0 -8.6758,-0.44999 -8.6758,-1 -0.019,-2.71352 7.9929,-20.51458 9.2813,-20.7793 z m -114.1661,86.46875 c -8.1579,-0.0268 -16.6198,0.36405 -18.4394,1.19532 -3.2764,1.49656 -4.1093,1.73798 -6.7461,1.94922 -1.2111,0.0973 -1.6821,0.80697 -1.127,1.70507 0.5779,0.93506 0.366,1.17843 -0.539,0.61914 -1.7453,-1.0785 -12.8125,4.26353 -17.6016,8.4961 l -3.3203,2.93554 5.334,-2.80664 c 3.6628,-1.92751 4.3384,-2.07152 2.1601,-0.46093 -1.744,1.28974 -4.8924,3.94793 -6.998,5.9082 -2.106,1.96027 -3.8301,3.04577 -3.8301,2.41211 0,-0.63362 0.6008,-1.52336 1.334,-1.97656 0.7332,-0.45325 1.332,-1.37519 1.332,-2.04883 0,-0.67368 -2.3987,1.37827 -5.332,4.56055 -2.9333,3.18232 -5.334,6.47004 -5.334,7.30468 0,0.83465 -0.5118,1.51758 -1.1367,1.51758 -1.6542,0 -9.161,16.92621 -10.8164,24.38867 -0.7794,3.51412 -1.3568,9.81413 -1.2813,14 0.1773,10.01025 3.8772,27.11717 5.6309,26.03321 0.7416,-0.45867 0.9482,-0.18754 0.459,0.60351 -1.1162,1.80611 4.9501,13.54356 8.5625,16.56836 1.4849,1.24363 2.8093,2.74425 2.9394,3.33399 0.4821,2.1547 4.1488,5.58255 5.2461,4.90429 0.6195,-0.38358 0.9653,0.0602 0.7637,0.98633 -0.2016,0.92598 2.551,3.67118 6.1172,6.09961 6.6213,4.50893 9.7559,5.62717 8.0547,2.875 -0.5938,-0.9613 -0.3653,-1.17672 0.6094,-0.57422 0.8583,0.53069 1.2782,1.42448 0.9296,1.98633 -0.3473,0.56189 1.4635,2.0214 4.0235,3.24219 5.4429,2.59561 7.7733,2.84115 6.4375,0.67968 -0.5938,-0.9613 -0.3653,-1.17671 0.6094,-0.57421 0.8529,0.53068 1.244,1.48102 0.8535,2.11132 -0.3893,0.63026 0.6516,1.40545 2.3125,1.72461 1.6609,0.31921 9.4565,0.66177 17.3242,0.76172 11.3764,0.14442 16.0856,-0.40197 23,-2.67187 4.782,-1.56985 8.6953,-3.40466 8.6953,-4.07813 0,-0.6738 0.4938,-0.92021 1.0977,-0.54687 1.7129,1.05864 13.5575,-7.84456 20.6836,-15.54883 12.6761,-13.70549 19.0434,-31.95416 17.789,-50.97266 -0.732,-11.09589 -3.7869,-23.26739 -6.6035,-26.30273 -0.8983,-0.96823 -1.8329,-2.64598 -2.0723,-3.72852 -0.5463,-2.45287 -4.2325,-6.63476 -5.8476,-6.63476 -0.669,0 -0.9461,0.44999 -0.627,1 0.3183,0.55 0.067,2.19935 -0.5605,3.66601 -0.9016,2.10688 -1.0374,1.82829 -0.6426,-1.33203 0.2751,-2.20002 0.7087,-4.60067 0.9648,-5.33398 0.2554,-0.73336 -0.5819,-2.8157 -1.8593,-4.62891 -1.2779,-1.81312 -2.3601,-2.71315 -2.4063,-2 -0.047,0.7132 -0.6275,-0.0551 -1.291,-1.70508 -0.6631,-1.65001 -1.8617,-3 -2.6621,-3 -0.8017,0 -1.0252,0.6944 -0.502,1.54102 0.5943,0.9613 0.3634,1.1768 -0.6113,0.57422 -0.842,-0.53065 -1.2566,-1.45814 -0.8828,-2.06055 0.7584,-1.22784 -5.0021,-5.38672 -7.4609,-5.38672 -0.9579,0 -0.6408,1.04422 0.7988,2.63477 1.3115,1.44936 2.8056,2.37565 3.3183,2.05859 0.5132,-0.31714 0.9317,0.31447 0.9317,1.40234 0,1.43513 -0.9443,1.10079 -3.4434,-1.21484 -1.8944,-1.7553 -4.5718,-3.78758 -5.9492,-4.51758 -1.6634,-0.88138 -1.999,-1.64036 -1,-2.25781 0.8277,-0.51145 1.5039,-0.29419 1.5039,0.48242 0,0.77661 0.6008,1.41211 1.334,1.41211 5.5727,0 -7.3492,-7.76068 -14,-8.4082 -1.4669,-0.14278 -3.0943,-0.85849 -3.6172,-1.5918 -0.598,-0.83916 -8.4515,-1.28375 -16.6094,-1.31055 z m 161.7012,1.77735 c -1.0056,0.13898 -3.9464,2.14066 -9.4746,6.09375 -3.667,2.62194 -8.3498,7.01803 -10.4062,9.76953 l -3.7383,5.00391 3.4062,2.71484 c 3.9933,3.1856 4.548,9.14353 1.1973,12.8457 -3.1916,3.52706 -6.1354,2.99011 -8.7442,-1.59375 -2.8926,-5.08346 -5.6972,-6.14961 -10.9121,-4.15234 -3.7509,1.43664 -4.4038,1.27747 -7.0058,-1.70508 -1.5786,-1.80905 -3.2918,-5.78212 -3.8067,-8.82812 -1.1695,-6.92313 -2.5126,-5.53688 -4.4687,4.60742 -3.2059,16.62383 -2.0611,20.77734 5.7285,20.77734 4.6589,0 5.9439,0.58178 7.4356,3.36914 1.3047,2.43767 1.4438,4.37348 0.5019,7 -1.3228,3.68949 -4.001,4.39213 -8.8711,2.32813 -1.7268,-0.73172 -3.521,0.28217 -6.7617,3.82031 -5.0801,5.54625 -8.8132,6.07133 -15.2539,2.14453 -5.8029,-3.53823 -8.0726,-3.37675 -4.75,0.33789 1.4757,1.65002 3.9764,5.16381 5.5566,7.8086 6.833,11.43748 14.1687,14.90405 18.2754,8.63671 2.6453,-4.03704 5.4323,-5.15095 8.6231,-3.44336 4.4917,2.40387 4.579,6.38109 0.2304,10.44336 -3.066,2.86413 -3.8097,4.51817 -3.2793,7.29297 1.0167,5.31801 -2.6077,9.69475 -10.4472,12.61914 -4.1655,1.55389 -6.2756,2.96355 -5.3223,3.55274 2.5676,1.58681 25.9602,2.38025 28.041,0.95117 1.0423,-0.71572 2.2419,-3.90299 2.666,-7.08203 0.7219,-5.41027 1.0604,-5.80821 5.2754,-6.21094 5.254,-0.5023 8.2216,1.57351 5.7637,4.03125 -2.7145,2.7145 -1.797,6.17567 3.0664,11.55859 5.5337,6.12536 5.7112,8.28842 1.3164,15.97657 -1.8247,3.19147 -3.3164,6.07699 -3.3164,6.41211 0,1.33724 10.7014,-6.25227 17.1094,-12.13477 6.9123,-6.34562 7.4307,-8.08482 3.5664,-11.94922 -3.8001,-3.80015 -4.3343,-8.94875 -1.2481,-12.03515 3.1139,-3.11358 4.8349,-2.60113 9.0625,2.69726 3.7859,4.74482 5.5806,5.16978 11.5098,2.72656 3.3075,-1.36294 5.3723,0.99866 8.5488,9.77149 l 3.0215,8.34375 1.5488,-7.70508 c 0.8513,-4.23828 1.5469,-11.5464 1.5469,-16.24023 0,-7.81876 -0.2145,-8.46572 -2.5683,-7.71875 -3.6166,1.14784 -11.6729,-2.52591 -12.711,-5.79688 -0.4779,-1.50597 -0.2303,-3.93168 0.5508,-5.39062 1.2183,-2.27629 2.3433,-2.54348 7.9219,-1.88282 6.1677,0.73054 6.594,0.57314 8.3301,-3.06445 2.3437,-4.91162 7.0835,-5.53841 15.0957,-1.99414 3.3268,1.47145 6.0468,2.45265 6.0468,2.17969 0,-1.99639 -10.4457,-17.38611 -13.6054,-20.04492 -5.0911,-4.28372 -7.0102,-4.16982 -10.5567,0.62695 -4.0441,5.4699 -6.1281,5.89306 -9.9883,2.0332 l -3.3359,-3.33594 4.8594,-4.58398 c 4.4737,-4.21909 4.8259,-5.09165 4.4101,-10.9707 l -0.4492,-6.38868 8.666,-2.76757 c 7.5427,-2.40903 8.235,-2.88917 5.334,-3.70508 -1.8335,-0.51566 -8.1711,-1.30692 -14.084,-1.75781 -13.6193,-1.03853 -16.7242,0.29691 -15.6777,6.74609 0.9142,5.63095 -2.6125,8.26585 -8.2129,6.13672 -3.058,-1.16195 -3.383,-1.85819 -2.6641,-5.68946 0.6829,-3.64132 0.029,-5.39998 -3.9375,-10.5957 -2.6162,-3.42643 -4.7578,-7.3497 -4.7578,-8.7168 0,-1.36705 1.8019,-5.32344 4.002,-8.79296 2.2169,-3.49544 3.1462,-5.21906 2.1406,-5.08008 z m 153.7442,8.19922 c -2.1813,0 -22.5137,23.08079 -29.5293,33.52148 -9.2771,13.80573 -13.7003,23.5023 -15.6661,34.34375 -3.4309,18.9196 5.8746,38.34239 21.8418,45.59375 v 0 c 3.4986,1.58891 8.582,2.49492 14.1152,2.51172 25.9687,0.088 43.6039,-26.95887 32.7617,-50.24609 -1.7776,-3.818 -7.1753,-12.43031 -11.9921,-19.13868 -11.1026,-15.46225 -13.5094,-22.94993 -11.8145,-36.73437 0.6635,-5.41812 0.7919,-9.85156 0.2813,-9.85156 z m 11.5878,58.60547 2.8164,5.03125 c 4.1987,7.50148 5.1281,14.34952 2.4942,18.36914 v 0 c -2.4961,3.8101 -7.5536,4.41879 -10.2031,1.22656 -1.4223,-1.71175 -1.4337,-3.13758 -0.066,-7.66797 0.9239,-3.06041 2.4167,-8.12824 3.3184,-11.26172 z"
         transform="scale(0.238125)"
         id="path12582"
         inkscape:connector-curvature="0" />
      <path
         style="fill:#000000;stroke-width:1.33333325"
         d="m 4324.0938,-1230.9766 c -11.9672,-0.047 -23.6901,0.5967 -29.8516,1.9532 l -8,1.7617 -10.0567,39.334 c -12.9461,50.6373 -19.8087,73.6197 -28.8027,96.4765 -35.4847,90.1751 -24.3861,172.76248 29.2617,217.76175 4.5275,3.79767 8.4158,6.71812 8.6426,6.49218 0.2259,-0.22601 -0.2171,-5.4161 -0.9844,-11.53515 -1.9309,-15.40057 -1.7003,-40.50839 0.5254,-57.22461 5.0562,-37.973 16.7208,-66.53467 39.4668,-96.63867 11.9731,-15.8457 25.4965,-37.2227 33.043,-52.2285 7.1912,-14.2996 18.7573,-44.9286 23.5762,-62.4375 8.5031,-30.9003 12.4533,-62.9111 8.6406,-70.0352 -1.5853,-2.9622 -16.6631,-8.0342 -34.1485,-11.4863 -7.1351,-1.4086 -19.3453,-2.1464 -31.3124,-2.1934 z m -120.4727,22.1797 -13.3574,6.1992 c -7.3462,3.4096 -19.6553,8.8166 -27.3555,12.0157 -7.7002,3.1991 -14.451,6.454 -15.002,7.2343 -2.093,2.9667 -10.2089,29.9002 -12.2792,40.752 -3.0237,15.8476 -4.0361,43.2688 -2.211,59.873 4.8878,44.4633 20.5089,88.29383 46.5137,130.51372 3.2924,5.34521 6.2292,9.47394 6.5273,9.17578 0.2982,-0.29808 -1.2184,-6.8145 -3.3711,-14.48047 -23.7291,-84.50603 -17.9969,-176.49163 14.9883,-240.51563 z m 231.9434,0.6016 c -1.7173,0.07 -3.2462,3.2258 -7.0938,14.2676 -6.956,19.9626 -15.3283,38.8568 -31.9082,72 -27.0492,54.0719 -51.5583,113.8981 -79.0645,192.99997 -4.2712,12.28333 -7.5552,22.33203 -7.2949,22.33203 0.2587,0 3.2579,-3.90432 6.6641,-8.67774 51.6023,-72.31412 142.8263,-108.83376 257.7441,-103.18166 30.345,1.4925 72.6201,7.5096 91.9629,13.0899 2.3836,0.6877 4.334,1.1058 4.334,0.9277 0,-0.1779 -1.7388,-5.467 -3.8633,-11.752 -14.2971,-42.2966 -39.9081,-75.2684 -74.1699,-95.4902 -5.1515,-3.0402 -11.15,-5.8579 -13.332,-6.2598 -2.6201,-0.4824 -13.4802,1.9388 -31.9688,7.127 -15.4003,4.3214 -28.2034,7.6846 -28.4512,7.4746 -0.2477,-0.2101 2.002,-13.2419 5,-28.9609 2.9981,-15.719 5.4512,-29.8233 5.4512,-31.3418 0,-5.9278 -16.8758,-16.04 -46.666,-27.9629 -16.3532,-6.545 -42.3998,-15.7267 -46.9961,-16.5664 -0.1169,-0.021 -0.2332,-0.03 -0.3476,-0.025 z m -353.5957,60.3926 c -4.2438,-0.6496 -33.5808,28.1937 -52.8497,52.1504 -11.3285,14.0844 -11.5763,14.8786 -14.332,45.7246 -3.2525,36.4068 1.496,84.00498 12.877,129.06832 13.1876,52.21724 43.443,122.51803 71.8164,166.87305 l 4.7343,7.40235 8.3008,-6.68946 c 9.8134,-7.90765 29.0833,-17.68212 40.584,-20.58594 4.5716,-1.15435 13.7073,-2.05781 20.668,-2.04101 14.6515,0.0331 26.3166,3.51882 38.3301,11.45117 20.3053,13.40741 41.2751,43.59021 47.6054,68.52149 3.2924,12.96663 2.0063,37.11135 -2.7324,51.27539 -14.7607,44.12077 -55.2303,90.248 -116.4121,132.68554 l -16.2832,11.29297 6.3164,2.48242 c 9.4635,3.71772 34.6113,9.95218 45.7891,11.35157 60.076,7.52138 110.4436,-18.36937 145.5273,-74.80469 15.1173,-24.31799 28.8552,-58.10046 36.4453,-89.61719 3.3642,-13.96892 3.4985,-15.87187 2.8203,-40 -0.9831,-34.9731 -5.4247,-54.87862 -17.8086,-79.79297 -8.8504,-17.80623 -15.466,-26.82629 -30.9902,-42.26172 -15.8602,-15.76961 -28.6043,-24.73534 -50.1758,-35.30273 -35.3293,-17.30688 -76.9653,-26.84117 -128.4433,-29.41016 l -19.1543,-0.95508 -3.92,-6.13867 c -15.4767,-24.23265 -26.2818,-61.13149 -31.2754,-106.80468 -3.9886,-36.48207 -2.8621,-108.18387 2.2911,-145.86527 0.6925,-5.0593 0.9646,-9.494 0.6035,-9.8535 -0.084,-0.083 -0.1952,-0.1353 -0.332,-0.1562 z m 508.9394,144.6308 c -33.9318,-0.069 -47.6684,1.6503 -73.9004,9.25198 -65.298,18.92266 -133.9316,63.82273 -185.082,121.08203 l -8.1211,9.0918 13.3652,13.57617 c 7.3504,7.46637 16.4629,17.37298 20.25,22.01562 22.8678,28.03414 38.4057,60.62032 44.9531,94.27344 2.8788,14.79652 3.2712,50.09647 0.7188,64.61914 -5.2506,29.8702 -12.5629,51.67946 -27.4941,82 -22.1019,44.88147 -55.2117,89.05195 -97.1153,129.55664 l -16.7715,16.21094 6.9317,0.95508 c 3.8127,0.52464 12.6311,1.38951 19.5976,1.92187 27.6847,2.1154 82.5915,1.19458 127.1504,-2.13086 l 11.8164,-0.88086 10.1836,-8.14453 c 15.1123,-12.08449 33.0797,-30.66599 44.9903,-46.52929 54.9954,-73.24553 63.5566,-175.0868 24.541,-291.96289 -7.1664,-21.46839 -17.2318,-46.18814 -25.5098,-62.65235 l -5.2871,-10.51562 6.6875,-7.7168 c 25.7642,-29.74026 67.7165,-53.74942 108.3691,-62.01953 33.7369,-6.86325 70.3944,-5.94496 108.0586,2.70898 3.2466,0.74633 3.668,0.46248 3.668,-2.49609 0,-6.763 -6.9464,-27.38745 -14.125,-41.9375 l -7.3828,-14.96485 -12.5566,-4.02148 c -6.9069,-2.21237 -20.2182,-5.64369 -29.5801,-7.625 -15.6553,-3.31304 -19.5383,-3.60764 -48.3555,-3.66604 z m -617.7949,7.16018 c -0.8412,0.16962 -3.0762,2.65838 -5.4219,6.45899 -27.4079,44.40747 -26.9346,43.49535 -29.9629,57.92773 -10.0859,48.07391 -13.1427,104.45317 -8.1172,149.69727 10.6478,95.85394 49.9477,171.4613 117.209,225.49023 l 13.9141,11.17578 15.4199,-0.008 c 58.0985,-0.0296 106.1941,-24.67241 125.875,-64.49414 10.172,-20.58121 15.0788,-48.19306 13.3574,-75.16406 -0.48,-7.51669 -1.2336,-13.66537 -1.6758,-13.66407 -0.4417,10e-4 -2.4702,2.63987 -4.5078,5.86524 -5.0217,7.94851 -21.495,23.31355 -29.7558,27.7539 -27.1114,14.57311 -62.0605,8.45215 -95.5157,-16.73046 -10.9056,-8.20918 -33.3154,-30.80414 -42.5429,-42.89258 -30.2341,-39.60933 -52.4903,-89.90076 -63.209,-142.83985 -6.0691,-29.97451 -7.619,-49.68689 -6.9551,-88.49218 0.3326,-19.43333 1.0634,-36.38466 1.6211,-37.66797 0.7764,-1.78539 0.7723,-2.51779 0.2676,-2.41602 z m 663.9707,104.29102 c -19.2983,0.18295 -40.5428,5.3689 -63.3652,15.55273 -14.883,6.64114 -42.8106,22.58822 -42.8106,24.44531 0,0.59066 2.3523,4.18253 5.2285,7.98243 26.8515,35.4767 48.3923,92.13199 55.4395,145.8125 2.4567,18.71613 2.8374,61.77887 0.7129,80.66601 -3.405,30.26868 -10.5956,62.3368 -20.3829,90.89844 -5.7171,16.68481 -5.7478,16.8673 -2.3945,14.4707 1.8675,-1.33501 9.7169,-8.93946 17.4414,-16.89844 33.4543,-34.46941 60.8564,-74.3632 83.9317,-122.1875 25.8603,-53.59659 41.3736,-107.64551 48.7441,-169.83398 l 2.2383,-18.88477 -3.7442,-6.87695 c -5.4101,-9.94003 -18.4302,-23.55412 -29.3476,-30.68555 -15.0411,-9.82488 -32.3931,-14.64389 -51.6914,-14.46093 z"
         transform="scale(0.238125)"
         id="path12584"
         inkscape:connector-curvature="0" />
    </g>
  </g>
</svg>
