<?xml version="1.0" encoding="UTF-8" standalone="no"?>
<!-- Created with Inkscape (http://www.inkscape.org/) -->

<svg
   xmlns:dc="http://purl.org/dc/elements/1.1/"
   xmlns:cc="http://creativecommons.org/ns#"
   xmlns:rdf="http://www.w3.org/1999/02/22-rdf-syntax-ns#"
   xmlns:svg="http://www.w3.org/2000/svg"
   xmlns="http://www.w3.org/2000/svg"
   xmlns:sodipodi="http://sodipodi.sourceforge.net/DTD/sodipodi-0.dtd"
   xmlns:inkscape="http://www.inkscape.org/namespaces/inkscape"
   width="210.24641mm"
   height="209.94566mm"
   viewBox="0 0 189.22178 188.95109"
   version="1.1"
   id="svg5768"
   inkscape:version="0.92.5 (2060ec1f9f, 2020-04-08)"
   sodipodi:docname="bant.svg">
  <defs
     id="defs5762">
    <inkscape:path-effect
       effect="simplify"
       id="path-effect4565"
       is_visible="true"
       steps="1"
       threshold="0.000408163"
       smooth_angles="360"
       helper_size="0"
       simplify_individual_paths="false"
       simplify_just_coalesce="false"
       simplifyindividualpaths="false"
       simplifyJustCoalesce="false" />
    <inkscape:path-effect
       effect="simplify"
       id="path-effect4543"
       is_visible="true"
       steps="1"
       threshold="0.000408163"
       smooth_angles="360"
       helper_size="0"
       simplify_individual_paths="false"
       simplify_just_coalesce="false"
       simplifyindividualpaths="false"
       simplifyJustCoalesce="false" />
    <inkscape:path-effect
       effect="simplify"
       id="path-effect8619"
       is_visible="true"
       steps="1"
       threshold="0.000408163"
       smooth_angles="360"
       helper_size="0"
       simplify_individual_paths="false"
       simplify_just_coalesce="false"
       simplifyindividualpaths="false"
       simplifyJustCoalesce="false" />
    <inkscape:path-effect
       effect="simplify"
       id="path-effect8615"
       is_visible="true"
       steps="1"
       threshold="0.000408163"
       smooth_angles="360"
       helper_size="0"
       simplify_individual_paths="false"
       simplify_just_coalesce="false"
       simplifyindividualpaths="false"
       simplifyJustCoalesce="false" />
    <inkscape:path-effect
       effect="simplify"
       id="path-effect8611"
       is_visible="true"
       steps="1"
       threshold="0.000408163"
       smooth_angles="360"
       helper_size="0"
       simplify_individual_paths="false"
       simplify_just_coalesce="false"
       simplifyindividualpaths="false"
       simplifyJustCoalesce="false" />
    <inkscape:path-effect
       effect="simplify"
       id="path-effect8607"
       is_visible="true"
       steps="1"
       threshold="0.000408163"
       smooth_angles="360"
       helper_size="0"
       simplify_individual_paths="false"
       simplify_just_coalesce="false"
       simplifyindividualpaths="false"
       simplifyJustCoalesce="false" />
    <inkscape:path-effect
       effect="simplify"
       id="path-effect8600"
       is_visible="true"
       steps="1"
       threshold="0.000408163"
       smooth_angles="360"
       helper_size="0"
       simplify_individual_paths="false"
       simplify_just_coalesce="false"
       simplifyindividualpaths="false"
       simplifyJustCoalesce="false" />
    <inkscape:path-effect
       effect="simplify"
       id="path-effect8584"
       is_visible="true"
       steps="1"
       threshold="0.000408163"
       smooth_angles="360"
       helper_size="0"
       simplify_individual_paths="false"
       simplify_just_coalesce="false"
       simplifyindividualpaths="false"
       simplifyJustCoalesce="false" />
    <inkscape:path-effect
       effect="simplify"
       id="path-effect8571"
       is_visible="true"
       steps="1"
       threshold="0.000408163"
       smooth_angles="360"
       helper_size="0"
       simplify_individual_paths="false"
       simplify_just_coalesce="false"
       simplifyindividualpaths="false"
       simplifyJustCoalesce="false" />
    <inkscape:path-effect
       effect="simplify"
       id="path-effect8556"
       is_visible="true"
       steps="1"
       threshold="0.000408163"
       smooth_angles="360"
       helper_size="0"
       simplify_individual_paths="false"
       simplify_just_coalesce="false"
       simplifyindividualpaths="false"
       simplifyJustCoalesce="false" />
    <inkscape:path-effect
       effect="simplify"
       id="path-effect8532"
       is_visible="true"
       steps="1"
       threshold="0.000408163"
       smooth_angles="360"
       helper_size="0"
       simplify_individual_paths="false"
       simplify_just_coalesce="false"
       simplifyindividualpaths="false"
       simplifyJustCoalesce="false" />
    <inkscape:path-effect
       effect="simplify"
       id="path-effect8528"
       is_visible="true"
       steps="1"
       threshold="0.000408163"
       smooth_angles="360"
       helper_size="0"
       simplify_individual_paths="false"
       simplify_just_coalesce="false"
       simplifyindividualpaths="false"
       simplifyJustCoalesce="false" />
    <inkscape:path-effect
       effect="simplify"
       id="path-effect8524"
       is_visible="true"
       steps="1"
       threshold="0.000408163"
       smooth_angles="360"
       helper_size="0"
       simplify_individual_paths="false"
       simplify_just_coalesce="false"
       simplifyindividualpaths="false"
       simplifyJustCoalesce="false" />
    <inkscape:path-effect
       effect="simplify"
       id="path-effect8449"
       is_visible="true"
       steps="1"
       threshold="0.000408163"
       smooth_angles="360"
       helper_size="0"
       simplify_individual_paths="false"
       simplify_just_coalesce="false"
       simplifyindividualpaths="false"
       simplifyJustCoalesce="false" />
    <inkscape:path-effect
       effect="simplify"
       id="path-effect8443"
       is_visible="true"
       steps="1"
       threshold="0.000408163"
       smooth_angles="360"
       helper_size="0"
       simplify_individual_paths="false"
       simplify_just_coalesce="false"
       simplifyindividualpaths="false"
       simplifyJustCoalesce="false" />
    <inkscape:path-effect
       effect="simplify"
       id="path-effect8434"
       is_visible="true"
       steps="1"
       threshold="0.000408163"
       smooth_angles="360"
       helper_size="0"
       simplify_individual_paths="false"
       simplify_just_coalesce="false"
       simplifyindividualpaths="false"
       simplifyJustCoalesce="false" />
    <inkscape:path-effect
       effect="simplify"
       id="path-effect8422"
       is_visible="true"
       steps="1"
       threshold="0.000408163"
       smooth_angles="360"
       helper_size="0"
       simplify_individual_paths="false"
       simplify_just_coalesce="false"
       simplifyindividualpaths="false"
       simplifyJustCoalesce="false" />
    <inkscape:path-effect
       effect="simplify"
       id="path-effect8418"
       is_visible="true"
       steps="1"
       threshold="0.000408163"
       smooth_angles="360"
       helper_size="0"
       simplify_individual_paths="false"
       simplify_just_coalesce="false"
       simplifyindividualpaths="false"
       simplifyJustCoalesce="false" />
    <inkscape:path-effect
       effect="simplify"
       id="path-effect8413"
       is_visible="true"
       steps="1"
       threshold="0.000408163"
       smooth_angles="360"
       helper_size="0"
       simplify_individual_paths="false"
       simplify_just_coalesce="false"
       simplifyindividualpaths="false"
       simplifyJustCoalesce="false" />
    <inkscape:path-effect
       effect="simplify"
       id="path-effect8391"
       is_visible="true"
       steps="1"
       threshold="0.000408163"
       smooth_angles="360"
       helper_size="0"
       simplify_individual_paths="false"
       simplify_just_coalesce="false"
       simplifyindividualpaths="false"
       simplifyJustCoalesce="false" />
    <inkscape:path-effect
       effect="simplify"
       id="path-effect8114"
       is_visible="true"
       steps="1"
       threshold="0.000408163"
       smooth_angles="360"
       helper_size="0"
       simplify_individual_paths="false"
       simplify_just_coalesce="false"
       simplifyindividualpaths="false"
       simplifyJustCoalesce="false" />
    <inkscape:path-effect
       effect="simplify"
       id="path-effect7808"
       is_visible="true"
       steps="1"
       threshold="0.000408163"
       smooth_angles="360"
       helper_size="0"
       simplify_individual_paths="false"
       simplify_just_coalesce="false"
       simplifyindividualpaths="false"
       simplifyJustCoalesce="false" />
    <inkscape:path-effect
       effect="simplify"
       id="path-effect6980"
       is_visible="true"
       steps="1"
       threshold="0.000408163"
       smooth_angles="360"
       helper_size="0"
       simplify_individual_paths="false"
       simplify_just_coalesce="false"
       simplifyindividualpaths="false"
       simplifyJustCoalesce="false" />
    <inkscape:path-effect
       effect="simplify"
       id="path-effect6741"
       is_visible="true"
       steps="1"
       threshold="0.000408163"
       smooth_angles="360"
       helper_size="0"
       simplify_individual_paths="false"
       simplify_just_coalesce="false"
       simplifyindividualpaths="false"
       simplifyJustCoalesce="false" />
  </defs>
  <sodipodi:namedview
     id="base"
     pagecolor="#ffffff"
     bordercolor="#666666"
     borderopacity="1.0"
     inkscape:pageopacity="0.0"
     inkscape:pageshadow="2"
     inkscape:zoom="0.1767767"
     inkscape:cx="-819.33595"
     inkscape:cy="-276.02273"
     inkscape:document-units="mm"
     inkscape:current-layer="layer1"
     showgrid="false"
     inkscape:window-width="1920"
     inkscape:window-height="1012"
     inkscape:window-x="0"
     inkscape:window-y="1080"
     inkscape:window-maximized="1"
     units="mm"
     scale-x="0.9"
     showborder="true"
     inkscape:snap-global="false" />
  <metadata
     id="metadata5765">
    <rdf:RDF>
      <cc:Work
         rdf:about="">
        <dc:format>image/svg+xml</dc:format>
        <dc:type
           rdf:resource="http://purl.org/dc/dcmitype/StillImage" />
        <dc:title />
      </cc:Work>
    </rdf:RDF>
  </metadata>
  <g
     inkscape:label="Layer 1"
     inkscape:groupmode="layer"
     id="layer1"
     transform="translate(-935.173,293.12698)">
    <path
       style="fill:#000000;stroke-width:1.33333337"
       d="M 396.85938,0.00195313 C 384.89213,-0.045081 373.16928,0.59860562 367.00781,1.9550781 l -8,1.7617188 -10.05664,39.3339841 c -12.94614,50.637273 -19.80872,73.619789 -28.80273,96.476559 -35.48473,90.17513 -24.38616,172.76246 29.26172,217.76172 4.52745,3.79767 8.4158,6.71812 8.64257,6.49219 0.22678,-0.22593 -0.21839,-5.4161 -0.98437,-11.53516 -1.93092,-15.40056 -1.70033,-40.50838 0.52539,-57.22461 5.05617,-37.97299 16.72076,-66.53469 39.4668,-96.63867 11.97312,-15.84571 25.49651,-37.22274 33.04297,-52.22851 7.19118,-14.29959 18.75727,-44.92863 23.57617,-62.437503 8.5031,-30.900327 12.45333,-62.911083 8.64062,-70.035156 C 460.73501,10.719415 445.65723,5.6474071 428.17188,2.1953125 421.03697,0.78672451 408.82662,0.04894525 396.85938,0.00195313 Z M 276.38672,22.181641 263.0293,28.380859 c -7.34619,3.409596 -19.65527,8.816549 -27.35547,12.015625 -7.70024,3.199119 -14.45094,6.454071 -15.00195,7.234375 -2.09298,2.966678 -10.209,29.900131 -12.2793,40.751953 -3.02371,15.847598 -4.03603,43.268828 -2.21094,59.873048 4.88781,44.46329 20.50888,88.29378 46.51367,130.51367 3.29239,5.34518 6.22927,9.47395 6.52735,9.17578 0.29816,-0.29816 -1.2184,-6.81449 -3.3711,-14.48047 C 232.12247,188.9588 237.85465,96.973243 270.83984,32.949219 Z m 231.9414,0.601562 c -1.71638,0.0724 -3.24566,3.229877 -7.09179,14.267578 -6.95601,19.962584 -15.32826,38.856776 -31.90821,71.999999 -27.04882,54.0719 -51.55831,113.89814 -79.06445,193 -4.27128,12.28334 -7.55529,22.33203 -7.29492,22.33203 0.0326,0 0.10717,-0.0597 0.2207,-0.17578 0.79475,-0.81257 3.46294,-4.32521 6.44336,-8.50195 51.60231,-72.31413 142.82634,-108.83376 257.74414,-103.18164 30.34499,1.49249 72.62011,7.50954 91.96289,13.08984 2.38363,0.68771 4.33399,1.10584 4.33399,0.92774 0,-0.17806 -1.73877,-5.46698 -3.86328,-11.75196 -14.29712,-42.29661 -39.90809,-75.26841 -74.16993,-95.49023 -5.15149,-3.04021 -11.14998,-5.85788 -13.33203,-6.25977 -2.62005,-0.48239 -13.48014,1.93876 -31.96875,7.12696 -13.47527,3.78125 -24.96196,6.8285 -27.78906,7.39062 -0.40387,0.0803 -0.63114,0.11024 -0.66211,0.084 -0.24777,-0.20997 2.002,-13.24192 5,-28.960932 2.99801,-15.719014 5.45117,-29.823309 5.45117,-31.341797 0,-5.927812 -16.87577,-16.039993 -46.66601,-27.962891 -16.35318,-6.545008 -42.39977,-15.726679 -46.9961,-16.566406 -0.11693,-0.02088 -0.23485,-0.02943 -0.34765,-0.02539 z M 154.73438,83.175781 c -4.24378,-0.649575 -33.58074,28.193689 -52.84961,52.150389 -11.328509,14.08437 -11.57634,14.87858 -14.332036,45.72461 -3.252493,36.40681 1.495956,84.00501 12.876956,129.06836 13.18761,52.21724 43.44303,122.51802 71.8164,166.87305 l 4.73438,7.40234 8.30078,-6.68945 c 9.81338,-7.90766 29.0833,-17.68213 40.58398,-20.58594 4.5716,-1.15435 13.70726,-2.05781 20.66797,-2.04102 14.65151,0.0336 26.31664,3.51883 38.33008,11.45118 20.3053,13.40741 41.27518,43.5902 47.60547,68.52148 3.29239,12.96664 2.00669,37.11136 -2.73242,51.27539 -14.76032,44.12078 -55.23046,90.248 -116.41211,132.68555 l -16.2832,11.29297 6.3164,2.48242 c 9.46352,3.71771 34.61128,9.95217 45.78906,11.35156 60.07602,7.52139 110.44367,-18.36937 145.52735,-74.80469 15.11727,-24.31802 28.85518,-58.10046 36.44531,-89.61718 3.3642,-13.96893 3.49853,-15.87188 2.82031,-40 -0.98309,-34.97311 -5.42434,-54.87862 -17.80859,-79.79297 -8.85039,-17.80624 -15.46603,-26.8263 -30.99024,-42.26172 C 369.28047,401.89249 356.53629,392.92677 334.96484,382.35938 299.6355,365.0525 257.99949,355.51821 206.52148,352.94922 l -19.15429,-0.95508 -3.91992,-6.13867 c -15.47671,-24.23265 -26.2818,-61.13149 -31.27539,-106.80469 -3.98858,-36.48206 -2.86221,-108.1838 2.29101,-145.865233 0.69249,-5.059276 0.96459,-9.494041 0.60352,-9.853516 -0.084,-0.08315 -0.19513,-0.135252 -0.33203,-0.15625 z M 663.67383,227.80664 c -33.93176,-0.0689 -47.66837,1.65027 -73.90039,9.25195 -65.29806,18.92267 -133.93159,63.82274 -185.08203,121.08203 l -8.1211,9.0918 13.36524,13.57617 c 7.35034,7.46638 16.46291,17.37298 20.25,22.01563 22.86782,28.03414 38.40572,60.62031 44.95312,94.27344 2.87874,14.79651 3.27119,50.09647 0.71875,64.61914 -5.2506,29.87019 -12.5629,51.67945 -27.49414,82 -22.10184,44.88147 -55.21161,89.05194 -97.11523,129.55664 l -16.77149,16.21094 6.93164,0.95507 c 3.81271,0.52464 12.63115,1.38951 19.59766,1.92188 27.68462,2.1154 82.59144,1.19458 127.15039,-2.13086 l 11.81641,-0.88086 10.18359,-8.14453 c 15.11265,-12.0845 33.07926,-30.66599 44.99023,-46.5293 54.99507,-73.24552 63.55666,-175.08679 24.54102,-291.96289 -7.1664,-21.46839 -17.23176,-46.18813 -25.50977,-62.65234 l -5.28711,-10.51563 6.6875,-7.7168 c 25.76421,-29.74026 67.71655,-53.74942 108.36915,-62.01953 33.7369,-6.86324 70.39434,-5.94495 108.05859,2.70899 3.24661,0.74633 3.66797,0.46248 3.66797,-2.4961 0,-6.763 -6.94642,-27.38745 -14.125,-41.9375 l -7.38281,-14.96484 -12.55664,-4.02148 c -6.90688,-2.21237 -20.21819,-5.64369 -29.58008,-7.625 -15.65523,-3.31305 -19.53825,-3.6076 -48.35547,-3.66602 z M 45.878906,234.9668 c -0.841197,0.16966 -3.076174,2.65837 -5.421875,6.45898 -27.407875,44.40744 -26.934607,43.49536 -29.96289,57.92774 C 0.4082189,347.42743 -2.6485589,403.80668 2.3769531,449.05078 13.024765,544.90473 52.324664,620.51208 119.58594,674.54102 L 133.5,685.7168 l 15.41992,-0.008 c 58.09852,-0.0294 106.1942,-24.6724 125.875,-64.49414 10.17197,-20.5812 15.07879,-48.19305 13.35742,-75.16406 -0.48,-7.51668 -1.23357,-13.66536 -1.67578,-13.66406 -0.44178,10e-4 -2.47022,2.63987 -4.50781,5.86523 -5.02173,7.94852 -21.49507,23.31355 -29.75586,27.75391 -27.11139,14.5731 -62.06042,8.45215 -95.51562,-16.73047 -10.90558,-8.209 -33.31547,-30.80396 -42.54297,-42.8924 C 83.920217,466.77349 61.664011,416.4821 50.945312,363.54297 c -6.069081,-29.97451 -7.618973,-49.6869 -6.955078,-88.49219 0.332599,-19.43332 1.063404,-36.38465 1.621094,-37.66797 0.776399,-1.7854 0.772397,-2.51777 0.267578,-2.41601 z M 709.84961,339.25781 c -19.29827,0.1831 -40.54277,5.36893 -63.36523,15.55274 -14.88295,6.64113 -42.81055,22.58822 -42.81055,24.44531 0,0.59066 2.35229,4.18253 5.22851,7.98242 26.85145,35.47671 48.39232,92.13199 55.43946,145.8125 2.45669,18.71614 2.8374,61.77888 0.71289,80.66602 -3.40494,30.26868 -10.59552,62.3368 -20.38281,90.89843 -5.71717,16.68481 -5.74782,16.86731 -2.39454,14.47071 1.86751,-1.33502 9.7169,-8.93947 17.44141,-16.89844 33.45428,-34.46942 60.85636,-74.3632 83.93164,-122.1875 25.86037,-53.5966 41.37364,-107.64551 48.74414,-169.83398 l 2.23828,-18.88477 -3.74414,-6.87695 c -5.40976,-9.94004 -18.43028,-23.55413 -29.34765,-30.68555 -15.04084,-9.82488 -32.39314,-14.64391 -51.69141,-14.46094 z"
       transform="matrix(0.23812499,0,0,0.23812499,935.17284,-293.12687)"
       id="path7294"
       inkscape:connector-curvature="0" />
  </g>
</svg>
