<?xml version="1.0" encoding="UTF-8" standalone="no"?>
<!-- Created with Inkscape (http://www.inkscape.org/) -->

<svg
   xmlns:dc="http://purl.org/dc/elements/1.1/"
   xmlns:cc="http://creativecommons.org/ns#"
   xmlns:rdf="http://www.w3.org/1999/02/22-rdf-syntax-ns#"
   xmlns:svg="http://www.w3.org/2000/svg"
   xmlns="http://www.w3.org/2000/svg"
   xmlns:sodipodi="http://sodipodi.sourceforge.net/DTD/sodipodi-0.dtd"
   xmlns:inkscape="http://www.inkscape.org/namespaces/inkscape"
   width="32.764553mm"
   height="33.73119mm"
   viewBox="0 0 29.488098 30.35807"
   version="1.1"
   id="svg5768"
   inkscape:version="0.92.5 (2060ec1f9f, 2020-04-08)"
   sodipodi:docname="black.svg">
  <defs
     id="defs5762">
    <inkscape:path-effect
       effect="simplify"
       id="path-effect8619"
       is_visible="true"
       steps="1"
       threshold="0.000408163"
       smooth_angles="360"
       helper_size="0"
       simplify_individual_paths="false"
       simplify_just_coalesce="false"
       simplifyindividualpaths="false"
       simplifyJustCoalesce="false" />
    <inkscape:path-effect
       effect="simplify"
       id="path-effect8615"
       is_visible="true"
       steps="1"
       threshold="0.000408163"
       smooth_angles="360"
       helper_size="0"
       simplify_individual_paths="false"
       simplify_just_coalesce="false"
       simplifyindividualpaths="false"
       simplifyJustCoalesce="false" />
    <inkscape:path-effect
       effect="simplify"
       id="path-effect8611"
       is_visible="true"
       steps="1"
       threshold="0.000408163"
       smooth_angles="360"
       helper_size="0"
       simplify_individual_paths="false"
       simplify_just_coalesce="false"
       simplifyindividualpaths="false"
       simplifyJustCoalesce="false" />
    <inkscape:path-effect
       effect="simplify"
       id="path-effect8607"
       is_visible="true"
       steps="1"
       threshold="0.000408163"
       smooth_angles="360"
       helper_size="0"
       simplify_individual_paths="false"
       simplify_just_coalesce="false"
       simplifyindividualpaths="false"
       simplifyJustCoalesce="false" />
    <inkscape:path-effect
       effect="simplify"
       id="path-effect8600"
       is_visible="true"
       steps="1"
       threshold="0.000408163"
       smooth_angles="360"
       helper_size="0"
       simplify_individual_paths="false"
       simplify_just_coalesce="false"
       simplifyindividualpaths="false"
       simplifyJustCoalesce="false" />
    <inkscape:path-effect
       effect="simplify"
       id="path-effect8584"
       is_visible="true"
       steps="1"
       threshold="0.000408163"
       smooth_angles="360"
       helper_size="0"
       simplify_individual_paths="false"
       simplify_just_coalesce="false"
       simplifyindividualpaths="false"
       simplifyJustCoalesce="false" />
    <inkscape:path-effect
       effect="simplify"
       id="path-effect8571"
       is_visible="true"
       steps="1"
       threshold="0.000408163"
       smooth_angles="360"
       helper_size="0"
       simplify_individual_paths="false"
       simplify_just_coalesce="false"
       simplifyindividualpaths="false"
       simplifyJustCoalesce="false" />
    <inkscape:path-effect
       effect="simplify"
       id="path-effect8556"
       is_visible="true"
       steps="1"
       threshold="0.000408163"
       smooth_angles="360"
       helper_size="0"
       simplify_individual_paths="false"
       simplify_just_coalesce="false"
       simplifyindividualpaths="false"
       simplifyJustCoalesce="false" />
    <inkscape:path-effect
       effect="simplify"
       id="path-effect8532"
       is_visible="true"
       steps="1"
       threshold="0.000408163"
       smooth_angles="360"
       helper_size="0"
       simplify_individual_paths="false"
       simplify_just_coalesce="false"
       simplifyindividualpaths="false"
       simplifyJustCoalesce="false" />
    <inkscape:path-effect
       effect="simplify"
       id="path-effect8528"
       is_visible="true"
       steps="1"
       threshold="0.000408163"
       smooth_angles="360"
       helper_size="0"
       simplify_individual_paths="false"
       simplify_just_coalesce="false"
       simplifyindividualpaths="false"
       simplifyJustCoalesce="false" />
    <inkscape:path-effect
       effect="simplify"
       id="path-effect8524"
       is_visible="true"
       steps="1"
       threshold="0.000408163"
       smooth_angles="360"
       helper_size="0"
       simplify_individual_paths="false"
       simplify_just_coalesce="false"
       simplifyindividualpaths="false"
       simplifyJustCoalesce="false" />
    <inkscape:path-effect
       effect="simplify"
       id="path-effect8449"
       is_visible="true"
       steps="1"
       threshold="0.000408163"
       smooth_angles="360"
       helper_size="0"
       simplify_individual_paths="false"
       simplify_just_coalesce="false"
       simplifyindividualpaths="false"
       simplifyJustCoalesce="false" />
    <inkscape:path-effect
       effect="simplify"
       id="path-effect8443"
       is_visible="true"
       steps="1"
       threshold="0.000408163"
       smooth_angles="360"
       helper_size="0"
       simplify_individual_paths="false"
       simplify_just_coalesce="false"
       simplifyindividualpaths="false"
       simplifyJustCoalesce="false" />
    <inkscape:path-effect
       effect="simplify"
       id="path-effect8434"
       is_visible="true"
       steps="1"
       threshold="0.000408163"
       smooth_angles="360"
       helper_size="0"
       simplify_individual_paths="false"
       simplify_just_coalesce="false"
       simplifyindividualpaths="false"
       simplifyJustCoalesce="false" />
    <inkscape:path-effect
       effect="simplify"
       id="path-effect8422"
       is_visible="true"
       steps="1"
       threshold="0.000408163"
       smooth_angles="360"
       helper_size="0"
       simplify_individual_paths="false"
       simplify_just_coalesce="false"
       simplifyindividualpaths="false"
       simplifyJustCoalesce="false" />
    <inkscape:path-effect
       effect="simplify"
       id="path-effect8418"
       is_visible="true"
       steps="1"
       threshold="0.000408163"
       smooth_angles="360"
       helper_size="0"
       simplify_individual_paths="false"
       simplify_just_coalesce="false"
       simplifyindividualpaths="false"
       simplifyJustCoalesce="false" />
    <inkscape:path-effect
       effect="simplify"
       id="path-effect8413"
       is_visible="true"
       steps="1"
       threshold="0.000408163"
       smooth_angles="360"
       helper_size="0"
       simplify_individual_paths="false"
       simplify_just_coalesce="false"
       simplifyindividualpaths="false"
       simplifyJustCoalesce="false" />
    <inkscape:path-effect
       effect="simplify"
       id="path-effect8391"
       is_visible="true"
       steps="1"
       threshold="0.000408163"
       smooth_angles="360"
       helper_size="0"
       simplify_individual_paths="false"
       simplify_just_coalesce="false"
       simplifyindividualpaths="false"
       simplifyJustCoalesce="false" />
    <inkscape:path-effect
       effect="simplify"
       id="path-effect8114"
       is_visible="true"
       steps="1"
       threshold="0.000408163"
       smooth_angles="360"
       helper_size="0"
       simplify_individual_paths="false"
       simplify_just_coalesce="false"
       simplifyindividualpaths="false"
       simplifyJustCoalesce="false" />
    <inkscape:path-effect
       effect="simplify"
       id="path-effect7808"
       is_visible="true"
       steps="1"
       threshold="0.000408163"
       smooth_angles="360"
       helper_size="0"
       simplify_individual_paths="false"
       simplify_just_coalesce="false"
       simplifyindividualpaths="false"
       simplifyJustCoalesce="false" />
    <inkscape:path-effect
       effect="simplify"
       id="path-effect6980"
       is_visible="true"
       steps="1"
       threshold="0.000408163"
       smooth_angles="360"
       helper_size="0"
       simplify_individual_paths="false"
       simplify_just_coalesce="false"
       simplifyindividualpaths="false"
       simplifyJustCoalesce="false" />
    <inkscape:path-effect
       effect="simplify"
       id="path-effect6741"
       is_visible="true"
       steps="1"
       threshold="0.000408163"
       smooth_angles="360"
       helper_size="0"
       simplify_individual_paths="false"
       simplify_just_coalesce="false"
       simplifyindividualpaths="false"
       simplifyJustCoalesce="false" />
  </defs>
  <sodipodi:namedview
     id="base"
     pagecolor="#ffffff"
     bordercolor="#666666"
     borderopacity="1.0"
     inkscape:pageopacity="0.0"
     inkscape:pageshadow="2"
     inkscape:zoom="1.979899"
     inkscape:cx="0.91975826"
     inkscape:cy="95.726024"
     inkscape:document-units="mm"
     inkscape:current-layer="layer1"
     showgrid="false"
     inkscape:window-width="1920"
     inkscape:window-height="1020"
     inkscape:window-x="0"
     inkscape:window-y="0"
     inkscape:window-maximized="1"
     units="mm"
     scale-x="0.9"
     showborder="true"
     inkscape:snap-global="false" />
  <metadata
     id="metadata5765">
    <rdf:RDF>
      <cc:Work
         rdf:about="">
        <dc:format>image/svg+xml</dc:format>
        <dc:type
           rdf:resource="http://purl.org/dc/dcmitype/StillImage" />
        <dc:title></dc:title>
      </cc:Work>
    </rdf:RDF>
  </metadata>
  <g
     inkscape:label="Layer 1"
     inkscape:groupmode="layer"
     id="layer1"
     transform="translate(-313.86845,-698.43524)">
    <path
       style="fill:#000000;stroke-width:0.3175"
       d="m 328.49919,698.43677 c -2.44402,-0.0279 -4.90447,0.32521 -6.39961,1.00973 l -1.74965,0.80086 0.12928,1.35481 c 0.0997,1.04561 0.39981,1.6253 1.31481,2.54032 l 1.1855,1.18595 -1.28271,-0.37904 c -1.29859,-0.38341 -1.50197,-0.65554 -2.0143,-2.69193 l -0.27765,-1.10178 -1.32921,1.32921 c -2.72749,2.72751 -4.2102,6.19118 -4.2072,9.83428 0.002,3.5768 1.14172,4.84593 5.09133,5.66942 2.73234,0.56971 3.246,1.05251 3.01376,2.83333 -0.0911,0.69849 -0.25784,2.36401 -0.37067,3.7007 -0.19721,2.3366 -0.17235,2.46288 0.64089,3.27608 1.37294,1.373 1.91596,0.99117 2.10127,-1.47712 0.0873,-1.163 0.24815,-2.20377 0.35766,-2.31288 0.10949,-0.10911 0.45203,0.73671 0.76133,1.87942 0.52023,1.92179 0.62858,2.07755 1.44037,2.07755 0.83658,0 0.8898,-0.0927 1.14319,-1.98408 0.29714,-2.2178 0.93112,-2.45486 0.84973,-0.31764 -0.0436,1.14538 0.0422,1.34922 0.56974,1.34922 0.81507,0 2.18032,-1.38227 2.18032,-2.20778 0,-0.35721 0.12754,-0.64972 0.28325,-0.64972 0.38447,0 0.71454,1.41777 0.47532,2.04125 -0.10625,0.27711 -0.0993,1.0037 0.0152,1.6148 v 0 c 0.21517,1.14691 0.41784,1.2006 2.32217,0.61391 0.29365,-0.0904 0.39671,-1.32035 0.39671,-4.72854 0,-5.2844 0.0214,-5.32481 3.01657,-5.74941 0.87314,-0.1238 2.14006,-0.44296 2.81564,-0.70928 3.6591,-1.44259 2.99004,-8.98991 -1.20782,-13.62661 l -1.31295,-1.45013 -1.01855,0.52647 c -0.56017,0.2897 -1.41244,0.6758 -1.89384,0.85808 -0.74121,0.2807 -0.66829,0.15428 0.4744,-0.82551 0.74214,-0.63631 1.34921,-1.2867 1.34921,-1.44551 0,-0.58038 -2.46964,-1.8253 -4.69365,-2.36589 -1.24247,-0.30199 -2.7031,-0.45575 -4.16953,-0.47254 z m 8.11299,10.19194 c 0.46379,0.009 0.92126,0.17148 1.59479,0.49114 2.12908,1.01029 3.2972,3.86543 2.19754,5.37084 v 0 c -0.38732,0.5302 -0.8864,0.62357 -3.57188,0.6716 -3.73139,0.0665 -4.97814,-0.16735 -5.1313,-0.96274 -0.37136,-1.92819 1.09789,-4.23369 3.27841,-5.14481 0.69858,-0.29198 1.16864,-0.43581 1.63244,-0.42648 z m -15.69068,0.23953 c 0.14016,0 0.28397,0.005 0.43208,0.0126 1.10292,0.0587 3.46048,1.8392 4.03743,3.04911 0.82475,1.72951 0.70464,2.34789 -0.5595,2.8761 v 0 c -1.39943,0.58529 -5.69973,0.585 -7.04423,0 -1.31219,-0.5709 -1.57132,-1.48618 -0.91016,-3.21747 0.72582,-1.9005 1.94262,-2.72741 4.04438,-2.71937 z m 6.67496,6.0801 c 0.13261,0 0.25084,0.96431 0.26324,2.14312 0.0426,4.0937 0.90971,4.26349 1.24456,0.2437 l 0.18557,-2.22823 0.57486,1.27016 c 0.31611,0.69849 0.6518,2.16282 0.746,3.25421 0.13623,1.57849 0.081,1.97292 -0.2693,1.92594 -0.24217,-0.0323 -1.18924,-0.11135 -2.10497,-0.17536 -1.46021,-0.10218 -1.68938,-0.21276 -1.86176,-0.89947 -0.41255,-1.6438 0.44637,-5.53407 1.2218,-5.53407 z"
       id="path7672-7"
       inkscape:connector-curvature="0" />
  </g>
</svg>
