<?xml version="1.0" encoding="UTF-8" standalone="no"?>
<!-- Created with Inkscape (http://www.inkscape.org/) -->

<svg
   xmlns:dc="http://purl.org/dc/elements/1.1/"
   xmlns:cc="http://creativecommons.org/ns#"
   xmlns:rdf="http://www.w3.org/1999/02/22-rdf-syntax-ns#"
   xmlns:svg="http://www.w3.org/2000/svg"
   xmlns="http://www.w3.org/2000/svg"
   xmlns:sodipodi="http://sodipodi.sourceforge.net/DTD/sodipodi-0.dtd"
   xmlns:inkscape="http://www.inkscape.org/namespaces/inkscape"
   width="262.45166mm"
   height="262.27643mm"
   viewBox="0 0 236.20649 236.04878"
   version="1.1"
   id="svg5768"
   inkscape:version="0.92.5 (2060ec1f9f, 2020-04-08)"
   sodipodi:docname="boros.svg">
  <defs
     id="defs5762">
    <inkscape:path-effect
       effect="simplify"
       id="path-effect4565"
       is_visible="true"
       steps="1"
       threshold="0.000408163"
       smooth_angles="360"
       helper_size="0"
       simplify_individual_paths="false"
       simplify_just_coalesce="false"
       simplifyindividualpaths="false"
       simplifyJustCoalesce="false" />
    <inkscape:path-effect
       effect="simplify"
       id="path-effect4543"
       is_visible="true"
       steps="1"
       threshold="0.000408163"
       smooth_angles="360"
       helper_size="0"
       simplify_individual_paths="false"
       simplify_just_coalesce="false"
       simplifyindividualpaths="false"
       simplifyJustCoalesce="false" />
    <inkscape:path-effect
       effect="simplify"
       id="path-effect8619"
       is_visible="true"
       steps="1"
       threshold="0.000408163"
       smooth_angles="360"
       helper_size="0"
       simplify_individual_paths="false"
       simplify_just_coalesce="false"
       simplifyindividualpaths="false"
       simplifyJustCoalesce="false" />
    <inkscape:path-effect
       effect="simplify"
       id="path-effect8615"
       is_visible="true"
       steps="1"
       threshold="0.000408163"
       smooth_angles="360"
       helper_size="0"
       simplify_individual_paths="false"
       simplify_just_coalesce="false"
       simplifyindividualpaths="false"
       simplifyJustCoalesce="false" />
    <inkscape:path-effect
       effect="simplify"
       id="path-effect8611"
       is_visible="true"
       steps="1"
       threshold="0.000408163"
       smooth_angles="360"
       helper_size="0"
       simplify_individual_paths="false"
       simplify_just_coalesce="false"
       simplifyindividualpaths="false"
       simplifyJustCoalesce="false" />
    <inkscape:path-effect
       effect="simplify"
       id="path-effect8607"
       is_visible="true"
       steps="1"
       threshold="0.000408163"
       smooth_angles="360"
       helper_size="0"
       simplify_individual_paths="false"
       simplify_just_coalesce="false"
       simplifyindividualpaths="false"
       simplifyJustCoalesce="false" />
    <inkscape:path-effect
       effect="simplify"
       id="path-effect8600"
       is_visible="true"
       steps="1"
       threshold="0.000408163"
       smooth_angles="360"
       helper_size="0"
       simplify_individual_paths="false"
       simplify_just_coalesce="false"
       simplifyindividualpaths="false"
       simplifyJustCoalesce="false" />
    <inkscape:path-effect
       effect="simplify"
       id="path-effect8584"
       is_visible="true"
       steps="1"
       threshold="0.000408163"
       smooth_angles="360"
       helper_size="0"
       simplify_individual_paths="false"
       simplify_just_coalesce="false"
       simplifyindividualpaths="false"
       simplifyJustCoalesce="false" />
    <inkscape:path-effect
       effect="simplify"
       id="path-effect8571"
       is_visible="true"
       steps="1"
       threshold="0.000408163"
       smooth_angles="360"
       helper_size="0"
       simplify_individual_paths="false"
       simplify_just_coalesce="false"
       simplifyindividualpaths="false"
       simplifyJustCoalesce="false" />
    <inkscape:path-effect
       effect="simplify"
       id="path-effect8556"
       is_visible="true"
       steps="1"
       threshold="0.000408163"
       smooth_angles="360"
       helper_size="0"
       simplify_individual_paths="false"
       simplify_just_coalesce="false"
       simplifyindividualpaths="false"
       simplifyJustCoalesce="false" />
    <inkscape:path-effect
       effect="simplify"
       id="path-effect8532"
       is_visible="true"
       steps="1"
       threshold="0.000408163"
       smooth_angles="360"
       helper_size="0"
       simplify_individual_paths="false"
       simplify_just_coalesce="false"
       simplifyindividualpaths="false"
       simplifyJustCoalesce="false" />
    <inkscape:path-effect
       effect="simplify"
       id="path-effect8528"
       is_visible="true"
       steps="1"
       threshold="0.000408163"
       smooth_angles="360"
       helper_size="0"
       simplify_individual_paths="false"
       simplify_just_coalesce="false"
       simplifyindividualpaths="false"
       simplifyJustCoalesce="false" />
    <inkscape:path-effect
       effect="simplify"
       id="path-effect8524"
       is_visible="true"
       steps="1"
       threshold="0.000408163"
       smooth_angles="360"
       helper_size="0"
       simplify_individual_paths="false"
       simplify_just_coalesce="false"
       simplifyindividualpaths="false"
       simplifyJustCoalesce="false" />
    <inkscape:path-effect
       effect="simplify"
       id="path-effect8449"
       is_visible="true"
       steps="1"
       threshold="0.000408163"
       smooth_angles="360"
       helper_size="0"
       simplify_individual_paths="false"
       simplify_just_coalesce="false"
       simplifyindividualpaths="false"
       simplifyJustCoalesce="false" />
    <inkscape:path-effect
       effect="simplify"
       id="path-effect8443"
       is_visible="true"
       steps="1"
       threshold="0.000408163"
       smooth_angles="360"
       helper_size="0"
       simplify_individual_paths="false"
       simplify_just_coalesce="false"
       simplifyindividualpaths="false"
       simplifyJustCoalesce="false" />
    <inkscape:path-effect
       effect="simplify"
       id="path-effect8434"
       is_visible="true"
       steps="1"
       threshold="0.000408163"
       smooth_angles="360"
       helper_size="0"
       simplify_individual_paths="false"
       simplify_just_coalesce="false"
       simplifyindividualpaths="false"
       simplifyJustCoalesce="false" />
    <inkscape:path-effect
       effect="simplify"
       id="path-effect8422"
       is_visible="true"
       steps="1"
       threshold="0.000408163"
       smooth_angles="360"
       helper_size="0"
       simplify_individual_paths="false"
       simplify_just_coalesce="false"
       simplifyindividualpaths="false"
       simplifyJustCoalesce="false" />
    <inkscape:path-effect
       effect="simplify"
       id="path-effect8418"
       is_visible="true"
       steps="1"
       threshold="0.000408163"
       smooth_angles="360"
       helper_size="0"
       simplify_individual_paths="false"
       simplify_just_coalesce="false"
       simplifyindividualpaths="false"
       simplifyJustCoalesce="false" />
    <inkscape:path-effect
       effect="simplify"
       id="path-effect8413"
       is_visible="true"
       steps="1"
       threshold="0.000408163"
       smooth_angles="360"
       helper_size="0"
       simplify_individual_paths="false"
       simplify_just_coalesce="false"
       simplifyindividualpaths="false"
       simplifyJustCoalesce="false" />
    <inkscape:path-effect
       effect="simplify"
       id="path-effect8391"
       is_visible="true"
       steps="1"
       threshold="0.000408163"
       smooth_angles="360"
       helper_size="0"
       simplify_individual_paths="false"
       simplify_just_coalesce="false"
       simplifyindividualpaths="false"
       simplifyJustCoalesce="false" />
    <inkscape:path-effect
       effect="simplify"
       id="path-effect8114"
       is_visible="true"
       steps="1"
       threshold="0.000408163"
       smooth_angles="360"
       helper_size="0"
       simplify_individual_paths="false"
       simplify_just_coalesce="false"
       simplifyindividualpaths="false"
       simplifyJustCoalesce="false" />
    <inkscape:path-effect
       effect="simplify"
       id="path-effect7808"
       is_visible="true"
       steps="1"
       threshold="0.000408163"
       smooth_angles="360"
       helper_size="0"
       simplify_individual_paths="false"
       simplify_just_coalesce="false"
       simplifyindividualpaths="false"
       simplifyJustCoalesce="false" />
    <inkscape:path-effect
       effect="simplify"
       id="path-effect6980"
       is_visible="true"
       steps="1"
       threshold="0.000408163"
       smooth_angles="360"
       helper_size="0"
       simplify_individual_paths="false"
       simplify_just_coalesce="false"
       simplifyindividualpaths="false"
       simplifyJustCoalesce="false" />
    <inkscape:path-effect
       effect="simplify"
       id="path-effect6741"
       is_visible="true"
       steps="1"
       threshold="0.000408163"
       smooth_angles="360"
       helper_size="0"
       simplify_individual_paths="false"
       simplify_just_coalesce="false"
       simplifyindividualpaths="false"
       simplifyJustCoalesce="false" />
  </defs>
  <sodipodi:namedview
     id="base"
     pagecolor="#ffffff"
     bordercolor="#666666"
     borderopacity="1.0"
     inkscape:pageopacity="0.0"
     inkscape:pageshadow="2"
     inkscape:zoom="0.5"
     inkscape:cx="951.05863"
     inkscape:cy="316.51977"
     inkscape:document-units="mm"
     inkscape:current-layer="layer1"
     showgrid="false"
     inkscape:window-width="1920"
     inkscape:window-height="1012"
     inkscape:window-x="0"
     inkscape:window-y="1080"
     inkscape:window-maximized="1"
     units="mm"
     scale-x="0.9"
     showborder="true"
     inkscape:snap-global="false" />
  <metadata
     id="metadata5765">
    <rdf:RDF>
      <cc:Work
         rdf:about="">
        <dc:format>image/svg+xml</dc:format>
        <dc:type
           rdf:resource="http://purl.org/dc/dcmitype/StillImage" />
        <dc:title />
      </cc:Work>
    </rdf:RDF>
  </metadata>
  <g
     inkscape:label="Layer 1"
     inkscape:groupmode="layer"
     id="layer1"
     transform="translate(-2209.2079,-1188.0475)">
    <path
       style="fill:#000000;stroke-width:15.02942848"
       d="m 9774.7441,4989.1758 c -5.9254,0 -19.5113,43.9612 -30.1914,97.6914 -10.6797,53.7302 -24.8126,97.6914 -31.4062,97.6914 -6.5936,0 -36.2833,-33.8153 -65.9766,-75.1465 -29.6932,-41.3308 -59.8537,-75.1484 -67.0234,-75.1484 -7.2554,0 -7.5568,28.3243 -0.6797,63.875 6.7964,35.1311 12.6506,82.983 13.0117,106.3359 l 0.6543,42.459 -85.2246,-46.1582 c -46.8737,-25.3879 -87.9531,-43.4332 -91.2871,-40.0996 -3.334,3.3339 11.3472,38.7621 32.623,78.7285 21.2754,39.966 38.6817,80.0416 38.6817,89.0566 0,11.2849 -26.791,12.7549 -86.0078,4.7188 -47.305,-6.4198 -88.9305,-8.7512 -92.5,-5.1817 -3.57,3.57 25.0173,34.2254 63.5273,68.1231 38.51,33.8982 66.6302,67.1179 62.4883,73.8203 -4.1424,6.7024 -41.3697,20.3034 -82.7266,30.2246 -41.356,9.9213 -75.1933,22.9392 -75.1933,28.9297 0,5.9901 31.2074,20.5827 69.3496,32.4277 63.4788,19.7141 71.7706,28.0291 97.9648,98.2481 15.7388,42.1917 41.5124,88.383 57.2735,102.6465 26.4634,23.9492 27.0172,30.5794 7.2402,86.6328 -11.7787,33.3845 -21.416,63.0684 -21.416,65.9648 0,2.8964 25.3629,18.657 56.3613,35.0215 v 0 c 30.998,16.3645 63.8517,30.0526 73.0078,30.4179 9.1566,0.3654 27.5522,-53.7079 40.8809,-120.1621 l 24.2344,-120.8262 -52.1543,-72.5937 c -36.6119,-50.9611 -52.1524,-88.8555 -52.1524,-127.1602 v -5.8554 h -0.8476 v -42.4258 h 0.8476 137.7793 13.9063 v 42.4258 h -65.584 c -32.6789,3.683 -48.5274,12.3236 -48.5274,26.4375 0,14.1102 16.867,24.0915 45.0879,26.6797 24.7988,2.2744 77.311,18.6942 116.6953,36.4882 l 71.6094,32.3516 58.4043,-31.1738 58.4024,-31.1739 -13.3262,47.2891 c -7.3298,26.009 -27.0229,58.5821 -43.7637,72.3828 -29.8738,24.6274 -29.971,27.2723 -5.2285,142.7793 13.865,64.7278 27.3986,120.4349 30.0762,123.7949 2.6771,3.36 31.9897,-6.1203 65.1386,-21.0683 33.1486,-14.9481 60.2716,-33.821 60.2716,-41.9395 0,-8.1184 -7.629,-40.2242 -16.953,-71.3457 -15.385,-51.3486 -13.417,-61.2446 21.269,-106.9492 21.023,-27.7006 44.27,-73.9231 51.66,-102.7168 11.772,-45.8671 22.168,-54.8163 83.936,-72.2617 38.775,-10.9518 70.5,-25.0952 70.5,-31.4297 0,-6.3345 -31.622,-21.3373 -70.269,-33.3398 -38.653,-12.0021 -72.673,-29.0313 -75.61,-37.8418 -2.937,-8.8105 25.156,-39.7783 62.428,-68.8164 37.271,-29.0382 64.087,-56.4755 59.59,-60.9727 -4.498,-4.496 -48.311,-4.536 -97.364,-0.088 -49.052,4.4477 -89.187,3.6623 -89.187,-1.7441 0,-5.4064 20.936,-46.9249 46.523,-92.2637 25.588,-45.3388 40.806,-82.3121 33.817,-82.1777 -6.989,0.1411 -46.523,20.3155 -87.854,44.832 -41.331,24.5169 -80.6354,44.6976 -87.3415,44.832 -6.7062,0.1407 -8.0266,-31.8685 -2.9356,-71.1328 5.0906,-39.2642 12.3972,-86.608 16.2363,-105.207 3.8396,-18.5991 1.2249,-33.8164 -5.8105,-33.8164 -7.035,0 -40.4725,37.3638 -74.3047,83.0293 -47.7069,64.3926 -63.1577,77.0413 -68.8438,56.3593 -4.0322,-14.6675 -15.3613,-62.1748 -25.1738,-105.5722 -9.8125,-43.3974 -22.6882,-78.9043 -28.6133,-78.9043 z m -57.0761,361.8418 h 83.8418 v 125.2597 79.8028 h -45.4571 v -79.8028 h -38.3847 z m -99.0957,25.7871 h 82.8574 v 100 h -82.8574 z m 202.8574,2.8574 h 72.8574 v 177.1426 h -72.8574 z m 81.4277,22.8574 h 84.2852 v 157.1426 h -84.2852 z"
       transform="scale(0.238125)"
       id="path8394"
       inkscape:connector-curvature="0" />
  </g>
</svg>
