<?xml version="1.0" encoding="UTF-8" standalone="no"?>
<!-- Created with Inkscape (http://www.inkscape.org/) -->

<svg
   xmlns:dc="http://purl.org/dc/elements/1.1/"
   xmlns:cc="http://creativecommons.org/ns#"
   xmlns:rdf="http://www.w3.org/1999/02/22-rdf-syntax-ns#"
   xmlns:svg="http://www.w3.org/2000/svg"
   xmlns="http://www.w3.org/2000/svg"
   xmlns:sodipodi="http://sodipodi.sourceforge.net/DTD/sodipodi-0.dtd"
   xmlns:inkscape="http://www.inkscape.org/namespaces/inkscape"
   width="405.48285mm"
   height="226.66211mm"
   viewBox="0 0 364.93456 203.99589"
   version="1.1"
   id="svg5768"
   inkscape:version="0.92.5 (2060ec1f9f, 2020-04-08)"
   sodipodi:docname="dimir.svg">
  <defs
     id="defs5762">
    <inkscape:path-effect
       effect="simplify"
       id="path-effect4565"
       is_visible="true"
       steps="1"
       threshold="0.000408163"
       smooth_angles="360"
       helper_size="0"
       simplify_individual_paths="false"
       simplify_just_coalesce="false"
       simplifyindividualpaths="false"
       simplifyJustCoalesce="false" />
    <inkscape:path-effect
       effect="simplify"
       id="path-effect4543"
       is_visible="true"
       steps="1"
       threshold="0.000408163"
       smooth_angles="360"
       helper_size="0"
       simplify_individual_paths="false"
       simplify_just_coalesce="false"
       simplifyindividualpaths="false"
       simplifyJustCoalesce="false" />
    <inkscape:path-effect
       effect="simplify"
       id="path-effect8619"
       is_visible="true"
       steps="1"
       threshold="0.000408163"
       smooth_angles="360"
       helper_size="0"
       simplify_individual_paths="false"
       simplify_just_coalesce="false"
       simplifyindividualpaths="false"
       simplifyJustCoalesce="false" />
    <inkscape:path-effect
       effect="simplify"
       id="path-effect8615"
       is_visible="true"
       steps="1"
       threshold="0.000408163"
       smooth_angles="360"
       helper_size="0"
       simplify_individual_paths="false"
       simplify_just_coalesce="false"
       simplifyindividualpaths="false"
       simplifyJustCoalesce="false" />
    <inkscape:path-effect
       effect="simplify"
       id="path-effect8611"
       is_visible="true"
       steps="1"
       threshold="0.000408163"
       smooth_angles="360"
       helper_size="0"
       simplify_individual_paths="false"
       simplify_just_coalesce="false"
       simplifyindividualpaths="false"
       simplifyJustCoalesce="false" />
    <inkscape:path-effect
       effect="simplify"
       id="path-effect8607"
       is_visible="true"
       steps="1"
       threshold="0.000408163"
       smooth_angles="360"
       helper_size="0"
       simplify_individual_paths="false"
       simplify_just_coalesce="false"
       simplifyindividualpaths="false"
       simplifyJustCoalesce="false" />
    <inkscape:path-effect
       effect="simplify"
       id="path-effect8600"
       is_visible="true"
       steps="1"
       threshold="0.000408163"
       smooth_angles="360"
       helper_size="0"
       simplify_individual_paths="false"
       simplify_just_coalesce="false"
       simplifyindividualpaths="false"
       simplifyJustCoalesce="false" />
    <inkscape:path-effect
       effect="simplify"
       id="path-effect8584"
       is_visible="true"
       steps="1"
       threshold="0.000408163"
       smooth_angles="360"
       helper_size="0"
       simplify_individual_paths="false"
       simplify_just_coalesce="false"
       simplifyindividualpaths="false"
       simplifyJustCoalesce="false" />
    <inkscape:path-effect
       effect="simplify"
       id="path-effect8571"
       is_visible="true"
       steps="1"
       threshold="0.000408163"
       smooth_angles="360"
       helper_size="0"
       simplify_individual_paths="false"
       simplify_just_coalesce="false"
       simplifyindividualpaths="false"
       simplifyJustCoalesce="false" />
    <inkscape:path-effect
       effect="simplify"
       id="path-effect8556"
       is_visible="true"
       steps="1"
       threshold="0.000408163"
       smooth_angles="360"
       helper_size="0"
       simplify_individual_paths="false"
       simplify_just_coalesce="false"
       simplifyindividualpaths="false"
       simplifyJustCoalesce="false" />
    <inkscape:path-effect
       effect="simplify"
       id="path-effect8532"
       is_visible="true"
       steps="1"
       threshold="0.000408163"
       smooth_angles="360"
       helper_size="0"
       simplify_individual_paths="false"
       simplify_just_coalesce="false"
       simplifyindividualpaths="false"
       simplifyJustCoalesce="false" />
    <inkscape:path-effect
       effect="simplify"
       id="path-effect8528"
       is_visible="true"
       steps="1"
       threshold="0.000408163"
       smooth_angles="360"
       helper_size="0"
       simplify_individual_paths="false"
       simplify_just_coalesce="false"
       simplifyindividualpaths="false"
       simplifyJustCoalesce="false" />
    <inkscape:path-effect
       effect="simplify"
       id="path-effect8524"
       is_visible="true"
       steps="1"
       threshold="0.000408163"
       smooth_angles="360"
       helper_size="0"
       simplify_individual_paths="false"
       simplify_just_coalesce="false"
       simplifyindividualpaths="false"
       simplifyJustCoalesce="false" />
    <inkscape:path-effect
       effect="simplify"
       id="path-effect8449"
       is_visible="true"
       steps="1"
       threshold="0.000408163"
       smooth_angles="360"
       helper_size="0"
       simplify_individual_paths="false"
       simplify_just_coalesce="false"
       simplifyindividualpaths="false"
       simplifyJustCoalesce="false" />
    <inkscape:path-effect
       effect="simplify"
       id="path-effect8443"
       is_visible="true"
       steps="1"
       threshold="0.000408163"
       smooth_angles="360"
       helper_size="0"
       simplify_individual_paths="false"
       simplify_just_coalesce="false"
       simplifyindividualpaths="false"
       simplifyJustCoalesce="false" />
    <inkscape:path-effect
       effect="simplify"
       id="path-effect8434"
       is_visible="true"
       steps="1"
       threshold="0.000408163"
       smooth_angles="360"
       helper_size="0"
       simplify_individual_paths="false"
       simplify_just_coalesce="false"
       simplifyindividualpaths="false"
       simplifyJustCoalesce="false" />
    <inkscape:path-effect
       effect="simplify"
       id="path-effect8422"
       is_visible="true"
       steps="1"
       threshold="0.000408163"
       smooth_angles="360"
       helper_size="0"
       simplify_individual_paths="false"
       simplify_just_coalesce="false"
       simplifyindividualpaths="false"
       simplifyJustCoalesce="false" />
    <inkscape:path-effect
       effect="simplify"
       id="path-effect8418"
       is_visible="true"
       steps="1"
       threshold="0.000408163"
       smooth_angles="360"
       helper_size="0"
       simplify_individual_paths="false"
       simplify_just_coalesce="false"
       simplifyindividualpaths="false"
       simplifyJustCoalesce="false" />
    <inkscape:path-effect
       effect="simplify"
       id="path-effect8413"
       is_visible="true"
       steps="1"
       threshold="0.000408163"
       smooth_angles="360"
       helper_size="0"
       simplify_individual_paths="false"
       simplify_just_coalesce="false"
       simplifyindividualpaths="false"
       simplifyJustCoalesce="false" />
    <inkscape:path-effect
       effect="simplify"
       id="path-effect8391"
       is_visible="true"
       steps="1"
       threshold="0.000408163"
       smooth_angles="360"
       helper_size="0"
       simplify_individual_paths="false"
       simplify_just_coalesce="false"
       simplifyindividualpaths="false"
       simplifyJustCoalesce="false" />
    <inkscape:path-effect
       effect="simplify"
       id="path-effect8114"
       is_visible="true"
       steps="1"
       threshold="0.000408163"
       smooth_angles="360"
       helper_size="0"
       simplify_individual_paths="false"
       simplify_just_coalesce="false"
       simplifyindividualpaths="false"
       simplifyJustCoalesce="false" />
    <inkscape:path-effect
       effect="simplify"
       id="path-effect7808"
       is_visible="true"
       steps="1"
       threshold="0.000408163"
       smooth_angles="360"
       helper_size="0"
       simplify_individual_paths="false"
       simplify_just_coalesce="false"
       simplifyindividualpaths="false"
       simplifyJustCoalesce="false" />
    <inkscape:path-effect
       effect="simplify"
       id="path-effect6980"
       is_visible="true"
       steps="1"
       threshold="0.000408163"
       smooth_angles="360"
       helper_size="0"
       simplify_individual_paths="false"
       simplify_just_coalesce="false"
       simplifyindividualpaths="false"
       simplifyJustCoalesce="false" />
    <inkscape:path-effect
       effect="simplify"
       id="path-effect6741"
       is_visible="true"
       steps="1"
       threshold="0.000408163"
       smooth_angles="360"
       helper_size="0"
       simplify_individual_paths="false"
       simplify_just_coalesce="false"
       simplifyindividualpaths="false"
       simplifyJustCoalesce="false" />
  </defs>
  <sodipodi:namedview
     id="base"
     pagecolor="#ffffff"
     bordercolor="#666666"
     borderopacity="1.0"
     inkscape:pageopacity="0.0"
     inkscape:pageshadow="2"
     inkscape:zoom="0.1767767"
     inkscape:cx="-533.02154"
     inkscape:cy="555.75937"
     inkscape:document-units="mm"
     inkscape:current-layer="layer1"
     showgrid="false"
     inkscape:window-width="1920"
     inkscape:window-height="1020"
     inkscape:window-x="0"
     inkscape:window-y="0"
     inkscape:window-maximized="1"
     units="mm"
     scale-x="0.9"
     showborder="true"
     inkscape:snap-global="false" />
  <metadata
     id="metadata5765">
    <rdf:RDF>
      <cc:Work
         rdf:about="">
        <dc:format>image/svg+xml</dc:format>
        <dc:type
           rdf:resource="http://purl.org/dc/dcmitype/StillImage" />
        <dc:title></dc:title>
      </cc:Work>
    </rdf:RDF>
  </metadata>
  <g
     inkscape:label="Layer 1"
     inkscape:groupmode="layer"
     id="layer1"
     transform="translate(-1432.6083,-672.68872)">
    <path
       style="fill:#000000;stroke-width:15.02942848"
       d="m 6499.9082,2824.9395 c -7.803,0 -22.5348,10.0575 -32.7383,22.3515 -10.203,12.294 -14.4101,33.146 -9.3476,46.3379 5.062,13.1919 17.6562,21.2117 27.9843,17.8203 10.3286,-3.3914 20.9174,-24.2433 23.5332,-46.3379 2.6155,-22.0945 -1.6286,-40.1718 -9.4316,-40.1718 z m -168.4668,2.8574 c -0.3188,-0.01 -0.6335,0.01 -0.9434,0.037 -8.6753,0.8425 -13.7812,15.6586 -13.7812,40.9414 0,25.4874 5.0718,46.2358 11.2715,46.1094 6.1992,-0.1266 21.4174,-6.6973 33.8164,-14.6016 17.112,-10.9085 18.6644,-20.5954 6.4414,-40.2051 -8.8567,-14.2091 -24.0741,-28.4928 -33.8164,-31.7402 -1.0355,-0.3452 -2.0318,-0.5241 -2.9883,-0.541 z m -188.0684,12.1719 c -6.1652,-3e-4 -20.5724,11.8349 -32.0156,26.3007 -11.4431,14.4658 -37.551,58.2018 -58.0176,97.1914 -20.4661,38.9896 -37.1787,82.9508 -37.1367,97.6914 0.058,20.788 8.3668,16.6852 37.0332,-18.2871 20.3272,-24.7985 37.1999,-49.3719 37.4981,-54.6074 0.2973,-5.2355 15.1605,-13.3428 33.0293,-18.0156 17.8687,-4.6728 46.6122,-0.9752 63.875,8.2168 17.2623,9.192 39.1911,27.3007 48.7285,40.2402 14.8065,20.0876 20.4869,15.883 38.8613,-28.7578 21.2351,-51.5903 20.967,-52.4333 -20.1543,-63.7383 -22.9199,-6.3012 -54.9065,-28.2818 -71.082,-48.8457 -16.1756,-20.5638 -34.4539,-37.3886 -40.6192,-37.3886 z m 547.4727,0 c -6.1102,-3e-4 -31.4005,20.2893 -56.1992,45.0878 -24.7983,24.7986 -59.1345,45.0879 -76.3027,45.0879 -17.1685,0 -31.2149,3.8274 -31.2149,8.5039 0,4.6766 7.6786,23.2746 17.0645,41.3301 9.3858,18.0555 18.9998,35.1138 21.3632,37.9082 2.3635,2.7944 24.963,-10.1971 50.2207,-28.8711 38.3077,-28.3219 51.9733,-31.1952 82.4043,-17.3301 20.0643,9.142 48.9632,33.7556 64.2207,54.6993 15.2576,20.9436 32.814,38.2928 39.0137,38.5527 6.1997,0.2597 11.2715,-8.1353 11.2715,-18.6563 0,-10.5207 -24.9155,-61.245 -55.3672,-112.7207 -30.4512,-51.4755 -60.3644,-93.5919 -66.4746,-93.5917 z m -289.1426,90.1757 c -22.9917,0 -51.8747,17.4102 -75.5371,45.5313 -21.0713,25.0419 -42.8351,69.6403 -48.3633,99.1074 -5.9275,31.598 -1.957,78.1005 9.6797,113.3594 10.8519,32.8814 36.3076,72.8246 56.5684,88.7617 20.2603,15.937 45.7529,28.9766 56.6484,28.9766 10.8956,0 37.5425,-8.0796 59.2168,-17.9551 21.6743,-9.8754 49.0451,-36.5943 60.8242,-59.3731 11.7796,-22.7787 21.418,-72.5221 21.418,-110.541 0,-38.0189 -10.2146,-88.8785 -22.6992,-113.0215 -12.4851,-24.143 -35.7118,-50.8599 -51.6152,-59.3711 -15.9037,-8.5112 -45.6666,-15.4746 -66.1407,-15.4746 z m -160.1328,133.084 -39.6015,31.1485 c -21.7803,17.1323 -45.0117,31.1503 -51.625,31.1503 -6.6136,0 -28.4444,6.2427 -48.5137,13.8731 -34.7175,13.1994 -35.8836,17.7633 -24.0176,93.9336 6.8598,44.0332 16.4049,96.076 21.2129,115.6504 4.808,19.5743 13.2842,31.0479 18.8359,25.4961 5.5517,-5.5519 8.4156,-31.7131 6.3633,-58.1348 -2.1858,-28.1414 9.2048,-68.9349 27.502,-98.4883 17.1788,-27.7476 44.4214,-53.8985 60.539,-58.1133 20.7148,-5.4172 29.3047,-20.6849 29.3047,-52.0898 z m 342.4981,17.211 c -6.5185,0 -11.8516,16.9068 -11.8516,37.5722 0,27.0823 8.0894,37.5742 28.9687,37.5742 15.9324,0 42.9851,17.8214 60.1172,39.6016 20.2793,25.7806 31.1504,61.6194 31.1504,102.6992 0,34.7054 5.0718,68.2463 11.2715,74.5332 6.1997,6.2871 19.0761,-21.3304 28.6152,-61.3711 9.5396,-40.0406 17.9939,-94.7813 18.7872,-121.6465 0.9033,-30.5829 -5.7983,-48.8457 -17.9239,-48.8457 -10.6515,0 -45.8971,-13.5262 -78.3242,-30.0586 -32.4275,-16.5323 -64.2925,-30.0585 -70.8105,-30.0585 z m -338.7149,123.2714 c -0.1699,-0.012 -0.3317,0 -0.4863,0.041 -1.9237,0.4975 -2.68,5.0107 -2.8399,13.3789 -0.2511,13.1847 -13.9831,36.2141 -30.5156,51.1757 -16.5325,14.9617 -30.0605,39.3021 -30.0605,54.0899 0,14.7878 24.0067,86.4438 53.3476,159.2363 29.3409,72.7926 63.6991,148.1546 76.3496,167.4707 12.6501,19.3161 26.3136,31.8054 30.3653,27.7539 4.0516,-4.0515 -6.9663,-53.672 -24.4844,-110.2676 -17.5177,-56.5955 -33.8979,-150.7455 -36.4004,-209.2226 -2.5025,-58.4773 -12.109,-119.3472 -21.3477,-135.2656 -7.0677,-12.1782 -11.3786,-18.2112 -13.9277,-18.3907 z m 322.2227,19.3203 c -3.9504,0.1317 -7.1116,2.3996 -9.752,6.6719 -6.4109,10.3727 -15.1327,77.4079 -19.3808,148.9668 -4.3713,73.6292 -21.0586,167.6216 -38.4414,216.5274 -16.8954,47.5305 -24.6375,86.4179 -17.209,86.4179 7.428,0 23.1113,-18.598 34.8535,-41.33 11.7417,-22.7321 45.732,-101.8244 75.5332,-175.7598 29.8011,-73.9353 53.9693,-141.5664 53.709,-150.293 -0.2612,-8.7264 -17.7845,-35.5586 -38.9414,-59.6269 -19.1718,-21.8094 -31.6802,-31.8635 -40.3711,-31.5743 z"
       id="path8205"
       transform="scale(0.238125)"
       inkscape:connector-curvature="0" />
    <flowRoot
       xml:space="preserve"
       id="flowRoot8474"
       style="font-style:normal;font-weight:normal;font-size:10.66666698px;line-height:1.25;font-family:sans-serif;letter-spacing:0px;word-spacing:0px;fill:#000000;fill-opacity:1;stroke:none"
       transform="matrix(0.238125,0,0,0.238125,-30.404579,-43.297665)"><flowRegion
         id="flowRegion8476"><rect
           id="rect8478"
           width="1260.6704"
           height="541.44177"
           x="7155.9204"
           y="3260.0024" /></flowRegion><flowPara
         id="flowPara8480"
         style="font-size:192px">Dimir</flowPara></flowRoot>  </g>
</svg>
