<?xml version="1.0" encoding="UTF-8" standalone="no"?>
<!-- Created with Inkscape (http://www.inkscape.org/) -->

<svg
   xmlns:dc="http://purl.org/dc/elements/1.1/"
   xmlns:cc="http://creativecommons.org/ns#"
   xmlns:rdf="http://www.w3.org/1999/02/22-rdf-syntax-ns#"
   xmlns:svg="http://www.w3.org/2000/svg"
   xmlns="http://www.w3.org/2000/svg"
   xmlns:sodipodi="http://sodipodi.sourceforge.net/DTD/sodipodi-0.dtd"
   xmlns:inkscape="http://www.inkscape.org/namespaces/inkscape"
   width="242.20834mm"
   height="338.44379mm"
   viewBox="0 0 217.98751 304.5994"
   version="1.1"
   id="svg5768"
   inkscape:version="0.92.5 (2060ec1f9f, 2020-04-08)"
   sodipodi:docname="esper.svg">
  <defs
     id="defs5762">
    <inkscape:path-effect
       effect="simplify"
       id="path-effect4565"
       is_visible="true"
       steps="1"
       threshold="0.000408163"
       smooth_angles="360"
       helper_size="0"
       simplify_individual_paths="false"
       simplify_just_coalesce="false"
       simplifyindividualpaths="false"
       simplifyJustCoalesce="false" />
    <inkscape:path-effect
       effect="simplify"
       id="path-effect4543"
       is_visible="true"
       steps="1"
       threshold="0.000408163"
       smooth_angles="360"
       helper_size="0"
       simplify_individual_paths="false"
       simplify_just_coalesce="false"
       simplifyindividualpaths="false"
       simplifyJustCoalesce="false" />
    <inkscape:path-effect
       effect="simplify"
       id="path-effect8619"
       is_visible="true"
       steps="1"
       threshold="0.000408163"
       smooth_angles="360"
       helper_size="0"
       simplify_individual_paths="false"
       simplify_just_coalesce="false"
       simplifyindividualpaths="false"
       simplifyJustCoalesce="false" />
    <inkscape:path-effect
       effect="simplify"
       id="path-effect8615"
       is_visible="true"
       steps="1"
       threshold="0.000408163"
       smooth_angles="360"
       helper_size="0"
       simplify_individual_paths="false"
       simplify_just_coalesce="false"
       simplifyindividualpaths="false"
       simplifyJustCoalesce="false" />
    <inkscape:path-effect
       effect="simplify"
       id="path-effect8611"
       is_visible="true"
       steps="1"
       threshold="0.000408163"
       smooth_angles="360"
       helper_size="0"
       simplify_individual_paths="false"
       simplify_just_coalesce="false"
       simplifyindividualpaths="false"
       simplifyJustCoalesce="false" />
    <inkscape:path-effect
       effect="simplify"
       id="path-effect8607"
       is_visible="true"
       steps="1"
       threshold="0.000408163"
       smooth_angles="360"
       helper_size="0"
       simplify_individual_paths="false"
       simplify_just_coalesce="false"
       simplifyindividualpaths="false"
       simplifyJustCoalesce="false" />
    <inkscape:path-effect
       effect="simplify"
       id="path-effect8600"
       is_visible="true"
       steps="1"
       threshold="0.000408163"
       smooth_angles="360"
       helper_size="0"
       simplify_individual_paths="false"
       simplify_just_coalesce="false"
       simplifyindividualpaths="false"
       simplifyJustCoalesce="false" />
    <inkscape:path-effect
       effect="simplify"
       id="path-effect8584"
       is_visible="true"
       steps="1"
       threshold="0.000408163"
       smooth_angles="360"
       helper_size="0"
       simplify_individual_paths="false"
       simplify_just_coalesce="false"
       simplifyindividualpaths="false"
       simplifyJustCoalesce="false" />
    <inkscape:path-effect
       effect="simplify"
       id="path-effect8571"
       is_visible="true"
       steps="1"
       threshold="0.000408163"
       smooth_angles="360"
       helper_size="0"
       simplify_individual_paths="false"
       simplify_just_coalesce="false"
       simplifyindividualpaths="false"
       simplifyJustCoalesce="false" />
    <inkscape:path-effect
       effect="simplify"
       id="path-effect8556"
       is_visible="true"
       steps="1"
       threshold="0.000408163"
       smooth_angles="360"
       helper_size="0"
       simplify_individual_paths="false"
       simplify_just_coalesce="false"
       simplifyindividualpaths="false"
       simplifyJustCoalesce="false" />
    <inkscape:path-effect
       effect="simplify"
       id="path-effect8532"
       is_visible="true"
       steps="1"
       threshold="0.000408163"
       smooth_angles="360"
       helper_size="0"
       simplify_individual_paths="false"
       simplify_just_coalesce="false"
       simplifyindividualpaths="false"
       simplifyJustCoalesce="false" />
    <inkscape:path-effect
       effect="simplify"
       id="path-effect8528"
       is_visible="true"
       steps="1"
       threshold="0.000408163"
       smooth_angles="360"
       helper_size="0"
       simplify_individual_paths="false"
       simplify_just_coalesce="false"
       simplifyindividualpaths="false"
       simplifyJustCoalesce="false" />
    <inkscape:path-effect
       effect="simplify"
       id="path-effect8524"
       is_visible="true"
       steps="1"
       threshold="0.000408163"
       smooth_angles="360"
       helper_size="0"
       simplify_individual_paths="false"
       simplify_just_coalesce="false"
       simplifyindividualpaths="false"
       simplifyJustCoalesce="false" />
    <inkscape:path-effect
       effect="simplify"
       id="path-effect8449"
       is_visible="true"
       steps="1"
       threshold="0.000408163"
       smooth_angles="360"
       helper_size="0"
       simplify_individual_paths="false"
       simplify_just_coalesce="false"
       simplifyindividualpaths="false"
       simplifyJustCoalesce="false" />
    <inkscape:path-effect
       effect="simplify"
       id="path-effect8443"
       is_visible="true"
       steps="1"
       threshold="0.000408163"
       smooth_angles="360"
       helper_size="0"
       simplify_individual_paths="false"
       simplify_just_coalesce="false"
       simplifyindividualpaths="false"
       simplifyJustCoalesce="false" />
    <inkscape:path-effect
       effect="simplify"
       id="path-effect8434"
       is_visible="true"
       steps="1"
       threshold="0.000408163"
       smooth_angles="360"
       helper_size="0"
       simplify_individual_paths="false"
       simplify_just_coalesce="false"
       simplifyindividualpaths="false"
       simplifyJustCoalesce="false" />
    <inkscape:path-effect
       effect="simplify"
       id="path-effect8422"
       is_visible="true"
       steps="1"
       threshold="0.000408163"
       smooth_angles="360"
       helper_size="0"
       simplify_individual_paths="false"
       simplify_just_coalesce="false"
       simplifyindividualpaths="false"
       simplifyJustCoalesce="false" />
    <inkscape:path-effect
       effect="simplify"
       id="path-effect8418"
       is_visible="true"
       steps="1"
       threshold="0.000408163"
       smooth_angles="360"
       helper_size="0"
       simplify_individual_paths="false"
       simplify_just_coalesce="false"
       simplifyindividualpaths="false"
       simplifyJustCoalesce="false" />
    <inkscape:path-effect
       effect="simplify"
       id="path-effect8413"
       is_visible="true"
       steps="1"
       threshold="0.000408163"
       smooth_angles="360"
       helper_size="0"
       simplify_individual_paths="false"
       simplify_just_coalesce="false"
       simplifyindividualpaths="false"
       simplifyJustCoalesce="false" />
    <inkscape:path-effect
       effect="simplify"
       id="path-effect8391"
       is_visible="true"
       steps="1"
       threshold="0.000408163"
       smooth_angles="360"
       helper_size="0"
       simplify_individual_paths="false"
       simplify_just_coalesce="false"
       simplifyindividualpaths="false"
       simplifyJustCoalesce="false" />
    <inkscape:path-effect
       effect="simplify"
       id="path-effect8114"
       is_visible="true"
       steps="1"
       threshold="0.000408163"
       smooth_angles="360"
       helper_size="0"
       simplify_individual_paths="false"
       simplify_just_coalesce="false"
       simplifyindividualpaths="false"
       simplifyJustCoalesce="false" />
    <inkscape:path-effect
       effect="simplify"
       id="path-effect7808"
       is_visible="true"
       steps="1"
       threshold="0.000408163"
       smooth_angles="360"
       helper_size="0"
       simplify_individual_paths="false"
       simplify_just_coalesce="false"
       simplifyindividualpaths="false"
       simplifyJustCoalesce="false" />
    <inkscape:path-effect
       effect="simplify"
       id="path-effect6980"
       is_visible="true"
       steps="1"
       threshold="0.000408163"
       smooth_angles="360"
       helper_size="0"
       simplify_individual_paths="false"
       simplify_just_coalesce="false"
       simplifyindividualpaths="false"
       simplifyJustCoalesce="false" />
    <inkscape:path-effect
       effect="simplify"
       id="path-effect6741"
       is_visible="true"
       steps="1"
       threshold="0.000408163"
       smooth_angles="360"
       helper_size="0"
       simplify_individual_paths="false"
       simplify_just_coalesce="false"
       simplifyindividualpaths="false"
       simplifyJustCoalesce="false" />
  </defs>
  <sodipodi:namedview
     id="base"
     pagecolor="#ffffff"
     bordercolor="#666666"
     borderopacity="1.0"
     inkscape:pageopacity="0.0"
     inkscape:pageshadow="2"
     inkscape:zoom="0.088388348"
     inkscape:cx="1031.2947"
     inkscape:cy="-926.26669"
     inkscape:document-units="mm"
     inkscape:current-layer="layer1"
     showgrid="false"
     inkscape:window-width="1920"
     inkscape:window-height="1020"
     inkscape:window-x="0"
     inkscape:window-y="0"
     inkscape:window-maximized="1"
     units="mm"
     scale-x="0.9"
     showborder="true"
     inkscape:snap-global="false" />
  <metadata
     id="metadata5765">
    <rdf:RDF>
      <cc:Work
         rdf:about="">
        <dc:format>image/svg+xml</dc:format>
        <dc:type
           rdf:resource="http://purl.org/dc/dcmitype/StillImage" />
        <dc:title></dc:title>
      </cc:Work>
    </rdf:RDF>
  </metadata>
  <g
     inkscape:label="Layer 1"
     inkscape:groupmode="layer"
     id="layer1"
     transform="translate(-331.87929,-59.973786)">
    <g
       id="g1002">
      <path
         inkscape:connector-curvature="0"
         id="path7686"
         d="m 405.06365,331.28491 c -0.70604,-0.13495 -5.59129,4.13085 -5.59129,4.92852 0,0.15411 0.35735,0.51385 0.79391,0.79995 0.989,0.64801 1.06649,2.13751 0.15859,3.04541 -0.90897,0.90899 -1.43287,0.79107 -2.19104,-0.49394 -0.65465,-1.10979 -0.69802,-1.12803 -2.49193,-1.03201 l -1.82594,0.0972 -0.66042,-2.04778 -0.66041,-2.04781 -0.57208,2.72589 c -0.35966,1.714 -0.48987,3.16473 -0.35066,3.90675 0.20893,1.1135 0.27804,1.17153 1.23247,1.02644 0.55623,-0.0846 1.26827,-0.0195 1.58224,0.14464 0.84487,0.44232 1.22946,1.69904 0.80505,2.63054 -0.31654,0.6948 -0.49823,0.76072 -1.65942,0.60181 -1.19386,-0.16328 -1.39179,-0.082 -2.34358,0.9646 -0.57176,0.62882 -1.2161,1.14367 -1.43153,1.14367 -0.21543,0 -1.06259,-0.35743 -1.88269,-0.79391 -0.82006,-0.4366 -1.55584,-0.79391 -1.63525,-0.79391 -0.22753,0 2.86152,4.59522 3.33841,4.96622 0.98634,0.76719 1.54879,0.72121 2.61333,-0.21348 1.32102,-1.15991 2.23702,-1.19727 2.94261,-0.12047 0.5289,0.8072 0.52016,0.83584 -0.46928,1.61013 -0.85144,0.66642 -1.00738,0.99905 -1.00738,2.14546 0,1.60301 -0.52271,2.18513 -2.70682,3.01423 -0.84744,0.32171 -1.35195,0.66782 -1.15248,0.79112 0.53143,0.32831 5.56153,0.62668 6.51868,0.38648 0.74526,-0.18709 0.83296,-0.36059 0.83296,-1.63989 0,-1.2648 0.10011,-1.46847 0.86413,-1.75896 1.2503,-0.4753 2.46247,0.10325 2.00546,0.95714 -0.54637,1.02101 -0.38276,1.63223 0.78182,2.92122 1.31842,1.45931 1.35571,1.89886 0.31394,3.72116 -0.43448,0.76 -0.79019,1.507 -0.79019,1.6599 0,0.48561 4.90337,-3.38821 5.35362,-4.22951 0.38576,-0.7208 0.36128,-0.87592 -0.23067,-1.4678 -1.30321,-1.30321 -1.15727,-3.25269 0.27115,-3.62631 0.48232,-0.12609 0.76745,0.0547 1.09992,0.69763 0.77917,1.50681 1.32624,1.78561 2.59845,1.3255 1.42834,-0.51649 2.09695,0.0188 2.66495,2.13198 0.2206,0.8207 0.50128,1.60554 0.62322,1.74453 0.28784,0.32802 0.95436,-3.71634 0.95436,-5.79034 v -1.60594 h -1.19946 c -1.71205,0 -2.67115,-0.75795 -2.54915,-2.01475 0.0903,-0.92981 0.18814,-1.00529 1.36736,-1.0553 0.69851,-0.029 1.49721,-0.0646 1.77477,-0.0786 0.27755,-0.0143 0.66556,-0.3793 0.86227,-0.8111 0.5409,-1.1871 1.66414,-1.30468 3.67282,-0.38509 l 1.73802,0.79529 -1.39108,-2.29103 c -2.3099,-3.80478 -3.31422,-4.32361 -4.9704,-2.5682 -1.14753,1.21639 -1.72769,1.24135 -2.43752,0.10463 -0.37279,-0.59688 -0.33066,-0.74776 0.37393,-1.34316 1.12149,-0.94779 1.56481,-1.9818 1.32271,-3.08401 -0.28246,-1.28618 0.20312,-1.76503 2.25428,-2.22404 0.94695,-0.212 1.72129,-0.47399 1.72129,-0.58229 0,-0.2069 -4.42629,-0.97202 -5.62337,-0.97202 -1.51857,0 -2.27593,0.64565 -2.37706,2.02544 -0.10287,1.40291 -0.55471,1.6995 -2.02825,1.32969 -0.6935,-0.17409 -0.7521,-0.3142 -0.57996,-1.3906 0.16783,-1.04951 0.0507,-1.36617 -0.94971,-2.56358 -1.3572,-1.62449 -1.41542,-2.34287 -0.31952,-3.95557 0.45208,-0.6653 0.7655,-1.2658 0.69671,-1.33481 -0.0138,-0.0138 -0.0321,-0.0226 -0.0549,-0.0269 z m -2.08266,9.66266 c 3.90998,0 6.97701,3.11974 6.9656,7.08514 -0.008,2.60671 -2.46557,5.81111 -5.05222,6.58611 -3.78448,1.13391 -7.72268,-0.95843 -8.80367,-4.67692 -1.39282,-4.79109 1.82706,-8.99433 6.89029,-8.99433 z m 0.059,0.73623 c -2.89453,-0.0412 -5.06659,1.2247 -6.14567,3.60024 -1.67833,3.69479 0.45243,7.72222 4.64158,8.77202 1.3504,0.3385 3.2826,0.0229 4.75878,-0.77762 2.57547,-1.39641 3.73273,-5.43377 2.32825,-8.12137 -1.13631,-2.1743 -2.74449,-3.28453 -4.99413,-3.44722 -0.19928,-0.0145 -0.39583,-0.0233 -0.58881,-0.026 z"
         style="fill:#000000;stroke-width:0.3175" />
      <path
         inkscape:connector-curvature="0"
         id="path7672"
         d="m 477.28668,332.11972 c -2.44402,-0.0279 -4.90447,0.32521 -6.39961,1.00973 l -1.74965,0.80086 0.12928,1.35481 c 0.0997,1.04561 0.39981,1.6253 1.31481,2.54032 l 1.1855,1.18595 -1.28271,-0.37904 c -1.29859,-0.38341 -1.50197,-0.65554 -2.0143,-2.69193 l -0.27765,-1.10178 -1.32921,1.32921 c -2.72749,2.72751 -4.2102,6.19118 -4.2072,9.83428 0.002,3.5768 1.14172,4.84593 5.09133,5.66942 2.73234,0.56971 3.246,1.05251 3.01376,2.83333 -0.0911,0.69849 -0.25784,2.36401 -0.37067,3.7007 -0.19721,2.3366 -0.17235,2.46288 0.64089,3.27608 1.37294,1.373 1.91596,0.99117 2.10127,-1.47712 0.0873,-1.163 0.24815,-2.20377 0.35766,-2.31288 0.10949,-0.10911 0.45203,0.73671 0.76133,1.87942 0.52023,1.92179 0.62858,2.07755 1.44037,2.07755 0.83658,0 0.8898,-0.0927 1.14319,-1.98408 0.29714,-2.2178 0.93112,-2.45486 0.84973,-0.31764 -0.0436,1.14538 0.0422,1.34922 0.56974,1.34922 0.81507,0 2.18032,-1.38227 2.18032,-2.20778 0,-0.35721 0.12754,-0.64972 0.28325,-0.64972 0.38447,0 0.71454,1.41777 0.47532,2.04125 -0.10625,0.27711 -0.0993,1.0037 0.0152,1.6148 v 0 c 0.21517,1.14691 0.41784,1.2006 2.32217,0.61391 0.29365,-0.0904 0.39671,-1.32035 0.39671,-4.72854 0,-5.2844 0.0214,-5.32481 3.01657,-5.74941 0.87314,-0.1238 2.14006,-0.44296 2.81564,-0.70928 3.6591,-1.44259 2.99004,-8.98991 -1.20782,-13.62661 l -1.31295,-1.45013 -1.01855,0.52647 c -0.56017,0.2897 -1.41244,0.6758 -1.89384,0.85808 -0.74121,0.2807 -0.66829,0.15428 0.4744,-0.82551 0.74214,-0.63631 1.34921,-1.2867 1.34921,-1.44551 0,-0.58038 -2.46964,-1.8253 -4.69365,-2.36589 -1.24247,-0.30199 -2.7031,-0.45575 -4.16953,-0.47254 z m 8.11299,10.19194 c 0.46379,0.009 0.92126,0.17148 1.59479,0.49114 2.12908,1.01029 3.2972,3.86543 2.19754,5.37084 v 0 c -0.38731,0.5302 -0.8864,0.62357 -3.57188,0.6716 -3.73139,0.0665 -4.97814,-0.16735 -5.1313,-0.96274 -0.37136,-1.92819 1.09789,-4.23369 3.27841,-5.14481 0.69858,-0.29198 1.16864,-0.43581 1.63244,-0.42648 z m -15.69068,0.23953 c 0.14016,0 0.28397,0.005 0.43208,0.0126 1.10292,0.0587 3.46048,1.8392 4.03743,3.04911 0.82475,1.72951 0.70464,2.34789 -0.5595,2.8761 v 0 c -1.39943,0.58529 -5.69973,0.585 -7.04423,0 -1.31219,-0.5709 -1.57132,-1.48618 -0.91016,-3.21747 0.72582,-1.9005 1.94262,-2.72741 4.04438,-2.71937 z m 6.67496,6.0801 c 0.13261,0 0.25084,0.96431 0.26324,2.14312 0.0426,4.0937 0.90971,4.26349 1.24456,0.2437 l 0.18557,-2.22823 0.57486,1.27016 c 0.31611,0.69849 0.6518,2.16282 0.746,3.25421 0.13623,1.57849 0.081,1.97292 -0.2693,1.92594 -0.24217,-0.0323 -1.18924,-0.11135 -2.10497,-0.17536 -1.46021,-0.10218 -1.68938,-0.21276 -1.86176,-0.89947 -0.41255,-1.6438 0.44637,-5.53407 1.2218,-5.53407 z"
         style="fill:#000000;stroke-width:0.3175" />
      <path
         inkscape:connector-curvature="0"
         id="path7664"
         d="m 442.6302,332.91504 -2.61473,2.69888 c -6.0098,6.20261 -9.18024,12.48211 -8.65668,17.145 0.40889,3.64191 3.0696,7.16628 6.26612,8.29997 6.78542,2.40661 13.68402,-5.05766 10.76773,-11.65046 -0.37643,-0.85098 -1.54315,-2.72936 -2.59287,-4.17416 -1.04973,-1.4448 -2.27881,-3.43567 -2.73146,-4.42436 -0.76315,-1.66702 -0.80915,-2.01923 -0.63066,-4.84623 z m 2.81981,14.69491 0.51718,0.78926 c 1.2112,1.84859 1.43056,4.05937 0.49533,4.99458 -0.70552,0.70549 -1.15989,0.77236 -1.98454,0.29206 -0.74528,-0.4341 -0.69832,-1.30486 0.20977,-3.89837 z"
         style="fill:#000000;stroke-width:0.3175" />
      <path
         inkscape:connector-curvature="0"
         id="path7656"
         d="m 476.35455,328.28545 c -2.72602,-1.3622 -4.51536,-3.521 -7.39267,-8.91908 l -2.42424,-4.54812 1.22374,-0.25486 c 1.61985,-0.33734 2.51352,-1.4912 2.51352,-3.24529 0,-1.94533 -0.75359,-2.7347 -2.79832,-2.93116 l -1.64668,-0.15825 v 6.69297 c 0,4.10089 0.1323,6.98335 0.34163,7.44274 0.1879,0.4124 0.72368,0.98682 1.19062,1.27651 0.82084,0.5092 0.72787,0.52663 -2.80225,0.52457 -3.61369,-0.003 -3.64392,-0.008 -2.93688,-0.59808 0.69943,-0.58347 0.71438,-0.73618 0.71438,-7.29192 v -6.69598 h 1.49225 c 1.76927,0 1.63287,-0.2259 -1.07394,-1.7787 l -1.84706,-1.05956 3.87375,-0.01 c 4.94043,-0.0124 6.76523,0.37113 8.19811,1.72254 0.96834,0.91325 1.10423,1.23253 1.10322,2.59159 0,1.89732 -0.81582,3.34908 -2.20034,3.92255 -0.71981,0.29817 -0.95088,0.56233 -0.81109,0.9272 0.67999,1.77451 6.46973,11.77793 7.2323,12.49583 1.23603,1.1636 0.51181,1.1243 -1.95005,-0.1059 z"
         style="fill:#000000;stroke-width:0.3175" />
      <path
         inkscape:connector-curvature="0"
         id="path7654"
         d="m 436.95938,306.72222 -3.99093,0.003 2.22266,1.34784 2.22266,1.34735 -1.50829,0.0967 -1.50828,0.0967 v 7.24653 7.247 l 0.92135,0.38138 c 0.50664,0.20983 1.25673,0.73883 1.66688,1.17574 v 0 l 0.74552,0.79391 0.087,-5.42618 0.087,-5.42618 1.2883,0.65716 c 1.49445,0.7624 2.59914,0.6411 4.59227,-0.50416 2.51726,-1.4464 3.14722,-5.1506 1.21805,-7.16421 -1.33295,-1.39129 -3.40614,-1.87497 -8.04414,-1.87197 z m 0.93064,1.58734 h 1.25201 c 0.86608,0 1.52705,0.23607 2.14312,0.766 0.79715,0.68566 0.89112,0.97248 0.89112,2.72634 0,1.75386 -0.094,2.04068 -0.89112,2.72634 -0.61607,0.52992 -1.27704,0.76648 -2.14312,0.76648 h -1.25201 v -3.49282 z"
         style="fill:#000000;stroke-width:0.3175" />
      <path
         inkscape:connector-curvature="0"
         id="path7648"
         d="m 423.2849,324.30026 c -1.95008,-0.37135 -2.89906,-0.8195 -2.7205,-1.2848 0.0993,-0.2587 0.1805,-1.20107 0.1805,-2.0941 v -1.6237 l 0.91938,1.44971 c 1.16479,1.83671 2.09344,2.48463 3.56108,2.48463 1.74346,0 2.66246,-0.89183 2.61919,-2.54172 -0.0414,-1.58058 -0.79842,-2.45586 -3.90579,-4.51618 -2.51381,-1.66678 -3.21453,-2.59356 -3.43418,-4.54203 -0.40919,-3.63036 2.85925,-5.85314 7.25551,-4.93436 0.94384,0.19723 1.86548,0.46199 2.0481,0.58833 0.20469,0.1416 0.26559,1.01006 0.15875,2.26406 l -0.17329,2.03431 -0.57525,-1.31232 c -0.72866,-1.6624 -1.90865,-2.59759 -3.27758,-2.59759 -1.38856,0 -2.33842,0.94291 -2.33842,2.32137 0,1.27133 0.72047,2.10404 3.13534,3.62366 3.42202,2.15341 4.48466,3.55107 4.48466,5.89851 0,1.7539 -1.00594,3.34372 -2.61499,4.1329 -1.20485,0.5909 -3.9016,0.91991 -5.32251,0.64932 z"
         style="fill:#000000;stroke-width:0.3175" />
      <path
         inkscape:connector-curvature="0"
         id="path7646"
         d="m 407.96553,323.79699 c 0.71281,-0.34379 0.71437,-0.36201 0.71437,-8.34374 0,-7.98173 0,-7.99996 -0.71437,-8.34374 -0.54579,-0.26321 0.54079,-0.3496 4.60375,-0.36602 l 5.31812,-0.0215 v 2.14312 2.14313 l -0.63395,-1.03978 c -0.74368,-1.21584 -1.72412,-1.65897 -3.67297,-1.65897 h -1.40808 v 3.01625 3.01625 l 2.61937,0.013 2.61938,0.013 -1.09925,0.93958 c -0.88592,0.75724 -1.3943,0.93961 -2.61937,0.93961 h -1.52013 v 3.175 3.175 h 1.83436 c 2.05689,0 2.95852,-0.46653 3.90664,-2.02143 l 0.60662,-0.99482 v 2.30187 2.30188 l -5.63563,-0.0216 c -4.29133,-0.0165 -5.46522,-0.10366 -4.92125,-0.36601 z"
         style="fill:#000000;stroke-width:0.3175" />
      <path
         inkscape:connector-curvature="0"
         id="path7644"
         d="m 448.28803,323.79699 c 0.71281,-0.34379 0.71437,-0.36201 0.71437,-8.34374 0,-7.98173 0,-7.99996 -0.71437,-8.34374 -0.54579,-0.26321 0.54079,-0.3496 4.60375,-0.36602 l 5.31812,-0.0215 v 2.14312 2.14313 l -0.61681,-1.01162 c -0.81226,-1.3321 -1.54613,-1.68713 -3.48745,-1.68713 h -1.60836 v 3.01625 3.01625 l 2.61938,0.013 2.61937,0.013 -1.09925,0.93958 c -0.88592,0.75724 -1.3943,0.93961 -2.61937,0.93961 h -1.52013 v 3.175 3.175 h 1.83436 c 2.05689,0 2.95853,-0.46653 3.90664,-2.02143 l 0.60662,-0.99482 v 2.30187 2.30188 l -5.63563,-0.0216 c -4.29133,-0.0165 -5.46522,-0.10366 -4.92125,-0.36601 z"
         style="fill:#000000;stroke-width:0.3175" />
      <path
         id="path7626"
         d="m 439.61735,59.974015 c -5.19217,0.01231 -10.44342,0.497245 -15.69765,1.482699 -6.91594,1.29711 -16.46673,4.855341 -23.65343,8.812021 -11.24851,6.1929 -20.93724,14.697954 -28.47825,24.998474 -6.85905,9.368981 -12.51428,23.582601 -14.401,36.195001 -1.09016,7.28749 -1.08258,17.34875 0.019,24.8929 2.12179,14.5301 8.73219,29.72824 17.48079,40.19057 15.59768,18.65306 36.72473,29.6171 59.91867,31.09577 v 4.8e-4 c 5.58089,0.35575 5.35082,0.35489 10.45564,0.0242 5.75046,-0.37254 9.86879,-0.99925 15.64741,-2.38171 4.72657,-1.13074 14.53508,-4.39551 14.70096,-4.89319 0.0545,-0.16351 1.54984,-1.03932 3.3226,-1.94639 8.0779,-4.13324 14.9479,-9.29172 21.84564,-16.40226 5.9135,-6.09596 10.16084,-11.97681 14.08193,-19.49788 6.65669,-12.7682 9.77824,-26.68295 9.28687,-41.39887 -0.42496,-12.72675 -3.15106,-23.52635 -8.76598,-34.72578 C 500.87091,77.479322 471.34724,59.898751 439.61733,59.974027 Z m 3.8286,12.356454 3.00028,0.213474 c 5.4602,0.38782 14.0763,2.222747 17.81149,3.793257 l 0.95528,0.401372 -4.48299,3.787212 c -2.46566,2.082988 -4.57726,3.805473 -4.69227,3.827671 -0.11502,0.0221 -2.1381,-1.920185 -4.49554,-4.316016 -2.35744,-2.395849 -5.1435,-5.109779 -6.19125,-6.031258 z m -111.56666,2.933774 2.88445,5.001091 c 1.58663,2.750339 6.88187,11.92991 11.76674,20.399216 4.88485,8.46931 9.17362,15.88069 9.53057,16.46969 l 0.6488,1.07064 1.31435,-3.76954 c 0.72271,-2.07331 2.14717,-5.51057 3.16585,-7.63814 l 1.85244,-3.86813 -4.32763,-7.506987 c -2.38013,-4.128961 -4.32766,-7.567795 -4.32766,-7.641395 0,-0.07359 4.22969,-0.133945 9.39896,-0.133945 h 9.39851 l 4.49182,-4.558327 c 2.47057,-2.50708 5.34953,-5.287773 6.39728,-6.179623 l 1.905,-1.621295 -27.04998,-0.01162 z m 190.40511,0.0042 -27.72063,0.0033 1.11109,0.865529 c 2.303,1.793839 7.84993,7.081219 9.68359,9.230599 l 1.905,2.233353 9.59663,0.102318 9.59662,0.10232 -4.37183,7.532563 -4.37183,7.533035 1.35622,2.78587 c 1.5535,3.19084 3.51055,8.08358 4.57504,11.43791 v 4.8e-4 c 0.40182,1.26603 0.76041,2.30172 0.79672,2.30172 0.0789,0 1.11795,-1.78416 8.78365,-15.08094 4.4807,-7.772175 15.65257,-27.114602 16.64177,-28.813131 0.0763,-0.130971 -12.33569,-0.23787 -27.58204,-0.234869 z m -91.19769,0.280447 3.71466,2.374739 c 4.95728,3.16947 9.03632,6.331239 12.21645,9.469191 1.44066,1.421539 2.61938,2.668507 2.61938,2.770527 0,0.102041 -2.22688,2.399383 -4.949,5.105269 -4.9996,4.969834 -9.39001,9.802594 -12.47318,13.730324 -0.92526,1.17872 -1.72748,2.14313 -1.7827,2.14313 -0.0552,0 0.0998,-0.66589 0.34464,-1.47945 0.59638,-1.98152 0.56555,-6.25229 -0.0609,-8.38507 -0.82943,-2.824026 -2.83852,-5.711809 -5.17502,-7.439077 -0.70866,-0.52387 -1.29219,-1.075572 -1.29619,-1.225972 -0.008,-0.303822 4.91516,-12.731908 6.09312,-15.380458 z m -20.83408,3.985805 c 0.01,9.7e-5 0.0148,0.0032 0.0148,0.0093 0,0.06007 -0.3651,1.653578 -0.81111,3.541178 -0.44603,1.8876 -0.83877,3.440454 -0.87299,3.450953 -0.0342,0.01031 -1.20515,-0.223405 -2.60215,-0.519503 -1.39701,-0.29614 -3.0761,-0.550948 -3.73095,-0.565547 -0.65484,-0.01474 -1.18943,-0.133665 -1.18643,-0.264636 0.002,-0.130969 0.89537,-0.828037 1.98453,-1.549208 1.97625,-1.308558 6.89851,-4.105565 7.20421,-4.102539 z m 73.72712,7.794872 c 0.11606,-9.1e-5 2.07836,1.799115 4.36067,3.997895 6.55436,6.31451 10.72724,11.972978 14.55772,19.741118 l 2.07755,4.21324 -1.19713,3.24817 c -1.44675,3.92668 -3.70556,8.79826 -5.52152,11.90764 -0.73702,1.26196 -1.44085,2.28661 -1.5641,2.27661 -0.12326,-0.01 -2.58161,-1.44746 -5.46292,-3.19422 -9.49174,-5.75432 -19.91183,-10.6436 -26.67,-12.51412 -1.65895,-0.45914 -3.19893,-0.89154 -3.42212,-0.96134 -0.2607,-0.0814 0.12744,-0.78148 1.08506,-1.95709 2.91651,-3.58076 4.00026,-7.29279 3.34768,-11.46442 -0.20945,-1.33909 -0.45844,-2.792078 -0.55345,-3.228637 -0.1603,-0.736502 0.23382,-1.0432 5.46666,-4.252298 5.95915,-3.654491 13.14152,-7.812548 13.4959,-7.812548 z m -92.95664,6.270781 6.05033,0.168826 c 3.32763,0.09296 6.95449,0.342514 8.0595,0.554386 1.93365,0.370708 2.00118,0.415566 1.80454,1.198995 -0.94802,3.77717 -2.70262,19.207505 -2.70262,23.766455 0,1.45628 -0.10716,2.64258 -0.23813,2.63659 -0.13097,-0.006 -0.59545,-0.21761 -1.03203,-0.47021 -1.62852,-0.94238 -4.00041,-1.44428 -6.84191,-1.44828 -1.58029,-0.002 -3.11791,0.0899 -3.41699,0.20464 -0.44639,0.17133 -0.89071,-0.52245 -2.47938,-3.87465 -1.87229,-3.95055 -5.46478,-11.92735 -6.01499,-13.35546 -0.22101,-0.57362 0.0499,-1.11566 1.50828,-3.016565 0.97767,-1.274381 2.57111,-3.227444 3.54073,-4.340664 z m 30.29395,7.715812 c 0.31392,-0.0321 1.8068,1.37051 3.05424,2.89145 1.69529,2.06689 3.13289,4.84839 3.85791,7.46373 l 0.54276,1.95848 -1.27806,2.02407 c -3.10456,4.91572 -5.16605,9.90228 -5.78708,13.99914 -1.13815,7.50843 3.12572,13.38854 11.99507,16.54132 2.94596,1.04714 3.30946,1.03773 1.89104,-0.0484 -1.60834,-1.23156 -2.6585,-2.59199 -3.65372,-4.7346 -0.7323,-1.57649 -0.86232,-2.28031 -0.86832,-4.71087 -0.0155,-5.9898 3.04283,-11.71992 10.30496,-19.30906 3.49024,-3.64738 7.25424,-6.94179 12.37459,-10.8305 3.53358,-2.68363 3.64512,-2.74145 3.9323,-2.02778 0.45692,1.13564 0.4146,7.19793 -0.0632,9.06921 l -0.42555,1.66688 h -2.62356 c -3.39179,0 -5.56946,0.42708 -8.01905,1.57339 -3.35059,1.56794 -5.88848,4.7916 -7.16978,9.10782 -0.53369,1.79769 -1.34803,7.66534 -1.09854,7.91486 0.0864,0.0864 0.53513,-0.61514 0.99715,-1.55944 1.0511,-2.14843 3.4746,-4.44421 5.84289,-5.53454 1.43025,-0.65849 2.44181,-0.86403 4.76669,-0.96878 5.92791,-0.26705 11.9398,1.70956 20.06761,6.5982 4.92971,2.96504 14.82811,10.24567 15.18699,11.17048 0.2596,0.66907 -5.54586,2.4952 -7.93023,2.4952 H 475.831 l -1.09714,-2.44032 c -2.39616,-5.32934 -5.77808,-9.30134 -9.45942,-11.10909 -1.68923,-0.8295 -2.09829,-0.89527 -5.47687,-0.88227 -3.29163,0.0128 -3.87049,0.10514 -5.87407,0.93715 -2.4641,1.02324 -5.78468,2.81725 -6.48798,3.50537 -0.39153,0.38313 -0.27994,0.3973 0.79346,0.10092 1.9907,-0.54966 5.44996,-0.1846 7.61721,0.80368 3.40123,1.55105 6.51636,5.27531 8.23763,9.84823 0.43655,1.15992 0.79343,2.18652 0.79343,2.28172 0,0.0952 -0.39274,-0.10398 -0.87297,-0.44276 -1.52043,-1.07251 -3.96252,-2.18352 -6.68376,-3.04121 -3.39443,-1.06983 -3.95871,-1.05444 -2.41242,0.067 1.78555,1.29495 3.2756,3.10229 4.22207,5.12016 0.73824,1.57403 0.8238,2.13096 0.80598,5.25316 -0.0171,3.00955 -0.14189,3.82163 -0.90411,5.8736 -0.94512,2.54425 -2.46866,5.47085 -4.25882,8.18043 -1.30302,1.97225 -1.67152,1.98689 -0.65439,0.026 0.5409,-1.04273 0.74833,-2.0785 0.84832,-4.23741 0.15995,-3.45344 -0.50885,-5.79282 -2.63285,-9.20735 -1.45709,-2.34242 -4.57631,-6.16422 -4.14626,-5.08015 0.80763,2.03594 1.1872,4.30574 1.04923,6.27357 -0.43134,6.15182 -6.03245,11.48662 -15.69251,14.94699 -3.47129,1.24346 -10.85626,2.95985 -15.81626,3.67606 v -4.8e-4 c -2.44476,0.35303 -5.62404,0.73825 -7.06469,0.85623 -3.06498,0.25098 -3.06091,0.25745 -1.71105,-2.57519 1.98539,-4.1662 6.29776,-8.64888 7.97345,-8.28833 0.44122,0.0949 1.75557,0.32917 2.92077,0.52043 6.11183,1.00317 11.73499,-2.54951 15.43393,-9.75057 0.91075,-1.77305 1.65618,-3.30733 1.65618,-3.40956 0,-0.10224 -0.56645,0.3809 -1.25899,1.07343 -2.64824,2.64824 -6.69827,3.88483 -10.4975,3.20585 -2.34118,-0.41837 -5.76503,-1.91524 -8.18043,-3.57653 -3.66484,-2.52063 -8.945,-8.25956 -13.25547,-14.40703 -2.27023,-3.23777 -7.44745,-11.63513 -7.44745,-12.07972 0,-0.10951 1.66168,-0.13584 3.69279,-0.0581 4.34995,0.16652 4.37562,0.1855 4.67554,3.41235 0.55724,5.99574 2.90882,12.14932 5.76615,15.08931 4.06853,4.18623 9.56265,5.0123 17.58963,2.64496 l 2.35519,-0.69484 -2.44216,-0.41254 c -5.80425,-0.98038 -9.33657,-4.51374 -11.20723,-11.21048 -0.89461,-3.20265 -0.80729,-12.74213 0.16742,-18.25609 0.89221,-5.04685 3.74495,-16.30028 4.37555,-17.26081 0.01,-0.0153 0.0256,-0.0239 0.0465,-0.026 z m -46.96318,22.21119 c 0.10709,0.002 0.75631,0.87414 1.44271,1.93942 1.09416,1.69805 1.18419,1.97266 0.72833,2.22777 -0.28597,0.16002 -1.1706,0.78759 -1.96546,1.39434 -1.64214,1.2537 -1.86545,1.32816 -1.63804,0.5474 0.089,-0.3056 0.40405,-1.80578 0.69997,-3.33375 0.29589,-1.52797 0.62543,-2.77518 0.73249,-2.77518 z m 134.48529,5.58664 0.23488,1.37433 c 0.29054,1.70218 0.88104,8.33171 0.88504,9.94312 0.004,1.39052 -0.14725,1.43705 -1.42548,0.44137 -0.52388,-0.40808 -1.84316,-1.34596 -2.93192,-2.08453 l -1.97941,-1.34271 1.21296,-1.80128 c 0.66718,-0.99057 1.84113,-2.86528 2.60866,-4.16579 z m -127.06945,5.20573 c 0.1056,0 1.36493,1.51943 2.79889,3.377 10.44145,13.52566 19.94566,22.71388 27.60762,26.68907 l 1.65666,0.85902 -2.58263,0.55578 c -5.87669,1.26422 -9.89829,4.88265 -11.63046,10.46401 l -0.55299,1.78129 -2.86215,0.20277 v -9.5e-4 c -1.57429,0.11172 -5.23346,0.20231 -8.13161,0.20231 h -5.26944 l -1.48083,-2.61844 c -3.60019,-6.36518 -5.4614,-10.88636 -7.09679,-17.23941 -1.09776,-4.26453 -1.96351,-9.79348 -2.1222,-13.5522 l -0.0902,-2.13801 2.53753,-2.56356 c 2.28926,-2.3127 6.73436,-6.0187 7.21862,-6.0187 z m 110.49326,15.17721 2.42032,2.33102 c 7.51785,7.24103 11.46801,11.27226 11.46301,11.69743 -0.0222,1.76889 -6.35306,14.41325 -8.21346,16.40458 -0.71421,0.76447 -4.35437,1.72396 -9.46173,2.4938 -1.71331,0.25822 -3.78702,0.4716 -4.60855,0.4716 -1.76693,0.002 -1.54865,0.75821 -2.29243,-7.9358 -0.60607,-7.08456 -1.77379,-14.73666 -3.00399,-19.68484 -0.4993,-2.00818 -0.87504,-3.69048 -0.83485,-3.73838 0.0402,-0.0479 0.90955,0.13052 1.93151,0.39672 3.41195,0.88871 6.41156,0.50124 10.25799,-1.32457 z m -24.95291,21.97029 c 0.0985,0 0.0949,0.75009 -0.008,1.66687 -0.10277,0.91678 -0.1904,2.84559 -0.1944,4.28625 v 0 c -0.009,2.87747 -0.1303,3.01268 -1.75386,1.94826 -0.52388,-0.34344 -1.16015,-0.7478 -1.41387,-0.89855 -0.34311,-0.20393 -0.37193,-0.38371 -0.11301,-0.70182 0.19147,-0.2352 1.01329,-1.74917 1.82639,-3.36445 0.81317,-1.61528 1.55872,-2.93656 1.65711,-2.93656 z m -16.87896,4.30671 -2.65379,2.91564 c -1.45961,1.6035 -4.44093,4.52607 -6.62518,6.49449 -5.41742,4.88196 -4.99198,4.66672 -5.43409,2.75146 -0.64412,-2.79061 -0.57624,-2.97507 1.38689,-3.77187 2.8114,-1.14106 8.53107,-4.53354 11.02586,-6.5396 z m 8.91806,9.07991 c 0.0439,-0.0588 0.80448,0.46592 1.69012,1.16598 0.88561,0.70005 2.3907,1.65488 3.34492,2.12173 1.54795,0.75736 1.72038,0.93962 1.59805,1.69152 -0.0754,0.46352 -0.50687,3.48578 -0.95902,6.71634 -0.45215,3.23057 -0.99165,6.78707 -1.19853,7.90324 l -0.37626,2.02917 -1.42875,0.43393 c -0.78581,0.2385 -2.81193,0.78981 -4.50252,1.22504 -1.69059,0.43526 -3.42483,0.79112 -3.85417,0.79112 -0.84401,0 -3.64098,-1.92183 -6.80145,-4.67367 l -1.98174,-1.72548 2.46126,-2.75378 c 3.00709,-3.36407 7.2083,-8.50049 9.91195,-12.11926 1.10892,-1.48431 2.05223,-2.74708 2.09614,-2.80588 z m -31.76318,3.12307 c 0.0464,0 0.18602,0.75009 0.31023,1.66687 0.12416,0.91678 0.49277,2.52413 0.81901,3.57188 0.47351,1.5208 0.51187,1.96919 0.19069,2.22265 -1.4585,1.15094 -6.06033,4.52284 -9.40549,6.89168 -2.16865,1.53572 -4.16873,2.78017 -4.44484,2.76587 -0.27606,-0.0144 -1.50976,-0.49735 -2.74168,-1.07342 l -2.23987,-1.04738 -1.00041,-3.29235 c -1.18208,-3.89068 -1.79168,-6.29909 -1.62501,-6.41961 0.0661,-0.0478 1.90578,-0.48548 4.08858,-0.97297 2.18282,-0.48745 6.66812,-1.65747 9.96684,-2.59984 3.29872,-0.94237 6.03556,-1.71338 6.08195,-1.71338 z m 59.03919,3.09469 c 1.02474,-0.005 1.74781,0.0415 1.74781,0.12558 0,0.11207 -1.19686,1.21904 -2.65893,2.46031 -1.46204,1.24127 -2.74791,2.25707 -2.8575,2.25707 -0.10958,0 -0.19904,-1.06165 -0.19904,-2.35892 v -2.35846 l 2.85797,-0.10186 c 0.393,-0.014 0.76812,-0.0219 1.10969,-0.0237 z m -88.17462,3.89744 c 0.39836,-0.004 0.80863,0.2133 0.91204,0.48276 0.28921,0.75362 0.0181,0.79519 -0.84739,0.13023 l -0.78926,-0.60601 z m 40.69009,13.71265 c 0.21176,-0.0103 0.42765,0.19697 0.89713,0.66647 l 0.85392,0.8539 h -1.50085 c -1.64888,0 -1.83033,-0.23858 -0.8539,-1.12225 0.27673,-0.25044 0.43896,-0.39008 0.6037,-0.39812 z m 21.77679,20.42062 c -0.37928,0.0283 -1.85247,0.29136 -3.56304,0.63949 -3.10582,0.63211 -5.60618,0.95798 -12.32621,1.60642 l -1.59293,0.15347 -1.42316,2.52543 c -0.78283,1.38903 -1.53467,2.48894 -1.67061,2.44404 -0.13595,-0.0449 -0.85454,-1.15081 -1.59665,-2.45799 -1.54072,-2.71392 -0.85568,-2.44721 -8.11438,-3.1626 -1.98443,-0.19558 -4.97693,-0.63077 -6.6503,-0.96738 -1.67338,-0.33665 -3.06172,-0.58069 -3.08491,-0.54229 -0.0231,0.0385 2.51891,4.49903 5.64894,9.91242 3.13001,5.41336 7.33847,12.69999 9.352,16.1925 2.01354,3.49248 3.94745,6.82607 4.29788,7.40792 0.51977,0.86306 0.70832,0.97986 1.02365,0.63484 0.5209,-0.56988 19.9227,-34.27351 19.79321,-34.38349 -0.007,-0.006 -0.0393,-0.007 -0.0935,-0.003 z"
         style="fill:#000000;stroke-width:0.3175"
         inkscape:connector-curvature="0" />
    </g>
  </g>
</svg>
