<?xml version="1.0" encoding="UTF-8" standalone="no"?>
<!-- Created with Inkscape (http://www.inkscape.org/) -->

<svg
   xmlns:dc="http://purl.org/dc/elements/1.1/"
   xmlns:cc="http://creativecommons.org/ns#"
   xmlns:rdf="http://www.w3.org/1999/02/22-rdf-syntax-ns#"
   xmlns:svg="http://www.w3.org/2000/svg"
   xmlns="http://www.w3.org/2000/svg"
   xmlns:sodipodi="http://sodipodi.sourceforge.net/DTD/sodipodi-0.dtd"
   xmlns:inkscape="http://www.inkscape.org/namespaces/inkscape"
   width="242.20833mm"
   height="226.3282mm"
   viewBox="0 0 217.9875 203.69538"
   version="1.1"
   id="svg5768"
   inkscape:version="0.92.5 (2060ec1f9f, 2020-04-08)"
   sodipodi:docname="esper.svg">
  <defs
     id="defs5762">
    <inkscape:path-effect
       effect="simplify"
       id="path-effect4565"
       is_visible="true"
       steps="1"
       threshold="0.000408163"
       smooth_angles="360"
       helper_size="0"
       simplify_individual_paths="false"
       simplify_just_coalesce="false"
       simplifyindividualpaths="false"
       simplifyJustCoalesce="false" />
    <inkscape:path-effect
       effect="simplify"
       id="path-effect4543"
       is_visible="true"
       steps="1"
       threshold="0.000408163"
       smooth_angles="360"
       helper_size="0"
       simplify_individual_paths="false"
       simplify_just_coalesce="false"
       simplifyindividualpaths="false"
       simplifyJustCoalesce="false" />
    <inkscape:path-effect
       effect="simplify"
       id="path-effect8619"
       is_visible="true"
       steps="1"
       threshold="0.000408163"
       smooth_angles="360"
       helper_size="0"
       simplify_individual_paths="false"
       simplify_just_coalesce="false"
       simplifyindividualpaths="false"
       simplifyJustCoalesce="false" />
    <inkscape:path-effect
       effect="simplify"
       id="path-effect8615"
       is_visible="true"
       steps="1"
       threshold="0.000408163"
       smooth_angles="360"
       helper_size="0"
       simplify_individual_paths="false"
       simplify_just_coalesce="false"
       simplifyindividualpaths="false"
       simplifyJustCoalesce="false" />
    <inkscape:path-effect
       effect="simplify"
       id="path-effect8611"
       is_visible="true"
       steps="1"
       threshold="0.000408163"
       smooth_angles="360"
       helper_size="0"
       simplify_individual_paths="false"
       simplify_just_coalesce="false"
       simplifyindividualpaths="false"
       simplifyJustCoalesce="false" />
    <inkscape:path-effect
       effect="simplify"
       id="path-effect8607"
       is_visible="true"
       steps="1"
       threshold="0.000408163"
       smooth_angles="360"
       helper_size="0"
       simplify_individual_paths="false"
       simplify_just_coalesce="false"
       simplifyindividualpaths="false"
       simplifyJustCoalesce="false" />
    <inkscape:path-effect
       effect="simplify"
       id="path-effect8600"
       is_visible="true"
       steps="1"
       threshold="0.000408163"
       smooth_angles="360"
       helper_size="0"
       simplify_individual_paths="false"
       simplify_just_coalesce="false"
       simplifyindividualpaths="false"
       simplifyJustCoalesce="false" />
    <inkscape:path-effect
       effect="simplify"
       id="path-effect8584"
       is_visible="true"
       steps="1"
       threshold="0.000408163"
       smooth_angles="360"
       helper_size="0"
       simplify_individual_paths="false"
       simplify_just_coalesce="false"
       simplifyindividualpaths="false"
       simplifyJustCoalesce="false" />
    <inkscape:path-effect
       effect="simplify"
       id="path-effect8571"
       is_visible="true"
       steps="1"
       threshold="0.000408163"
       smooth_angles="360"
       helper_size="0"
       simplify_individual_paths="false"
       simplify_just_coalesce="false"
       simplifyindividualpaths="false"
       simplifyJustCoalesce="false" />
    <inkscape:path-effect
       effect="simplify"
       id="path-effect8556"
       is_visible="true"
       steps="1"
       threshold="0.000408163"
       smooth_angles="360"
       helper_size="0"
       simplify_individual_paths="false"
       simplify_just_coalesce="false"
       simplifyindividualpaths="false"
       simplifyJustCoalesce="false" />
    <inkscape:path-effect
       effect="simplify"
       id="path-effect8532"
       is_visible="true"
       steps="1"
       threshold="0.000408163"
       smooth_angles="360"
       helper_size="0"
       simplify_individual_paths="false"
       simplify_just_coalesce="false"
       simplifyindividualpaths="false"
       simplifyJustCoalesce="false" />
    <inkscape:path-effect
       effect="simplify"
       id="path-effect8528"
       is_visible="true"
       steps="1"
       threshold="0.000408163"
       smooth_angles="360"
       helper_size="0"
       simplify_individual_paths="false"
       simplify_just_coalesce="false"
       simplifyindividualpaths="false"
       simplifyJustCoalesce="false" />
    <inkscape:path-effect
       effect="simplify"
       id="path-effect8524"
       is_visible="true"
       steps="1"
       threshold="0.000408163"
       smooth_angles="360"
       helper_size="0"
       simplify_individual_paths="false"
       simplify_just_coalesce="false"
       simplifyindividualpaths="false"
       simplifyJustCoalesce="false" />
    <inkscape:path-effect
       effect="simplify"
       id="path-effect8449"
       is_visible="true"
       steps="1"
       threshold="0.000408163"
       smooth_angles="360"
       helper_size="0"
       simplify_individual_paths="false"
       simplify_just_coalesce="false"
       simplifyindividualpaths="false"
       simplifyJustCoalesce="false" />
    <inkscape:path-effect
       effect="simplify"
       id="path-effect8443"
       is_visible="true"
       steps="1"
       threshold="0.000408163"
       smooth_angles="360"
       helper_size="0"
       simplify_individual_paths="false"
       simplify_just_coalesce="false"
       simplifyindividualpaths="false"
       simplifyJustCoalesce="false" />
    <inkscape:path-effect
       effect="simplify"
       id="path-effect8434"
       is_visible="true"
       steps="1"
       threshold="0.000408163"
       smooth_angles="360"
       helper_size="0"
       simplify_individual_paths="false"
       simplify_just_coalesce="false"
       simplifyindividualpaths="false"
       simplifyJustCoalesce="false" />
    <inkscape:path-effect
       effect="simplify"
       id="path-effect8422"
       is_visible="true"
       steps="1"
       threshold="0.000408163"
       smooth_angles="360"
       helper_size="0"
       simplify_individual_paths="false"
       simplify_just_coalesce="false"
       simplifyindividualpaths="false"
       simplifyJustCoalesce="false" />
    <inkscape:path-effect
       effect="simplify"
       id="path-effect8418"
       is_visible="true"
       steps="1"
       threshold="0.000408163"
       smooth_angles="360"
       helper_size="0"
       simplify_individual_paths="false"
       simplify_just_coalesce="false"
       simplifyindividualpaths="false"
       simplifyJustCoalesce="false" />
    <inkscape:path-effect
       effect="simplify"
       id="path-effect8413"
       is_visible="true"
       steps="1"
       threshold="0.000408163"
       smooth_angles="360"
       helper_size="0"
       simplify_individual_paths="false"
       simplify_just_coalesce="false"
       simplifyindividualpaths="false"
       simplifyJustCoalesce="false" />
    <inkscape:path-effect
       effect="simplify"
       id="path-effect8391"
       is_visible="true"
       steps="1"
       threshold="0.000408163"
       smooth_angles="360"
       helper_size="0"
       simplify_individual_paths="false"
       simplify_just_coalesce="false"
       simplifyindividualpaths="false"
       simplifyJustCoalesce="false" />
    <inkscape:path-effect
       effect="simplify"
       id="path-effect8114"
       is_visible="true"
       steps="1"
       threshold="0.000408163"
       smooth_angles="360"
       helper_size="0"
       simplify_individual_paths="false"
       simplify_just_coalesce="false"
       simplifyindividualpaths="false"
       simplifyJustCoalesce="false" />
    <inkscape:path-effect
       effect="simplify"
       id="path-effect7808"
       is_visible="true"
       steps="1"
       threshold="0.000408163"
       smooth_angles="360"
       helper_size="0"
       simplify_individual_paths="false"
       simplify_just_coalesce="false"
       simplifyindividualpaths="false"
       simplifyJustCoalesce="false" />
    <inkscape:path-effect
       effect="simplify"
       id="path-effect6980"
       is_visible="true"
       steps="1"
       threshold="0.000408163"
       smooth_angles="360"
       helper_size="0"
       simplify_individual_paths="false"
       simplify_just_coalesce="false"
       simplifyindividualpaths="false"
       simplifyJustCoalesce="false" />
    <inkscape:path-effect
       effect="simplify"
       id="path-effect6741"
       is_visible="true"
       steps="1"
       threshold="0.000408163"
       smooth_angles="360"
       helper_size="0"
       simplify_individual_paths="false"
       simplify_just_coalesce="false"
       simplifyindividualpaths="false"
       simplifyJustCoalesce="false" />
  </defs>
  <sodipodi:namedview
     id="base"
     pagecolor="#ffffff"
     bordercolor="#666666"
     borderopacity="1.0"
     inkscape:pageopacity="0.0"
     inkscape:pageshadow="2"
     inkscape:zoom="0.25"
     inkscape:cx="-21.942733"
     inkscape:cy="210.45429"
     inkscape:document-units="mm"
     inkscape:current-layer="layer1"
     showgrid="false"
     inkscape:window-width="1920"
     inkscape:window-height="1012"
     inkscape:window-x="0"
     inkscape:window-y="1080"
     inkscape:window-maximized="1"
     units="mm"
     scale-x="0.9"
     showborder="true"
     inkscape:snap-global="false" />
  <metadata
     id="metadata5765">
    <rdf:RDF>
      <cc:Work
         rdf:about="">
        <dc:format>image/svg+xml</dc:format>
        <dc:type
           rdf:resource="http://purl.org/dc/dcmitype/StillImage" />
        <dc:title />
      </cc:Work>
    </rdf:RDF>
  </metadata>
  <g
     inkscape:label="Layer 1"
     inkscape:groupmode="layer"
     id="layer1"
     transform="translate(-331.87929,-59.973786)">
    <path
       inkscape:connector-curvature="0"
       style="fill:#000000;stroke-width:0.3175"
       d="m 439.61735,59.974015 c -5.19217,0.01231 -10.44342,0.497245 -15.69765,1.482699 -6.91594,1.29711 -16.46673,4.855341 -23.65343,8.812021 -11.24851,6.1929 -20.93724,14.697954 -28.47825,24.998474 -6.85905,9.368981 -12.51428,23.582601 -14.401,36.195001 -1.09016,7.28749 -1.08258,17.34875 0.019,24.8929 2.12179,14.5301 8.73219,29.72824 17.48079,40.19057 15.59768,18.65306 36.72473,29.6171 59.91867,31.09577 v 4.8e-4 c 5.58089,0.35575 5.35082,0.35489 10.45564,0.0242 5.75046,-0.37254 9.86879,-0.99925 15.64741,-2.38171 4.72657,-1.13074 14.53508,-4.39551 14.70096,-4.89319 0.0545,-0.16351 1.54984,-1.03932 3.3226,-1.94639 8.0779,-4.13324 14.9479,-9.29172 21.84564,-16.40226 5.9135,-6.09596 10.16084,-11.97681 14.08193,-19.49788 6.65669,-12.7682 9.77824,-26.68295 9.28687,-41.39887 -0.42496,-12.72675 -3.15106,-23.52635 -8.76598,-34.72578 C 500.87091,77.479322 471.34724,59.898751 439.61733,59.974027 Z m 3.8286,12.356454 3.00028,0.213474 c 5.4602,0.38782 14.0763,2.222747 17.81149,3.793257 l 0.95528,0.401372 -4.48299,3.787212 c -2.46566,2.082988 -4.57726,3.805473 -4.69227,3.827671 -0.11502,0.0221 -2.1381,-1.920185 -4.49554,-4.316016 -2.35744,-2.395849 -5.1435,-5.109779 -6.19125,-6.031258 z m -111.56666,2.933774 2.88445,5.001091 c 1.58663,2.750339 6.88187,11.92991 11.76674,20.399216 4.88485,8.46931 9.17362,15.88069 9.53057,16.46969 l 0.6488,1.07064 1.31435,-3.76954 c 0.72271,-2.07331 2.14717,-5.51057 3.16585,-7.63814 l 1.85244,-3.86813 -4.32763,-7.506987 c -2.38013,-4.128961 -4.32766,-7.567795 -4.32766,-7.641395 0,-0.07359 4.22969,-0.133945 9.39896,-0.133945 h 9.39851 l 4.49182,-4.558327 c 2.47057,-2.50708 5.34953,-5.287773 6.39728,-6.179623 l 1.905,-1.621295 -27.04998,-0.01162 z m 190.40511,0.0042 -27.72063,0.0033 1.11109,0.865529 c 2.303,1.793839 7.84993,7.081219 9.68359,9.230599 l 1.905,2.233353 9.59663,0.102318 9.59662,0.10232 -4.37183,7.532563 -4.37183,7.533035 1.35622,2.78587 c 1.5535,3.19084 3.51055,8.08358 4.57504,11.43791 v 4.8e-4 c 0.40182,1.26603 0.76041,2.30172 0.79672,2.30172 0.0789,0 1.11795,-1.78416 8.78365,-15.08094 4.4807,-7.772175 15.65257,-27.114602 16.64177,-28.813131 0.0763,-0.130971 -12.33569,-0.23787 -27.58204,-0.234869 z m -91.19769,0.280447 3.71466,2.374739 c 4.95728,3.16947 9.03632,6.331239 12.21645,9.469191 1.44066,1.421539 2.61938,2.668507 2.61938,2.770527 0,0.102041 -2.22688,2.399383 -4.949,5.105269 -4.9996,4.969834 -9.39001,9.802594 -12.47318,13.730324 -0.92526,1.17872 -1.72748,2.14313 -1.7827,2.14313 -0.0552,0 0.0998,-0.66589 0.34464,-1.47945 0.59638,-1.98152 0.56555,-6.25229 -0.0609,-8.38507 -0.82943,-2.824026 -2.83852,-5.711809 -5.17502,-7.439077 -0.70866,-0.52387 -1.29219,-1.075572 -1.29619,-1.225972 -0.008,-0.303822 4.91516,-12.731908 6.09312,-15.380458 z m -20.83408,3.985805 c 0.01,9.7e-5 0.0148,0.0032 0.0148,0.0093 0,0.06007 -0.3651,1.653578 -0.81111,3.541178 -0.44603,1.8876 -0.83877,3.440454 -0.87299,3.450953 -0.0342,0.01031 -1.20515,-0.223405 -2.60215,-0.519503 -1.39701,-0.29614 -3.0761,-0.550948 -3.73095,-0.565547 -0.65484,-0.01474 -1.18943,-0.133665 -1.18643,-0.264636 0.002,-0.130969 0.89537,-0.828037 1.98453,-1.549208 1.97625,-1.308558 6.89851,-4.105565 7.20421,-4.102539 z m 73.72712,7.794872 c 0.11606,-9.1e-5 2.07836,1.799115 4.36067,3.997895 6.55436,6.31451 10.72724,11.972978 14.55772,19.741118 l 2.07755,4.21324 -1.19713,3.24817 c -1.44675,3.92668 -3.70556,8.79826 -5.52152,11.90764 -0.73702,1.26196 -1.44085,2.28661 -1.5641,2.27661 -0.12326,-0.01 -2.58161,-1.44746 -5.46292,-3.19422 -9.49174,-5.75432 -19.91183,-10.6436 -26.67,-12.51412 -1.65895,-0.45914 -3.19893,-0.89154 -3.42212,-0.96134 -0.2607,-0.0814 0.12744,-0.78148 1.08506,-1.95709 2.91651,-3.58076 4.00026,-7.29279 3.34768,-11.46442 -0.20945,-1.33909 -0.45844,-2.792078 -0.55345,-3.228637 -0.1603,-0.736502 0.23382,-1.0432 5.46666,-4.252298 5.95915,-3.654491 13.14152,-7.812548 13.4959,-7.812548 z m -92.95664,6.270781 6.05033,0.168826 c 3.32763,0.09296 6.95449,0.342514 8.0595,0.554386 1.93365,0.370708 2.00118,0.415566 1.80454,1.198995 -0.94802,3.77717 -2.70262,19.207505 -2.70262,23.766455 0,1.45628 -0.10716,2.64258 -0.23813,2.63659 -0.13097,-0.006 -0.59545,-0.21761 -1.03203,-0.47021 -1.62852,-0.94238 -4.00041,-1.44428 -6.84191,-1.44828 -1.58029,-0.002 -3.11791,0.0899 -3.41699,0.20464 -0.44639,0.17133 -0.89071,-0.52245 -2.47938,-3.87465 -1.87229,-3.95055 -5.46478,-11.92735 -6.01499,-13.35546 -0.22101,-0.57362 0.0499,-1.11566 1.50828,-3.016565 0.97767,-1.274381 2.57111,-3.227444 3.54073,-4.340664 z m 30.29395,7.715812 c 0.31392,-0.0321 1.8068,1.37051 3.05424,2.89145 1.69529,2.06689 3.13289,4.84839 3.85791,7.46373 l 0.54276,1.95848 -1.27806,2.02407 c -3.10456,4.91572 -5.16605,9.90228 -5.78708,13.99914 -1.13815,7.50843 3.12572,13.38854 11.99507,16.54132 2.94596,1.04714 3.30946,1.03773 1.89104,-0.0484 -1.60834,-1.23156 -2.6585,-2.59199 -3.65372,-4.7346 -0.7323,-1.57649 -0.86232,-2.28031 -0.86832,-4.71087 -0.0155,-5.9898 3.04283,-11.71992 10.30496,-19.30906 3.49024,-3.64738 7.25424,-6.94179 12.37459,-10.8305 3.53358,-2.68363 3.64512,-2.74145 3.9323,-2.02778 0.45692,1.13564 0.4146,7.19793 -0.0632,9.06921 l -0.42555,1.66688 h -2.62356 c -3.39179,0 -5.56946,0.42708 -8.01905,1.57339 -3.35059,1.56794 -5.88848,4.7916 -7.16978,9.10782 -0.53369,1.79769 -1.34803,7.66534 -1.09854,7.91486 0.0864,0.0864 0.53513,-0.61514 0.99715,-1.55944 1.0511,-2.14843 3.4746,-4.44421 5.84289,-5.53454 1.43025,-0.65849 2.44181,-0.86403 4.76669,-0.96878 5.92791,-0.26705 11.9398,1.70956 20.06761,6.5982 4.92971,2.96504 14.82811,10.24567 15.18699,11.17048 0.2596,0.66907 -5.54586,2.4952 -7.93023,2.4952 H 475.831 l -1.09714,-2.44032 c -2.39616,-5.32934 -5.77808,-9.30134 -9.45942,-11.10909 -1.68923,-0.8295 -2.09829,-0.89527 -5.47687,-0.88227 -3.29163,0.0128 -3.87049,0.10514 -5.87407,0.93715 -2.4641,1.02324 -5.78468,2.81725 -6.48798,3.50537 -0.39153,0.38313 -0.27994,0.3973 0.79346,0.10092 1.9907,-0.54966 5.44996,-0.1846 7.61721,0.80368 3.40123,1.55105 6.51636,5.27531 8.23763,9.84823 0.43655,1.15992 0.79343,2.18652 0.79343,2.28172 0,0.0952 -0.39274,-0.10398 -0.87297,-0.44276 -1.52043,-1.07251 -3.96252,-2.18352 -6.68376,-3.04121 -3.39443,-1.06983 -3.95871,-1.05444 -2.41242,0.067 1.78555,1.29495 3.2756,3.10229 4.22207,5.12016 0.73824,1.57403 0.8238,2.13096 0.80598,5.25316 -0.0171,3.00955 -0.14189,3.82163 -0.90411,5.8736 -0.94512,2.54425 -2.46866,5.47085 -4.25882,8.18043 -1.30302,1.97225 -1.67152,1.98689 -0.65439,0.026 0.5409,-1.04273 0.74833,-2.0785 0.84832,-4.23741 0.15995,-3.45344 -0.50885,-5.79282 -2.63285,-9.20735 -1.45709,-2.34242 -4.57631,-6.16422 -4.14626,-5.08015 0.80763,2.03594 1.1872,4.30574 1.04923,6.27357 -0.43134,6.15182 -6.03245,11.48662 -15.69251,14.94699 -3.47129,1.24346 -10.85626,2.95985 -15.81626,3.67606 v -4.8e-4 c -2.44476,0.35303 -5.62404,0.73825 -7.06469,0.85623 -3.06498,0.25098 -3.06091,0.25745 -1.71105,-2.57519 1.98539,-4.1662 6.29776,-8.64888 7.97345,-8.28833 0.44122,0.0949 1.75557,0.32917 2.92077,0.52043 6.11183,1.00317 11.73499,-2.54951 15.43393,-9.75057 0.91075,-1.77305 1.65618,-3.30733 1.65618,-3.40956 0,-0.10224 -0.56645,0.3809 -1.25899,1.07343 -2.64824,2.64824 -6.69827,3.88483 -10.4975,3.20585 -2.34118,-0.41837 -5.76503,-1.91524 -8.18043,-3.57653 -3.66484,-2.52063 -8.945,-8.25956 -13.25547,-14.40703 -2.27023,-3.23777 -7.44745,-11.63513 -7.44745,-12.07972 0,-0.10951 1.66168,-0.13584 3.69279,-0.0581 4.34995,0.16652 4.37562,0.1855 4.67554,3.41235 0.55724,5.99574 2.90882,12.14932 5.76615,15.08931 4.06853,4.18623 9.56265,5.0123 17.58963,2.64496 l 2.35519,-0.69484 -2.44216,-0.41254 c -5.80425,-0.98038 -9.33657,-4.51374 -11.20723,-11.21048 -0.89461,-3.20265 -0.80729,-12.74213 0.16742,-18.25609 0.89221,-5.04685 3.74495,-16.30028 4.37555,-17.26081 0.01,-0.0153 0.0256,-0.0239 0.0465,-0.026 z m -46.96318,22.21119 c 0.10709,0.002 0.75631,0.87414 1.44271,1.93942 1.09416,1.69805 1.18419,1.97266 0.72833,2.22777 -0.28597,0.16002 -1.1706,0.78759 -1.96546,1.39434 -1.64214,1.2537 -1.86545,1.32816 -1.63804,0.5474 0.089,-0.3056 0.40405,-1.80578 0.69997,-3.33375 0.29589,-1.52797 0.62543,-2.77518 0.73249,-2.77518 z m 134.48529,5.58664 0.23488,1.37433 c 0.29054,1.70218 0.88104,8.33171 0.88504,9.94312 0.004,1.39052 -0.14725,1.43705 -1.42548,0.44137 -0.52388,-0.40808 -1.84316,-1.34596 -2.93192,-2.08453 l -1.97941,-1.34271 1.21296,-1.80128 c 0.66718,-0.99057 1.84113,-2.86528 2.60866,-4.16579 z m -127.06945,5.20573 c 0.1056,0 1.36493,1.51943 2.79889,3.377 10.44145,13.52566 19.94566,22.71388 27.60762,26.68907 l 1.65666,0.85902 -2.58263,0.55578 c -5.87669,1.26422 -9.89829,4.88265 -11.63046,10.46401 l -0.55299,1.78129 -2.86215,0.20277 v -9.5e-4 c -1.57429,0.11172 -5.23346,0.20231 -8.13161,0.20231 h -5.26944 l -1.48083,-2.61844 c -3.60019,-6.36518 -5.4614,-10.88636 -7.09679,-17.23941 -1.09776,-4.26453 -1.96351,-9.79348 -2.1222,-13.5522 l -0.0902,-2.13801 2.53753,-2.56356 c 2.28926,-2.3127 6.73436,-6.0187 7.21862,-6.0187 z m 110.49326,15.17721 2.42032,2.33102 c 7.51785,7.24103 11.46801,11.27226 11.46301,11.69743 -0.0222,1.76889 -6.35306,14.41325 -8.21346,16.40458 -0.71421,0.76447 -4.35437,1.72396 -9.46173,2.4938 -1.71331,0.25822 -3.78702,0.4716 -4.60855,0.4716 -1.76693,0.002 -1.54865,0.75821 -2.29243,-7.9358 -0.60607,-7.08456 -1.77379,-14.73666 -3.00399,-19.68484 -0.4993,-2.00818 -0.87504,-3.69048 -0.83485,-3.73838 0.0402,-0.0479 0.90955,0.13052 1.93151,0.39672 3.41195,0.88871 6.41156,0.50124 10.25799,-1.32457 z m -24.95291,21.97029 c 0.0985,0 0.0949,0.75009 -0.008,1.66687 -0.10277,0.91678 -0.1904,2.84559 -0.1944,4.28625 v 0 c -0.009,2.87747 -0.1303,3.01268 -1.75386,1.94826 -0.52388,-0.34344 -1.16015,-0.7478 -1.41387,-0.89855 -0.34311,-0.20393 -0.37193,-0.38371 -0.11301,-0.70182 0.19147,-0.2352 1.01329,-1.74917 1.82639,-3.36445 0.81317,-1.61528 1.55872,-2.93656 1.65711,-2.93656 z m -16.87896,4.30671 -2.65379,2.91564 c -1.45961,1.6035 -4.44093,4.52607 -6.62518,6.49449 -5.41742,4.88196 -4.99198,4.66672 -5.43409,2.75146 -0.64412,-2.79061 -0.57624,-2.97507 1.38689,-3.77187 2.8114,-1.14106 8.53107,-4.53354 11.02586,-6.5396 z m 8.91806,9.07991 c 0.0439,-0.0588 0.80448,0.46592 1.69012,1.16598 0.88561,0.70005 2.3907,1.65488 3.34492,2.12173 1.54795,0.75736 1.72038,0.93962 1.59805,1.69152 -0.0754,0.46352 -0.50687,3.48578 -0.95902,6.71634 -0.45215,3.23057 -0.99165,6.78707 -1.19853,7.90324 l -0.37626,2.02917 -1.42875,0.43393 c -0.78581,0.2385 -2.81193,0.78981 -4.50252,1.22504 -1.69059,0.43526 -3.42483,0.79112 -3.85417,0.79112 -0.84401,0 -3.64098,-1.92183 -6.80145,-4.67367 l -1.98174,-1.72548 2.46126,-2.75378 c 3.00709,-3.36407 7.2083,-8.50049 9.91195,-12.11926 1.10892,-1.48431 2.05223,-2.74708 2.09614,-2.80588 z m -31.76318,3.12307 c 0.0464,0 0.18602,0.75009 0.31023,1.66687 0.12416,0.91678 0.49277,2.52413 0.81901,3.57188 0.47351,1.5208 0.51187,1.96919 0.19069,2.22265 -1.4585,1.15094 -6.06033,4.52284 -9.40549,6.89168 -2.16865,1.53572 -4.16873,2.78017 -4.44484,2.76587 -0.27606,-0.0144 -1.50976,-0.49735 -2.74168,-1.07342 l -2.23987,-1.04738 -1.00041,-3.29235 c -1.18208,-3.89068 -1.79168,-6.29909 -1.62501,-6.41961 0.0661,-0.0478 1.90578,-0.48548 4.08858,-0.97297 2.18282,-0.48745 6.66812,-1.65747 9.96684,-2.59984 3.29872,-0.94237 6.03556,-1.71338 6.08195,-1.71338 z m 59.03919,3.09469 c 1.02474,-0.005 1.74781,0.0415 1.74781,0.12558 0,0.11207 -1.19686,1.21904 -2.65893,2.46031 -1.46204,1.24127 -2.74791,2.25707 -2.8575,2.25707 -0.10958,0 -0.19904,-1.06165 -0.19904,-2.35892 v -2.35846 l 2.85797,-0.10186 c 0.393,-0.014 0.76812,-0.0219 1.10969,-0.0237 z m -88.17462,3.89744 c 0.39836,-0.004 0.80863,0.2133 0.91204,0.48276 0.28921,0.75362 0.0181,0.79519 -0.84739,0.13023 l -0.78926,-0.60601 z m 40.69009,13.71265 c 0.21176,-0.0103 0.42765,0.19697 0.89713,0.66647 l 0.85392,0.8539 h -1.50085 c -1.64888,0 -1.83033,-0.23858 -0.8539,-1.12225 0.27673,-0.25044 0.43896,-0.39008 0.6037,-0.39812 z m 21.77679,20.42062 c -0.37928,0.0283 -1.85247,0.29136 -3.56304,0.63949 -3.10582,0.63211 -5.60618,0.95798 -12.32621,1.60642 l -1.59293,0.15347 -1.42316,2.52543 c -0.78283,1.38903 -1.53467,2.48894 -1.67061,2.44404 -0.13595,-0.0449 -0.85454,-1.15081 -1.59665,-2.45799 -1.54072,-2.71392 -0.85568,-2.44721 -8.11438,-3.1626 -1.98443,-0.19558 -4.97693,-0.63077 -6.6503,-0.96738 -1.67338,-0.33665 -3.06172,-0.58069 -3.08491,-0.54229 -0.0231,0.0385 2.51891,4.49903 5.64894,9.91242 3.13001,5.41336 7.33847,12.69999 9.352,16.1925 2.01354,3.49248 3.94745,6.82607 4.29788,7.40792 0.51977,0.86306 0.70832,0.97986 1.02365,0.63484 0.5209,-0.56988 19.9227,-34.27351 19.79321,-34.38349 -0.007,-0.006 -0.0393,-0.007 -0.0935,-0.003 z"
       id="path7626" />
  </g>
</svg>
