<?xml version="1.0" encoding="UTF-8" standalone="no"?>
<!-- Created with Inkscape (http://www.inkscape.org/) -->

<svg
   xmlns:dc="http://purl.org/dc/elements/1.1/"
   xmlns:cc="http://creativecommons.org/ns#"
   xmlns:rdf="http://www.w3.org/1999/02/22-rdf-syntax-ns#"
   xmlns:svg="http://www.w3.org/2000/svg"
   xmlns="http://www.w3.org/2000/svg"
   xmlns:sodipodi="http://sodipodi.sourceforge.net/DTD/sodipodi-0.dtd"
   xmlns:inkscape="http://www.inkscape.org/namespaces/inkscape"
   width="238.59212mm"
   height="212.74463mm"
   viewBox="0 0 214.73291 191.47016"
   version="1.1"
   id="svg5768"
   inkscape:version="0.92.5 (2060ec1f9f, 2020-04-08)"
   sodipodi:docname="golgari.svg">
  <defs
     id="defs5762">
    <inkscape:path-effect
       effect="simplify"
       id="path-effect4565"
       is_visible="true"
       steps="1"
       threshold="0.000408163"
       smooth_angles="360"
       helper_size="0"
       simplify_individual_paths="false"
       simplify_just_coalesce="false"
       simplifyindividualpaths="false"
       simplifyJustCoalesce="false" />
    <inkscape:path-effect
       effect="simplify"
       id="path-effect4543"
       is_visible="true"
       steps="1"
       threshold="0.000408163"
       smooth_angles="360"
       helper_size="0"
       simplify_individual_paths="false"
       simplify_just_coalesce="false"
       simplifyindividualpaths="false"
       simplifyJustCoalesce="false" />
    <inkscape:path-effect
       effect="simplify"
       id="path-effect8619"
       is_visible="true"
       steps="1"
       threshold="0.000408163"
       smooth_angles="360"
       helper_size="0"
       simplify_individual_paths="false"
       simplify_just_coalesce="false"
       simplifyindividualpaths="false"
       simplifyJustCoalesce="false" />
    <inkscape:path-effect
       effect="simplify"
       id="path-effect8615"
       is_visible="true"
       steps="1"
       threshold="0.000408163"
       smooth_angles="360"
       helper_size="0"
       simplify_individual_paths="false"
       simplify_just_coalesce="false"
       simplifyindividualpaths="false"
       simplifyJustCoalesce="false" />
    <inkscape:path-effect
       effect="simplify"
       id="path-effect8611"
       is_visible="true"
       steps="1"
       threshold="0.000408163"
       smooth_angles="360"
       helper_size="0"
       simplify_individual_paths="false"
       simplify_just_coalesce="false"
       simplifyindividualpaths="false"
       simplifyJustCoalesce="false" />
    <inkscape:path-effect
       effect="simplify"
       id="path-effect8607"
       is_visible="true"
       steps="1"
       threshold="0.000408163"
       smooth_angles="360"
       helper_size="0"
       simplify_individual_paths="false"
       simplify_just_coalesce="false"
       simplifyindividualpaths="false"
       simplifyJustCoalesce="false" />
    <inkscape:path-effect
       effect="simplify"
       id="path-effect8600"
       is_visible="true"
       steps="1"
       threshold="0.000408163"
       smooth_angles="360"
       helper_size="0"
       simplify_individual_paths="false"
       simplify_just_coalesce="false"
       simplifyindividualpaths="false"
       simplifyJustCoalesce="false" />
    <inkscape:path-effect
       effect="simplify"
       id="path-effect8584"
       is_visible="true"
       steps="1"
       threshold="0.000408163"
       smooth_angles="360"
       helper_size="0"
       simplify_individual_paths="false"
       simplify_just_coalesce="false"
       simplifyindividualpaths="false"
       simplifyJustCoalesce="false" />
    <inkscape:path-effect
       effect="simplify"
       id="path-effect8571"
       is_visible="true"
       steps="1"
       threshold="0.000408163"
       smooth_angles="360"
       helper_size="0"
       simplify_individual_paths="false"
       simplify_just_coalesce="false"
       simplifyindividualpaths="false"
       simplifyJustCoalesce="false" />
    <inkscape:path-effect
       effect="simplify"
       id="path-effect8556"
       is_visible="true"
       steps="1"
       threshold="0.000408163"
       smooth_angles="360"
       helper_size="0"
       simplify_individual_paths="false"
       simplify_just_coalesce="false"
       simplifyindividualpaths="false"
       simplifyJustCoalesce="false" />
    <inkscape:path-effect
       effect="simplify"
       id="path-effect8532"
       is_visible="true"
       steps="1"
       threshold="0.000408163"
       smooth_angles="360"
       helper_size="0"
       simplify_individual_paths="false"
       simplify_just_coalesce="false"
       simplifyindividualpaths="false"
       simplifyJustCoalesce="false" />
    <inkscape:path-effect
       effect="simplify"
       id="path-effect8528"
       is_visible="true"
       steps="1"
       threshold="0.000408163"
       smooth_angles="360"
       helper_size="0"
       simplify_individual_paths="false"
       simplify_just_coalesce="false"
       simplifyindividualpaths="false"
       simplifyJustCoalesce="false" />
    <inkscape:path-effect
       effect="simplify"
       id="path-effect8524"
       is_visible="true"
       steps="1"
       threshold="0.000408163"
       smooth_angles="360"
       helper_size="0"
       simplify_individual_paths="false"
       simplify_just_coalesce="false"
       simplifyindividualpaths="false"
       simplifyJustCoalesce="false" />
    <inkscape:path-effect
       effect="simplify"
       id="path-effect8449"
       is_visible="true"
       steps="1"
       threshold="0.000408163"
       smooth_angles="360"
       helper_size="0"
       simplify_individual_paths="false"
       simplify_just_coalesce="false"
       simplifyindividualpaths="false"
       simplifyJustCoalesce="false" />
    <inkscape:path-effect
       effect="simplify"
       id="path-effect8443"
       is_visible="true"
       steps="1"
       threshold="0.000408163"
       smooth_angles="360"
       helper_size="0"
       simplify_individual_paths="false"
       simplify_just_coalesce="false"
       simplifyindividualpaths="false"
       simplifyJustCoalesce="false" />
    <inkscape:path-effect
       effect="simplify"
       id="path-effect8434"
       is_visible="true"
       steps="1"
       threshold="0.000408163"
       smooth_angles="360"
       helper_size="0"
       simplify_individual_paths="false"
       simplify_just_coalesce="false"
       simplifyindividualpaths="false"
       simplifyJustCoalesce="false" />
    <inkscape:path-effect
       effect="simplify"
       id="path-effect8422"
       is_visible="true"
       steps="1"
       threshold="0.000408163"
       smooth_angles="360"
       helper_size="0"
       simplify_individual_paths="false"
       simplify_just_coalesce="false"
       simplifyindividualpaths="false"
       simplifyJustCoalesce="false" />
    <inkscape:path-effect
       effect="simplify"
       id="path-effect8418"
       is_visible="true"
       steps="1"
       threshold="0.000408163"
       smooth_angles="360"
       helper_size="0"
       simplify_individual_paths="false"
       simplify_just_coalesce="false"
       simplifyindividualpaths="false"
       simplifyJustCoalesce="false" />
    <inkscape:path-effect
       effect="simplify"
       id="path-effect8413"
       is_visible="true"
       steps="1"
       threshold="0.000408163"
       smooth_angles="360"
       helper_size="0"
       simplify_individual_paths="false"
       simplify_just_coalesce="false"
       simplifyindividualpaths="false"
       simplifyJustCoalesce="false" />
    <inkscape:path-effect
       effect="simplify"
       id="path-effect8391"
       is_visible="true"
       steps="1"
       threshold="0.000408163"
       smooth_angles="360"
       helper_size="0"
       simplify_individual_paths="false"
       simplify_just_coalesce="false"
       simplifyindividualpaths="false"
       simplifyJustCoalesce="false" />
    <inkscape:path-effect
       effect="simplify"
       id="path-effect8114"
       is_visible="true"
       steps="1"
       threshold="0.000408163"
       smooth_angles="360"
       helper_size="0"
       simplify_individual_paths="false"
       simplify_just_coalesce="false"
       simplifyindividualpaths="false"
       simplifyJustCoalesce="false" />
    <inkscape:path-effect
       effect="simplify"
       id="path-effect7808"
       is_visible="true"
       steps="1"
       threshold="0.000408163"
       smooth_angles="360"
       helper_size="0"
       simplify_individual_paths="false"
       simplify_just_coalesce="false"
       simplifyindividualpaths="false"
       simplifyJustCoalesce="false" />
    <inkscape:path-effect
       effect="simplify"
       id="path-effect6980"
       is_visible="true"
       steps="1"
       threshold="0.000408163"
       smooth_angles="360"
       helper_size="0"
       simplify_individual_paths="false"
       simplify_just_coalesce="false"
       simplifyindividualpaths="false"
       simplifyJustCoalesce="false" />
    <inkscape:path-effect
       effect="simplify"
       id="path-effect6741"
       is_visible="true"
       steps="1"
       threshold="0.000408163"
       smooth_angles="360"
       helper_size="0"
       simplify_individual_paths="false"
       simplify_just_coalesce="false"
       simplifyindividualpaths="false"
       simplifyJustCoalesce="false" />
  </defs>
  <sodipodi:namedview
     id="base"
     pagecolor="#ffffff"
     bordercolor="#666666"
     borderopacity="1.0"
     inkscape:pageopacity="0.0"
     inkscape:pageshadow="2"
     inkscape:zoom="0.088388348"
     inkscape:cx="-4940.3184"
     inkscape:cy="202.01947"
     inkscape:document-units="mm"
     inkscape:current-layer="layer1"
     showgrid="false"
     inkscape:window-width="1920"
     inkscape:window-height="1012"
     inkscape:window-x="0"
     inkscape:window-y="1080"
     inkscape:window-maximized="1"
     units="mm"
     scale-x="0.9"
     showborder="true"
     inkscape:snap-global="false" />
  <metadata
     id="metadata5765">
    <rdf:RDF>
      <cc:Work
         rdf:about="">
        <dc:format>image/svg+xml</dc:format>
        <dc:type
           rdf:resource="http://purl.org/dc/dcmitype/StillImage" />
        <dc:title />
      </cc:Work>
    </rdf:RDF>
  </metadata>
  <g
     inkscape:label="Layer 1"
     inkscape:groupmode="layer"
     id="layer1"
     transform="translate(-2219.945,-948.26259)">
    <path
       style="fill:#000000;stroke-width:15.02942848"
       d="m 9771.3672,3982.2051 c -47.4562,0 -90.4799,6.7874 -95.6074,15.084 -5.1276,8.2965 -25.1857,11.1027 -44.5743,6.2363 -19.3889,-4.8664 -51.0999,-0.4609 -70.4687,9.7891 -19.3688,10.25 -61.8764,41.3294 -94.4609,69.0644 -51.1925,43.5736 -59.4095,59.1356 -60.4493,114.5078 -0.6979,37.1324 -18.4478,99.3247 -42.205,147.8828 -22.5495,46.0901 -40.9981,92.3021 -40.9981,102.6953 0,10.39 9.797,15.1365 21.7735,10.5411 12.8361,-4.926 25.2997,2.75 30.3613,18.6992 4.7227,14.88 38.8866,66.0725 75.9179,113.7617 37.0315,47.6888 67.3282,102.4032 67.3282,121.5859 0,19.1832 6.4226,38.8469 14.2715,43.6973 7.8484,4.8508 18.7144,-14.8708 24.1464,-43.8262 7.4806,-39.8748 2.2079,-64.5848 -21.7363,-101.8652 -17.3867,-27.0711 -45.1384,-77.1963 -61.668,-111.3867 -22.9106,-47.3894 -27.9544,-79.5383 -21.2226,-135.2637 4.8563,-40.2049 15.8106,-96.7713 24.3418,-125.7031 8.5316,-28.9315 29.8957,-68.4634 47.4766,-87.8477 17.5805,-19.3843 49.9399,-44.598 71.9082,-56.0293 l 39.9433,-20.7832 -2.1367,78.5723 c -1.175,43.215 3.0672,89.1385 9.4277,102.0527 8.1894,16.6278 0.5615,29.3699 -26.1367,43.6582 -20.7357,11.0976 -45.4336,43.6043 -54.8828,72.2364 -9.4488,28.632 -13.8546,81.5704 -9.7891,117.6406 5.4535,48.3826 19.7101,77.0873 54.3575,109.4531 39.9071,37.2787 47.0363,54.8227 47.4394,116.7461 l 0.4766,72.875 37.0976,-42.1699 c 28.8101,-32.748 37.0996,-58.8536 37.0996,-116.8496 0,-67.0489 -4.0907,-76.2356 -40.0214,-89.8965 -28.9101,-10.9913 -35.4679,-19.769 -23.6211,-31.6153 11.727,-11.7278 11.7982,-23.7672 0.248,-42.2617 -8.8831,-14.224 -11.652,-43.7902 -6.1523,-65.7031 5.5,-21.9133 15.0675,-39.8437 21.2617,-39.8437 6.1942,0 22.2513,18.1103 35.6816,40.2441 13.4299,22.1342 38.9411,41.3138 56.6914,42.6211 21.0222,1.5492 41.0495,-12.481 57.4492,-40.2442 13.8474,-23.4414 30.3552,-42.621 36.6817,-42.621 6.3265,0 15.5873,16.2799 20.5801,36.1757 4.9931,19.8955 2.057,49.294 -6.5254,65.3301 -10.9972,20.5485 -10.6516,34.1082 1.1699,45.9297 12.3448,12.3448 6.7096,20.5983 -21.3438,31.2637 -21.896,8.325 -42.2466,30.9481 -47.8222,53.1621 -5.3376,21.2682 -5.1237,57.2682 0.4746,80 5.5979,22.7322 20.0298,56.5478 32.0723,75.1465 12.0424,18.599 28.1372,33.8164 35.7656,33.8164 7.6283,0 12.5612,-15.2174 10.9629,-33.8164 -1.5975,-18.5987 -1.8534,-49.6998 -0.5684,-69.1153 1.2855,-19.4154 24.3183,-55.834 51.1836,-80.9297 45.3388,-42.3533 48.8457,-52.585 48.8457,-142.5273 0,-90.5251 -3.2409,-99.7961 -49.2793,-140.9316 -42.7191,-38.1699 -47.0094,-48.2779 -32.2168,-75.918 9.7739,-18.2627 13.0939,-56.7145 7.7715,-90 -6.0892,-38.0789 -3.5534,-58.1152 7.3535,-58.1152 9.1549,0 35.1835,10.9513 57.8418,24.3359 22.6582,13.3845 52.2922,45.5107 65.8512,71.3906 13.56,25.8799 31.75,93.0155 40.424,149.1914 14.109,91.3743 12.557,108.7964 -14.734,165.3242 -16.778,34.752 -44.731,85.3352 -62.117,112.4063 -23.9453,37.2804 -29.2192,61.9904 -21.7386,101.8652 5.432,28.9554 16.2976,48.677 24.1466,43.8262 7.848,-4.8504 14.271,-24.3548 14.271,-43.3438 0,-18.9887 22.473,-64.2425 49.942,-100.5624 27.469,-36.3197 62.372,-87.3865 77.562,-113.4825 16.109,-27.6733 36.008,-44.2278 47.748,-39.7226 11.784,4.522 20.131,-2.5092 20.131,-16.9571 0,-13.5748 -10.052,-40.0212 -22.338,-58.7714 -12.285,-18.7503 -35.341,-71.8827 -51.232,-118.0723 -21.825,-63.4348 -24.653,-88.2223 -11.559,-101.3164 13.095,-13.0942 2.648,-30.1092 -42.701,-69.5449 -33.021,-28.7151 -86.318,-66.2163 -118.4374,-83.336 -47.0182,-25.0606 -60.8084,-27.2289 -70.7637,-11.1211 -9.8474,15.9332 -16.1635,16.2077 -31.0254,1.3457 -10.5281,-10.5278 -56.2675,-18.6601 -104.9453,-18.6601 z m 171.5,226.5312 c -3.5874,0.1844 -7.7999,7.8747 -16.0254,23.2442 -12.3406,23.0605 -12.1724,35.6904 0.6465,48.5097 9.5324,9.5328 22.7424,17.3321 29.3555,17.3321 6.6129,0 11.5484,-8.4543 10.9667,-18.7871 -0.5807,-10.3329 -6.2809,-32.1621 -12.6679,-48.5098 -5.7245,-14.6522 -8.6881,-21.9734 -12.2754,-21.7891 z m -337.6953,0.7774 c -3.2623,0.098 -6.9991,4.7005 -12.6172,13.584 -7.6947,12.1675 -14.0989,33.9583 -14.2207,48.4238 -0.1264,14.4659 6.7442,26.3008 15.2695,26.3008 8.5258,0 19.3939,-10.1441 24.1524,-22.543 4.7575,-12.3994 4.1829,-34.1917 -1.2793,-48.4258 -4.2537,-11.0851 -7.2393,-16.7619 -10.6582,-17.2988 -0.2137,-0.034 -0.429,-0.048 -0.6465,-0.041 z"
       transform="scale(0.238125)"
       id="path8259"
       inkscape:connector-curvature="0" />
  </g>
</svg>
