<?xml version="1.0" encoding="UTF-8" standalone="no"?>
<!-- Created with Inkscape (http://www.inkscape.org/) -->

<svg
   xmlns:dc="http://purl.org/dc/elements/1.1/"
   xmlns:cc="http://creativecommons.org/ns#"
   xmlns:rdf="http://www.w3.org/1999/02/22-rdf-syntax-ns#"
   xmlns:svg="http://www.w3.org/2000/svg"
   xmlns="http://www.w3.org/2000/svg"
   xmlns:sodipodi="http://sodipodi.sourceforge.net/DTD/sodipodi-0.dtd"
   xmlns:inkscape="http://www.inkscape.org/namespaces/inkscape"
   width="35.315567mm"
   height="33.643467mm"
   viewBox="0 0 31.78401 30.279119"
   version="1.1"
   id="svg5768"
   inkscape:version="0.92.5 (2060ec1f9f, 2020-04-08)"
   sodipodi:docname="green.svg">
  <defs
     id="defs5762">
    <inkscape:path-effect
       effect="simplify"
       id="path-effect8619"
       is_visible="true"
       steps="1"
       threshold="0.000408163"
       smooth_angles="360"
       helper_size="0"
       simplify_individual_paths="false"
       simplify_just_coalesce="false"
       simplifyindividualpaths="false"
       simplifyJustCoalesce="false" />
    <inkscape:path-effect
       effect="simplify"
       id="path-effect8615"
       is_visible="true"
       steps="1"
       threshold="0.000408163"
       smooth_angles="360"
       helper_size="0"
       simplify_individual_paths="false"
       simplify_just_coalesce="false"
       simplifyindividualpaths="false"
       simplifyJustCoalesce="false" />
    <inkscape:path-effect
       effect="simplify"
       id="path-effect8611"
       is_visible="true"
       steps="1"
       threshold="0.000408163"
       smooth_angles="360"
       helper_size="0"
       simplify_individual_paths="false"
       simplify_just_coalesce="false"
       simplifyindividualpaths="false"
       simplifyJustCoalesce="false" />
    <inkscape:path-effect
       effect="simplify"
       id="path-effect8607"
       is_visible="true"
       steps="1"
       threshold="0.000408163"
       smooth_angles="360"
       helper_size="0"
       simplify_individual_paths="false"
       simplify_just_coalesce="false"
       simplifyindividualpaths="false"
       simplifyJustCoalesce="false" />
    <inkscape:path-effect
       effect="simplify"
       id="path-effect8600"
       is_visible="true"
       steps="1"
       threshold="0.000408163"
       smooth_angles="360"
       helper_size="0"
       simplify_individual_paths="false"
       simplify_just_coalesce="false"
       simplifyindividualpaths="false"
       simplifyJustCoalesce="false" />
    <inkscape:path-effect
       effect="simplify"
       id="path-effect8584"
       is_visible="true"
       steps="1"
       threshold="0.000408163"
       smooth_angles="360"
       helper_size="0"
       simplify_individual_paths="false"
       simplify_just_coalesce="false"
       simplifyindividualpaths="false"
       simplifyJustCoalesce="false" />
    <inkscape:path-effect
       effect="simplify"
       id="path-effect8571"
       is_visible="true"
       steps="1"
       threshold="0.000408163"
       smooth_angles="360"
       helper_size="0"
       simplify_individual_paths="false"
       simplify_just_coalesce="false"
       simplifyindividualpaths="false"
       simplifyJustCoalesce="false" />
    <inkscape:path-effect
       effect="simplify"
       id="path-effect8556"
       is_visible="true"
       steps="1"
       threshold="0.000408163"
       smooth_angles="360"
       helper_size="0"
       simplify_individual_paths="false"
       simplify_just_coalesce="false"
       simplifyindividualpaths="false"
       simplifyJustCoalesce="false" />
    <inkscape:path-effect
       effect="simplify"
       id="path-effect8532"
       is_visible="true"
       steps="1"
       threshold="0.000408163"
       smooth_angles="360"
       helper_size="0"
       simplify_individual_paths="false"
       simplify_just_coalesce="false"
       simplifyindividualpaths="false"
       simplifyJustCoalesce="false" />
    <inkscape:path-effect
       effect="simplify"
       id="path-effect8528"
       is_visible="true"
       steps="1"
       threshold="0.000408163"
       smooth_angles="360"
       helper_size="0"
       simplify_individual_paths="false"
       simplify_just_coalesce="false"
       simplifyindividualpaths="false"
       simplifyJustCoalesce="false" />
    <inkscape:path-effect
       effect="simplify"
       id="path-effect8524"
       is_visible="true"
       steps="1"
       threshold="0.000408163"
       smooth_angles="360"
       helper_size="0"
       simplify_individual_paths="false"
       simplify_just_coalesce="false"
       simplifyindividualpaths="false"
       simplifyJustCoalesce="false" />
    <inkscape:path-effect
       effect="simplify"
       id="path-effect8449"
       is_visible="true"
       steps="1"
       threshold="0.000408163"
       smooth_angles="360"
       helper_size="0"
       simplify_individual_paths="false"
       simplify_just_coalesce="false"
       simplifyindividualpaths="false"
       simplifyJustCoalesce="false" />
    <inkscape:path-effect
       effect="simplify"
       id="path-effect8443"
       is_visible="true"
       steps="1"
       threshold="0.000408163"
       smooth_angles="360"
       helper_size="0"
       simplify_individual_paths="false"
       simplify_just_coalesce="false"
       simplifyindividualpaths="false"
       simplifyJustCoalesce="false" />
    <inkscape:path-effect
       effect="simplify"
       id="path-effect8434"
       is_visible="true"
       steps="1"
       threshold="0.000408163"
       smooth_angles="360"
       helper_size="0"
       simplify_individual_paths="false"
       simplify_just_coalesce="false"
       simplifyindividualpaths="false"
       simplifyJustCoalesce="false" />
    <inkscape:path-effect
       effect="simplify"
       id="path-effect8422"
       is_visible="true"
       steps="1"
       threshold="0.000408163"
       smooth_angles="360"
       helper_size="0"
       simplify_individual_paths="false"
       simplify_just_coalesce="false"
       simplifyindividualpaths="false"
       simplifyJustCoalesce="false" />
    <inkscape:path-effect
       effect="simplify"
       id="path-effect8418"
       is_visible="true"
       steps="1"
       threshold="0.000408163"
       smooth_angles="360"
       helper_size="0"
       simplify_individual_paths="false"
       simplify_just_coalesce="false"
       simplifyindividualpaths="false"
       simplifyJustCoalesce="false" />
    <inkscape:path-effect
       effect="simplify"
       id="path-effect8413"
       is_visible="true"
       steps="1"
       threshold="0.000408163"
       smooth_angles="360"
       helper_size="0"
       simplify_individual_paths="false"
       simplify_just_coalesce="false"
       simplifyindividualpaths="false"
       simplifyJustCoalesce="false" />
    <inkscape:path-effect
       effect="simplify"
       id="path-effect8391"
       is_visible="true"
       steps="1"
       threshold="0.000408163"
       smooth_angles="360"
       helper_size="0"
       simplify_individual_paths="false"
       simplify_just_coalesce="false"
       simplifyindividualpaths="false"
       simplifyJustCoalesce="false" />
    <inkscape:path-effect
       effect="simplify"
       id="path-effect8114"
       is_visible="true"
       steps="1"
       threshold="0.000408163"
       smooth_angles="360"
       helper_size="0"
       simplify_individual_paths="false"
       simplify_just_coalesce="false"
       simplifyindividualpaths="false"
       simplifyJustCoalesce="false" />
    <inkscape:path-effect
       effect="simplify"
       id="path-effect7808"
       is_visible="true"
       steps="1"
       threshold="0.000408163"
       smooth_angles="360"
       helper_size="0"
       simplify_individual_paths="false"
       simplify_just_coalesce="false"
       simplifyindividualpaths="false"
       simplifyJustCoalesce="false" />
    <inkscape:path-effect
       effect="simplify"
       id="path-effect6980"
       is_visible="true"
       steps="1"
       threshold="0.000408163"
       smooth_angles="360"
       helper_size="0"
       simplify_individual_paths="false"
       simplify_just_coalesce="false"
       simplifyindividualpaths="false"
       simplifyJustCoalesce="false" />
    <inkscape:path-effect
       effect="simplify"
       id="path-effect6741"
       is_visible="true"
       steps="1"
       threshold="0.000408163"
       smooth_angles="360"
       helper_size="0"
       simplify_individual_paths="false"
       simplify_just_coalesce="false"
       simplifyindividualpaths="false"
       simplifyJustCoalesce="false" />
  </defs>
  <sodipodi:namedview
     id="base"
     pagecolor="#ffffff"
     bordercolor="#666666"
     borderopacity="1.0"
     inkscape:pageopacity="0.0"
     inkscape:pageshadow="2"
     inkscape:zoom="0.35"
     inkscape:cx="-678.32408"
     inkscape:cy="69.086462"
     inkscape:document-units="mm"
     inkscape:current-layer="layer1"
     showgrid="false"
     inkscape:window-width="1920"
     inkscape:window-height="1020"
     inkscape:window-x="0"
     inkscape:window-y="0"
     inkscape:window-maximized="1"
     units="mm"
     scale-x="0.9"
     showborder="true"
     inkscape:snap-global="false" />
  <metadata
     id="metadata5765">
    <rdf:RDF>
      <cc:Work
         rdf:about="">
        <dc:format>image/svg+xml</dc:format>
        <dc:type
           rdf:resource="http://purl.org/dc/dcmitype/StillImage" />
        <dc:title></dc:title>
      </cc:Work>
    </rdf:RDF>
  </metadata>
  <g
     inkscape:label="Layer 1"
     inkscape:groupmode="layer"
     id="layer1"
     transform="translate(-144.51948,-608.13151)">
    <path
       style="fill:#000000;stroke-width:0.3175"
       d="m 159.53445,608.13337 c -0.0403,0.002 -0.0802,0.008 -0.11906,0.0209 -0.0565,0.0181 -0.0807,0.0677 -0.16046,0.0679 -0.0937,2e-4 -0.23316,-0.0857 -0.28137,-0.005 -0.0393,0.0659 -0.10938,0.076 -0.18046,0.06 -0.071,-0.016 -0.10444,0.05 -0.18045,0.0609 -0.11613,0.0167 -0.26528,-0.0826 -0.35115,-0.003 -0.0474,0.0441 -0.0996,0.0969 -0.17254,0.0605 -0.0869,-0.0435 -0.10977,0.0897 -0.18697,0.0674 -0.0915,-0.0263 -0.16279,0.0369 -0.25161,0.0549 -0.0795,0.0162 -0.19897,-0.0698 -0.24045,0 -0.0408,0.0687 -0.11194,0.0701 -0.18697,0.0544 -0.0818,-0.0172 -0.0942,0.0761 -0.19301,0.067 -0.0448,-0.004 -0.0283,0.002 -0.0977,0.053 -0.0489,0.0357 -0.10116,-0.01 -0.16743,0.053 -0.0603,0.057 -0.1782,-0.049 -0.21347,0.0261 -0.0403,0.0858 -0.15133,0.006 -0.21348,0.0442 -0.0303,0.0183 0.0136,0.0752 -0.0465,0.0907 -0.046,0.0119 0.015,-0.0971 -0.0488,-0.0367 -0.0557,0.0526 -0.0332,0.10546 -0.0828,0.17254 -0.0412,0.0557 0.004,0.11428 -0.0586,0.18186 -0.0238,0.0257 -0.0579,-0.0164 -0.009,0.0125 0.0517,0.0301 -0.0805,0.0979 -0.0679,0.13768 0.0229,0.0721 -0.0601,0.11499 -0.10418,0.15673 -0.225,0.21298 -0.41758,0.46192 -0.66228,0.65206 -0.0534,0.0415 -0.0299,0.11416 -0.0739,0.16371 -0.0516,0.0581 -0.11757,0.0217 -0.17581,0.0846 -0.0799,0.086 -0.15602,0.17748 -0.24928,0.24882 -0.0412,0.0315 -0.0256,0.0807 -0.0554,0.1228 -0.0446,0.0629 -0.0403,-0.0672 -0.066,-0.0372 -0.0403,0.047 -0.0102,0.17564 -0.06,0.1614 -0.1053,-0.0301 -0.14367,0.10461 -0.20929,0.15997 -0.0412,0.0348 -0.0706,0.0217 -0.12929,0.0637 -0.0387,0.0277 -0.0631,0.0229 -0.11999,0.06 -0.0592,0.0386 -0.0964,0.0331 -0.18836,0.0674 -0.069,0.0258 -0.1507,0.0254 -0.21906,0.002 -0.0774,-0.027 -0.10747,0.0635 -0.17022,0.0697 -0.0659,0.006 -0.12986,-0.0265 -0.1972,0.033 -0.0583,0.0516 -0.15249,0.0111 -0.22464,0.0237 -0.0788,0.0136 -0.20675,-0.0548 -0.24324,0.0191 -0.0354,0.0716 -0.12695,0.0583 -0.1851,0.0363 -0.0738,-0.0279 -0.10363,0.0649 -0.16418,0.0651 -0.11911,0 -0.23842,-0.002 -0.35765,-0.002 -0.60931,0 -1.21849,0.004 -1.8278,0 -0.0693,0 -0.15974,-0.049 -0.20789,0 -0.0344,0.0357 -0.0883,0.01 -0.12046,0.06 -0.0387,0.0604 -0.0971,0.0385 -0.1665,0.0558 -0.0686,0.0171 -0.0827,0.15297 -0.14836,0.12697 -0.077,-0.0304 -0.0829,0.08 -0.18185,0.0544 -0.073,-0.0188 -0.1052,0.002 -0.16464,0.0632 -0.0344,0.0357 -0.0791,0.0174 -0.12046,0.0605 -0.0344,0.0358 -0.0791,0.0169 -0.12046,0.06 -0.0344,0.0358 -0.0786,0.0169 -0.11999,0.06 -0.0343,0.0358 -0.079,0.0169 -0.12046,0.06 -0.0344,0.0357 -0.0786,0.0174 -0.11999,0.0605 -0.0344,0.0358 -0.0655,0.0364 -0.12046,0.06 -0.0604,0.0259 -0.0748,0.13078 -0.15022,0.12045 -0.0754,-0.0102 -0.0866,0.13623 -0.15023,0.11999 -0.0859,-0.0219 -0.13854,0.0669 -0.18929,0.12092 -0.0981,0.10432 -0.17526,0.23905 -0.30277,0.30418 -0.0768,0.0393 -0.0369,0.10987 -0.0953,0.17021 -0.0637,0.0658 -0.22372,0.1048 -0.19674,0.19348 0.0249,0.0817 -0.0724,0.12325 -0.11813,0.17349 -0.0457,0.0502 -0.0588,0.11154 -0.11766,0.17348 -0.042,0.0443 -0.0487,0.0805 -0.0577,0.15811 -0.007,0.0617 -0.0685,0.0779 -0.0684,0.15814 0,0.14676 -0.0124,0.29368 0,0.43996 0.008,0.10399 0.21406,0.1209 0.18417,0.21255 -0.0248,0.0761 0.0552,0.11061 0.0977,0.15814 0.045,0.0503 0.15864,0.0778 0.14278,0.14278 -0.0249,0.10168 0.0918,0.14688 0.15348,0.20324 0.0489,0.0447 0.057,0.0707 0.0814,0.14883 0.0195,0.0628 0.0282,0.0952 0.0605,0.18 0.019,0.0501 0.0272,0.24319 0.0591,0.1558 0.0102,-0.028 -0.0107,-0.0896 0.0307,-0.0358 0.0376,0.0488 0.0363,0.1052 0.0358,0.16416 -0.002,0.22039 0.0123,0.44077 0.003,0.66089 -0.003,0.0599 0.0112,0.16488 -0.0628,0.14652 -0.0396,-0.01 -0.0941,0.002 -0.0637,0.0572 0.0473,0.0869 -0.0773,0.0951 -0.0535,0.19905 0.0174,0.0756 -0.085,0.0836 -0.06,0.18045 0.0188,0.073 0.009,0.11837 -0.0633,0.16464 -0.0604,0.0387 -0.0319,0.0986 -0.0558,0.16604 -0.0117,0.0329 -0.0274,0.16157 -0.0647,0.0665 -0.0238,-0.0607 -0.0599,0.0239 -0.06,0.0767 -1.2e-4,0.07 -0.004,0.13768 -0.0237,0.20695 -0.008,0.0289 -0.0172,0.0583 -0.0242,0.0874 -0.16436,0.0795 -0.41026,0.0758 -0.49299,0.23861 -0.0278,0.0547 -0.10714,0.0188 -0.1293,0.0656 -0.0254,0.0537 -0.10253,0.0149 -0.11999,0.0605 -0.0329,0.0857 -0.11895,0.0322 -0.17069,0.10511 -0.0475,0.067 -0.15204,0.0548 -0.19022,0.13533 -0.0254,0.0537 -0.10095,0.0155 -0.12045,0.06 -0.0333,0.0759 -0.11856,0.0181 -0.17116,0.0544 -0.0942,0.0649 -0.13702,0.28882 -0.24091,0.24091 -0.0806,-0.0371 -0.0987,0.0146 -0.17348,0.0577 -0.077,0.0444 -0.14479,0.11035 -0.1851,0.18836 -0.0411,0.0794 -0.12533,0.0339 -0.17674,0.10373 -0.0392,0.0532 -0.13647,0.0923 -0.12604,0.16138 0.01,0.0626 0.019,0.1549 -0.06,0.15023 -0.0323,-0.002 -0.0475,-0.0186 -0.0586,0.0451 -0.009,0.0498 0.003,0.0884 -0.0581,0.1293 -0.027,0.0181 -0.0402,-0.0231 -0.06,0.0526 -0.01,0.0381 -0.0499,-0.0276 -0.0623,0.0586 -0.0102,0.07 -0.15215,0.0847 -0.12464,0.14975 0.0313,0.074 0.018,0.12254 -0.0577,0.16557 -0.0759,0.043 -0.062,0.12628 -0.0614,0.20372 0.003,0.35564 0.003,0.71121 0.002,1.06689 0,0.0775 -0.0561,0.17929 0,0.23301 0.0358,0.0343 0.0169,0.0786 0.06,0.11999 0.0357,0.0344 0.0174,0.079 0.0605,0.12047 0.0357,0.0344 0.0169,0.0786 0.06,0.11999 0.0358,0.0344 0.036,0.0657 0.06,0.12047 0.0379,0.0866 0.19398,0.10946 0.18045,0.21067 -0.009,0.0652 0.0722,0.0726 0.0572,0.16604 -0.0121,0.0764 0.0628,0.0895 0.0665,0.18743 0.002,0.0615 -0.0374,0.14685 0.0265,0.1879 0.0756,0.0486 0.0987,0.0923 0.0842,0.20139 -0.009,0.071 0.0451,0.11334 0.1,0.15625 0.0669,0.0524 -0.0262,0.15512 0.0223,0.2042 0.0461,0.0467 0.0982,0.0997 0.0614,0.17206 -0.0427,0.0842 0.0672,0.10452 0.0674,0.1786 0,0.14761 -0.0239,0.29694 0,0.44277 0.0138,0.0846 -0.0143,0.16423 -0.0944,0.20788 -0.0628,0.0342 -0.0343,0.13466 -0.0967,0.15954 -0.082,0.0327 -0.0176,0.20008 -0.0893,0.17067 -0.0877,-0.036 -0.17275,0.0527 -0.20604,0.13023 -0.0363,0.0843 -0.23958,0.0342 -0.18417,0.10466 0.0608,0.0772 -0.0202,0.0971 -0.0535,0.17952 -0.0357,0.0884 -0.2186,0.11151 -0.18511,0.20183 0.0285,0.0767 -0.10081,0.0946 -0.06,0.18372 0.0327,0.0713 -0.0574,0.10453 -0.0591,0.16883 -0.005,0.19259 0.002,0.3854 0.002,0.57809 0,0.40279 -0.0153,0.80577 -0.002,1.20832 0.002,0.0664 -0.0532,0.17312 0.007,0.20091 0.069,0.0318 0.0162,0.10565 0.047,0.15999 0.019,0.0334 0.043,-0.024 0.066,0.0567 0.0143,0.0499 0.0344,0.069 0.0619,0.13532 0.025,0.0605 0.13391,0.0754 0.11859,0.15162 -0.0133,0.0662 0.0545,0.015 0.10232,0.0642 0.0481,0.0496 0.16454,0.0865 0.14232,0.15161 -0.0275,0.0803 0.0643,0.11866 0.11116,0.16512 0.083,0.0822 0.25359,0.13194 0.24742,0.24881 -0.004,0.071 -0.0148,0.15538 0.0688,0.18696 0.0564,0.0214 0.0214,0.13439 0.0572,0.1172 0.0421,-0.0202 0.0351,-2e-5 0.0521,0.0498 0.0212,0.0632 0.15173,0.079 0.12511,0.14185 -0.0313,0.074 -0.006,0.10518 0.0572,0.16557 0.0358,0.0343 0.0174,0.079 0.0605,0.12047 0.0358,0.0344 0.0169,0.0791 0.06,0.12044 0.0357,0.0344 0.0169,0.0786 0.06,0.11999 0.0358,0.0344 0.0414,0.0638 0.0605,0.12047 0.0164,0.0486 0.0411,0.0331 0.0939,0.0507 0.071,0.0238 0.10882,0.0972 0.16138,0.14743 0.0572,0.0546 0.10107,0.198 0.17255,0.16464 0.0586,-0.0273 0.0122,0.0488 0.053,0.0581 0.0605,0.0138 0.0878,0.0281 0.17162,0.0544 0.0627,0.0198 0.10483,0.01 0.18045,0.06 0.0649,0.0429 0.17411,-0.0522 0.21255,0.027 0.0393,0.0808 0.13885,0.003 0.19766,0.033 0.0554,0.0286 0.0847,0.0718 0.1665,0.0693 0.22868,-0.007 0.45774,-0.007 0.68647,-0.003 0.0983,0.002 0.20602,0.0454 0.29487,0.004 0.0502,-0.0238 0.0701,-0.0737 0.15022,-0.0609 0.0764,0.0121 0.0895,-0.0628 0.18743,-0.0665 0.0615,-0.002 0.14454,0.0358 0.1879,-0.0265 0.0428,-0.0615 0.13034,-0.0335 0.1944,-0.0321 0.23511,0.005 0.47038,0.008 0.70554,0.005 0.0665,0 0.0889,-0.10547 0.16976,-0.0661 0.0767,0.0372 0.11419,-0.0814 0.17673,-0.0623 0.0684,0.0207 0.0968,-0.0729 0.16651,-0.0558 0.10172,0.0249 0.14909,-0.0898 0.20324,-0.15347 0.0593,-0.0698 0.15517,0.0133 0.21673,-0.0777 0.0453,-0.067 0.21938,-0.0626 0.18464,-0.1358 -0.0262,-0.0552 0.0133,-0.0357 0.0567,-0.054 0.0869,-0.0366 0.112,-0.20314 0.21208,-0.17859 0.0605,0.0148 0.0523,-0.1711 0.0823,-0.0888 0.0102,0.028 -0.0198,0.0815 0.0307,0.0363 0.071,-0.0635 -0.002,-0.16333 0.0632,-0.22183 0.0927,-0.0837 0.28766,-0.13826 0.26882,-0.26185 -0.0126,-0.0833 0.0632,-0.13713 0.11953,-0.18976 0.12247,-0.11458 0.24754,-0.22717 0.35625,-0.35485 0.0349,-0.041 0.14273,-0.008 0.12976,-0.0633 -0.0124,-0.0522 0.0112,-0.0264 0.0605,-0.0605 0.0942,-0.0649 0.12621,-0.23434 0.24046,-0.24046 0.16859,-0.009 0.33797,0 0.50694,0 0.0697,0 0.17925,-0.067 0.20883,-0.004 0.014,0.0297 -0.0136,0.0882 0.0549,0.0716 0.0557,-0.0136 0.0332,0.0306 0.13163,0.053 0.0604,0.0138 0.0902,0.0214 0.17161,0.0544 0.0332,0.0136 0.0356,-0.0188 0.0647,0.0521 0.0155,0.038 0.0649,-0.002 0.10093,0.0525 0.0286,0.0427 0.1859,0.0471 0.11022,0.0749 -0.028,0.0102 -0.0825,-0.019 -0.0358,0.0302 0.0526,0.0556 0.13586,0.009 0.17627,0.0786 0.0291,0.0501 0.14784,0.0175 0.13348,0.0777 -0.01,0.0405 0.002,0.0955 0.0572,0.0647 0.0834,-0.0467 0.13424,-0.0202 0.18325,0.0563 0.0387,0.0604 0.10119,0.0267 0.1665,0.0558 0.0483,0.0217 0.0858,0.0136 0.13441,0.0642 0.0344,0.0358 0.0786,0.0178 0.11999,0.0609 0.0344,0.0358 0.0791,0.0169 0.12046,0.06 0.0343,0.0358 0.0656,0.0366 0.12046,0.06 0.0604,0.0258 0.0752,0.13366 0.15022,0.12045 0.0629,-0.0112 0.0938,0.002 0.15023,0.06 0.0344,0.0358 0.0648,0.0371 0.11999,0.06 0.0605,0.0251 0.0761,0.1353 0.15208,0.11861 0.0656,-0.0145 0.0186,0.0444 0.0609,0.0935 0.0193,0.0224 0.089,0.002 0.0223,0.0251 -0.0384,0.0133 0.0214,0.15181 0.0507,0.12976 0.0538,-0.0405 0.10796,0.006 0.12603,0.087 0.0131,0.0583 0.003,0.1083 0.0693,0.14698 0.0718,0.0417 0.0586,0.1197 0.0623,0.19533 0.004,0.0798 -0.0423,0.17812 0.009,0.24324 0.037,0.0476 0.0428,0.0933 0.10279,0.15207 0.0393,0.0386 0.0825,-0.0336 0.1265,0.0707 0.0367,0.0869 0.20978,0.11342 0.17859,0.21162 -0.0217,0.0682 0.11064,-0.009 0.067,0.0716 -0.0285,0.0525 0.0249,0.0207 0.0558,0.0772 0.0209,0.0384 -0.0433,0.0731 0.0465,0.11673 0.0503,0.0245 0.0258,0.0124 0.067,0.12047 0.0226,0.0591 -0.006,0.14097 0.002,0.20881 0.008,0.0636 -0.0202,0.14216 0.0428,0.19209 0.0616,0.0489 -0.008,0.12197 0.0684,0.18743 0.0557,0.0477 -0.0402,0.20398 0.0437,0.19672 0.0716,-0.006 0.0249,0.1168 0.0284,0.16371 0.004,0.0483 0.0274,0.0371 0.0553,0.13349 0.0172,0.0594 0.006,0.13506 0.006,0.20091 0,0.28167 -0.0286,0.56521 0.004,0.84508 0.008,0.0726 -0.10174,0.0919 -0.0656,0.17812 0.0304,0.0726 -0.0101,0.13997 -0.0754,0.1758 -0.0761,0.042 -0.0252,0.13054 -0.0358,0.19674 -0.0162,0.1018 -0.21494,0.11871 -0.18696,0.21115 0.0174,0.0573 -0.0784,0.01 -0.0605,0.06 0.0186,0.0524 -0.0131,0.0838 -0.0684,0.0582 -0.0573,-0.0267 -0.0157,0.0518 -0.0516,0.0618 -0.0515,0.0143 -0.0205,0.0954 -0.12045,0.0609 -0.0595,-0.0205 -0.0807,0.0832 -0.12744,0.0619 -0.0798,-0.0361 -0.0937,0.0956 -0.17859,0.0623 -0.0696,-0.0272 -0.10216,0.0497 -0.17488,0.0558 -0.0478,0.004 -0.0972,9e-5 -0.14603,0 -0.42544,0 -0.85124,-0.003 -1.27667,-0.002 -0.087,1.7e-4 -0.2144,-0.0718 -0.26138,0.002 -0.0387,0.0604 -0.10258,0.0236 -0.1665,0.0558 -0.0498,0.0251 -0.0703,0.0763 -0.14976,0.0614 -0.0845,-0.0157 -0.0979,0.14495 -0.16464,0.12323 -0.065,-0.0212 -0.17766,0.12459 -0.13906,0.0833 0.0731,-0.0781 -0.0688,-0.024 -0.0888,0.0195 -0.0291,0.0637 -0.0925,0.0558 -0.14604,0.0851 -0.0789,0.0433 -0.10841,0.13956 -0.21301,0.17021 -0.0925,0.0271 -0.11489,0.22424 -0.20185,0.18512 -0.0786,-0.0354 -0.11252,-0.006 -0.17394,0.0581 -0.0344,0.0358 -0.078,0.0169 -0.11953,0.06 -0.0344,0.0357 -0.0813,0.0156 -0.12092,0.0605 -0.0339,0.0383 -0.10934,0.004 -0.11953,0.06 -0.005,0.0298 0.0439,0.0417 -0.0172,0.0395 -0.0832,-0.003 -0.0428,-0.0134 -0.10325,0.0809 -0.0387,0.0604 -0.10257,0.0231 -0.1665,0.0553 -0.0498,0.0251 -0.0716,0.0821 -0.14976,0.0619 -0.073,-0.0188 -0.11881,-0.009 -0.1651,0.0632 -0.0387,0.0604 -0.10215,0.0236 -0.16604,0.0558 -0.0498,0.0251 -0.0696,0.0663 -0.15022,0.0614 -0.11206,-0.007 -0.13049,0.2136 -0.22464,0.18324 -0.0766,-0.0247 -0.10763,0.0598 -0.15487,0.10232 -0.0408,0.0367 -0.0794,0.0164 -0.13069,0.0637 -0.0257,0.0238 0.0147,0.0598 -0.0126,0.009 -0.0267,-0.0491 -0.0925,0.0646 -0.13209,0.0679 -0.11707,0.01 -0.27797,-0.095 -0.35207,-0.003 -0.0382,0.0471 -0.0789,0.0601 -0.14743,0.06 -0.11115,-1.2e-4 -0.27345,-0.0931 -0.33347,0 -0.0387,0.0604 -0.10235,0.0236 -0.1665,0.0553 -0.0479,0.0236 -0.15005,-0.002 -0.13441,0.0647 0.0131,0.0556 -0.0761,0.005 -0.06,0.06 0.0162,0.0548 -0.0757,0.0717 -0.06,0.12047 0.0247,0.0766 -0.06,0.10794 -0.10232,0.15535 -0.0471,0.0528 -0.0379,0.13325 -0.014,0.1916 0.0387,0.0942 -0.0877,0.10665 -0.0609,0.21021 0.0188,0.073 0.009,0.1188 -0.0637,0.16512 -0.0605,0.0386 -0.0376,0.0962 -0.0549,0.16557 -0.0171,0.0686 -0.14824,0.0813 -0.12743,0.14882 0.0233,0.0756 -0.0496,0.13647 -0.10883,0.16048 -0.0329,0.0133 -0.14001,0.0179 -0.0767,0.0521 0.0608,0.0329 0.15364,0.002 0.22649,0.0144 0.0246,0.004 0.0804,0.0149 0.12279,0.026 -0.0231,0.0332 -0.0283,0.0362 0.0237,0.0312 0.0533,-0.005 0.0247,-0.018 -0.0219,-0.0307 0.006,-0.009 0.007,-0.01 0.0172,-0.027 0.0398,-0.0685 0.11252,-0.0657 0.18465,-0.0633 0.18399,0.006 0.37223,-0.0321 0.55252,0.004 0.0756,0.0155 0.0873,-0.0619 0.18231,-0.0618 0.76682,0 1.53357,-0.005 2.30033,0 0.0693,0 0.16788,0.0558 0.20789,0 0.0374,-0.053 0.0827,-0.053 0.15488,-0.0507 0.0636,0.002 -0.008,-0.12004 0.0665,-0.0772 0.0711,0.0411 0.2005,-0.12063 0.15814,-0.0753 -0.0731,0.0781 0.0665,0.0233 0.0879,-0.0195 0.0331,-0.0664 0.1067,-0.11116 0.17673,-0.0753 0.0906,0.0465 0.11195,-0.098 0.19766,-0.0623 0.0849,0.0354 0.0941,-0.0611 0.19348,-0.0605 0.14609,0 0.30103,-0.0492 0.43811,0.002 0.0692,0.0255 0.0972,-0.0606 0.15674,-0.0637 0.14656,-0.008 0.29364,0.004 0.44043,0.002 0.10693,-0.002 0.23209,-0.0635 0.32045,-0.004 0.0509,0.0347 0.0858,0.0668 0.1665,0.0665 0.0622,-2.2e-4 0.12944,-0.0209 0.18511,0.0363 0.0521,0.0536 0.13995,0.0341 0.20464,0.0195 0.088,-0.0198 0.15473,0.0618 0.23998,0.0619 0.15978,1.9e-4 0.33478,0.0659 0.4809,0 0.0592,-0.0267 0.015,0.0469 0.06,0.06 0.0371,0.0107 0.08,0 0.12046,0 0.58133,0 1.19753,0.19805 1.74407,0 0.0872,-0.0316 0.099,0.0598 0.20278,0.0637 0.0615,0.002 0.14898,-0.0387 0.1879,0.0265 0.0449,0.0752 0.15063,-0.019 0.20092,0.0265 0.0448,0.0407 0.0818,0.0675 0.15441,0.0665 0.1474,-0.002 0.31771,-0.0851 0.4423,-0.006 0.0507,0.032 0.0914,0.10133 0.16463,0.0642 0.0773,-0.0393 0.10851,0.0597 0.16976,0.0647 0.0736,0.006 0.17999,-0.0671 0.22092,-0.005 0.0386,0.0585 0.0991,0.0309 0.16604,0.0572 0.0808,0.0318 0.15385,0.0772 0.24975,0.0628 0.0659,-0.01 0.10422,0.0242 0.17673,0.0549 0.0629,0.0266 0.13598,0.0121 0.20138,0 0.0786,-0.0148 0.0964,0.10549 0.18604,0.0679 0.0669,-0.028 0.0966,0.0554 0.16278,0.0577 0.0875,0.003 0.178,-0.0123 0.26603,-0.003 0.0675,0.008 0.12386,0.006 0.19859,0.0502 0.0577,0.0339 0.13389,0.0151 0.19953,0.0144 0.29974,-0.003 0.90203,0.29827 0.89948,-0.002 0,-0.0318 -0.0188,-0.0642 0.0442,-0.0623 0.15255,0.005 0.30581,0.002 0.45858,0.002 1.18348,0 2.36702,0.006 3.55048,0 0.0921,0 0.22899,-0.0787 0.27626,0 0.0393,0.0659 0.10937,0.0764 0.18045,0.0605 0.071,-0.016 0.10569,0.0427 0.18046,0.06 0.0791,0.0183 0.19674,-0.0681 0.24091,0 0.0356,0.0549 0.0858,0.0603 0.15023,0.06 0.1554,0 0.31501,0.0356 0.46601,0 0.0748,-0.0181 0.0865,0.068 0.1772,0.0651 0.23783,-0.008 0.47595,-0.004 0.71391,-0.004 0.37943,0 0.78355,-0.1339 1.13854,0 0.10173,0.0384 0.0658,-0.0983 0.0577,-0.15209 -0.007,-0.0468 0.0367,-0.0143 0.0558,-0.0851 0.0159,-0.0588 0.008,-0.13287 0.006,-0.19767 -0.002,-0.13573 0.11383,-0.33413 0,-0.4074 -0.0604,-0.0387 -0.0266,-0.10111 -0.0558,-0.16652 -0.0217,-0.0483 -0.0217,-0.078 -0.0642,-0.13393 -0.0326,-0.0429 -0.0753,-0.0776 -0.11487,-0.11489 -0.0407,-0.0384 -0.0616,-0.12837 -0.11674,-0.12044 -0.0959,0.0138 -0.15099,-0.0778 -0.20138,-0.14745 -0.0449,-0.062 -0.0814,-0.0696 -0.15953,-0.093 -0.0632,-0.019 -0.10651,-0.008 -0.18045,-0.06 -0.0397,-0.0281 -0.0911,0.0461 -0.12511,-0.0521 -0.0136,-0.0389 -0.0573,-0.004 -0.0981,-0.0442 -0.07,-0.069 -0.23593,-0.11571 -0.20742,-0.20977 0.0171,-0.057 -0.0746,-0.009 -0.0605,-0.0605 0.0131,-0.0481 -0.0607,-0.0878 -0.0609,-0.12931 0,-0.097 0.0854,-0.24365 0,-0.2916 -0.0758,-0.0431 -0.0634,-0.12583 -0.0614,-0.20324 0.004,-0.15786 -0.0644,-0.33176 0.003,-0.47392 0.0412,-0.0856 -0.0687,-2e-5 -0.0623,-0.0744 0.006,-0.0715 -0.11636,-0.0258 -0.16325,-0.0293 -0.0483,-0.004 -0.0376,-0.0268 -0.13394,-0.0549 -0.0593,-0.0174 -0.13509,-0.006 -0.20092,-0.006 -0.24158,0 -0.48439,0.0225 -0.72461,-0.003 -0.0717,-0.008 -0.084,0.0709 -0.17208,0.067 -0.18134,-0.008 -0.3691,0.0411 -0.54462,-0.005 -0.0758,-0.0198 -0.0849,0.06 -0.17859,0.0651 -0.0618,0.003 -0.15862,-0.0468 -0.19022,0.0172 -0.0354,0.0717 -0.12703,0.0572 -0.18557,0.0363 -0.072,-0.0258 -0.10004,0.0591 -0.16092,0.0661 -0.0969,0.0112 -0.24281,-0.0878 -0.29161,-0.003 -0.0397,0.0688 -0.11215,0.0662 -0.18464,0.0637 -0.193,-0.007 -0.38978,0.0365 -0.57904,-0.002 -0.0532,-0.0107 -0.0895,-0.007 -0.13859,-0.0623 -0.034,-0.0383 -0.0761,-0.0233 -0.11999,-0.06 -0.0596,-0.05 -0.0464,-0.22002 -0.12744,-0.1823 -0.059,0.0274 -0.0121,-0.066 -0.053,-0.0581 -0.0393,0.008 -0.0267,0.004 -0.0549,-0.0493 -0.0347,-0.0658 -0.20944,0.0538 -0.18325,-0.0502 0.0143,-0.0571 -0.0828,0.02 -0.0628,-0.0512 0.0193,-0.0681 -0.0636,-0.008 -0.1,-0.0642 -0.0326,-0.0504 -0.12236,-0.0217 -0.14046,-0.0865 -0.0143,-0.0514 -0.0898,-0.0186 -0.06,-0.11999 0.0162,-0.0547 -0.0712,-0.0705 -0.06,-0.12044 0.009,-0.0387 0.004,-0.0238 -0.047,-0.0563 -0.0545,-0.035 0.028,-0.13202 -0.0558,-0.17114 -0.0725,-0.0338 -0.0389,-0.10956 -0.0735,-0.17953 -0.0236,-0.0479 0.002,-0.14959 -0.0642,-0.13442 -0.0521,0.0119 -0.01,-0.0277 -0.0605,-0.06 -0.0604,-0.0387 -0.0262,-0.10118 -0.0553,-0.16652 -0.0214,-0.0483 -0.0119,-0.0873 -0.0647,-0.13395 -0.0383,-0.0339 -0.005,-0.13416 -0.0609,-0.12044 -0.0406,0.01 -0.0934,-0.002 -0.0632,-0.0572 0.0473,-0.0868 -0.0768,-0.0951 -0.053,-0.19907 0.0174,-0.0756 -0.0832,-0.083 -0.0609,-0.18045 0.0174,-0.0756 -0.0757,-0.0818 -0.06,-0.18045 0.0119,-0.0752 -0.0691,-0.0898 -0.0679,-0.18324 0,-0.0737 0.0676,-0.18183 0.005,-0.22186 -0.0604,-0.0387 -0.0152,-0.10759 -0.0558,-0.1665 -0.0344,-0.05 -0.0703,-0.0834 -0.0679,-0.16092 0.007,-0.22867 0.007,-0.45775 0.003,-0.68647 0,-0.0583 -0.0283,-0.12213 -0.004,-0.17488 0.0238,-0.0502 0.079,-0.0707 0.0609,-0.14976 -0.0174,-0.0756 0.0798,-0.0825 0.06,-0.18045 -0.0152,-0.0754 0.10522,-0.0953 0.0656,-0.18278 -0.0205,-0.0453 0.0169,-0.11664 0.0479,-0.15952 -0.009,-0.002 -0.0142,-0.0114 -0.003,-0.0349 0.0284,-0.0609 0.11336,-0.0969 0.073,-0.17859 -0.0364,-0.0738 0.0513,-0.10651 0.0628,-0.16464 0.0119,-0.0605 0.0892,-0.0574 0.0572,-0.16602 -0.0162,-0.0548 0.0611,-0.0693 0.0605,-0.12047 0,-0.0633 3.5e-4,-0.11116 0.0488,-0.16604 h 9.4e-4 c 0.014,-0.005 0.0363,-0.0399 0.005,-0.008 -0.002,0.003 -0.004,0.004 -0.005,0.007 -0.004,0.002 -0.008,1.2e-4 -0.008,-0.007 -0.005,-0.0754 0.0742,-0.11354 0.12046,-0.16045 0.0387,-0.0392 0.0229,-0.0696 0.0656,-0.1293 0.0277,-0.0387 0.0245,-0.0622 0.06,-0.11999 0.0256,-0.0418 0.003,-0.0976 0.0642,-0.13023 0.0493,-0.0264 0.0188,-0.1519 0.0693,-0.12697 0.0347,0.0171 0.13219,-0.0583 0.0786,-0.0577 -0.0321,0 -0.0726,0.0131 -0.0279,-0.0265 0.063,-0.056 0.14601,-0.0172 0.19905,-0.0995 0.0424,-0.0659 0.11084,-0.077 0.17999,-0.12232 0.0545,-0.0357 0.0766,-0.13776 0.15302,-0.1214 0.069,0.0148 0.10348,-0.0413 0.18975,-0.0479 0.0485,-0.004 0.0613,-0.0554 0.12046,-0.06 0.0485,-0.004 0.0638,-0.0422 0.12046,-0.06 0.0628,-0.0198 0.09,-0.0535 0.18045,-0.0605 0.0485,-0.004 0.0705,-0.0272 0.11999,-0.06 0.0649,-0.043 0.17806,0.0538 0.21302,-0.027 0.0399,-0.0923 0.10986,-0.0271 0.20045,-0.086 0.0592,-0.0386 0.0942,-0.0375 0.18789,-0.067 0.0627,-0.0198 0.0938,-0.0334 0.18046,-0.0605 0.0628,-0.0195 0.10485,-0.01 0.18045,-0.06 0.0649,-0.043 0.17762,0.0536 0.21255,-0.0275 0.0399,-0.0923 0.11399,-0.0213 0.20091,-0.0856 0.0557,-0.0412 0.11383,0.004 0.18139,-0.0586 0.0257,-0.0238 -0.0117,-0.0609 0.0121,-0.009 0.021,0.0457 0.0848,-0.0639 0.12325,-0.0656 0.0637,-0.003 0.0925,-0.0297 0.17162,-0.0544 0.0627,-0.0195 0.1048,-0.01 0.18045,-0.06 0.0649,-0.0429 0.17397,0.0519 0.21301,-0.027 0.0354,-0.0716 0.12693,-0.0583 0.18511,-0.0363 0.0738,0.0279 0.10313,-0.0649 0.16371,-0.0651 0.11908,0 0.23844,0.005 0.35765,0.002 0.11346,-0.002 0.2449,0.0642 0.34044,0.003 0.0476,-0.0304 0.0751,-0.0627 0.1493,-0.0628 0.78682,0 1.57355,0.004 2.36032,0 0.0893,0 0.22341,-0.0764 0.26835,0 0.0417,0.0718 0.11976,0.0576 0.19534,0.0623 0.0791,0.005 0.21552,-0.0666 0.24231,0.0107 0.0354,0.10213 0.12419,0.0204 0.20045,0.086 0.0609,0.0523 0.15804,0.0102 0.23255,0.0242 0.077,0.0143 0.17308,-0.0311 0.23673,0.0228 0.0217,0.0183 -0.004,0.0957 0.0321,0.0293 0.0264,-0.0487 0.0921,0.0626 0.13162,0.0684 0.0772,0.0112 0.19282,-0.0707 0.23208,-0.003 0.0417,0.0718 0.11982,0.058 0.19534,0.0628 0.079,0.005 0.20845,-0.0642 0.2423,0.0102 0.0343,0.0753 0.12308,0.0543 0.18837,0.0498 0.11204,-0.008 0.25855,0.0782 0.33625,-0.003 0.0344,-0.0357 0.0791,-0.0169 0.12046,-0.06 0.0344,-0.0358 0.0786,-0.0169 0.11999,-0.06 0.0344,-0.0357 0.09,-0.009 0.12046,-0.06 0.0408,-0.0687 0.11239,-0.0721 0.18697,-0.0544 0.0813,0.0193 0.0937,-0.0958 0.18836,-0.0693 0.0684,0.019 0.10099,-0.0281 0.16557,-0.0567 0.0651,-0.0289 0.16917,0.0547 0.20417,-0.0214 0.0417,-0.0905 0.1246,-0.0129 0.20185,-0.0842 0.006,-0.006 0.009,-0.0123 0.009,-0.0181 0.001,0.004 -0.003,-9.8e-4 0.003,0.009 0.0259,0.0428 0.12316,-0.0379 0.13627,-0.0833 0.0179,-0.0621 0.12207,-0.0163 0.11209,-0.0549 -0.0278,-0.10754 0.15128,-0.12604 0.1679,-0.21441 0.009,-0.0489 0.0706,-0.0622 0.0623,-0.12464 -0.009,-0.071 0.0486,-0.1097 0.1,-0.15673 0.0483,-0.0442 0.007,-0.12173 0.086,-0.15302 0.0876,-0.0345 0.0268,-0.1333 0.0651,-0.18929 0.0388,-0.0568 0.15313,-0.0865 0.11534,-0.17161 -0.0381,-0.0857 0.0799,-0.0928 0.0563,-0.19581 -0.0174,-0.0756 0.079,-0.0823 0.06,-0.18045 -0.0143,-0.0736 0.0688,-0.0857 0.0674,-0.17348 -0.003,-0.19452 -0.0748,-0.40407 0,-0.58369 0.0344,-0.0825 -0.0355,-0.10004 -0.0609,-0.17533 -0.0167,-0.0493 -0.0342,-0.0686 -0.0628,-0.13395 -0.0379,-0.0866 -0.18387,-0.10861 -0.18046,-0.21069 0.002,-0.0669 -0.0675,-0.11882 -0.11999,-0.15069 -0.0424,-0.0257 -0.0857,0.0327 -0.10883,-0.0377 -0.0181,-0.0551 -0.0105,-0.11222 -0.0754,-0.15209 -0.0689,-0.0426 -0.0646,-0.12627 -0.11766,-0.19533 -0.0326,-0.0424 -0.13975,-0.007 -0.12325,-0.0419 0.0264,-0.0553 -0.0135,-0.0358 -0.0567,-0.0539 -0.0869,-0.0366 -0.11341,-0.20988 -0.21162,-0.17859 -0.0676,0.0214 0.0186,-0.0299 -0.0739,-0.0609 -0.0704,-0.0233 -0.11335,-0.0963 -0.16045,-0.15116 -0.0409,-0.0476 -0.14214,-0.022 -0.15534,-0.0911 -0.015,-0.0791 0.0662,-0.19391 0,-0.24044 -0.0531,-0.0374 -0.0579,-0.0827 -0.0502,-0.15442 0.007,-0.0657 -0.0787,0.014 -0.0642,-0.0581 0.0133,-0.067 -0.12069,0.004 -0.073,-0.0688 0.0467,-0.0713 -0.074,-0.10154 -0.0549,-0.15395 0.0276,-0.0757 -0.0647,-0.0855 -0.0614,-0.17766 0.006,-0.16131 0.0934,-0.35124 0.002,-0.48416 -0.0324,-0.0471 0.0941,-0.12373 0.073,-0.11394 -0.0776,0.0361 0.0582,-0.0747 0.0488,-0.11116 -0.0219,-0.0859 0.0679,-0.1379 0.12092,-0.18976 0.0771,-0.0753 0.24941,-0.11635 0.23441,-0.22277 -0.01,-0.0715 0.0428,-0.11587 0.0995,-0.15626 0.0517,-0.0368 0.0322,-0.0702 0.073,-0.13675 0.0256,-0.0418 -5e-5,-0.10385 0.0642,-0.12975 0.0625,-0.0252 0.0464,-0.0957 0.0781,-0.13628 0.0214,-0.0276 0.0698,0.0418 0.0381,-0.0451 -0.0219,-0.0604 0.0594,-0.11916 0.10743,-0.15302 0.0518,-0.0365 0.0575,0.003 0.0856,-0.093 0.0107,-0.0371 9e-5,-0.0796 0,-0.11999 0,-0.15335 0.0406,-0.3118 0.003,-0.46043 -0.0145,-0.0575 -0.0831,-0.0743 -0.0558,-0.16045 0.0267,-0.0842 -0.0482,0.0128 -0.0656,-0.0856 -0.009,-0.0497 0.002,-0.0862 -0.0577,-0.1293 -0.0256,-0.0186 -0.0512,0.0238 -0.0623,-0.0516 -0.0102,-0.07 -0.14078,-0.081 -0.12464,-0.14976 0.0195,-0.0833 -0.0766,-0.13437 -0.13023,-0.18231 -0.11982,-0.10718 -0.18249,-0.36319 -0.34137,-0.33952 -0.0746,0.0112 -0.11662,-0.0588 -0.17022,-0.10558 -0.0526,-0.0459 -0.0902,-0.13914 -0.16744,-0.13952 -0.10206,0 -0.13998,-0.11773 -0.21068,-0.18045 -0.0355,-0.0315 0.006,0.0771 -0.0409,0.0233 -0.0602,-0.0687 -0.2068,-0.10413 -0.19394,-0.1944 0.011,-0.0774 -0.0546,-0.12661 -0.10744,-0.17721 -0.15879,-0.15228 -0.32013,-0.30323 -0.46648,-0.46742 -0.0443,-0.0497 -0.1192,-0.008 -0.15301,-0.086 -0.0246,-0.0574 -0.10402,-0.0226 -0.1293,-0.0661 -0.0257,-0.0442 -0.11986,-0.006 -0.11162,-0.0549 0.009,-0.0542 -0.078,-0.20515 -0.06,-0.15628 0.024,0.0653 -0.0953,0.0813 -0.0642,0.0228 0.032,-0.0603 -0.0595,-0.0131 -0.0558,-0.047 0.004,-0.037 0.0162,-0.0521 -0.047,-0.0558 -0.0432,-0.003 0.0251,-0.0788 -0.0437,-0.0642 -0.0881,0.0188 -0.0753,0.0179 -0.0828,-0.11396 -0.003,-0.056 0.10582,0.037 0.14279,-0.0363 0.0274,-0.0543 0.0893,-0.0299 0.1372,-0.0302 0.0844,0 0.21096,0.0731 0.25347,0 0.0398,-0.0685 0.11295,-0.0649 0.18511,-0.0628 0.24838,0.007 0.49696,-0.007 0.74506,0.006 0.0646,0.004 0.0914,-0.0114 0.15255,-0.0642 0.0643,-0.0556 0.17667,-0.0956 0.18046,-0.18045 0.003,-0.0638 0.027,-0.0934 0.0544,-0.17162 0.0226,-0.0649 0.006,-0.13763 0.005,-0.20602 0,-0.19472 0.18935,-0.62939 0,-0.58415 -0.0522,0.0124 -0.0155,-0.0205 -0.06,-0.0605 -0.0382,-0.0339 -0.004,-0.1328 -0.06,-0.12001 -0.0521,0.0119 -0.0157,-0.0203 -0.0605,-0.06 -0.0383,-0.034 -0.0269,-0.0738 -0.06,-0.12046 -0.0447,-0.0629 -0.0398,0.0668 -0.066,0.0372 -0.0439,-0.0495 -0.0238,-0.12856 -0.0637,-0.16975 -0.057,-0.0588 -0.10173,-0.19853 -0.17813,-0.17024 -0.0792,0.0294 -0.10171,-0.0754 -0.1558,-0.10697 -0.0414,-0.0242 -0.0668,-0.0195 -0.12139,-0.0586 -0.0387,-0.0277 -0.0649,-0.0202 -0.11999,-0.06 -0.0386,-0.0279 -0.0636,-0.0229 -0.12046,-0.06 -0.0592,-0.0385 -0.11032,-0.007 -0.1879,-0.0674 -0.0508,-0.0394 -0.19809,0.0439 -0.18929,-0.0358 0.01,-0.0899 -0.0861,-0.005 -0.15255,-0.0628 -0.0224,-0.0195 0.0106,-0.0834 -0.0246,-0.0223 -0.0247,0.0427 -0.11738,-0.0442 -0.14324,-0.0818 -0.0378,-0.0551 -0.17733,-0.0303 -0.16046,-0.10373 0.0119,-0.0521 -0.0207,-0.015 -0.0605,-0.06 -0.0339,-0.0384 -0.13325,-0.005 -0.11999,-0.0605 0.0124,-0.0522 -0.021,-0.0155 -0.0605,-0.06 -0.034,-0.0383 -0.13332,-0.004 -0.11999,-0.06 0.024,-0.0999 -0.0914,-0.14654 -0.15348,-0.20327 -0.0489,-0.0447 -0.0703,-0.0677 -0.0814,-0.14882 -0.005,-0.0368 -0.0383,-0.15381 -0.0595,-0.0958 -0.0102,0.028 0.009,0.0916 -0.0302,0.0363 -0.0336,-0.0476 -1.5e-4,-0.11861 -0.0367,-0.1544 -0.0413,-0.0403 -0.10485,-0.0114 -0.14464,-0.0358 -0.0498,-0.0304 -0.009,-0.13478 -0.0479,-0.12463 -0.10742,0.0279 -0.12534,-0.16029 -0.21487,-0.16791 -0.0557,-0.005 -0.11607,-0.0126 -0.13952,-0.0767 -0.0301,-0.0822 -0.12548,-0.0198 -0.16092,-0.0935 -0.0294,-0.061 -0.088,-0.0588 -0.14465,-0.0837 -0.0336,-0.0148 -0.13096,-0.0309 -0.0409,-0.0549 0.0579,-0.0155 -0.0434,-0.007 -0.0619,-0.0563 -0.0133,-0.0352 -0.01,-0.0669 -0.0535,-0.10696 -0.0315,-0.0288 0.0188,-0.0409 -0.0595,-0.073 -0.0378,-0.0155 0.006,-0.0746 -0.0525,-0.10092 -0.0492,-0.0219 0.0176,-0.0422 -0.0679,-0.079 -0.0379,-0.0164 -0.0198,-0.0621 -0.04,-0.11302 -0.02,-0.0501 -0.0322,0.0201 -0.0726,-0.033 -0.0388,-0.051 -0.0488,-0.0749 -0.0753,-0.15069 -0.0229,-0.0648 -0.006,-0.13816 -0.006,-0.2065 0,-0.13971 -0.022,-0.28156 0.002,-0.41905 0.014,-0.079 -0.0732,-0.11692 -0.12139,-0.1651 -0.06,-0.0601 -0.0976,-0.20074 -0.18045,-0.18045 -0.10167,0.0249 -0.14432,-0.0943 -0.20325,-0.15349 -0.0474,-0.0476 -0.10049,-0.0238 -0.15859,-0.0814 -0.0788,-0.0783 -0.14233,-0.17367 -0.23069,-0.24044 -0.0512,-0.0387 -0.19756,0.0439 -0.18929,-0.0354 0.009,-0.0904 -0.0992,0.007 -0.15719,-0.0693 -0.0341,-0.0449 -0.0645,-0.0277 -0.12698,-0.0684 -0.0592,-0.0385 -0.0946,-0.038 -0.18835,-0.0674 -0.0627,-0.0198 -0.10477,-0.0104 -0.18046,-0.0605 -0.0649,-0.0429 -0.17372,0.0525 -0.21254,-0.0265 -0.0347,-0.0707 -0.12192,-0.0452 -0.18278,-0.0377 -0.0452,0.006 -0.0126,-0.0341 -0.0907,-0.0554 -0.0589,-0.016 -0.13284,-0.007 -0.19766,-0.006 -0.30294,0.002 -0.60876,-0.0377 -0.90878,0.004 -0.0729,0.0102 -0.0809,-0.0822 -0.1758,-0.0605 -0.0757,0.0174 -0.0836,-0.085 -0.18046,-0.06 -0.073,0.0188 -0.11508,0.007 -0.16464,-0.0633 -0.0375,-0.053 -0.0846,-0.0341 -0.15487,-0.0507 -0.0746,-0.0176 -0.0426,-0.17036 -0.15953,-0.12928 -0.0742,0.026 -0.0884,-0.0226 -0.1665,-0.0605 -0.0631,-0.0306 -0.0898,-0.16643 -0.16464,-0.12418 -0.0898,0.0507 -0.21727,0.0317 -0.19627,-0.0563 0.0124,-0.0522 -0.0194,-0.0178 -0.0609,-0.0609 -0.0344,-0.0358 -0.0878,-0.01 -0.12,-0.06 -0.0387,-0.0604 -0.10819,-0.0138 -0.1665,-0.0553 -0.0505,-0.036 -0.0856,-0.0677 -0.16603,-0.0674 -0.0622,2.1e-4 -0.12776,0.0193 -0.18511,-0.0363 -0.0503,-0.0487 -0.13307,-0.0267 -0.19766,-0.0228 -0.10229,0.006 -0.21095,-0.0345 -0.30696,0.002 -0.0629,0.0236 -0.056,0.0547 -0.13534,0.06 -0.0708,0.005 -0.12256,0.0195 -0.20883,0.0475 -0.0663,0.0212 -0.17733,0.0391 -0.23068,-0.0163 -0.0518,-0.0538 -0.14491,-0.0912 -0.15301,-0.16557 -0.004,-0.0401 0.0279,-0.0719 -0.0312,-0.0944 -0.0501,-0.019 -0.0705,-0.0373 -0.13395,-0.066 -0.0317,-0.0143 -0.039,0.0183 -0.0674,-0.0507 -0.0252,-0.0613 -0.10584,-0.093 -0.13487,-0.1535 -0.0246,-0.0513 -0.12711,-0.0138 -0.11116,-0.0479 0.0207,-0.0443 -0.0172,-0.009 -0.0498,-0.0507 -0.019,-0.0248 0.0221,-0.0412 -0.0516,-0.0619 -0.05,-0.014 -0.0961,-0.002 -0.13487,-0.0619 -0.0387,-0.0604 -0.10685,-0.0164 -0.1665,-0.0558 -0.0503,-0.0333 -0.0923,-0.10233 -0.16464,-0.0642 -0.0833,0.044 -0.1136,-0.0717 -0.18046,-0.0674 -0.0669,0.004 -0.12811,0.0217 -0.19348,-0.04 -0.0604,-0.0569 -0.18757,0.0526 -0.21394,-0.026 -0.0266,-0.0794 -0.0789,-0.0457 -0.14696,-0.0944 -0.0387,-0.0277 -0.0641,-0.0231 -0.12093,-0.06 -0.0592,-0.0386 -0.0937,-0.0381 -0.18743,-0.0675 -0.0627,-0.0198 -0.0944,-0.0329 -0.18092,-0.06 -0.0627,-0.0195 -0.0938,-0.0315 -0.17999,-0.06 -0.0787,-0.026 -0.16781,-0.0159 -0.24882,-0.002 -0.0715,0.0124 -0.10474,-0.0603 -0.18092,-0.0637 -0.0638,-0.003 -0.094,-0.0254 -0.17161,-0.0544 -0.069,-0.0258 -0.15006,-0.0214 -0.21952,-0.002 -0.0688,0.0202 -0.0959,-0.0629 -0.15627,-0.066 -0.14658,-0.008 -0.29363,0.002 -0.44044,0.002 -0.12315,5e-5 -0.25049,-0.03 -0.37254,-0.0242 h -4.6e-4 z m 3.91279,22.42235 c -0.002,-0.004 -0.0176,0.0103 -0.034,0.0335 0.01,0.002 0.0256,-0.007 0.0312,-0.0209 0.003,-0.007 0.004,-0.0108 0.003,-0.0126 z"
       id="path1033"
       inkscape:connector-curvature="0" />
  </g>
</svg>
