<?xml version="1.0" encoding="UTF-8" standalone="no"?>
<!-- Created with Inkscape (http://www.inkscape.org/) -->

<svg
   xmlns:dc="http://purl.org/dc/elements/1.1/"
   xmlns:cc="http://creativecommons.org/ns#"
   xmlns:rdf="http://www.w3.org/1999/02/22-rdf-syntax-ns#"
   xmlns:svg="http://www.w3.org/2000/svg"
   xmlns="http://www.w3.org/2000/svg"
   xmlns:sodipodi="http://sodipodi.sourceforge.net/DTD/sodipodi-0.dtd"
   xmlns:inkscape="http://www.inkscape.org/namespaces/inkscape"
   width="311.95609mm"
   height="201.98521mm"
   viewBox="0 0 280.76048 181.78668"
   version="1.1"
   id="svg5768"
   inkscape:version="0.92.5 (2060ec1f9f, 2020-04-08)"
   sodipodi:docname="grixis.svg">
  <defs
     id="defs5762">
    <inkscape:path-effect
       effect="simplify"
       id="path-effect4565"
       is_visible="true"
       steps="1"
       threshold="0.000408163"
       smooth_angles="360"
       helper_size="0"
       simplify_individual_paths="false"
       simplify_just_coalesce="false"
       simplifyindividualpaths="false"
       simplifyJustCoalesce="false" />
    <inkscape:path-effect
       effect="simplify"
       id="path-effect4543"
       is_visible="true"
       steps="1"
       threshold="0.000408163"
       smooth_angles="360"
       helper_size="0"
       simplify_individual_paths="false"
       simplify_just_coalesce="false"
       simplifyindividualpaths="false"
       simplifyJustCoalesce="false" />
    <inkscape:path-effect
       effect="simplify"
       id="path-effect8619"
       is_visible="true"
       steps="1"
       threshold="0.000408163"
       smooth_angles="360"
       helper_size="0"
       simplify_individual_paths="false"
       simplify_just_coalesce="false"
       simplifyindividualpaths="false"
       simplifyJustCoalesce="false" />
    <inkscape:path-effect
       effect="simplify"
       id="path-effect8615"
       is_visible="true"
       steps="1"
       threshold="0.000408163"
       smooth_angles="360"
       helper_size="0"
       simplify_individual_paths="false"
       simplify_just_coalesce="false"
       simplifyindividualpaths="false"
       simplifyJustCoalesce="false" />
    <inkscape:path-effect
       effect="simplify"
       id="path-effect8611"
       is_visible="true"
       steps="1"
       threshold="0.000408163"
       smooth_angles="360"
       helper_size="0"
       simplify_individual_paths="false"
       simplify_just_coalesce="false"
       simplifyindividualpaths="false"
       simplifyJustCoalesce="false" />
    <inkscape:path-effect
       effect="simplify"
       id="path-effect8607"
       is_visible="true"
       steps="1"
       threshold="0.000408163"
       smooth_angles="360"
       helper_size="0"
       simplify_individual_paths="false"
       simplify_just_coalesce="false"
       simplifyindividualpaths="false"
       simplifyJustCoalesce="false" />
    <inkscape:path-effect
       effect="simplify"
       id="path-effect8600"
       is_visible="true"
       steps="1"
       threshold="0.000408163"
       smooth_angles="360"
       helper_size="0"
       simplify_individual_paths="false"
       simplify_just_coalesce="false"
       simplifyindividualpaths="false"
       simplifyJustCoalesce="false" />
    <inkscape:path-effect
       effect="simplify"
       id="path-effect8584"
       is_visible="true"
       steps="1"
       threshold="0.000408163"
       smooth_angles="360"
       helper_size="0"
       simplify_individual_paths="false"
       simplify_just_coalesce="false"
       simplifyindividualpaths="false"
       simplifyJustCoalesce="false" />
    <inkscape:path-effect
       effect="simplify"
       id="path-effect8571"
       is_visible="true"
       steps="1"
       threshold="0.000408163"
       smooth_angles="360"
       helper_size="0"
       simplify_individual_paths="false"
       simplify_just_coalesce="false"
       simplifyindividualpaths="false"
       simplifyJustCoalesce="false" />
    <inkscape:path-effect
       effect="simplify"
       id="path-effect8556"
       is_visible="true"
       steps="1"
       threshold="0.000408163"
       smooth_angles="360"
       helper_size="0"
       simplify_individual_paths="false"
       simplify_just_coalesce="false"
       simplifyindividualpaths="false"
       simplifyJustCoalesce="false" />
    <inkscape:path-effect
       effect="simplify"
       id="path-effect8532"
       is_visible="true"
       steps="1"
       threshold="0.000408163"
       smooth_angles="360"
       helper_size="0"
       simplify_individual_paths="false"
       simplify_just_coalesce="false"
       simplifyindividualpaths="false"
       simplifyJustCoalesce="false" />
    <inkscape:path-effect
       effect="simplify"
       id="path-effect8528"
       is_visible="true"
       steps="1"
       threshold="0.000408163"
       smooth_angles="360"
       helper_size="0"
       simplify_individual_paths="false"
       simplify_just_coalesce="false"
       simplifyindividualpaths="false"
       simplifyJustCoalesce="false" />
    <inkscape:path-effect
       effect="simplify"
       id="path-effect8524"
       is_visible="true"
       steps="1"
       threshold="0.000408163"
       smooth_angles="360"
       helper_size="0"
       simplify_individual_paths="false"
       simplify_just_coalesce="false"
       simplifyindividualpaths="false"
       simplifyJustCoalesce="false" />
    <inkscape:path-effect
       effect="simplify"
       id="path-effect8449"
       is_visible="true"
       steps="1"
       threshold="0.000408163"
       smooth_angles="360"
       helper_size="0"
       simplify_individual_paths="false"
       simplify_just_coalesce="false"
       simplifyindividualpaths="false"
       simplifyJustCoalesce="false" />
    <inkscape:path-effect
       effect="simplify"
       id="path-effect8443"
       is_visible="true"
       steps="1"
       threshold="0.000408163"
       smooth_angles="360"
       helper_size="0"
       simplify_individual_paths="false"
       simplify_just_coalesce="false"
       simplifyindividualpaths="false"
       simplifyJustCoalesce="false" />
    <inkscape:path-effect
       effect="simplify"
       id="path-effect8434"
       is_visible="true"
       steps="1"
       threshold="0.000408163"
       smooth_angles="360"
       helper_size="0"
       simplify_individual_paths="false"
       simplify_just_coalesce="false"
       simplifyindividualpaths="false"
       simplifyJustCoalesce="false" />
    <inkscape:path-effect
       effect="simplify"
       id="path-effect8422"
       is_visible="true"
       steps="1"
       threshold="0.000408163"
       smooth_angles="360"
       helper_size="0"
       simplify_individual_paths="false"
       simplify_just_coalesce="false"
       simplifyindividualpaths="false"
       simplifyJustCoalesce="false" />
    <inkscape:path-effect
       effect="simplify"
       id="path-effect8418"
       is_visible="true"
       steps="1"
       threshold="0.000408163"
       smooth_angles="360"
       helper_size="0"
       simplify_individual_paths="false"
       simplify_just_coalesce="false"
       simplifyindividualpaths="false"
       simplifyJustCoalesce="false" />
    <inkscape:path-effect
       effect="simplify"
       id="path-effect8413"
       is_visible="true"
       steps="1"
       threshold="0.000408163"
       smooth_angles="360"
       helper_size="0"
       simplify_individual_paths="false"
       simplify_just_coalesce="false"
       simplifyindividualpaths="false"
       simplifyJustCoalesce="false" />
    <inkscape:path-effect
       effect="simplify"
       id="path-effect8391"
       is_visible="true"
       steps="1"
       threshold="0.000408163"
       smooth_angles="360"
       helper_size="0"
       simplify_individual_paths="false"
       simplify_just_coalesce="false"
       simplifyindividualpaths="false"
       simplifyJustCoalesce="false" />
    <inkscape:path-effect
       effect="simplify"
       id="path-effect8114"
       is_visible="true"
       steps="1"
       threshold="0.000408163"
       smooth_angles="360"
       helper_size="0"
       simplify_individual_paths="false"
       simplify_just_coalesce="false"
       simplifyindividualpaths="false"
       simplifyJustCoalesce="false" />
    <inkscape:path-effect
       effect="simplify"
       id="path-effect7808"
       is_visible="true"
       steps="1"
       threshold="0.000408163"
       smooth_angles="360"
       helper_size="0"
       simplify_individual_paths="false"
       simplify_just_coalesce="false"
       simplifyindividualpaths="false"
       simplifyJustCoalesce="false" />
    <inkscape:path-effect
       effect="simplify"
       id="path-effect6980"
       is_visible="true"
       steps="1"
       threshold="0.000408163"
       smooth_angles="360"
       helper_size="0"
       simplify_individual_paths="false"
       simplify_just_coalesce="false"
       simplifyindividualpaths="false"
       simplifyJustCoalesce="false" />
    <inkscape:path-effect
       effect="simplify"
       id="path-effect6741"
       is_visible="true"
       steps="1"
       threshold="0.000408163"
       smooth_angles="360"
       helper_size="0"
       simplify_individual_paths="false"
       simplify_just_coalesce="false"
       simplifyindividualpaths="false"
       simplifyJustCoalesce="false" />
  </defs>
  <sodipodi:namedview
     id="base"
     pagecolor="#ffffff"
     bordercolor="#666666"
     borderopacity="1.0"
     inkscape:pageopacity="0.0"
     inkscape:pageshadow="2"
     inkscape:zoom="0.70710678"
     inkscape:cx="555.17228"
     inkscape:cy="-124.02543"
     inkscape:document-units="mm"
     inkscape:current-layer="layer1"
     showgrid="false"
     inkscape:window-width="1920"
     inkscape:window-height="1012"
     inkscape:window-x="0"
     inkscape:window-y="1080"
     inkscape:window-maximized="1"
     units="mm"
     scale-x="0.9"
     showborder="true"
     inkscape:snap-global="false" />
  <metadata
     id="metadata5765">
    <rdf:RDF>
      <cc:Work
         rdf:about="">
        <dc:format>image/svg+xml</dc:format>
        <dc:type
           rdf:resource="http://purl.org/dc/dcmitype/StillImage" />
        <dc:title />
      </cc:Work>
    </rdf:RDF>
  </metadata>
  <g
     inkscape:label="Layer 1"
     inkscape:groupmode="layer"
     id="layer1"
     transform="translate(-117.59337,283.15845)">
    <path
       inkscape:connector-curvature="0"
       style="fill:#000000;stroke-width:0.3175"
       d="m 325.3741,-283.1562 c -4.65866,-0.0502 -9.64047,0.73866 -14.99352,2.36125 -4.73012,1.43375 -9.4282,3.47574 -11.3593,4.93738 -3.5038,2.6519 -9.6754,5.46227 -14.89629,6.7833 -5.35291,1.35436 -11.99107,1.71454 -16.73247,0.90832 -2.2465,-0.382 -0.58251,0.2988 2.52588,1.03342 5.53922,1.30909 10.21678,1.9958 16.08368,2.36125 l 5.67919,0.35392 1.20736,1.32784 c 6.21502,6.83397 10.60406,16.5498 12.14578,26.88673 0.64391,4.31774 0.63901,12.67372 -0.0102,17.56032 -0.27394,2.06195 -1.05854,5.94468 -1.74315,8.62831 -4.87761,19.11778 -16.65972,38.5158 -36.81962,60.61956 l -1.13248,1.24225 1.1111,-0.76368 c 4.1603,-2.85909 11.6285,-9.84877 16.79338,-15.71764 14.93851,-16.97453 24.44482,-36.42589 28.92662,-59.18662 1.10918,-5.63303 2.29843,-10.01269 4.43972,-16.35156 4.2005,-12.43463 9.09116,-21.6187 14.29169,-26.8379 3.70013,-3.71337 6.47797,-5.08564 10.33427,-5.10574 4.18885,-0.0219 7.59044,1.75846 12.19971,6.38473 l 2.68912,2.69891 -1.06737,-1.905 c -2.77013,-4.94426 -7.31329,-10.07514 -11.16582,-12.60993 -5.57951,-3.67106 -11.69844,-5.5361 -18.50724,-5.60942 z m -82.19313,12.45599 c -19.76803,0.0631 -42.68484,9.55052 -63.41845,26.41699 -2.0082,1.63361 -4.43741,3.70101 -5.39782,4.59412 v 0 c -1.90099,1.76749 -1.71769,1.76621 0.9525,-0.007 6.04141,-4.012 17.24222,-9.90914 24.44782,-12.87177 11.5735,-4.75855 23.43726,-7.75735 34.57695,-8.73993 6.0466,-0.53335 17.08267,-0.2211 22.70187,0.64275 9.52981,1.46502 18.75542,4.39153 27.01743,8.57017 4.09451,2.07083 5.86085,3.13465 10.95375,6.59682 0.99741,0.67804 -2.25981,-2.90722 -5.04761,-5.55596 -5.82968,-5.539 -11.80924,-9.76619 -18.50443,-13.08199 -7.53752,-3.73289 -14.64552,-5.6758 -23.32742,-6.37634 -1.6268,-0.13128 -3.27934,-0.19372 -4.95459,-0.18836 z m 3.80814,12.1067 c -0.8653,-0.003 -1.56708,0.0465 -2.06033,0.15673 -6.52932,1.45928 -16.22348,7.49123 -26.54118,16.51433 -4.3962,3.84459 -10.68307,9.80311 -10.68307,10.12544 -1e-4,0.10887 0.96433,0.19766 2.14313,0.19766 2.0944,0 2.14138,0.018 2.06638,0.7939 -0.1201,1.24267 -3.08412,3.78937 -6.16893,5.30061 l -2.7189,1.33248 0.48044,1.68408 c 0.6513,2.29077 0.6526,9.52584 0,12.39273 l -0.48602,2.13615 4.71599,4.14021 c 3.6125,3.17145 5.59816,5.23488 8.48507,8.8176 7.2217,8.9627 13.74684,15.96764 16.35574,17.55847 1.9262,1.17451 4.56202,0.7847 12.35971,-1.8278 l 4.37323,-1.46549 5.94568,2.87192 c 3.2699,1.57955 6.58818,3.14938 7.37397,3.48862 h 0.002 l 1.42875,0.61717 1.90452,-1.44037 c 19.11929,-14.45631 29.65718,-33.29796 29.67819,-53.06653 0.002,-2.00818 -0.1941,-4.96805 -0.43577,-6.57774 -0.51723,-3.44442 -1.18575,-4.52763 -5.16296,-8.3646 -5.46059,-5.26819 -12.25058,-8.8995 -21.96239,-11.74488 -6.9902,-2.04799 -16.42098,-3.62238 -21.09358,-3.64069 z m 125.22212,6.2052 c -2.86309,-0.0195 -5.75714,0.1681 -8.13996,0.57762 -13.19358,2.26764 -28.82563,9.76189 -44.18429,21.18244 l -3.54442,2.63519 -0.19255,2.16591 c -1.2322,13.83566 -4.40843,25.93836 -9.27525,35.34436 -1.9506,3.76985 -1.95746,3.77448 2.21056,-1.45898 18.23614,-22.89775 38.56204,-41.25502 54.41899,-49.14817 7.77571,-3.87051 11.99465,-5.02846 18.50539,-5.07876 3.99593,-0.0309 4.9183,0.0624 6.98516,0.706 2.86345,0.89161 5.63063,2.2498 7.77535,3.81652 l 1.58363,1.15715 -0.71812,-1.01203 c -1.00091,-1.41028 -4.33349,-4.39127 -6.4182,-5.74106 -2.57737,-1.66873 -5.93303,-3.14467 -9.26921,-4.07648 -2.4263,-0.67768 -6.05597,-1.04475 -9.73708,-1.06971 z m -129.25629,9.22082 c 1.84942,-0.005 3.59035,0.13778 4.5574,0.42882 3.52239,1.06008 5.29907,3.68829 5.52757,8.17671 0.2471,4.85384 -1.66068,10.67309 -4.24208,12.93967 -0.94149,0.8266 -1.367,0.97618 -2.7682,0.97018 -3.2541,-0.0128 -10.10387,-2.86482 -18.87187,-7.85813 -4.5807,-2.60865 -5.58192,-3.36191 -4.29462,-3.23096 0.3056,0.0311 1.5915,0.0401 2.8575,0.02 l 2.30172,-0.0367 v -2.99331 -2.99284 l 1.19063,-0.9953 c 1.7299,-1.44568 6.01479,-3.4414 8.53389,-3.97509 1.40084,-0.29682 3.35864,-0.44851 5.20806,-0.45301 z m -105.47077,11.65464 c -3.5396,-9.5e-4 -7.11505,0.17504 -9.6329,0.52834 -4.00201,0.56157 -9.56126,1.67535 -10.24496,2.05244 -0.2213,0.12203 2.42179,0.39835 5.87359,0.61438 14.8551,0.92974 25.07182,3.17881 34.37512,7.56744 6.0694,2.86314 10.07945,5.7218 14.44795,10.29984 2.9898,3.13322 4.88132,5.72394 7.04562,9.64871 3.3006,5.98537 5.26585,11.54099 8.68505,24.55385 2.5336,9.64263 4.49529,15.73203 6.32799,19.64299 5.3323,11.3787 13.84553,17.73981 27.15182,20.2876 1.49381,0.28607 3.99231,0.38996 7.62,0.31626 4.80771,-0.0976 5.79646,-0.21584 9.04875,-1.08133 16.43441,-4.37349 31.81812,-17.75418 46.2688,-40.24545 4.03282,-6.27674 11.82586,-20.57128 11.43048,-20.96663 -0.0744,-0.0744 -0.67942,0.68853 -1.34412,1.69525 -1.61958,2.45263 -8.60412,11.64777 -11.39883,15.00652 -12.67411,15.23232 -25.28664,26.22439 -36.58614,31.88503 -7.1719,3.59292 -12.38493,5.01755 -18.53003,5.06435 -8.5092,0.0648 -15.22068,-2.85019 -21.30568,-9.25339 -7.0673,-7.43685 -11.74395,-17.37084 -15.80415,-33.57005 -6.3617,-25.38129 -21.26506,-40.11549 -44.01126,-43.51269 -2.37375,-0.35464 -5.8775,-0.53254 -9.4171,-0.53346 z m 58.39829,27.33043 c -0.0346,0.0123 0.10393,0.18554 0.38974,0.50927 1.15721,1.31069 5.56809,4.53427 7.62419,5.57222 1.8054,0.91137 4.46447,1.77048 6.18706,1.99895 0.52391,0.0695 1.0419,0.14774 1.1511,0.17394 0.1091,0.0262 0.63539,-0.0396 1.16969,-0.1465 l 0.97157,-0.19441 -2.55007,-2.15708 -2.54962,-2.15754 -3.06492,0.0479 c -2.7412,0.0428 -3.26417,-0.0451 -4.94808,-0.83204 -1.0355,-0.48395 -2.53528,-1.40296 -3.33328,-2.0422 -0.67179,-0.5381 -1.0029,-0.78831 -1.04738,-0.77251 z m 167.52746,7.40094 c -11.22712,-0.0995 -22.14508,3.27775 -30.29257,9.42408 -9.28652,7.00558 -15.03626,9.21151 -23.11022,8.8669 -3.1053,-0.13253 -4.194,-0.32507 -6.57868,-1.16365 -1.5716,-0.55267 -3.07389,-1.08022 -3.3384,-1.17202 -0.3392,-0.11781 -0.73387,0.34961 -1.34038,1.58641 -2.26859,4.62553 -7.90206,12.58227 -14.17867,20.02576 -1.7647,2.09281 -3.20864,3.90685 -3.20864,4.03138 0,0.12453 0.75007,0.27913 1.66687,0.34323 15.74752,1.10166 31.90925,-2.35782 47.06922,-10.07473 6.80923,-3.46611 12.1352,-6.90937 19.20907,-12.41924 10.23142,-7.9693 18.86909,-11.53358 24.94545,-10.29426 7.12908,1.45403 11.56673,8.14851 11.56673,17.44871 0,2.94688 -0.27689,4.82089 -1.10505,7.47721 -0.41157,1.32017 2.49127,-4.52411 3.07517,-6.19125 0.82935,-2.36785 1.5227,-6.04742 1.5227,-8.0809 0,-4.74137 -1.94349,-9.12728 -5.51503,-12.44575 -2.64364,-2.4563 -4.73959,-3.8002 -8.38319,-5.37549 -3.1788,-1.37432 -4.64646,-1.66293 -9.75569,-1.91988 -0.7505,-0.0377 -1.50021,-0.0599 -2.24869,-0.0665 z m -231.39798,1.53014 c -0.14045,-0.0424 1.08414,1.53365 3.24585,4.13324 14.5752,17.52716 29.52757,28.20215 42.89227,30.62231 2.9452,0.53333 6.04988,0.59815 8.29158,0.17302 0.9273,-0.17586 1.73829,-0.37146 1.80129,-0.43486 0.0634,-0.0634 -0.23621,-1.1697 -0.66601,-2.45846 -0.4297,-1.28873 -0.96364,-3.23624 -1.18644,-4.32764 -0.2227,-1.09141 -0.50785,-1.98406 -0.63345,-1.98406 -0.1256,0 -1.13286,0.2432 -2.23846,0.54043 -2.9128,0.78315 -10.34861,0.76938 -13.7573,-0.0251 -7.4837,-1.74431 -14.61251,-5.38147 -22.3298,-11.39373 -3.341,-2.60287 -10.53765,-9.49188 -14.34145,-13.728 -0.66801,-0.74394 -1.01424,-1.09785 -1.07808,-1.11714 z m 88.1323,9.05387 c -0.26688,0.003 -0.72291,0.37094 -1.69943,1.2855 -0.93151,0.87243 -2.42421,2.11653 -3.31701,2.76495 -2.328,1.69079 -8.83808,5.02145 -13.45778,6.88469 l -3.96907,1.60037 0.10698,1.32597 c 0.11199,1.39112 1.1157,3.91962 2.4845,6.25729 0.7554,1.28997 0.88543,1.37298 1.88593,1.21062 2.1091,-0.34225 12.53165,-4.82256 23.43205,-10.07287 l 3.46212,-1.66734 -0.92181,-0.64275 c -1.9473,-1.35695 -6.44003,-6.43749 -7.72883,-8.7404 -0.0743,-0.13278 -0.15635,-0.20726 -0.27765,-0.20603 z m 29.11032,9.04968 c -0.36571,0 -9.21894,3.1207 -9.41804,3.3198 -0.0625,0.0625 0.32659,0.72103 0.86461,1.46363 2.483,3.42772 3.43488,10.44453 2.43797,17.97146 -0.28148,2.1252 -0.51158,3.94685 -0.51158,4.04812 0,0.29788 0.434,0.21917 2.2673,-0.4116 2.21009,-0.76036 4.0181,-1.67942 6.69029,-3.40072 1.77901,-1.14597 2.28393,-1.67709 3.05143,-3.21236 1.16972,-2.33998 2.36496,-5.99015 3.38307,-10.33007 1.23758,-5.27488 1.54236,-4.69497 -3.80677,-7.24886 -2.53388,-1.20977 -4.76519,-2.1994 -4.95828,-2.1994 z m 76.13954,17.56451 c -0.1504,-0.047 -1.01796,0.38381 -3.0961,1.45479 -7.05336,3.63504 -15.06124,6.35042 -22.52048,7.63582 -4.9586,0.85449 -12.22051,1.16617 -16.03391,0.68833 l -2.8575,-0.35812 -1.99151,0.97715 c -3.35831,1.64743 -6.8385,5.32155 -8.92271,9.42035 -0.3766,0.74066 -1.19123,2.91521 -1.81011,4.83273 -0.80741,2.50128 -1.51552,4.01684 -2.50684,5.3634 -2.48338,3.37342 -7.05252,6.52441 -13.03082,8.98596 -3.18902,1.31307 -10.5141,3.43923 -11.87648,3.44723 -0.6588,0.004 -0.72588,0.0689 -0.34278,0.33161 0.60469,0.4147 6.32731,0.0908 9.36641,-0.5302 3.11469,-0.63642 6.9126,-1.92345 9.525,-3.22771 5.50799,-2.74987 8.90368,-5.88792 11.58859,-10.70819 2.64521,-4.74912 6.62961,-8.45331 9.46501,-8.79946 0.67959,-0.083 0.83489,0.2278 2.09288,4.19649 6.45512,20.3636 16.1946,32.08111 28.48571,34.27047 2.65716,0.4733 8.32897,0.18686 11.24071,-0.56741 3.3163,-0.85905 6.67541,-2.25731 9.74591,-4.05743 2.95189,-1.73057 3.44536,-2.27891 1.12971,-1.25481 -2.18172,0.96486 -6.52686,2.33357 -9.13712,2.87843 -13.52135,2.82242 -23.57149,-2.93345 -28.89499,-16.54922 -2.10819,-5.39228 -3.61426,-12.83919 -3.87046,-19.1379 l -0.0963,-2.35428 4.28625,-0.85483 c 5.55641,-1.10778 9.35414,-2.39431 14.44657,-4.89412 5.78653,-2.84054 11.853,-7.07571 15.21768,-10.62354 0.31969,-0.33709 0.48787,-0.53734 0.39765,-0.56554 z m -49.94813,6.56518 c -0.10689,0 -2.49836,1.52606 -5.31454,3.39095 -7.03352,4.65766 -10.76342,8.36123 -13.21222,13.1192 -2.6129,5.07668 -4.97729,7.21663 -11.9044,10.77562 -1.72009,0.88374 -2.92508,1.60556 -2.67797,1.60456 1.33659,-0.007 6.12717,-1.44279 8.46227,-2.53706 5.50471,-2.57961 8.51237,-5.40287 12.58807,-11.81649 2.96771,-4.67013 6.37273,-8.91839 9.68452,-12.08251 1.4128,-1.34971 2.48117,-2.45427 2.37427,-2.45427 z m -26.87695,15.64183 c -0.20195,-0.01 -0.71966,0.22615 -1.53014,0.64415 -1.50381,0.77559 -2.37537,1.00806 -3.90768,1.04226 -1.69,0.0378 -2.17368,0.19241 -3.38119,1.08087 -2.11899,1.55917 -6.80435,3.72921 -9.66406,4.476 -3.4682,0.90573 -8.65764,0.97261 -11.90625,0.15348 -4.4398,-1.11949 -7.78944,-2.75352 -11.90625,-5.80802 l -1.905,-1.4134 1.42875,1.30597 c 1.7902,1.63676 7.43922,5.47765 9.80452,6.6661 2.5731,1.2929 6.20784,2.56353 8.76923,3.0654 2.69091,0.52725 6.89732,0.3788 9.67662,-0.34138 4.2078,-1.09036 8.47603,-3.81229 12.06393,-7.69302 2.07735,-2.24688 2.84302,-3.15986 2.45752,-3.17841 z"
       id="path7298" />
  </g>
</svg>
