<?xml version="1.0" encoding="UTF-8" standalone="no"?>
<!-- Created with Inkscape (http://www.inkscape.org/) -->

<svg
   xmlns:dc="http://purl.org/dc/elements/1.1/"
   xmlns:cc="http://creativecommons.org/ns#"
   xmlns:rdf="http://www.w3.org/1999/02/22-rdf-syntax-ns#"
   xmlns:svg="http://www.w3.org/2000/svg"
   xmlns="http://www.w3.org/2000/svg"
   xmlns:sodipodi="http://sodipodi.sourceforge.net/DTD/sodipodi-0.dtd"
   xmlns:inkscape="http://www.inkscape.org/namespaces/inkscape"
   width="311.95609mm"
   height="281.78369mm"
   viewBox="0 0 280.76048 253.60531"
   version="1.1"
   id="svg5768"
   inkscape:version="0.92.5 (2060ec1f9f, 2020-04-08)"
   sodipodi:docname="grixis.svg">
  <defs
     id="defs5762">
    <inkscape:path-effect
       effect="simplify"
       id="path-effect4565"
       is_visible="true"
       steps="1"
       threshold="0.000408163"
       smooth_angles="360"
       helper_size="0"
       simplify_individual_paths="false"
       simplify_just_coalesce="false"
       simplifyindividualpaths="false"
       simplifyJustCoalesce="false" />
    <inkscape:path-effect
       effect="simplify"
       id="path-effect4543"
       is_visible="true"
       steps="1"
       threshold="0.000408163"
       smooth_angles="360"
       helper_size="0"
       simplify_individual_paths="false"
       simplify_just_coalesce="false"
       simplifyindividualpaths="false"
       simplifyJustCoalesce="false" />
    <inkscape:path-effect
       effect="simplify"
       id="path-effect8619"
       is_visible="true"
       steps="1"
       threshold="0.000408163"
       smooth_angles="360"
       helper_size="0"
       simplify_individual_paths="false"
       simplify_just_coalesce="false"
       simplifyindividualpaths="false"
       simplifyJustCoalesce="false" />
    <inkscape:path-effect
       effect="simplify"
       id="path-effect8615"
       is_visible="true"
       steps="1"
       threshold="0.000408163"
       smooth_angles="360"
       helper_size="0"
       simplify_individual_paths="false"
       simplify_just_coalesce="false"
       simplifyindividualpaths="false"
       simplifyJustCoalesce="false" />
    <inkscape:path-effect
       effect="simplify"
       id="path-effect8611"
       is_visible="true"
       steps="1"
       threshold="0.000408163"
       smooth_angles="360"
       helper_size="0"
       simplify_individual_paths="false"
       simplify_just_coalesce="false"
       simplifyindividualpaths="false"
       simplifyJustCoalesce="false" />
    <inkscape:path-effect
       effect="simplify"
       id="path-effect8607"
       is_visible="true"
       steps="1"
       threshold="0.000408163"
       smooth_angles="360"
       helper_size="0"
       simplify_individual_paths="false"
       simplify_just_coalesce="false"
       simplifyindividualpaths="false"
       simplifyJustCoalesce="false" />
    <inkscape:path-effect
       effect="simplify"
       id="path-effect8600"
       is_visible="true"
       steps="1"
       threshold="0.000408163"
       smooth_angles="360"
       helper_size="0"
       simplify_individual_paths="false"
       simplify_just_coalesce="false"
       simplifyindividualpaths="false"
       simplifyJustCoalesce="false" />
    <inkscape:path-effect
       effect="simplify"
       id="path-effect8584"
       is_visible="true"
       steps="1"
       threshold="0.000408163"
       smooth_angles="360"
       helper_size="0"
       simplify_individual_paths="false"
       simplify_just_coalesce="false"
       simplifyindividualpaths="false"
       simplifyJustCoalesce="false" />
    <inkscape:path-effect
       effect="simplify"
       id="path-effect8571"
       is_visible="true"
       steps="1"
       threshold="0.000408163"
       smooth_angles="360"
       helper_size="0"
       simplify_individual_paths="false"
       simplify_just_coalesce="false"
       simplifyindividualpaths="false"
       simplifyJustCoalesce="false" />
    <inkscape:path-effect
       effect="simplify"
       id="path-effect8556"
       is_visible="true"
       steps="1"
       threshold="0.000408163"
       smooth_angles="360"
       helper_size="0"
       simplify_individual_paths="false"
       simplify_just_coalesce="false"
       simplifyindividualpaths="false"
       simplifyJustCoalesce="false" />
    <inkscape:path-effect
       effect="simplify"
       id="path-effect8532"
       is_visible="true"
       steps="1"
       threshold="0.000408163"
       smooth_angles="360"
       helper_size="0"
       simplify_individual_paths="false"
       simplify_just_coalesce="false"
       simplifyindividualpaths="false"
       simplifyJustCoalesce="false" />
    <inkscape:path-effect
       effect="simplify"
       id="path-effect8528"
       is_visible="true"
       steps="1"
       threshold="0.000408163"
       smooth_angles="360"
       helper_size="0"
       simplify_individual_paths="false"
       simplify_just_coalesce="false"
       simplifyindividualpaths="false"
       simplifyJustCoalesce="false" />
    <inkscape:path-effect
       effect="simplify"
       id="path-effect8524"
       is_visible="true"
       steps="1"
       threshold="0.000408163"
       smooth_angles="360"
       helper_size="0"
       simplify_individual_paths="false"
       simplify_just_coalesce="false"
       simplifyindividualpaths="false"
       simplifyJustCoalesce="false" />
    <inkscape:path-effect
       effect="simplify"
       id="path-effect8449"
       is_visible="true"
       steps="1"
       threshold="0.000408163"
       smooth_angles="360"
       helper_size="0"
       simplify_individual_paths="false"
       simplify_just_coalesce="false"
       simplifyindividualpaths="false"
       simplifyJustCoalesce="false" />
    <inkscape:path-effect
       effect="simplify"
       id="path-effect8443"
       is_visible="true"
       steps="1"
       threshold="0.000408163"
       smooth_angles="360"
       helper_size="0"
       simplify_individual_paths="false"
       simplify_just_coalesce="false"
       simplifyindividualpaths="false"
       simplifyJustCoalesce="false" />
    <inkscape:path-effect
       effect="simplify"
       id="path-effect8434"
       is_visible="true"
       steps="1"
       threshold="0.000408163"
       smooth_angles="360"
       helper_size="0"
       simplify_individual_paths="false"
       simplify_just_coalesce="false"
       simplifyindividualpaths="false"
       simplifyJustCoalesce="false" />
    <inkscape:path-effect
       effect="simplify"
       id="path-effect8422"
       is_visible="true"
       steps="1"
       threshold="0.000408163"
       smooth_angles="360"
       helper_size="0"
       simplify_individual_paths="false"
       simplify_just_coalesce="false"
       simplifyindividualpaths="false"
       simplifyJustCoalesce="false" />
    <inkscape:path-effect
       effect="simplify"
       id="path-effect8418"
       is_visible="true"
       steps="1"
       threshold="0.000408163"
       smooth_angles="360"
       helper_size="0"
       simplify_individual_paths="false"
       simplify_just_coalesce="false"
       simplifyindividualpaths="false"
       simplifyJustCoalesce="false" />
    <inkscape:path-effect
       effect="simplify"
       id="path-effect8413"
       is_visible="true"
       steps="1"
       threshold="0.000408163"
       smooth_angles="360"
       helper_size="0"
       simplify_individual_paths="false"
       simplify_just_coalesce="false"
       simplifyindividualpaths="false"
       simplifyJustCoalesce="false" />
    <inkscape:path-effect
       effect="simplify"
       id="path-effect8391"
       is_visible="true"
       steps="1"
       threshold="0.000408163"
       smooth_angles="360"
       helper_size="0"
       simplify_individual_paths="false"
       simplify_just_coalesce="false"
       simplifyindividualpaths="false"
       simplifyJustCoalesce="false" />
    <inkscape:path-effect
       effect="simplify"
       id="path-effect8114"
       is_visible="true"
       steps="1"
       threshold="0.000408163"
       smooth_angles="360"
       helper_size="0"
       simplify_individual_paths="false"
       simplify_just_coalesce="false"
       simplifyindividualpaths="false"
       simplifyJustCoalesce="false" />
    <inkscape:path-effect
       effect="simplify"
       id="path-effect7808"
       is_visible="true"
       steps="1"
       threshold="0.000408163"
       smooth_angles="360"
       helper_size="0"
       simplify_individual_paths="false"
       simplify_just_coalesce="false"
       simplifyindividualpaths="false"
       simplifyJustCoalesce="false" />
    <inkscape:path-effect
       effect="simplify"
       id="path-effect6980"
       is_visible="true"
       steps="1"
       threshold="0.000408163"
       smooth_angles="360"
       helper_size="0"
       simplify_individual_paths="false"
       simplify_just_coalesce="false"
       simplifyindividualpaths="false"
       simplifyJustCoalesce="false" />
    <inkscape:path-effect
       effect="simplify"
       id="path-effect6741"
       is_visible="true"
       steps="1"
       threshold="0.000408163"
       smooth_angles="360"
       helper_size="0"
       simplify_individual_paths="false"
       simplify_just_coalesce="false"
       simplifyindividualpaths="false"
       simplifyJustCoalesce="false" />
  </defs>
  <sodipodi:namedview
     id="base"
     pagecolor="#ffffff"
     bordercolor="#666666"
     borderopacity="1.0"
     inkscape:pageopacity="0.0"
     inkscape:pageshadow="2"
     inkscape:zoom="0.125"
     inkscape:cx="-548.01222"
     inkscape:cy="-217.27338"
     inkscape:document-units="mm"
     inkscape:current-layer="layer1"
     showgrid="false"
     inkscape:window-width="1920"
     inkscape:window-height="1020"
     inkscape:window-x="0"
     inkscape:window-y="0"
     inkscape:window-maximized="1"
     units="mm"
     scale-x="0.9"
     showborder="true"
     inkscape:snap-global="false" />
  <metadata
     id="metadata5765">
    <rdf:RDF>
      <cc:Work
         rdf:about="">
        <dc:format>image/svg+xml</dc:format>
        <dc:type
           rdf:resource="http://purl.org/dc/dcmitype/StillImage" />
        <dc:title></dc:title>
      </cc:Work>
    </rdf:RDF>
  </metadata>
  <g
     inkscape:label="Layer 1"
     inkscape:groupmode="layer"
     id="layer1"
     transform="translate(-117.59337,283.15845)">
    <g
       id="g7792">
      <path
         id="path7362"
         transform="scale(0.238125)"
         d="m 1219.3984,-363.53125 c -1.4231,-0.0237 -2.6942,0.0299 -3.6933,0.17969 -12.3242,1.84806 -18.8983,9.63323 -17.7989,21.07617 0.8126,8.45489 3.6892,12.20038 15.627,20.34766 11.7207,7.99878 15.2402,12.35155 15.2402,18.8457 0,6.16966 -4.1785,9.82031 -11.2441,9.82031 -6.0149,0 -12.0699,-4.49088 -15.9473,-11.82812 l -2.5566,-4.83789 -0.059,6.89062 c -0.032,3.79003 -0.4007,7.77875 -0.8164,8.86523 -0.75,1.95394 3.2344,3.83706 11.4238,5.39649 5.9675,1.13629 17.2921,-0.24505 22.3516,-2.72656 6.7574,-3.3141 10.9824,-9.99192 10.9824,-17.35743 0,-9.85793 -4.4634,-15.72629 -18.834,-24.76953 -10.1413,-6.3816 -13.166,-9.87787 -13.166,-15.21679 0,-5.78881 3.9889,-9.75 9.8203,-9.75 5.7487,0 10.7035,3.92703 13.7637,10.9082 l 2.416,5.51172 0.7266,-8.54297 c 0.4485,-5.2661 0.1936,-8.91321 -0.666,-9.50781 -2.3595,-1.63227 -11.4034,-3.2019 -17.5704,-3.30469 z m -263.15621,0.33984 c -8.56651,0.007 -11.03749,0.57629 -17.23633,3.96875 -12.63664,6.91536 -18.14235,18.89862 -17.13867,37.29493 0.92682,16.9891 8.39178,28.04783 21.61719,32.02343 9.35433,2.81197 13.62281,2.46813 18.8457,-1.51562 l 4.57812,-3.49219 0.0723,7.82617 c 0.0722,7.81199 0.0815,7.83033 6.33203,12.01367 l 0.004,0.002 c 3.44315,2.30467 6.40897,4.25545 6.59375,4.33398 0.18057,0.0787 0.33203,-12.4574 0.33203,-27.85742 v -28 l -13.66602,0.004 -13.66797,0.004 4,2.47071 c 7.67958,4.74381 9.25533,7.66062 9.78321,18.11328 0.46656,9.2362 0.3427,9.73112 -2.64649,10.53125 -15.54142,4.16058 -24.16983,-4.27856 -25.92773,-25.35938 -1.26488,-15.17031 1.07647,-25.03172 7.46093,-31.41601 4.1936,-4.1936 5.92738,-5.01563 10.57032,-5.01563 7.46036,0 12.09375,4.76416 12.09375,12.43555 v 5.3789 l 5.35547,-7.17578 c 2.94509,-3.94725 5.14816,-7.80567 4.90039,-8.57422 -0.24903,-0.7685 -3.10732,-2.88315 -6.35352,-4.69921 -4.82394,-2.6988 -7.7289,-3.30333 -15.90234,-3.29493 z m 36.66601,0.4336 9.332,5.74804 9.334,5.74805 -6.334,0.40625 -6.332,0.40625 v 28.04688 c 0,27.45486 -0.0633,28.09889 -3,30.54882 -2.96903,2.47799 -2.84361,2.50332 12.332,2.51172 14.9451,0.009 15.2429,-0.0474 11.6973,-2.24609 -2.001,-1.24074 -4.2508,-4.01486 -5,-6.16406 -0.7559,-2.16823 -1.3633,-16.061 -1.3633,-31.21094 v -27.30469 l 6.916,0.66406 c 8.5867,0.82508 11.75,4.14119 11.75,12.31055 0,7.19118 -3.8095,12.2909 -10.0566,13.46289 -2.5352,0.47555 -4.6094,1.35355 -4.6094,1.95117 0,0.59763 4.256,9.17293 9.457,19.05664 11.3256,21.52252 19.3109,31.07092 30.7813,36.80274 10.3009,5.14759 13.3327,5.30462 8.1484,0.42383 -3.2025,-3.01489 -27.5154,-45.02456 -30.3711,-52.47657 -0.587,-1.5323 0.3831,-2.64046 3.4063,-3.89257 5.6647,-2.3465 9.2402,-8.52641 9.2402,-16 0.01,-7.35828 -2.4311,-11.08923 -9.75,-14.92188 -4.8621,-2.5461 -8.1469,-2.98241 -25.5781,-3.39648 z m 78.7031,0.19336 c -12.4107,-0.0277 -13.0997,0.10766 -10.334,2.04492 2.9216,2.05375 2.9629,2.43909 2.9629,36.50586 v 34.42773 l 3.8692,1.60352 c 2.1274,0.88126 5.2774,3.10155 7,4.93554 l 3.1328,3.33594 0.3496,-39.10937 c 0.3469,-38.71731 0.3794,-39.13146 3.332,-41.41211 2.8859,-2.22833 2.5501,-2.30264 -10.3125,-2.33203 z m 104,0 c -12.4107,-0.0277 -13.0997,0.10766 -10.334,2.04492 2.9216,2.05375 2.9629,2.43909 2.9629,36.50586 v 34.42773 l 3.8692,1.60352 c 2.1274,0.88126 5.2774,3.10155 7,4.93554 l 3.1328,3.33594 0.3496,-39.10937 c 0.3469,-38.71731 0.3794,-39.13146 3.332,-41.41211 2.8859,-2.22833 2.5501,-2.30264 -10.3125,-2.33203 z m -30.5175,0.0137 c -11.6574,-0.0438 -11.7742,-0.0109 -8.7989,2.39844 3.8442,3.1129 3.0271,6.46113 -3.8945,15.96875 l -5.1543,7.08007 -7.252,-12.4121 -7.2539,-12.41211 -10.582,-0.32813 c -10.5663,-0.32718 -10.5794,-0.32269 -7.5742,2.22266 1.6554,1.4022 7.514,10.11257 13.0195,19.35742 l 10.0098,16.80859 -10.0664,14.5586 c -5.5366,8.00747 -11.6946,15.7759 -13.6856,17.26171 l -3.6211,2.70118 12,0.002 c 8.7883,10e-4 11.3768,-0.36215 9.668,-1.35742 -3.7279,-2.1713 -2.7342,-7.45235 2.9922,-15.88477 2.93,-4.31433 5.8305,-8.1551 6.4453,-8.53515 0.6152,-0.38006 4.5311,5.20732 8.7012,12.41601 l 7.5801,13.10742 6.3066,0.88282 c 3.4688,0.48596 7.8064,1.71335 9.6387,2.72656 1.8322,1.01329 3.5423,1.62867 3.8027,1.36914 0.2595,-0.25961 -3.4039,-6.96021 -8.1426,-14.89063 -4.7382,-7.93037 -10.7024,-18.03191 -13.2519,-22.44921 l -4.6348,-8.03125 9.707,-13.69532 c 5.3388,-7.53218 11.0906,-14.84834 12.7813,-16.25781 l 3.0742,-2.5625 z m -56.1856,117.96094 c -13.1242,0.006 -15.4737,0.38426 -22.334,3.59375 -8.1167,3.79716 -8.9704,5.46451 -6.3398,12.38281 0.7294,1.91903 3.2193,5.21843 5.5332,7.33203 l 4.207,3.84375 -5.0019,-1.7207 c -5.427,-1.86575 -7.3355,-3.95482 -7.3985,-8.10352 -0.023,-1.46667 -0.5995,-3.55203 -1.2832,-4.63281 -1.0461,-1.65447 -1.8106,-1.44309 -4.8359,1.33398 -10.0447,9.22016 -17.8809,26.73579 -17.8809,39.96875 0,13.44773 6.1804,19.55804 22.9981,22.73633 9.2413,1.74652 9.6279,2.64521 7.8632,18.32227 -0.687,6.08411 -0.926,12.38412 -0.5312,14 1.073,4.41814 4.3736,7.60547 7.8769,7.60547 2.9593,0 3.127,-0.46518 3.127,-8.66797 0,-4.76666 0.5042,-8.66602 1.1211,-8.66602 0.6165,0 1.8452,3.23489 2.7305,7.18945 1.3438,6.00572 2.1523,7.29507 4.9101,7.82227 4.0357,0.77149 4.185,0.54282 5.334,-8.11914 0.5073,-3.82429 1.4434,-7.27448 2.0801,-7.66797 1.3069,-0.80613 1.5153,0.58942 1.1836,7.77539 -0.2709,5.85176 1.7323,6.47994 7.1269,2.23633 2.1124,-1.66161 3.5137,-4.08468 3.5137,-6.07813 0,-1.87069 0.5795,-2.95711 1.332,-2.49218 0.7333,0.4532 1.334,4.28889 1.334,8.52343 0,4.23438 0.4207,8.12008 0.9356,8.63477 0.8252,0.82507 8.3204,-0.13125 9.5214,-1.21484 0.2511,-0.22682 0.5485,-8.70618 0.6661,-18.84375 l 0.2109,-18.43164 8,-1.82618 c 21.3556,-4.87424 24.0786,-7.87354 23.0645,-25.39648 -0.6854,-11.83719 -6.2748,-24.8845 -13.7754,-32.1543 l -4.502,-4.36328 -7.0605,2.88672 -7.0606,2.88477 5.334,-4.67969 5.332,-4.68164 -4,-3.36524 c -6.5679,-5.52386 -16.8167,-7.97519 -33.332,-7.96679 z m 140.4688,1.49804 c -2.4771,0.0444 -4.9955,0.22559 -7.545,0.54883 -10.7783,1.36651 -16.2047,3.94727 -8.2988,3.94727 8.1004,0 21.3716,2.90295 24.3691,5.33008 l 2.9395,2.3789 -5.2988,1.47266 c -2.9149,0.80919 -6.3146,1.47452 -7.5547,1.47851 -3.8337,0.0126 -4.0966,2.60744 -0.4082,4.00977 5.4496,2.07194 10.7268,1.58819 17.2519,-1.58203 5.0902,-2.47299 6.4661,-2.66342 9.0996,-1.25391 5.3229,2.84863 8.9711,11.88598 6.4434,15.95703 -0.8407,1.3545 -1.8254,0.78635 -4.0469,-2.33398 -3.7942,-5.32821 -5.5671,-5.24506 -4.5332,0.21094 1.6718,8.82402 6.8898,14.64088 15.4668,17.24414 5.4127,1.64279 5.45,1.89468 1.6231,11.25976 -3.2382,7.92399 -5.1252,7.06149 -4.3067,-1.96679 0.7979,-8.79904 0.1472,-9.7563 -3.7226,-5.48047 -1.8054,1.99508 -2.6645,5.65215 -3.2071,13.66601 -0.8184,12.07786 -3.2336,16.94204 -9.8007,19.73242 -2.8263,1.20093 -4.5402,1.2132 -7.0918,0.0508 -4.9075,-2.23601 -3.6492,-6.50284 3.3711,-11.43554 3.2373,-2.27452 7.0646,-6.40848 8.5058,-9.18555 2.5483,-4.91036 4.7755,-16.88476 3.1406,-16.88476 -0.448,0 -4.2649,2.20642 -8.4824,4.90429 -8.3162,5.31973 -13.7813,6.06515 -28.041,3.82422 -20.8676,-3.27933 -36.8615,17.71152 -30.4082,39.91016 2.8086,9.66093 10.6335,17.84079 20.0664,20.97851 v 0 c 8.0172,2.66667 12.2493,2.80683 29.9707,0.98828 13.7835,-1.41442 29.2058,-5.96548 27.1523,-8.01171 -0.6182,-0.6164 -4.9751,-1.30129 -9.6836,-1.52344 -15.9441,-0.75188 -10.8247,-4.78959 9.8926,-7.80078 11.6313,-1.69067 15.7979,-3.36763 20.2441,-8.14453 3.4243,-3.67895 8.8776,-15.79297 7.1094,-15.79297 -0.6705,0 -3.7997,1.71255 -6.9531,3.80468 -5.6466,3.74623 -14.3985,7.40194 -14.3985,6.01368 0,-0.39093 3.5257,-4.7101 7.836,-9.59766 11.1164,-12.60561 12.7739,-16.26135 12.7949,-28.2207 0.02,-11.28466 -3.6323,-20.88571 -11.1562,-29.33203 l -4.1583,-4.66797 2.6758,7.05078 c 1.4708,3.87712 2.6318,8.97583 2.5801,11.33203 l -0.094,4.28516 -1.7735,-4.81446 c -7.5179,-20.42544 -27.6271,-32.7791 -51.5722,-32.34961 z m -274.22466,3.16407 c -2.5369,0 -20.52117,20.60039 -28.32422,32.44531 -9.31905,14.14522 -13.29287,23.91716 -14.22851,34.98437 -0.80882,9.56053 1.92278,20.39854 6.81055,27.01758 3.87485,5.24775 12.658,11.96361 17.83007,13.63281 5.84441,1.88611 19.17127,0.56625 25.16602,-2.49218 10.22614,-5.21693 17.58917,-16.01835 18.7793,-27.54688 0.99989,-9.68949 -1.02803,-14.79399 -12.66016,-31.84961 -12.11716,-17.76676 -14.09535,-23.35852 -12.91992,-36.52539 0.54047,-6.0509 0.37039,-9.66601 -0.45313,-9.66601 z m 254.27536,3.45507 c -3.5517,-0.2367 -8.0604,1.61285 -12.3086,5.62891 -3.2768,3.09783 -8.8789,12.05366 -8.8789,14.19531 0,1.56296 3.091,0.58032 6.4258,-2.04297 2.6058,-2.04959 3.6339,-2.30763 3.9824,-1 0.2587,0.96928 0.7153,2.54412 1.0176,3.5 0.3465,1.10186 2.4279,-0.23958 5.6875,-3.66601 2.9942,-3.1478 6.377,-5.4043 8.0996,-5.4043 2.5399,0 2.896,-0.62167 2.5391,-4.32422 -0.4181,-4.32703 -3.0127,-6.65001 -6.5645,-6.88672 z m 13.3379,16.57422 c -0.7383,0.0329 -1.1914,0.35468 -1.1914,0.99805 0,0.566 2.6039,3.86665 5.7871,7.33398 6.5315,7.11404 10.4038,7.96924 16.0332,3.54102 8.0017,-6.29405 1.2907,-14.90194 -7.8007,-10.00586 -4.1374,2.22812 -4.6972,2.24601 -7.5411,0.25391 -2.0341,-1.42473 -4.0565,-2.17595 -5.2871,-2.1211 z m -100.3125,15.42578 c 1.6499,0.0414 3.2525,0.36718 4.7383,1 9.7503,4.15278 15.0015,16.15774 9.3184,21.30078 -4.3914,3.97422 -29.0497,4.12023 -32.3106,0.19141 -2.4033,-2.89612 -0.4059,-10.67913 4.043,-15.74609 3.8888,-4.42914 9.2612,-6.87024 14.2109,-6.7461 z m -62.9609,0.36133 c 4.3843,0.083 9.2976,2.17025 14.3144,6.20899 7.2609,5.84558 8.7653,14.4879 2.9082,16.71484 -8.4795,3.22373 -25.8218,2.45373 -30.4043,-1.34961 -4.0025,-3.32162 -1.9128,-12.52672 4.1114,-18.10937 2.5701,-2.38206 5.6602,-3.52941 9.0703,-3.46485 z m 27.1719,23.47656 c 0.1248,0.004 0.2488,0.0424 0.373,0.11915 0.6618,0.40907 1.2031,4.87311 1.2031,9.91992 0,8.67317 1.3885,12.48255 3.377,9.26562 0.4913,-0.79508 1.2346,-5.15599 1.6504,-9.68945 l 0.7578,-8.24219 2.4062,5.33399 c 1.3232,2.93228 2.3987,8.14382 2.4414,11.58398 v 0.002 0.002 c 0.019,3.43828 -0.4153,6.43542 -0.9648,6.66211 -0.5501,0.23013 -4.1503,0.2354 -8,0.0137 l -7,-0.4043 v -8.39844 c 0,-8.39189 1.8831,-16.23252 3.7559,-16.16797 z"
         style="fill:#000000;stroke-width:1.33333325"
         inkscape:connector-curvature="0" />
      <path
         id="path7298"
         transform="scale(0.238125)"
         d="m 1366.4004,-1189.1074 c -19.5639,-0.2107 -40.4849,3.102 -62.9649,9.916 -19.864,6.021 -39.5935,14.5963 -47.7031,20.7344 -14.7141,11.1366 -40.6316,22.9387 -62.5566,28.4863 -22.4794,5.6876 -50.3562,7.2002 -70.2676,3.8145 -9.4341,-1.6042 -2.4462,1.2548 10.6074,4.3398 23.2618,5.4975 42.9051,8.3813 67.543,9.916 l 23.8496,1.4863 5.0703,5.5762 c 26.0998,28.6991 44.5315,69.5005 51.0059,112.91017 2.7041,18.13224 2.6835,53.22298 -0.043,73.74414 -1.1504,8.6591 -4.4453,24.96453 -7.3203,36.23437 -20.4834,80.28464 -69.9621,161.74612 -154.6231,254.57031 l -4.7558,5.2168 4.666,-3.20703 c 17.4711,-12.00668 48.8336,-41.35969 70.5234,-66.00586 62.7339,-71.28412 102.6554,-152.96962 121.4766,-248.55273 4.658,-23.65577 9.6522,-42.04805 18.6445,-68.66797 17.6399,-52.2189 38.1781,-90.7872 60.0176,-112.7051 15.5386,-15.5942 27.2041,-21.357 43.3985,-21.4414 17.591,-0.092 31.8759,7.3846 51.2324,26.8125 l 11.2929,11.334 -4.4824,-8 c -11.6331,-20.7633 -30.712,-42.3103 -46.8906,-52.9551 -23.431,-15.4165 -49.1273,-23.2487 -77.7207,-23.5566 z m -345.168,52.3086 c -83.01534,0.2651 -179.2539,40.1072 -266.3242,110.9375 -8.43338,6.8603 -18.63479,15.5423 -22.66797,19.2929 v 0 c -7.9832,7.42252 -7.21343,7.41716 4,-0.029 25.37071,-16.8483 72.40824,-41.6132 102.66797,-54.0547 48.60263,-19.9834 98.42419,-32.5768 145.20508,-36.7031 25.39252,-2.2398 71.73822,-0.9285 95.33592,2.6992 40.0202,6.1523 78.7629,18.4421 113.459,35.9902 17.1948,8.6964 24.6125,13.1639 46,27.7032 4.1886,2.8474 -9.49,-12.2088 -21.1973,-23.3321 -24.4816,-23.2609 -49.5926,-41.0129 -77.7089,-54.9375 -31.6536,-15.6762 -61.5035,-23.8354 -97.9629,-26.7773 -6.8317,-0.5513 -13.7715,-0.8135 -20.8067,-0.791 z m 15.9922,50.8418 c -3.6338,-0.014 -6.5809,0.1952 -8.6523,0.6582 -27.4197,6.1282 -68.13009,31.4592 -111.45902,69.3515 -18.46173,16.14528 -44.86328,41.16794 -44.86328,42.52152 -4.2e-4,0.4572 4.04966,0.83008 9,0.83008 8.79538,0 8.9927,0.0758 8.67773,3.33398 -0.50435,5.21856 -12.9517,15.91335 -25.90625,22.25977 l -11.41796,5.5957 2.01757,7.07227 c 2.73512,9.62003 2.74058,40.00353 0,52.04296 l -2.04101,8.97071 19.80469,17.38672 c 15.1706,13.31842 23.50934,21.98375 35.63281,37.02929 30.32735,37.6386 57.72954,67.05568 68.68554,73.73633 8.08903,4.93233 19.15808,3.29535 51.90428,-7.67578 l 18.3653,-6.1543 24.9687,12.06055 c 13.7319,6.63328 27.6669,13.22576 30.9668,14.65039 h 0.01 l 6,2.5918 7.998,-6.04883 c 80.291,-60.70891 124.5446,-139.83395 124.6328,-222.85156 0.01,-8.4333 -0.8151,-20.8632 -1.83,-27.62305 -2.1721,-14.46475 -4.9795,-19.01365 -21.6817,-35.12695 -22.9316,-22.1236 -51.446,-37.3732 -92.2305,-49.3223 -29.3552,-8.6005 -68.9595,-15.2121 -88.582,-15.289 z m 525.8672,26.0586 c -12.0235,-0.082 -24.177,0.7059 -34.1836,2.4257 -55.4061,9.5229 -121.0525,40.9948 -185.5508,88.95512 l -14.8847,11.06641 -0.8086,9.0957 c -5.1746,58.10251 -18.5131,108.92747 -38.9512,148.42774 -8.1915,15.83139 -8.2203,15.85083 9.2832,-6.12696 76.5822,-96.15853 161.9403,-173.2494 228.5312,-206.39651 32.6539,-16.2541 50.3712,-21.1169 77.7129,-21.3281 16.7808,-0.1296 20.6543,0.2622 29.334,2.9648 12.025,3.7443 23.6457,9.448 32.6524,16.0274 l 6.6504,4.8594 -3.0157,-4.25 c -4.2033,-5.9224 -18.1984,-18.441 -26.9531,-24.1094 -10.8236,-7.0078 -24.9156,-13.206 -38.9258,-17.1191 -10.1892,-2.8459 -25.4319,-4.3874 -40.8906,-4.4922 z m -542.8086,38.7226 c 7.7666,-0.019 15.0776,0.5786 19.1387,1.8008 14.7922,4.4518 22.2533,15.4889 23.2129,34.33789 1.0377,20.38358 -6.974,44.8214 -17.8145,54.33984 -3.9538,3.47129 -5.7407,4.09942 -11.625,4.07422 -13.6655,-0.0539 -42.43094,-12.03072 -79.25194,-33 -19.23654,-10.95496 -23.44114,-14.11828 -18.03516,-13.56836 1.28336,0.13061 6.68347,0.1684 12,0.084 l 9.66602,-0.1543 v -12.57031 -12.56836 l 5,-4.17972 c 7.26467,-6.0711 25.25899,-14.4521 35.83789,-16.6933 5.88279,-1.2465 14.10449,-1.8835 21.87109,-1.9024 z m -442.92187,48.94338 c -14.86446,-0.004 -29.87948,0.73507 -40.45313,2.21875 -16.8063,2.35826 -40.15225,7.03556 -43.02343,8.61914 -0.92935,0.51246 10.17026,1.67286 24.66601,2.58008 62.38362,3.90442 105.28845,13.34935 144.35742,31.77929 25.4883,12.02369 42.32842,24.02855 60.67383,43.25391 12.55559,13.15788 20.49897,24.03756 29.58789,40.51953 13.86079,25.13541 22.11381,48.4661 36.47266,103.11328 10.63979,40.49399 18.87784,66.06626 26.57422,82.49024 22.39286,47.78456 58.14396,74.49788 114.02343,85.19726 6.27318,1.20135 16.76557,1.63763 32,1.32813 20.18982,-0.40987 24.34205,-0.90641 37.99997,-4.54102 69.0159,-18.36636 133.6194,-74.55824 194.3047,-169.00976 16.9357,-26.35902 49.6624,-86.38857 48.002,-88.04883 -0.3125,-0.31244 -2.8532,2.89144 -5.6446,7.11914 -6.8014,10.29976 -36.1328,48.91454 -47.8691,63.01953 -53.2246,63.96775 -106.1906,110.12867 -153.6426,133.90039 -30.1182,15.08838 -52.01019,21.07104 -77.81638,21.26758 -35.73417,0.27196 -63.91885,-11.9693 -89.47266,-38.85938 -29.67895,-31.23086 -49.31843,-72.94838 -66.36914,-140.97656 -26.7158,-106.58809 -89.30212,-168.46401 -184.82422,-182.73047 -9.9685,-1.4893 -24.68241,-2.23639 -39.54687,-2.24023 z m 245.24219,114.77344 c -0.1453,0.0516 0.43643,0.77918 1.63671,2.13867 4.85964,5.50421 23.38304,19.04154 32.01758,23.40039 7.58173,3.82727 18.74841,7.43508 25.98242,8.39453 2.20011,0.29178 4.37541,0.62044 4.83399,0.73047 0.45816,0.1099 2.66833,-0.16652 4.91211,-0.61524 l 4.08008,-0.8164 -10.70899,-9.0586 -10.70703,-9.06054 -12.87109,0.20117 c -11.5116,0.17957 -13.7078,-0.18936 -20.7793,-3.49414 -4.34856,-2.03234 -10.64687,-5.8917 -13.99805,-8.57617 -2.82118,-2.25976 -4.21163,-3.31051 -4.39843,-3.24414 z m 703.52738,31.08007 c -47.148,-0.41771 -92.9977,13.76484 -127.2129,39.57618 -38.9985,29.41975 -63.1444,38.6835 -97.0508,37.23632 -13.0406,-0.55655 -17.6126,-1.36512 -27.627,-4.88671 -6.5999,-2.32093 -12.9087,-4.53637 -14.0195,-4.92188 -1.4245,-0.49474 -3.0819,1.4682 -5.6289,6.66211 -9.5269,19.4248 -33.1845,52.8389 -59.543,84.09766 -7.4108,8.7887 -13.4746,16.40672 -13.4746,16.92968 0,0.52296 3.1499,1.17222 7,1.44141 66.1313,4.62639 134.0021,-9.90162 197.666,-42.30859 28.5952,-14.55585 50.9615,-29.01574 80.668,-52.1543 42.9666,-33.46688 79.2403,-48.43496 104.7578,-43.23047 29.9384,6.10616 48.5742,34.21947 48.5742,73.27539 0,12.37539 -1.1628,20.24524 -4.6406,31.40039 -1.7284,5.54402 10.462,-18.99889 12.9141,-26 3.4828,-9.94373 6.3945,-25.396 6.3945,-33.93555 0,-19.91126 -8.1616,-38.32979 -23.1602,-52.26562 -11.1019,-10.31517 -19.9038,-15.95883 -35.205,-22.57422 -13.3493,-5.77142 -19.5127,-6.98344 -40.9688,-8.0625 -3.1517,-0.15851 -6.3001,-0.25145 -9.4433,-0.2793 z m -971.75004,6.42579 c -0.58982,-0.17823 4.55283,6.44051 13.63086,17.35742 61.20819,73.60487 124.00027,118.43421 180.125,128.59765 12.36829,2.23967 25.40635,2.51189 34.82031,0.72657 3.89417,-0.73852 7.29989,-1.55993 7.56445,-1.82618 0.26625,-0.26612 -0.99194,-4.91214 -2.79687,-10.32422 -1.80452,-5.41203 -4.04678,-13.59052 -4.98242,-18.17382 -0.93523,-4.58335 -2.1327,-8.33203 -2.66016,-8.33203 -0.52745,0 -4.75745,1.02132 -9.40039,2.26953 -12.23223,3.28882 -43.45869,3.23097 -57.77344,-0.10547 -31.42761,-7.32515 -61.36483,-22.59932 -93.77343,-47.84766 -14.03045,-10.93069 -44.2526,-39.86091 -60.22657,-57.65039 -2.80525,-3.12415 -4.25924,-4.61039 -4.52734,-4.6914 z m 370.10937,38.02148 c -1.12072,0.0113 -3.03582,1.55776 -7.13671,5.39844 -3.91182,3.66374 -10.1804,8.8883 -13.92969,11.61132 -9.77638,7.10044 -37.11531,21.08748 -56.51563,28.91211 l -16.66797,6.72071 0.44922,5.56836 c 0.47034,5.84197 4.68536,16.46035 10.4336,26.27734 3.17228,5.4172 3.71834,5.76581 7.91992,5.08398 8.85711,-1.43727 52.62638,-20.25223 98.40234,-42.30078 l 14.53907,-7.00195 -3.8711,-2.69922 c -8.17764,-5.69848 -27.04475,-27.03406 -32.45703,-36.70508 -0.31207,-0.55762 -0.65659,-0.87038 -1.16602,-0.86523 z m 122.24807,38.00391 c -1.5358,0 -38.7147,13.10529 -39.5508,13.9414 -0.2625,0.26239 1.3715,3.02796 3.6309,6.14649 10.4273,14.39462 14.4247,43.86154 10.2382,75.4707 -1.1821,8.92472 -2.1484,16.57472 -2.1484,17 0,1.25094 1.8226,0.92039 9.5215,-1.72852 9.2812,-3.19311 16.8739,-7.05269 28.0957,-14.28125 7.4709,-4.81247 9.5913,-7.0429 12.8144,-13.49023 4.9122,-9.82669 9.9316,-25.15547 14.2071,-43.38086 5.1972,-22.15173 6.4771,-19.71641 -15.9864,-30.44141 -10.641,-5.0804 -20.0113,-9.23632 -20.8222,-9.23632 z m 319.7461,73.76171 c -0.6316,-0.19741 -4.2749,1.61182 -13.002,6.10938 -29.6204,15.26526 -63.2493,26.6684 -94.5742,32.06641 -20.8235,3.58841 -51.3197,4.8973 -67.334,2.89062 l -12,-1.50391 -8.3633,4.10352 c -14.1031,6.91834 -28.7181,22.34774 -37.4707,39.56055 -1.5815,3.11038 -5.0025,12.24234 -7.6015,20.29492 -3.3907,10.50406 -6.3644,16.86863 -10.5274,22.52344 -10.4289,14.16663 -29.6169,27.39911 -54.7226,37.73632 -13.3922,5.51421 -44.1537,14.44297 -49.875,14.47657 -2.7666,0.0164 -3.0483,0.28937 -1.4395,1.39258 2.5394,1.74152 26.5714,0.38126 39.334,-2.22657 13.0801,-2.67263 29.0293,-8.07748 40,-13.55469 23.1307,-11.54801 37.3908,-24.72614 48.666,-44.96874 11.1085,-19.94382 27.8409,-35.49948 39.7481,-36.95313 2.8539,-0.34839 3.5061,0.95663 8.789,17.62305 27.1081,85.51643 68.0088,134.72384 119.625,143.91797 11.1587,1.98761 34.9773,0.78472 47.2051,-2.38282 13.9267,-3.60756 28.0332,-9.4795 40.9277,-17.03906 12.3964,-7.26748 14.4687,-9.57021 4.7442,-5.26953 -9.1621,4.0519 -27.4094,9.79976 -38.3711,12.08789 -56.7826,11.85268 -98.9879,-12.31896 -121.3438,-69.49805 -8.8533,-22.64474 -15.178,-53.91786 -16.2539,-80.36914 l -0.4043,-9.88672 18,-3.58984 c 23.334,-4.65209 39.2825,-10.05484 60.668,-20.55273 24.3004,-11.92878 49.7764,-29.7143 63.9063,-44.61329 1.3425,-1.4156 2.0488,-2.25655 1.6699,-2.375 z m -209.7559,27.57032 c -0.4489,0 -10.4918,6.40867 -22.3183,14.24023 -29.5371,19.55973 -45.2007,35.11277 -55.4844,55.09375 -10.9728,21.31939 -20.902,30.30606 -49.9922,45.25195 -7.2235,3.71121 -12.2838,6.74249 -11.2461,6.73829 5.613,-0.0278 25.7309,-6.05894 35.5371,-10.6543 23.1169,-10.83301 35.7475,-22.68925 52.8633,-49.62305 12.4628,-19.61213 26.7621,-37.45259 40.6699,-50.74023 5.933,-5.66808 10.4196,-10.30664 9.9707,-10.30664 z m -112.8691,65.6875 c -0.8481,-0.0408 -3.0222,0.94969 -6.4258,2.70508 -6.3152,3.25707 -9.9753,4.23333 -16.4102,4.37695 -7.0971,0.15853 -9.1283,0.808 -14.1992,4.53906 -8.89867,6.5477 -28.57473,15.66075 -40.58397,18.79688 -14.56462,3.80359 -36.35758,4.08444 -50,0.64453 -18.64483,-4.70127 -32.7116,-11.56333 -50,-24.39063 l -8,-5.93555 6,5.48438 c 7.5179,6.87353 31.24081,23.00327 41.17383,27.99414 10.80567,5.4295 26.06964,10.76546 36.82617,12.87305 11.30037,2.21417 28.96512,1.59078 40.63672,-1.4336 17.67055,-4.57894 35.59485,-16.00961 50.66215,-32.30664 8.7238,-9.43575 11.9392,-13.26978 10.3203,-13.34765 z"
         style="fill:#000000;stroke-width:1.33333325"
         inkscape:connector-curvature="0" />
    </g>
  </g>
</svg>
