<?xml version="1.0" encoding="UTF-8" standalone="no"?>
<!-- Created with Inkscape (http://www.inkscape.org/) -->

<svg
   xmlns:dc="http://purl.org/dc/elements/1.1/"
   xmlns:cc="http://creativecommons.org/ns#"
   xmlns:rdf="http://www.w3.org/1999/02/22-rdf-syntax-ns#"
   xmlns:svg="http://www.w3.org/2000/svg"
   xmlns="http://www.w3.org/2000/svg"
   xmlns:sodipodi="http://sodipodi.sourceforge.net/DTD/sodipodi-0.dtd"
   xmlns:inkscape="http://www.inkscape.org/namespaces/inkscape"
   width="335.41214mm"
   height="266.41284mm"
   viewBox="0 0 301.87093 239.77155"
   version="1.1"
   id="svg5768"
   inkscape:version="0.92.5 (2060ec1f9f, 2020-04-08)"
   sodipodi:docname="grull.svg">
  <defs
     id="defs5762">
    <inkscape:path-effect
       effect="simplify"
       id="path-effect4565"
       is_visible="true"
       steps="1"
       threshold="0.000408163"
       smooth_angles="360"
       helper_size="0"
       simplify_individual_paths="false"
       simplify_just_coalesce="false"
       simplifyindividualpaths="false"
       simplifyJustCoalesce="false" />
    <inkscape:path-effect
       effect="simplify"
       id="path-effect4543"
       is_visible="true"
       steps="1"
       threshold="0.000408163"
       smooth_angles="360"
       helper_size="0"
       simplify_individual_paths="false"
       simplify_just_coalesce="false"
       simplifyindividualpaths="false"
       simplifyJustCoalesce="false" />
    <inkscape:path-effect
       effect="simplify"
       id="path-effect8619"
       is_visible="true"
       steps="1"
       threshold="0.000408163"
       smooth_angles="360"
       helper_size="0"
       simplify_individual_paths="false"
       simplify_just_coalesce="false"
       simplifyindividualpaths="false"
       simplifyJustCoalesce="false" />
    <inkscape:path-effect
       effect="simplify"
       id="path-effect8615"
       is_visible="true"
       steps="1"
       threshold="0.000408163"
       smooth_angles="360"
       helper_size="0"
       simplify_individual_paths="false"
       simplify_just_coalesce="false"
       simplifyindividualpaths="false"
       simplifyJustCoalesce="false" />
    <inkscape:path-effect
       effect="simplify"
       id="path-effect8611"
       is_visible="true"
       steps="1"
       threshold="0.000408163"
       smooth_angles="360"
       helper_size="0"
       simplify_individual_paths="false"
       simplify_just_coalesce="false"
       simplifyindividualpaths="false"
       simplifyJustCoalesce="false" />
    <inkscape:path-effect
       effect="simplify"
       id="path-effect8607"
       is_visible="true"
       steps="1"
       threshold="0.000408163"
       smooth_angles="360"
       helper_size="0"
       simplify_individual_paths="false"
       simplify_just_coalesce="false"
       simplifyindividualpaths="false"
       simplifyJustCoalesce="false" />
    <inkscape:path-effect
       effect="simplify"
       id="path-effect8600"
       is_visible="true"
       steps="1"
       threshold="0.000408163"
       smooth_angles="360"
       helper_size="0"
       simplify_individual_paths="false"
       simplify_just_coalesce="false"
       simplifyindividualpaths="false"
       simplifyJustCoalesce="false" />
    <inkscape:path-effect
       effect="simplify"
       id="path-effect8584"
       is_visible="true"
       steps="1"
       threshold="0.000408163"
       smooth_angles="360"
       helper_size="0"
       simplify_individual_paths="false"
       simplify_just_coalesce="false"
       simplifyindividualpaths="false"
       simplifyJustCoalesce="false" />
    <inkscape:path-effect
       effect="simplify"
       id="path-effect8571"
       is_visible="true"
       steps="1"
       threshold="0.000408163"
       smooth_angles="360"
       helper_size="0"
       simplify_individual_paths="false"
       simplify_just_coalesce="false"
       simplifyindividualpaths="false"
       simplifyJustCoalesce="false" />
    <inkscape:path-effect
       effect="simplify"
       id="path-effect8556"
       is_visible="true"
       steps="1"
       threshold="0.000408163"
       smooth_angles="360"
       helper_size="0"
       simplify_individual_paths="false"
       simplify_just_coalesce="false"
       simplifyindividualpaths="false"
       simplifyJustCoalesce="false" />
    <inkscape:path-effect
       effect="simplify"
       id="path-effect8532"
       is_visible="true"
       steps="1"
       threshold="0.000408163"
       smooth_angles="360"
       helper_size="0"
       simplify_individual_paths="false"
       simplify_just_coalesce="false"
       simplifyindividualpaths="false"
       simplifyJustCoalesce="false" />
    <inkscape:path-effect
       effect="simplify"
       id="path-effect8528"
       is_visible="true"
       steps="1"
       threshold="0.000408163"
       smooth_angles="360"
       helper_size="0"
       simplify_individual_paths="false"
       simplify_just_coalesce="false"
       simplifyindividualpaths="false"
       simplifyJustCoalesce="false" />
    <inkscape:path-effect
       effect="simplify"
       id="path-effect8524"
       is_visible="true"
       steps="1"
       threshold="0.000408163"
       smooth_angles="360"
       helper_size="0"
       simplify_individual_paths="false"
       simplify_just_coalesce="false"
       simplifyindividualpaths="false"
       simplifyJustCoalesce="false" />
    <inkscape:path-effect
       effect="simplify"
       id="path-effect8449"
       is_visible="true"
       steps="1"
       threshold="0.000408163"
       smooth_angles="360"
       helper_size="0"
       simplify_individual_paths="false"
       simplify_just_coalesce="false"
       simplifyindividualpaths="false"
       simplifyJustCoalesce="false" />
    <inkscape:path-effect
       effect="simplify"
       id="path-effect8443"
       is_visible="true"
       steps="1"
       threshold="0.000408163"
       smooth_angles="360"
       helper_size="0"
       simplify_individual_paths="false"
       simplify_just_coalesce="false"
       simplifyindividualpaths="false"
       simplifyJustCoalesce="false" />
    <inkscape:path-effect
       effect="simplify"
       id="path-effect8434"
       is_visible="true"
       steps="1"
       threshold="0.000408163"
       smooth_angles="360"
       helper_size="0"
       simplify_individual_paths="false"
       simplify_just_coalesce="false"
       simplifyindividualpaths="false"
       simplifyJustCoalesce="false" />
    <inkscape:path-effect
       effect="simplify"
       id="path-effect8422"
       is_visible="true"
       steps="1"
       threshold="0.000408163"
       smooth_angles="360"
       helper_size="0"
       simplify_individual_paths="false"
       simplify_just_coalesce="false"
       simplifyindividualpaths="false"
       simplifyJustCoalesce="false" />
    <inkscape:path-effect
       effect="simplify"
       id="path-effect8418"
       is_visible="true"
       steps="1"
       threshold="0.000408163"
       smooth_angles="360"
       helper_size="0"
       simplify_individual_paths="false"
       simplify_just_coalesce="false"
       simplifyindividualpaths="false"
       simplifyJustCoalesce="false" />
    <inkscape:path-effect
       effect="simplify"
       id="path-effect8413"
       is_visible="true"
       steps="1"
       threshold="0.000408163"
       smooth_angles="360"
       helper_size="0"
       simplify_individual_paths="false"
       simplify_just_coalesce="false"
       simplifyindividualpaths="false"
       simplifyJustCoalesce="false" />
    <inkscape:path-effect
       effect="simplify"
       id="path-effect8391"
       is_visible="true"
       steps="1"
       threshold="0.000408163"
       smooth_angles="360"
       helper_size="0"
       simplify_individual_paths="false"
       simplify_just_coalesce="false"
       simplifyindividualpaths="false"
       simplifyJustCoalesce="false" />
    <inkscape:path-effect
       effect="simplify"
       id="path-effect8114"
       is_visible="true"
       steps="1"
       threshold="0.000408163"
       smooth_angles="360"
       helper_size="0"
       simplify_individual_paths="false"
       simplify_just_coalesce="false"
       simplifyindividualpaths="false"
       simplifyJustCoalesce="false" />
    <inkscape:path-effect
       effect="simplify"
       id="path-effect7808"
       is_visible="true"
       steps="1"
       threshold="0.000408163"
       smooth_angles="360"
       helper_size="0"
       simplify_individual_paths="false"
       simplify_just_coalesce="false"
       simplifyindividualpaths="false"
       simplifyJustCoalesce="false" />
    <inkscape:path-effect
       effect="simplify"
       id="path-effect6980"
       is_visible="true"
       steps="1"
       threshold="0.000408163"
       smooth_angles="360"
       helper_size="0"
       simplify_individual_paths="false"
       simplify_just_coalesce="false"
       simplifyindividualpaths="false"
       simplifyJustCoalesce="false" />
    <inkscape:path-effect
       effect="simplify"
       id="path-effect6741"
       is_visible="true"
       steps="1"
       threshold="0.000408163"
       smooth_angles="360"
       helper_size="0"
       simplify_individual_paths="false"
       simplify_just_coalesce="false"
       simplifyindividualpaths="false"
       simplifyJustCoalesce="false" />
  </defs>
  <sodipodi:namedview
     id="base"
     pagecolor="#ffffff"
     bordercolor="#666666"
     borderopacity="1.0"
     inkscape:pageopacity="0.0"
     inkscape:pageshadow="2"
     inkscape:zoom="0.088388348"
     inkscape:cx="-3678.2601"
     inkscape:cy="1719.7442"
     inkscape:document-units="mm"
     inkscape:current-layer="layer1"
     showgrid="false"
     inkscape:window-width="1920"
     inkscape:window-height="1020"
     inkscape:window-x="0"
     inkscape:window-y="0"
     inkscape:window-maximized="1"
     units="mm"
     scale-x="0.9"
     showborder="true"
     inkscape:snap-global="false" />
  <metadata
     id="metadata5765">
    <rdf:RDF>
      <cc:Work
         rdf:about="">
        <dc:format>image/svg+xml</dc:format>
        <dc:type
           rdf:resource="http://purl.org/dc/dcmitype/StillImage" />
        <dc:title></dc:title>
      </cc:Work>
    </rdf:RDF>
  </metadata>
  <g
     inkscape:label="Layer 1"
     inkscape:groupmode="layer"
     id="layer1"
     transform="translate(-1453.342,-1185.9353)">
    <path
       style="fill:#000000;stroke-width:15.02942848"
       d="m 6403.7539,4980.3066 c -0.216,0 -0.437,0.01 -0.6621,0.037 -6.302,0.8431 -16.0864,15.2701 -23.3106,35.1523 -8.2565,22.7221 -25.6093,54.8386 -38.5605,71.3711 -17.9435,22.9043 -23.8122,24.6936 -24.6562,7.5156 -0.6094,-12.3994 -13.3426,0.4214 -28.2969,28.4902 -15.2849,28.6896 -31.5067,44.0463 -37.0508,35.0762 -5.424,-8.7765 -3.2186,-33.4316 4.9023,-54.791 9.2284,-24.2721 9.3996,-38.834 0.4551,-38.834 -7.8711,0 -23.9623,15.2154 -35.7578,33.8145 -11.7955,18.5986 -25.8198,61.0604 -31.1641,94.3593 -8.393,52.2928 -4.493,65.4513 28.6153,96.5547 21.0826,19.806 38.332,51.7405 38.332,70.9649 0,19.2248 2.3466,34.9531 5.2149,34.9531 2.8682,0 21.4014,-14.039 41.1855,-31.1973 33.0213,-28.6395 33.8262,-32.3965 9.8145,-45.8339 -14.3862,-8.0509 -26.1563,-24.9038 -26.1563,-37.4493 0,-15.9706 9.0129,-19.9492 30.0586,-13.2695 22.5453,7.1555 30.0586,2.701 30.0586,-17.8223 0,-15.05 20.209,-46.4378 44.9082,-69.75 l 44.9082,-42.3847 18.4258,40.4433 c 16.4602,36.126 14.6497,43.5021 -16.9766,69.1114 -19.4725,15.7677 -32.3088,31.7658 -28.5234,35.5507 3.785,3.785 28.3229,0.7326 54.5293,-6.7832 31.9076,-9.151 50.9544,-8.313 57.6601,2.5371 5.5076,8.9109 -2.1678,25.1094 -17.0566,35.9961 -22.3353,16.3322 -23.7301,23.8203 -7.9707,42.8086 10.5046,12.6577 28.4174,23.0137 39.8047,23.0137 11.3873,0 20.7031,-10.8604 20.7031,-24.1328 0,-13.2724 17.4071,-44.8182 38.6816,-70.1016 25.506,-30.3122 35.8137,-56.6461 30.2637,-77.3164 -4.6291,-17.2413 -8.5096,-42.4324 -8.623,-55.9824 -0.113,-13.5496 -14.2283,-40.6042 -31.3672,-60.1191 l -31.1621,-35.4805 8.2422,48.8457 c 4.5333,26.8653 1.8877,48.8457 -5.8809,48.8457 -7.769,0 -21.8534,-14.4407 -31.2988,-32.0898 -11.591,-21.6576 -20.6928,-26.3966 -27.9961,-14.5801 -6.6768,10.8031 -24.3951,-8.8868 -46.2676,-51.4141 -19.4961,-37.9065 -40.293,-71.917 -46.2168,-75.5781 -0.5554,-0.3432 -1.1607,-0.5165 -1.8086,-0.5313 z m 259.0566,219.2813 c -7.4557,0 -9.9769,22.0604 -5.6015,49.0215 6.0539,37.3073 0.4424,55.8194 -23.4883,77.4765 -17.2943,15.6511 -31.4453,37.7901 -31.4453,49.1993 0,16.086 6.7486,17.1316 30.0586,4.6562 16.5325,-8.8596 30.0605,-12.8167 30.0605,-8.8184 0,3.9979 -16.5112,25.0847 -36.6914,46.8594 -20.1797,21.7747 -39.5483,54.2483 -43.041,72.1641 -5.427,27.837 -6.6493,26.8623 -8.3984,-6.707 -1.1259,-21.6047 -19.4486,-56.683 -40.7168,-77.9512 -21.2683,-21.2683 -58.3142,-42.9841 -82.3242,-48.2578 -24.0101,-5.2733 -59.024,-4.9433 -77.8086,0.7343 -18.7847,5.6777 -52.7522,27.7382 -75.4844,49.0215 -32.8181,30.7267 -41.3301,52.1554 -41.3301,104.0449 0,35.9425 11.4945,83.7112 25.543,106.1524 l 25.541,40.8027 -39.8535,-41.332 c -21.92,-22.7318 -46.9406,-41.3301 -55.6016,-41.3301 -8.661,0 -15.748,7.4102 -15.748,16.4668 0,9.057 14.4857,37.8005 32.1894,63.875 17.7037,26.0746 51.4463,64.3168 74.9844,84.9824 l 42.7969,37.5723 -97.2969,67.6328 c -53.5135,37.1977 -97.4033,75.6864 -97.5293,85.5313 -0.1272,9.8448 6.4749,22.045 14.6719,27.1113 8.1969,5.0658 32.1453,-8.0301 53.2187,-29.1035 21.0734,-21.073 57.9915,-48.491 82.041,-60.9278 24.0496,-12.4363 47.1379,-22.6113 51.3067,-22.6113 4.1692,0 11.7953,25.3633 16.9472,56.3613 5.1515,30.998 13.0843,66.5054 17.629,78.9043 5.2283,14.2644 13.3148,3.2244 22.0195,-30.0586 7.5662,-28.9318 16.8116,-61.5174 20.5449,-72.4121 4.6005,-13.4248 24.978,-2.5685 63.2285,33.6856 31.0421,29.4219 64.8938,53.5494 75.2266,53.625 10.3328,0.072 18.7871,-8.8043 18.7871,-19.7246 0,-10.9203 -30.3202,-51.501 -67.3789,-90.1778 -37.0587,-38.6767 -60.332,-70.3203 -51.7168,-70.3203 8.6148,0 11.4837,-6.763 6.375,-15.0293 -5.1091,-8.2662 -2.3229,-15.0293 6.1894,-15.0293 8.5124,0 46.1093,-21.5925 83.5489,-47.9824 37.4396,-26.3899 68.0703,-56.8246 68.0703,-67.6328 0,-10.8078 -7.1215,-19.6504 -15.8262,-19.6504 -8.7047,0 -40.7089,16.9086 -71.1211,37.5742 -30.4117,20.6652 -63.3061,37.5723 -73.0976,37.5723 -9.7915,0 -20.5076,8.1128 -23.8125,18.0273 -3.848,11.5452 -9.3938,9.2058 -15.4239,-6.5078 -7.0114,-18.2719 1.8307,-27.0059 34.6328,-34.2109 24.2264,-5.3207 57.6562,-26.9755 74.2891,-48.1211 16.6333,-21.1456 30.2422,-51.784 30.2422,-68.0859 0,-20.1714 7.2021,-26.8779 22.5449,-20.9903 12.3994,4.758 22.543,2.5573 22.543,-4.8926 0,-7.4498 13.2918,-17.7638 29.5371,-22.9199 18.7452,-5.9494 33.0957,-28.3448 39.2773,-61.2969 5.3573,-28.5568 16.2148,-55.9226 24.127,-60.8125 8.2024,-5.0696 9.9511,-35.684 4.0664,-71.2246 -5.6764,-34.2828 -16.5375,-74.1668 -24.1348,-88.6328 -7.5968,-14.4659 -19.9114,-26.3027 -27.3672,-26.3027 z m -508.8945,17.3086 c -0.2903,0.01 -0.5897,0.03 -0.8965,0.061 -1.4024,0.1413 -2.9776,0.5037 -4.7285,1.0762 -10.6935,3.4965 -26.9006,28.9223 -36.0156,56.502 -11.2328,33.9884 -11.9402,69.9418 -2.1953,111.5918 8.7991,37.6088 32.5012,77.4809 61.0937,102.7773 25.6941,22.7322 52.045,41.332 58.5567,41.332 6.5121,0 11.8398,-20.2911 11.8398,-45.0898 0,-25.7991 -8.0377,-45.2918 -18.7871,-45.5606 -10.3328,-0.2599 -31.4531,-17.8501 -46.9336,-39.0898 -27.9089,-38.2908 -27.8849,-38.4779 2.7695,-22.0723 17.0041,9.1003 34.7415,16.5469 39.418,16.5469 4.6765,0 8.5039,-6.3229 8.5039,-14.0508 0,-7.7283 -7.1518,-32.8615 -15.8926,-55.8515 -11.5737,-30.442 -19.2325,-36.3978 -28.1816,-21.918 -9.0818,14.6944 -15.1075,15.3197 -23.0957,2.3945 -5.9444,-9.6185 -6.4947,-34.6747 -1.2227,-55.6797 5.8537,-23.3224 4.7663,-33.2687 -4.2324,-32.9687 z m 296.2617,211.6074 c 6.8879,0.089 14.2043,2.9152 19.3282,8.0391 8.1982,8.1982 18.4568,41.3667 22.7949,73.709 v 0 c 5.5987,41.7407 1.2802,64.2847 -14.8789,77.6953 -17.3292,14.382 -25.3814,14.6573 -33.7266,1.1543 -6.177,-9.9939 -0.1992,-23.7615 13.6914,-31.5351 13.5597,-7.5885 24.6543,-23.6055 24.6543,-35.5938 0,-11.9887 -13.2807,-35.0776 -29.5117,-51.3086 -18.5671,-18.5671 -23.6539,-33.1295 -13.7188,-39.2695 3.2569,-2.0128 7.2345,-2.9458 11.3672,-2.8926 z m -66.7871,3.4941 c 0.6896,-0.017 1.3687,-0.017 2.0352,0 5.3317,0.1487 9.8437,1.4453 12.25,3.8516 4.813,4.813 -1.6665,16.3675 -14.3985,25.6777 -12.7323,9.3098 -25.3116,30.2681 -27.9531,46.5742 -2.641,16.3057 5.5492,41.4818 18.1992,55.9473 20.7635,23.7438 20.5348,26.3027 -2.3457,26.3027 -13.9397,0 -29.259,-10.1967 -34.041,-22.6582 -4.7815,-12.4615 -4.3853,-45.6239 0.8809,-73.6953 5.2661,-28.071 18.8759,-54.6067 30.2422,-58.9688 4.9727,-1.9078 10.3039,-2.9117 15.1308,-3.0332 z"
       id="path8295"
       transform="scale(0.238125)"
       inkscape:connector-curvature="0" />
    <text
       xml:space="preserve"
       style="font-style:normal;font-weight:normal;font-size:2.53999996px;line-height:1.25;font-family:sans-serif;letter-spacing:0px;word-spacing:0px;fill:#000000;fill-opacity:1;stroke:none;stroke-width:0.238125"
       x="1650.8918"
       y="1329.536"
       id="text8464"><tspan
         sodipodi:role="line"
         id="tspan8462"
         x="1650.8918"
         y="1329.536"
         style="font-size:45.72000122px;stroke-width:0.238125">Grull</tspan></text>
  </g>
</svg>
