<?xml version="1.0" encoding="UTF-8" standalone="no"?>
<!-- Created with Inkscape (http://www.inkscape.org/) -->

<svg
   xmlns:dc="http://purl.org/dc/elements/1.1/"
   xmlns:cc="http://creativecommons.org/ns#"
   xmlns:rdf="http://www.w3.org/1999/02/22-rdf-syntax-ns#"
   xmlns:svg="http://www.w3.org/2000/svg"
   xmlns="http://www.w3.org/2000/svg"
   xmlns:xlink="http://www.w3.org/1999/xlink"
   xmlns:sodipodi="http://sodipodi.sourceforge.net/DTD/sodipodi-0.dtd"
   xmlns:inkscape="http://www.inkscape.org/namespaces/inkscape"
   width="158.68277mm"
   height="67.950363mm"
   viewBox="0 0 158.68277 67.950363"
   version="1.1"
   id="svg8"
   inkscape:version="0.92.5 (2060ec1f9f, 2020-04-08)"
   sodipodi:docname="shootingStar.svg">
  <defs
     id="defs2">
    <linearGradient
       inkscape:collect="always"
       id="linearGradient842">
      <stop
         style="stop-color:#ffdd55;stop-opacity:1"
         offset="0"
         id="stop838" />
      <stop
         style="stop-color:#aa8800;stop-opacity:1"
         offset="1"
         id="stop840" />
    </linearGradient>
    <radialGradient
       inkscape:collect="always"
       xlink:href="#linearGradient842"
       id="radialGradient844"
       cx="311.27496"
       cy="611.71674"
       fx="311.27496"
       fy="611.71674"
       r="290.83875"
       gradientTransform="matrix(-0.01400263,-0.45178483,0.51874551,-0.0160884,8.3483811,727.97416)"
       gradientUnits="userSpaceOnUse" />
  </defs>
  <sodipodi:namedview
     id="base"
     pagecolor="#ffffff"
     bordercolor="#666666"
     borderopacity="1.0"
     inkscape:pageopacity="0.0"
     inkscape:pageshadow="2"
     inkscape:zoom="1.4"
     inkscape:cx="188.21328"
     inkscape:cy="83.937719"
     inkscape:document-units="mm"
     inkscape:current-layer="layer1"
     showgrid="false"
     inkscape:snap-global="false"
     inkscape:window-width="1920"
     inkscape:window-height="1020"
     inkscape:window-x="0"
     inkscape:window-y="1080"
     inkscape:window-maximized="1" />
  <metadata
     id="metadata5">
    <rdf:RDF>
      <cc:Work
         rdf:about="">
        <dc:format>image/svg+xml</dc:format>
        <dc:type
           rdf:resource="http://purl.org/dc/dcmitype/StillImage" />
        <dc:title />
      </cc:Work>
    </rdf:RDF>
  </metadata>
  <g
     inkscape:label="Layer 1"
     inkscape:groupmode="layer"
     id="layer1"
     transform="translate(-34.365788,-128.69262)">
    <path
       style="fill:#000000;stroke-width:1.00000012"
       d="m 314.76172,486.4043 c -2.32699,0.0717 -4.59693,0.66634 -6.52149,1.83984 -3.57508,2.17996 -5.36429,5.09313 -21.38476,34.8125 -6.29936,11.68588 -11.6874,21.24841 -11.97461,21.25 -0.28721,0.002 -4.56221,-8.11923 -9.5,-18.04687 -4.93779,-9.92765 -10.19485,-19.21698 -11.68164,-20.64258 -5.30223,-5.08407 -14.87994,-4.15707 -20.62891,1.99804 -3.52392,3.77288 -3.64609,8.7321 -0.70898,28.59571 1.47734,9.99114 2.54043,18.51372 2.36328,18.93945 -0.17716,0.42573 -11.57227,-4.045 -25.32227,-9.93555 -13.75,-5.8905 -26.46316,-10.99975 -28.25195,-11.35351 -4.54107,-0.89843 -11.61371,2.3866 -14.27734,6.63086 -2.6795,4.26954 -2.30903,12.29964 0.74609,16.18359 1.14097,1.45051 12.23902,11.50752 24.66211,22.34766 l 22.58789,19.70898 -34.23437,16.875 c -18.82816,9.28127 -35.22284,17.26742 -36.4336,17.7461 -4.70625,1.86054 -10.45851,6.17264 -12.33008,9.24218 -5.14908,8.44487 0.24172,19.7513 10.17579,21.3418 2.2547,0.36098 16.41812,-2.47769 43.16601,-8.65234 21.89535,-5.05444 40.02879,-8.9711 40.29688,-8.70313 0.26806,0.26805 -4.76082,18.37147 -11.17579,40.22852 -12.44299,42.39564 -12.9332,45.21442 -8.81836,50.84179 1.03742,1.41876 3.23672,3.26172 4.88672,4.09571 4.14764,2.09639 10.38076,1.9307 14.16211,-0.375 3.64612,-2.22323 4.60286,-3.79156 26.48633,-43.46485 8.97939,-16.27906 16.55779,-29.59545 16.83984,-29.58789 0.28206,0.006 6.23707,10.49223 13.23438,23.30078 6.99731,12.8086 13.74731,24.22187 15,25.36329 7.80117,7.10818 17.8556,5.29402 22.68945,-4.09376 l 2.41016,-4.68359 -5.66406,-27.11133 c -3.11596,-14.91148 -5.53921,-27.24001 -5.38282,-27.39648 0.15641,-0.15644 10.61518,5.54205 23.24024,12.66211 12.62506,7.12006 24.39429,13.21459 26.1543,13.54492 11.31817,2.1233 20.31467,-10.99626 14.58007,-21.26172 -0.96249,-1.72297 -10.64225,-12.47103 -21.51172,-23.88672 -10.86945,-11.41564 -19.63551,-20.88416 -19.47851,-21.04101 0.15699,-0.157 15.78672,-3.95394 34.73242,-8.43555 18.94571,-4.48161 35.71787,-8.80401 37.27149,-9.60742 6.37515,-3.29673 9.07706,-11.96405 5.82421,-18.6836 -2.02892,-4.19115 -4.19923,-5.8462 -11.03515,-8.41601 -2.05365,-0.77201 -0.7651,-1.27524 8,-3.11719 18.56651,-3.90164 33.22164,-5.28931 55.94726,-5.29687 28.92851,-0.0113 46.96302,2.14453 72.64454,8.6875 41.42671,10.5544 78.45877,31.37262 110.13476,61.91211 21.04328,20.2882 36.63344,41.36951 50.5,68.28515 7.02493,13.63571 8.3102,15.52528 11.76367,17.28711 4.56752,2.33019 7.80297,2.48595 12.32227,0.59766 7.14969,-2.98734 9.68562,-9.72945 7.72461,-20.53516 -1.86233,-10.26183 -9.59305,-32.4713 -15.51953,-44.58594 -24.01856,-49.09757 -69.38805,-88.15138 -131.57032,-113.2539 -39.30115,-15.86559 -80.49717,-23.53748 -126,-23.4668 -40.64643,0.0632 -78.34982,6.33132 -118.5,19.70117 -8.79999,2.93038 -16.07242,5.25849 -16.16211,5.17383 -0.0897,-0.0847 1.84195,-8.25432 4.29297,-18.1543 4.81167,-19.43497 5.15816,-25.22505 1.78125,-29.76562 -2.58878,-3.48083 -7.1006,-5.4914 -11.55273,-5.63672 -0.33391,-0.0109 -0.66757,-0.0122 -1,-0.002 z"
       transform="scale(0.26458333)"
       id="path836" />
    <path
       style="fill:#000000;stroke-width:1.00000012"
       d="m 312.95508,493.83789 c 4.07911,-0.0917 8.58935,1.66402 10.79297,4.62695 2.61316,3.51364 -1.84858,24.62372 -7.80664,38.92578 -3.86097,9.26812 -5.53428,13.62584 -5.46485,13.69141 0.0694,0.0658 5.69807,-2.98626 12.50782,-5.25391 31.06958,-10.34606 86.43506,-24.78902 117.88867,-24.83789 35.21163,-0.0548 84.30008,4.44205 115.49804,14.5586 59.90446,19.42518 101.62009,51.60872 120.74219,72.8164 14.53323,18.2459 39.13827,55.84678 48.25781,87.00196 2.38742,8.15622 -0.44386,13.5809 -5.97656,15.89258 -3.4972,1.46124 -6.00066,1.33833 -9.53515,-0.46485 -2.6724,-1.36335 -4.90651,-2.27395 -9.10352,-13.37695 -7.87329,-20.82826 -46.90294,-70.35527 -73.72266,-88.91211 -29.86911,-24.88252 -70.84605,-39.38511 -106.83203,-47.19531 -22.73034,-3.99179 -50.39537,-4.73725 -72.78125,-4.72852 -17.58588,0.008 -50.65129,4.06669 -68.94726,10.83594 -6.78273,1.42537 -8.6732,5.20733 -7.08399,5.80469 5.28987,1.98859 35.84233,-5.07359 32.76953,11.5625 2.51717,8.59271 -13.26704,8.64136 -27.1289,12.62109 -1.20224,0.62169 -14.18095,3.96749 -28.8418,7.43555 -14.66083,3.46802 -26.75547,6.40587 -26.87695,6.52734 -0.12151,0.12132 21.83884,18.5197 30.25,27.35352 8.41116,8.83389 15.90364,17.15302 16.64843,18.48632 4.43765,7.94374 -2.52481,18.09624 -11.2832,16.45313 -1.36195,-0.2555 -10.47053,-4.9727 -20.24023,-10.48242 -9.76971,-5.50976 -34.64655,-24.20505 -34.76758,-24.08399 -0.12102,0.12095 1.75661,9.69793 4.3418,21.19922 l 10.45507,46.51563 -1.86523,3.625 c -3.74061,7.26459 -11.51984,8.6685 -17.55664,3.16797 -0.96938,-0.88328 -14.58525,-31.50237 -20,-41.41407 -5.41476,-9.91169 -8.99853,-18.47168 -9.2168,-18.47656 -0.21827,-0.008 -4.9655,6.99452 -11.91406,19.5918 -16.93417,30.70053 -29.28202,58.34405 -32.10352,60.06445 -2.92613,1.78424 -7.7494,1.91146 -10.95898,0.28906 -1.27683,-0.64535 -2.97846,-2.07204 -3.78125,-3.16992 -3.18422,-4.35466 8.80282,-32.96431 18.43164,-65.77148 4.96412,-16.91373 8.85588,-30.92149 8.64844,-31.12891 -0.20746,-0.2075 -14.59765,5.68052 -31.54102,9.5918 -20.69843,4.77815 -53.97983,16.43946 -55.72461,16.16015 -7.68732,-1.2308 -11.85954,-9.98067 -7.875,-16.51562 1.44829,-2.37528 5.90112,-5.71262 9.54297,-7.15234 0.93693,-0.3704 33.98092,-16.19289 48.55078,-23.375 l 28.8125,-15.73829 -21.58594,-15.25 c -9.6134,-8.38851 -33.02333,-23.49279 -33.90624,-24.61523 -2.36416,-3.00556 -2.65161,-9.21953 -0.57813,-12.52344 2.06121,-3.28433 7.5348,-5.8261 11.04883,-5.13086 1.38422,0.27364 27.29338,11.90655 37.93359,16.46485 10.64022,4.5583 22.31603,7.6595 22.45313,7.33007 0.13708,-0.32957 -0.68687,-6.92477 -1.83008,-14.65625 -2.27284,-15.37115 -6.82068,-32.42222 -4.09375,-35.34179 4.44874,-4.76304 11.85984,-5.4811 15.96289,-1.54688 1.15053,1.10317 9.86256,21.50516 13.68359,29.1875 3.82103,7.68238 7.12931,13.96805 7.35157,13.9668 0.22223,-10e-4 4.39096,-7.40238 9.26562,-16.44531 12.39718,-22.99786 21.28231,-41.14313 24.04883,-42.83008 1.41836,-0.86484 3.18297,-1.2884 5.03711,-1.33008 z"
       transform="scale(0.26458333)"
       id="path834" />
    <path
       style="fill:url(#radialGradient844);stroke-width:1.00000012;fill-opacity:1"
       d="m 313.88477,497.61133 c -1.81241,-0.044 -3.72388,0.5342 -5.58008,1.66601 -2.58611,1.57697 -10.88982,18.53908 -22.47852,40.03711 -4.55676,8.45322 -10.68677,18.85434 -10.89453,18.85547 -0.20776,10e-4 -4.72894,-7.48074 -8.30078,-14.66211 -3.57184,-7.18136 -12.87567,-28.75399 -13.95117,-29.78515 -3.83547,-3.67767 -9.33552,-3.36256 -13.49414,1.08984 -2.5491,2.7292 2.69765,23.54532 4.82226,37.91406 1.06866,7.22725 1.83711,13.39081 1.70899,13.69922 -0.12816,0.30792 -11.04197,-2.59248 -20.98828,-6.85351 -9.94632,-4.26104 -39.69824,-18.71288 -40.99219,-18.96875 -3.28487,-0.64993 -8.14744,1.41028 -10.07422,4.48046 -1.93826,3.08845 -1.54592,8.51858 0.66406,11.32813 0.82534,1.04923 28.369,18.05307 37.35547,25.89453 l 20.68359,14.38281 -26.93359,14.71094 c -13.61969,6.71373 -50.44341,24.65974 -52.20312,25.38477 -3.40435,1.34585 -7.56609,4.46515 -8.91993,6.68554 -3.72468,6.10878 0.42729,12.14245 7.61329,13.29297 1.63098,0.26113 31.95962,-10.06979 50.95312,-15.86328 15.71213,-4.79259 37.87638,-11.68608 38.07031,-11.49219 0.19391,0.19386 -4.83227,15.43543 -9.47265,31.2461 -9.00088,30.66765 -22.22462,62.08363 -19.24805,66.15429 0.75043,1.0263 0.57206,2.35964 1.76562,2.96289 3.00028,1.51662 7.50884,1.39834 10.24415,-0.26953 2.63748,-1.60819 16.19949,-33.13167 32.02929,-61.83007 6.49541,-11.77577 11.56551,-18.82592 11.76953,-18.81836 0.20404,0.005 4.30946,8.38506 9.3711,17.65039 5.06163,9.26528 20.18954,44.70358 21.0957,45.52929 5.64312,5.14179 10.51699,4.20876 14.01367,-2.58203 l 1.74414,-3.38672 -11.16211,-50.55273 c -2.41659,-10.75121 -4.42562,-21.22098 -4.3125,-21.33399 0.11314,-0.11315 30.43969,21.52925 39.57227,26.67969 9.13257,5.15044 17.64679,9.55996 18.91992,9.79883 6.67199,0.14699 11.28526,-4.79778 8.27344,-12.72852 -0.69622,-1.24633 -7.69792,-9.02148 -15.56055,-17.27929 -7.86262,-8.2577 -36.22103,-30.1288 -36.10742,-30.24219 0.11357,-0.11354 14.57653,-3.99448 28.28125,-7.23633 13.70474,-3.24189 15.73628,-3.5933 27.08789,-6.44726 27.98387,-5.99305 28.59717,-4.5239 31.29492,-11.04102 2.87241,-15.55121 -31.74848,-8.6958 -36.69336,-10.55469 -1.48557,-0.55842 0.4057,-5.10315 6.7461,-6.43554 17.10277,-6.32776 48.01219,-13.91062 64.45117,-14.67579 21.30482,-1.27086 46.91218,-1.20606 68.16015,2.5254 38.31111,2.88143 93.5378,23.25776 121.45899,46.51757 29.11128,16.58903 70.27883,74.23905 77.63867,93.70899 3.9233,10.37892 6.01165,11.22945 8.50977,12.5039 3.30398,1.68567 4.12933,1.67452 7.39843,0.3086 5.17191,-2.16095 7.80481,-7.22687 5.58789,-14.85547 -8.46353,-29.12341 -37.49376,-71.94987 -54.03906,-89.00586 -17.87505,-19.8246 -61.51393,-49.91195 -117.51172,-68.07031 -29.1634,-9.45683 -81.12181,-13.83814 -114.03711,-13.78711 -29.40238,0.0457 -89.19293,16.13723 -118.23632,25.80859 -6.36564,2.11975 -13.93706,4.63192 -14.00196,4.57031 -0.0649,-0.0613 3.18575,-8.16833 6.79492,-16.83203 5.56951,-13.36936 9.73963,-33.10422 7.29688,-36.38867 -1.68538,-2.26613 -3.85336,-3.35163 -6.18359,-3.4082 z"
       transform="scale(0.26458333)"
       id="path826" />
  </g>
</svg>
