<?xml version="1.0" encoding="UTF-8" standalone="no"?>
<!-- Created with Inkscape (http://www.inkscape.org/) -->

<svg
   xmlns:dc="http://purl.org/dc/elements/1.1/"
   xmlns:cc="http://creativecommons.org/ns#"
   xmlns:rdf="http://www.w3.org/1999/02/22-rdf-syntax-ns#"
   xmlns:svg="http://www.w3.org/2000/svg"
   xmlns="http://www.w3.org/2000/svg"
   xmlns:sodipodi="http://sodipodi.sourceforge.net/DTD/sodipodi-0.dtd"
   xmlns:inkscape="http://www.inkscape.org/namespaces/inkscape"
   width="305.20691mm"
   height="242.11583mm"
   viewBox="0 0 274.68622 217.90424"
   version="1.1"
   id="svg5768"
   inkscape:version="0.92.5 (2060ec1f9f, 2020-04-08)"
   sodipodi:docname="jund.svg">
  <defs
     id="defs5762">
    <inkscape:path-effect
       effect="simplify"
       id="path-effect4565"
       is_visible="true"
       steps="1"
       threshold="0.000408163"
       smooth_angles="360"
       helper_size="0"
       simplify_individual_paths="false"
       simplify_just_coalesce="false"
       simplifyindividualpaths="false"
       simplifyJustCoalesce="false" />
    <inkscape:path-effect
       effect="simplify"
       id="path-effect4543"
       is_visible="true"
       steps="1"
       threshold="0.000408163"
       smooth_angles="360"
       helper_size="0"
       simplify_individual_paths="false"
       simplify_just_coalesce="false"
       simplifyindividualpaths="false"
       simplifyJustCoalesce="false" />
    <inkscape:path-effect
       effect="simplify"
       id="path-effect8619"
       is_visible="true"
       steps="1"
       threshold="0.000408163"
       smooth_angles="360"
       helper_size="0"
       simplify_individual_paths="false"
       simplify_just_coalesce="false"
       simplifyindividualpaths="false"
       simplifyJustCoalesce="false" />
    <inkscape:path-effect
       effect="simplify"
       id="path-effect8615"
       is_visible="true"
       steps="1"
       threshold="0.000408163"
       smooth_angles="360"
       helper_size="0"
       simplify_individual_paths="false"
       simplify_just_coalesce="false"
       simplifyindividualpaths="false"
       simplifyJustCoalesce="false" />
    <inkscape:path-effect
       effect="simplify"
       id="path-effect8611"
       is_visible="true"
       steps="1"
       threshold="0.000408163"
       smooth_angles="360"
       helper_size="0"
       simplify_individual_paths="false"
       simplify_just_coalesce="false"
       simplifyindividualpaths="false"
       simplifyJustCoalesce="false" />
    <inkscape:path-effect
       effect="simplify"
       id="path-effect8607"
       is_visible="true"
       steps="1"
       threshold="0.000408163"
       smooth_angles="360"
       helper_size="0"
       simplify_individual_paths="false"
       simplify_just_coalesce="false"
       simplifyindividualpaths="false"
       simplifyJustCoalesce="false" />
    <inkscape:path-effect
       effect="simplify"
       id="path-effect8600"
       is_visible="true"
       steps="1"
       threshold="0.000408163"
       smooth_angles="360"
       helper_size="0"
       simplify_individual_paths="false"
       simplify_just_coalesce="false"
       simplifyindividualpaths="false"
       simplifyJustCoalesce="false" />
    <inkscape:path-effect
       effect="simplify"
       id="path-effect8584"
       is_visible="true"
       steps="1"
       threshold="0.000408163"
       smooth_angles="360"
       helper_size="0"
       simplify_individual_paths="false"
       simplify_just_coalesce="false"
       simplifyindividualpaths="false"
       simplifyJustCoalesce="false" />
    <inkscape:path-effect
       effect="simplify"
       id="path-effect8571"
       is_visible="true"
       steps="1"
       threshold="0.000408163"
       smooth_angles="360"
       helper_size="0"
       simplify_individual_paths="false"
       simplify_just_coalesce="false"
       simplifyindividualpaths="false"
       simplifyJustCoalesce="false" />
    <inkscape:path-effect
       effect="simplify"
       id="path-effect8556"
       is_visible="true"
       steps="1"
       threshold="0.000408163"
       smooth_angles="360"
       helper_size="0"
       simplify_individual_paths="false"
       simplify_just_coalesce="false"
       simplifyindividualpaths="false"
       simplifyJustCoalesce="false" />
    <inkscape:path-effect
       effect="simplify"
       id="path-effect8532"
       is_visible="true"
       steps="1"
       threshold="0.000408163"
       smooth_angles="360"
       helper_size="0"
       simplify_individual_paths="false"
       simplify_just_coalesce="false"
       simplifyindividualpaths="false"
       simplifyJustCoalesce="false" />
    <inkscape:path-effect
       effect="simplify"
       id="path-effect8528"
       is_visible="true"
       steps="1"
       threshold="0.000408163"
       smooth_angles="360"
       helper_size="0"
       simplify_individual_paths="false"
       simplify_just_coalesce="false"
       simplifyindividualpaths="false"
       simplifyJustCoalesce="false" />
    <inkscape:path-effect
       effect="simplify"
       id="path-effect8524"
       is_visible="true"
       steps="1"
       threshold="0.000408163"
       smooth_angles="360"
       helper_size="0"
       simplify_individual_paths="false"
       simplify_just_coalesce="false"
       simplifyindividualpaths="false"
       simplifyJustCoalesce="false" />
    <inkscape:path-effect
       effect="simplify"
       id="path-effect8449"
       is_visible="true"
       steps="1"
       threshold="0.000408163"
       smooth_angles="360"
       helper_size="0"
       simplify_individual_paths="false"
       simplify_just_coalesce="false"
       simplifyindividualpaths="false"
       simplifyJustCoalesce="false" />
    <inkscape:path-effect
       effect="simplify"
       id="path-effect8443"
       is_visible="true"
       steps="1"
       threshold="0.000408163"
       smooth_angles="360"
       helper_size="0"
       simplify_individual_paths="false"
       simplify_just_coalesce="false"
       simplifyindividualpaths="false"
       simplifyJustCoalesce="false" />
    <inkscape:path-effect
       effect="simplify"
       id="path-effect8434"
       is_visible="true"
       steps="1"
       threshold="0.000408163"
       smooth_angles="360"
       helper_size="0"
       simplify_individual_paths="false"
       simplify_just_coalesce="false"
       simplifyindividualpaths="false"
       simplifyJustCoalesce="false" />
    <inkscape:path-effect
       effect="simplify"
       id="path-effect8422"
       is_visible="true"
       steps="1"
       threshold="0.000408163"
       smooth_angles="360"
       helper_size="0"
       simplify_individual_paths="false"
       simplify_just_coalesce="false"
       simplifyindividualpaths="false"
       simplifyJustCoalesce="false" />
    <inkscape:path-effect
       effect="simplify"
       id="path-effect8418"
       is_visible="true"
       steps="1"
       threshold="0.000408163"
       smooth_angles="360"
       helper_size="0"
       simplify_individual_paths="false"
       simplify_just_coalesce="false"
       simplifyindividualpaths="false"
       simplifyJustCoalesce="false" />
    <inkscape:path-effect
       effect="simplify"
       id="path-effect8413"
       is_visible="true"
       steps="1"
       threshold="0.000408163"
       smooth_angles="360"
       helper_size="0"
       simplify_individual_paths="false"
       simplify_just_coalesce="false"
       simplifyindividualpaths="false"
       simplifyJustCoalesce="false" />
    <inkscape:path-effect
       effect="simplify"
       id="path-effect8391"
       is_visible="true"
       steps="1"
       threshold="0.000408163"
       smooth_angles="360"
       helper_size="0"
       simplify_individual_paths="false"
       simplify_just_coalesce="false"
       simplifyindividualpaths="false"
       simplifyJustCoalesce="false" />
    <inkscape:path-effect
       effect="simplify"
       id="path-effect8114"
       is_visible="true"
       steps="1"
       threshold="0.000408163"
       smooth_angles="360"
       helper_size="0"
       simplify_individual_paths="false"
       simplify_just_coalesce="false"
       simplifyindividualpaths="false"
       simplifyJustCoalesce="false" />
    <inkscape:path-effect
       effect="simplify"
       id="path-effect7808"
       is_visible="true"
       steps="1"
       threshold="0.000408163"
       smooth_angles="360"
       helper_size="0"
       simplify_individual_paths="false"
       simplify_just_coalesce="false"
       simplifyindividualpaths="false"
       simplifyJustCoalesce="false" />
    <inkscape:path-effect
       effect="simplify"
       id="path-effect6980"
       is_visible="true"
       steps="1"
       threshold="0.000408163"
       smooth_angles="360"
       helper_size="0"
       simplify_individual_paths="false"
       simplify_just_coalesce="false"
       simplifyindividualpaths="false"
       simplifyJustCoalesce="false" />
    <inkscape:path-effect
       effect="simplify"
       id="path-effect6741"
       is_visible="true"
       steps="1"
       threshold="0.000408163"
       smooth_angles="360"
       helper_size="0"
       simplify_individual_paths="false"
       simplify_just_coalesce="false"
       simplifyindividualpaths="false"
       simplifyJustCoalesce="false" />
  </defs>
  <sodipodi:namedview
     id="base"
     pagecolor="#ffffff"
     bordercolor="#666666"
     borderopacity="1.0"
     inkscape:pageopacity="0.0"
     inkscape:pageshadow="2"
     inkscape:zoom="0.088388348"
     inkscape:cx="-4138.2593"
     inkscape:cy="-1294.5821"
     inkscape:document-units="mm"
     inkscape:current-layer="layer1"
     showgrid="false"
     inkscape:window-width="1920"
     inkscape:window-height="1012"
     inkscape:window-x="0"
     inkscape:window-y="1080"
     inkscape:window-maximized="1"
     units="mm"
     scale-x="0.9"
     showborder="true"
     inkscape:snap-global="false" />
  <metadata
     id="metadata5765">
    <rdf:RDF>
      <cc:Work
         rdf:about="">
        <dc:format>image/svg+xml</dc:format>
        <dc:type
           rdf:resource="http://purl.org/dc/dcmitype/StillImage" />
        <dc:title />
      </cc:Work>
    </rdf:RDF>
  </metadata>
  <g
     inkscape:label="Layer 1"
     inkscape:groupmode="layer"
     id="layer1"
     transform="translate(-514.88345,320.90098)">
    <path
       inkscape:connector-curvature="0"
       style="fill:#000000;stroke-width:0.3175"
       d="m 636.06907,-320.90087 c -0.21512,-0.0732 -22.00399,35.97385 -22.4549,37.14888 -0.12459,0.32469 18.38075,31.77414 21.98517,37.36331 l 0.49533,0.76786 0.40369,-0.76786 c 0.22186,-0.42238 5.283,-8.90801 11.24722,-18.857 9.04294,-15.08464 10.79435,-18.19625 10.54401,-18.73279 -0.64194,-1.37591 -21.98659,-36.84282 -22.22052,-36.9224 z m 21.81589,65.33043 -0.45998,1.10085 c -0.25303,0.6056 -0.45996,1.18931 -0.45996,1.29714 0,0.10811 1.03567,0.11189 2.30171,0.009 1.26604,-0.10306 9.15972,-0.54593 17.54172,-0.98412 23.28136,-1.21713 23.3617,-1.32603 1.01577,-1.37713 z m -42.82994,5.39734 -2.3022,0.004 c -1.26604,0.002 -11.30284,0.35844 -22.30421,0.79157 -11.00138,0.43315 -21.4314,0.80565 -23.17766,0.82787 -2.60207,0.033 -2.94582,0.0891 -1.905,0.31158 0.69851,0.14935 9.12842,0.39236 18.73282,0.53952 9.60436,0.14714 20.49841,0.2933 24.20921,0.32509 l 6.74704,0.0577 v -1.42875 z m 55.40359,6.33867 -1.58734,1.45154 -1.58782,1.45202 7.30282,-0.19255 c 6.12731,-0.16136 50.16741,-1.01446 59.63914,-1.15529 6.49498,-0.0966 0.34018,-0.27499 -25.34914,-0.73435 -14.84312,-0.26544 -29.55941,-0.55886 -32.70266,-0.65206 z m -67.56564,0.12604 c -0.0847,-0.0846 -56.60017,2.00525 -63.87936,2.3622 -4.11433,0.20174 3.55475,0.29401 27.38206,0.33021 l 33.0975,0.0507 1.73152,-1.33993 c 0.95238,-0.73688 1.70317,-1.36827 1.66828,-1.40318 z m 139.63567,4.79924 c -1.07902,0.002 -2.5673,0.0198 -4.20441,0.053 -3.27422,0.0664 -15.59719,0.26247 -27.38437,0.43532 -38.9232,0.57078 -148.7771,2.23133 -164.94109,2.49334 -10.39585,0.16851 19.91501,0.27495 87.82114,0.30835 l 103.69646,0.0512 3.38028,-1.59478 c 1.8593,-0.87704 3.38071,-1.64369 3.38071,-1.70408 0,-0.0302 -0.66973,-0.0443 -1.74872,-0.0423 z m 44.34518,5.96895 c -12.3058,0.002 -65.27123,0.22045 -128.20378,0.53346 -71.92294,0.35772 -132.34071,0.65621 -134.26159,0.66321 l -3.49234,0.0126 -3.01609,2.24684 -3.01657,2.24684 9.36641,-0.20045 c 5.15145,-0.11016 37.51264,-0.77097 71.91375,-1.46829 34.40113,-0.69729 79.83538,-1.61917 100.965,-2.04871 21.12961,-0.42954 42.41785,-0.85879 47.30734,-0.95389 4.88951,-0.0951 11.17632,-0.24064 13.97032,-0.32324 2.79399,-0.0826 10.97744,-0.24381 18.18586,-0.35812 7.20843,-0.11431 13.04818,-0.26588 12.97689,-0.33719 -0.009,-0.009 -0.93722,-0.0133 -2.6952,-0.013 z m -46.82318,2.88308 c -0.0591,-0.0591 -15.24165,0.53351 -33.73886,1.31713 -27.88296,1.18122 -36.14119,1.42501 -48.31566,1.42596 l -14.68469,9.5e-4 v 0.87344 c 0,0.48022 -0.14371,5.30225 -0.31859,10.71562 -0.17488,5.41338 -0.81024,27.41581 -1.41201,48.89469 -0.60172,21.47887 -1.18034,40.9459 -1.28597,43.25969 v 0 c -0.10568,2.31378 -0.12773,4.20718 -0.0488,4.20718 0.0789,0 1.04356,-1.39303 2.14358,-3.09563 1.10002,-1.70259 5.87826,-9.02509 10.61797,-16.27203 25.51743,-39.01569 30.32927,-46.44182 30.18651,-46.58459 -0.0861,-0.0861 -3.60495,0.65783 -7.81952,1.65292 -4.21455,0.99509 -7.7082,1.76079 -7.76371,1.70129 -0.0555,-0.0595 0.78957,-2.39452 1.87802,-5.18852 1.08847,-2.794 4.01865,-10.36622 6.51124,-16.82735 2.4926,-6.46111 4.62294,-11.91564 4.73414,-12.12111 0.12733,-0.23545 3.76516,2.43626 9.83614,7.22327 5.29885,4.17821 9.76741,7.59675 9.93009,7.59675 0.16271,0 1.89977,-1.16892 3.85977,-2.59752 1.95999,-1.4286 6.70689,-4.88008 10.54865,-7.66976 3.84175,-2.78968 7.98495,-5.81102 9.20735,-6.71401 1.22236,-0.90299 5.33192,-3.90258 9.13247,-6.6661 3.8005,-2.76352 6.86193,-5.07315 6.80283,-5.13225 z m -128.66518,2.74402 -1.94172,1.98453 c -1.69133,1.72844 -3.42026,4.57401 -13.40524,22.06237 -6.30489,11.04285 -11.46348,20.19599 -11.46348,20.34016 0,0.375 16.60021,12.00046 19.82297,13.88241 1.16489,0.68023 1.51576,0.78151 1.36736,0.39485 -0.10977,-0.28605 -0.71387,-3.78003 -1.34271,-7.76417 -0.62884,-3.98414 -1.22444,-7.52934 -1.32364,-7.87859 -0.1203,-0.42381 -0.0746,-0.52956 0.13766,-0.31766 0.17495,0.17463 2.3231,5.38942 4.77414,11.5886 2.45105,6.19919 8.83846,22.27262 14.19401,35.71875 5.3556,13.44612 10.61688,26.68402 11.69185,29.41727 1.07496,2.73324 1.99358,4.93235 2.04127,4.88715 0.0477,-0.0452 0.36841,-8.35341 0.71252,-18.46306 1.47342,-43.28845 3.48675,-103.79842 3.48675,-104.78384 v -1.06877 h -14.37587 z m -47.89427,1.7464 c -21.72412,0 -39.4445,0.0865 -39.37899,0.19255 0.0655,0.10601 0.87334,0.27711 1.79524,0.37998 2.01145,0.22446 56.22665,8.39074 57.47695,8.65761 0.57576,0.1229 0.87297,0.38928 0.87297,0.78181 0,0.32739 -0.71421,6.46638 -1.58734,13.64196 -0.87304,7.17492 -1.58768,13.27828 -1.58782,13.56382 0.008,0.27097 4.9339,-7.96032 10.95375,-18.30353 6.02456,-10.35131 10.9538,-18.84152 10.95375,-18.86722 0,-0.0257 -17.77437,-0.047 -39.49851,-0.047 z"
       id="path7296" />
  </g>
</svg>
