<?xml version="1.0" encoding="UTF-8" standalone="no"?>
<!-- Created with Inkscape (http://www.inkscape.org/) -->

<svg
   xmlns:dc="http://purl.org/dc/elements/1.1/"
   xmlns:cc="http://creativecommons.org/ns#"
   xmlns:rdf="http://www.w3.org/1999/02/22-rdf-syntax-ns#"
   xmlns:svg="http://www.w3.org/2000/svg"
   xmlns="http://www.w3.org/2000/svg"
   xmlns:sodipodi="http://sodipodi.sourceforge.net/DTD/sodipodi-0.dtd"
   xmlns:inkscape="http://www.inkscape.org/namespaces/inkscape"
   width="305.20691mm"
   height="326.42596mm"
   viewBox="0 0 274.68622 293.78336"
   version="1.1"
   id="svg5768"
   inkscape:version="0.92.5 (2060ec1f9f, 2020-04-08)"
   sodipodi:docname="jund.svg">
  <defs
     id="defs5762">
    <inkscape:path-effect
       effect="simplify"
       id="path-effect4565"
       is_visible="true"
       steps="1"
       threshold="0.000408163"
       smooth_angles="360"
       helper_size="0"
       simplify_individual_paths="false"
       simplify_just_coalesce="false"
       simplifyindividualpaths="false"
       simplifyJustCoalesce="false" />
    <inkscape:path-effect
       effect="simplify"
       id="path-effect4543"
       is_visible="true"
       steps="1"
       threshold="0.000408163"
       smooth_angles="360"
       helper_size="0"
       simplify_individual_paths="false"
       simplify_just_coalesce="false"
       simplifyindividualpaths="false"
       simplifyJustCoalesce="false" />
    <inkscape:path-effect
       effect="simplify"
       id="path-effect8619"
       is_visible="true"
       steps="1"
       threshold="0.000408163"
       smooth_angles="360"
       helper_size="0"
       simplify_individual_paths="false"
       simplify_just_coalesce="false"
       simplifyindividualpaths="false"
       simplifyJustCoalesce="false" />
    <inkscape:path-effect
       effect="simplify"
       id="path-effect8615"
       is_visible="true"
       steps="1"
       threshold="0.000408163"
       smooth_angles="360"
       helper_size="0"
       simplify_individual_paths="false"
       simplify_just_coalesce="false"
       simplifyindividualpaths="false"
       simplifyJustCoalesce="false" />
    <inkscape:path-effect
       effect="simplify"
       id="path-effect8611"
       is_visible="true"
       steps="1"
       threshold="0.000408163"
       smooth_angles="360"
       helper_size="0"
       simplify_individual_paths="false"
       simplify_just_coalesce="false"
       simplifyindividualpaths="false"
       simplifyJustCoalesce="false" />
    <inkscape:path-effect
       effect="simplify"
       id="path-effect8607"
       is_visible="true"
       steps="1"
       threshold="0.000408163"
       smooth_angles="360"
       helper_size="0"
       simplify_individual_paths="false"
       simplify_just_coalesce="false"
       simplifyindividualpaths="false"
       simplifyJustCoalesce="false" />
    <inkscape:path-effect
       effect="simplify"
       id="path-effect8600"
       is_visible="true"
       steps="1"
       threshold="0.000408163"
       smooth_angles="360"
       helper_size="0"
       simplify_individual_paths="false"
       simplify_just_coalesce="false"
       simplifyindividualpaths="false"
       simplifyJustCoalesce="false" />
    <inkscape:path-effect
       effect="simplify"
       id="path-effect8584"
       is_visible="true"
       steps="1"
       threshold="0.000408163"
       smooth_angles="360"
       helper_size="0"
       simplify_individual_paths="false"
       simplify_just_coalesce="false"
       simplifyindividualpaths="false"
       simplifyJustCoalesce="false" />
    <inkscape:path-effect
       effect="simplify"
       id="path-effect8571"
       is_visible="true"
       steps="1"
       threshold="0.000408163"
       smooth_angles="360"
       helper_size="0"
       simplify_individual_paths="false"
       simplify_just_coalesce="false"
       simplifyindividualpaths="false"
       simplifyJustCoalesce="false" />
    <inkscape:path-effect
       effect="simplify"
       id="path-effect8556"
       is_visible="true"
       steps="1"
       threshold="0.000408163"
       smooth_angles="360"
       helper_size="0"
       simplify_individual_paths="false"
       simplify_just_coalesce="false"
       simplifyindividualpaths="false"
       simplifyJustCoalesce="false" />
    <inkscape:path-effect
       effect="simplify"
       id="path-effect8532"
       is_visible="true"
       steps="1"
       threshold="0.000408163"
       smooth_angles="360"
       helper_size="0"
       simplify_individual_paths="false"
       simplify_just_coalesce="false"
       simplifyindividualpaths="false"
       simplifyJustCoalesce="false" />
    <inkscape:path-effect
       effect="simplify"
       id="path-effect8528"
       is_visible="true"
       steps="1"
       threshold="0.000408163"
       smooth_angles="360"
       helper_size="0"
       simplify_individual_paths="false"
       simplify_just_coalesce="false"
       simplifyindividualpaths="false"
       simplifyJustCoalesce="false" />
    <inkscape:path-effect
       effect="simplify"
       id="path-effect8524"
       is_visible="true"
       steps="1"
       threshold="0.000408163"
       smooth_angles="360"
       helper_size="0"
       simplify_individual_paths="false"
       simplify_just_coalesce="false"
       simplifyindividualpaths="false"
       simplifyJustCoalesce="false" />
    <inkscape:path-effect
       effect="simplify"
       id="path-effect8449"
       is_visible="true"
       steps="1"
       threshold="0.000408163"
       smooth_angles="360"
       helper_size="0"
       simplify_individual_paths="false"
       simplify_just_coalesce="false"
       simplifyindividualpaths="false"
       simplifyJustCoalesce="false" />
    <inkscape:path-effect
       effect="simplify"
       id="path-effect8443"
       is_visible="true"
       steps="1"
       threshold="0.000408163"
       smooth_angles="360"
       helper_size="0"
       simplify_individual_paths="false"
       simplify_just_coalesce="false"
       simplifyindividualpaths="false"
       simplifyJustCoalesce="false" />
    <inkscape:path-effect
       effect="simplify"
       id="path-effect8434"
       is_visible="true"
       steps="1"
       threshold="0.000408163"
       smooth_angles="360"
       helper_size="0"
       simplify_individual_paths="false"
       simplify_just_coalesce="false"
       simplifyindividualpaths="false"
       simplifyJustCoalesce="false" />
    <inkscape:path-effect
       effect="simplify"
       id="path-effect8422"
       is_visible="true"
       steps="1"
       threshold="0.000408163"
       smooth_angles="360"
       helper_size="0"
       simplify_individual_paths="false"
       simplify_just_coalesce="false"
       simplifyindividualpaths="false"
       simplifyJustCoalesce="false" />
    <inkscape:path-effect
       effect="simplify"
       id="path-effect8418"
       is_visible="true"
       steps="1"
       threshold="0.000408163"
       smooth_angles="360"
       helper_size="0"
       simplify_individual_paths="false"
       simplify_just_coalesce="false"
       simplifyindividualpaths="false"
       simplifyJustCoalesce="false" />
    <inkscape:path-effect
       effect="simplify"
       id="path-effect8413"
       is_visible="true"
       steps="1"
       threshold="0.000408163"
       smooth_angles="360"
       helper_size="0"
       simplify_individual_paths="false"
       simplify_just_coalesce="false"
       simplifyindividualpaths="false"
       simplifyJustCoalesce="false" />
    <inkscape:path-effect
       effect="simplify"
       id="path-effect8391"
       is_visible="true"
       steps="1"
       threshold="0.000408163"
       smooth_angles="360"
       helper_size="0"
       simplify_individual_paths="false"
       simplify_just_coalesce="false"
       simplifyindividualpaths="false"
       simplifyJustCoalesce="false" />
    <inkscape:path-effect
       effect="simplify"
       id="path-effect8114"
       is_visible="true"
       steps="1"
       threshold="0.000408163"
       smooth_angles="360"
       helper_size="0"
       simplify_individual_paths="false"
       simplify_just_coalesce="false"
       simplifyindividualpaths="false"
       simplifyJustCoalesce="false" />
    <inkscape:path-effect
       effect="simplify"
       id="path-effect7808"
       is_visible="true"
       steps="1"
       threshold="0.000408163"
       smooth_angles="360"
       helper_size="0"
       simplify_individual_paths="false"
       simplify_just_coalesce="false"
       simplifyindividualpaths="false"
       simplifyJustCoalesce="false" />
    <inkscape:path-effect
       effect="simplify"
       id="path-effect6980"
       is_visible="true"
       steps="1"
       threshold="0.000408163"
       smooth_angles="360"
       helper_size="0"
       simplify_individual_paths="false"
       simplify_just_coalesce="false"
       simplifyindividualpaths="false"
       simplifyJustCoalesce="false" />
    <inkscape:path-effect
       effect="simplify"
       id="path-effect6741"
       is_visible="true"
       steps="1"
       threshold="0.000408163"
       smooth_angles="360"
       helper_size="0"
       simplify_individual_paths="false"
       simplify_just_coalesce="false"
       simplifyindividualpaths="false"
       simplifyJustCoalesce="false" />
  </defs>
  <sodipodi:namedview
     id="base"
     pagecolor="#ffffff"
     bordercolor="#666666"
     borderopacity="1.0"
     inkscape:pageopacity="0.0"
     inkscape:pageshadow="2"
     inkscape:zoom="0.088388348"
     inkscape:cx="-2158.3603"
     inkscape:cy="-975.92957"
     inkscape:document-units="mm"
     inkscape:current-layer="layer1"
     showgrid="false"
     inkscape:window-width="1920"
     inkscape:window-height="1020"
     inkscape:window-x="0"
     inkscape:window-y="0"
     inkscape:window-maximized="1"
     units="mm"
     scale-x="0.9"
     showborder="true"
     inkscape:snap-global="false" />
  <metadata
     id="metadata5765">
    <rdf:RDF>
      <cc:Work
         rdf:about="">
        <dc:format>image/svg+xml</dc:format>
        <dc:type
           rdf:resource="http://purl.org/dc/dcmitype/StillImage" />
        <dc:title></dc:title>
      </cc:Work>
    </rdf:RDF>
  </metadata>
  <g
     inkscape:label="Layer 1"
     inkscape:groupmode="layer"
     id="layer1"
     transform="translate(-514.88345,320.90098)">
    <g
       id="g7841">
      <path
         id="path7474"
         transform="scale(0.238125)"
         d="m 2636.0918,-362.5957 3.7422,3.21679 c 3.7381,3.21374 3.741,3.23238 4.2031,22.86329 0.5913,25.11697 -0.3975,33.31159 -4.5195,37.43359 -4.4287,4.42856 -12.8483,4.37039 -17.3379,-0.11914 -3.2554,-3.25556 -3.2736,-3.42075 -3.4395,-31.33399 -0.091,-15.43336 -0.24,-28.8099 -0.332,-29.72656 -0.1152,-1.15254 -3.4577,-1.75934 -10.834,-1.9668 -10.0945,-0.28392 -10.5051,-0.18504 -7.666,1.83008 2.9202,2.07286 3,2.76348 3,26.04297 0,13.39213 0.6639,26.551 1.5098,29.91016 1.8261,7.25211 7.3081,13.0695 14.1172,14.98047 6.8645,1.92651 18.2483,0.9116 23.3808,-2.08594 8.6924,-5.07666 9.6085,-8.61315 10.0918,-38.91211 0.4154,-26.02826 0.5596,-27.3042 3.334,-29.62109 2.8482,-2.37825 2.7023,-2.42313 -8.1758,-2.4668 z m 26.5332,0 4.1406,3.86914 4.1426,3.86718 v 30.25196 c 0,29.74131 -0.05,30.29339 -3,32.7539 -2.9786,2.48525 -2.9141,2.50254 9,2.49414 11.4759,-0.009 11.8368,-0.0981 8.2715,-2.03124 -2.0504,-1.11177 -4.3004,-3.52528 -5,-5.36524 -1.4929,-3.92705 -1.7399,-43.17666 -0.2715,-43.16406 0.55,0.005 5.0196,5.8551 9.9336,13 4.9141,7.1449 13.6148,19.59151 19.334,27.6582 l 10.3984,14.66602 0.3516,-36.66602 c 0.3469,-36.18389 0.3914,-36.69736 3.334,-38.9707 2.8864,-2.22992 2.5755,-2.30225 -9.6856,-2.28125 -11.8525,0.0211 -12.3992,0.14044 -8.4941,1.83984 2.2952,0.99889 4.5038,2.34976 4.9082,3.00391 0.5912,0.95668 1.4574,30.90005 1.0312,35.66015 -0.062,0.68838 -6.4774,-8.16291 -14.2578,-19.66796 l -14.1465,-20.91797 h -9.9941 z m -91.7168,0.082 c -16.2295,0.0203 -17.5952,0.1998 -13.8867,1.81445 2.2623,0.98499 5.4122,3.44238 7,5.46094 2.8096,3.57136 2.8867,4.70755 2.8867,42.24414 0,24.04057 -0.5206,39.54699 -1.3809,41.1543 -2.0783,3.88359 0.5633,3.21494 5.9356,-1.50196 2.7513,-2.41566 5.8591,-7.1768 7.6191,-11.66797 2.7212,-6.94458 3.0188,-10.34828 3.5059,-40.25195 0.5149,-31.60819 0.6254,-32.74166 3.4258,-34.9707 2.7785,-2.21187 2.1752,-2.30225 -15.1055,-2.28125 z m 185.1777,0.13086 c -1.962,-0.008 -4.062,0.0174 -6.3183,0.0742 l -15.0703,0.38086 9.1054,5.33203 9.1055,5.33398 -6.334,0.40625 -6.334,0.40625 v 29.05664 c 0,28.7898 -0.028,29.07157 -3,30.58985 -2.3589,1.20508 1.1316,1.43892 16.334,1.09961 22.4308,-0.5005 28.1523,-2.19557 35.207,-10.4375 12.9705,-15.15293 10.1679,-45.21093 -5.2011,-55.78516 -6.7701,-4.65792 -13.7602,-6.39906 -27.4942,-6.45703 z m -1.1777,6.45508 h 6.0664 c 13.3737,0 18.1483,6.69856 19.0059,26.66601 0.6676,15.5473 -1.1555,23.01689 -7.0586,28.91992 -3.8423,3.84235 -5.2954,4.41407 -11.2149,4.41407 h -6.7988 v -30 z m 71.7344,103.22461 c -1.8041,-0.009 -1.7047,0.21405 0.2656,0.67187 l 4.666,1.08398 -5.334,0.20508 c -2.9333,0.11263 -7.7829,1.31774 -10.7773,2.67774 -4.1872,1.90165 -5.4434,2.06365 -5.4434,0.69726 0,-0.9773 0.4372,-1.5067 0.9727,-1.17578 0.5353,0.33088 2.9862,-0.27208 5.4453,-1.33984 5.4268,-2.35633 1.6072,-2.79649 -5.5391,-0.63867 -2.5618,0.77354 -5.6617,1.62895 -6.8886,1.90234 -3.7405,0.83376 -8.9611,3.94683 -8.9317,5.32422 0.016,0.715 -0.6994,1.54294 -1.5898,1.83984 -1.0096,0.33659 -1.2613,-0.15331 -0.668,-1.30078 0.5231,-1.01178 0.01,-0.67545 -1.1465,0.74805 -1.1544,1.42341 -2.0996,2.13294 -2.0996,1.57617 0,-0.55677 -1.8,0.26941 -4,1.83594 -2.2,1.56653 -4,3.63921 -4,4.60547 0,0.96621 -0.8967,3.47567 -1.9922,5.57617 -1.2602,2.41633 -2,2.99097 -2,1.56445 0,-1.24002 0.5928,-2.62687 1.3262,-3.08008 0.7333,-0.45325 1.3067,-1.53679 1.2773,-2.41015 -0.03,-0.87341 -2.3569,0.95688 -5.1718,4.06836 -5.7602,6.3669 -12.6233,19.76119 -11.2578,21.9707 0.5774,0.93421 0.2676,1.06199 -0.8692,0.35937 -1.2824,-0.79244 -1.5323,-0.48409 -0.914,1.12696 0.4681,1.22028 0.3376,2.21875 -0.2911,2.21875 -2.4708,0 -3.7022,17.37554 -2.1679,30.5957 2.7896,24.03574 25.4857,50.20499 48.0605,55.41406 1.4667,0.3384 4.7673,1.19818 7.334,1.91016 4.2513,1.17946 19.7704,1.01949 28,-0.28906 6.2558,-0.99478 13.359,-3.84371 12.6094,-5.05664 -0.4116,-0.66587 0.041,-0.90793 1.0078,-0.53711 2.3105,0.88667 16.4793,-7.76066 16.0488,-9.79493 -0.1833,-0.86643 0.1161,-1.43389 0.666,-1.26171 3.2859,1.02866 19.7601,-20.41291 18.4024,-23.95118 -0.3579,-0.93236 -0.01,-1.69531 0.7832,-1.69531 0.7886,0 1.0774,-0.93234 0.6406,-2.07031 -0.4366,-1.13814 -0.2992,-1.76327 0.3066,-1.38867 1.7867,1.10429 4.2012,-11.95172 4.2012,-22.71875 0,-10.36775 -2.0488,-21.5189 -4.3769,-23.82227 -0.9046,-0.89512 -0.9966,-0.71818 -0.2793,0.53906 0.6795,1.19139 0.554,1.55419 -0.3457,0.99805 -0.7758,-0.48067 -1.145,-1.92247 -0.8145,-3.20508 1.1423,-4.43536 -12.9626,-24.67512 -18.3984,-26.40039 -1.3699,-0.43473 -2.0883,-1.44055 -1.5977,-2.23437 0.5315,-0.85985 0.2688,-1.05908 -0.6484,-0.49219 -0.8467,0.5233 -1.5391,0.45683 -1.5391,-0.14844 0,-1.86217 -13.6079,-9.33034 -20.9551,-11.5 -3.8253,-1.12966 -11.3246,-2.35909 -16.666,-2.73242 -2.46,-0.17183 -4.2281,-0.2603 -5.3105,-0.26562 z m -305.8457,6.26562 c -11.3106,-0.10693 -18.8615,1.36304 -25.5567,4.85547 -3.7696,1.9664 -4.332,2.94071 -4.332,7.49609 0,4.35255 0.8768,6.07176 5.1992,10.1836 l 5.2012,4.94726 -5.4414,-1.60742 c -5.65,-1.66824 -7.3715,-4.03457 -7.5332,-10.36523 -0.1159,-4.53418 -1.4453,-4.60141 -6.5215,-0.33008 -9.4951,7.98967 -17.5723,26.44864 -17.5723,40.1582 0,14.55198 5.3771,20.41254 21.3418,23.26563 11.8121,2.1109 12.523,3.32651 10.5664,18.02929 -1.835,13.78894 -0.9089,19.82443 3.4786,22.69922 5.4134,3.54709 7.2812,1.65688 7.2812,-7.36914 0,-10.68414 2.1563,-11.41627 4.2188,-1.43164 1.6318,7.90093 1.7744,8.0938 5.6914,7.70703 3.7392,-0.36947 4.0479,-0.81261 4.4472,-6.39648 0.5258,-7.34509 1.1509,-9.33203 2.9336,-9.33203 0.7564,0 1.375,2.70001 1.375,6 0,5.03571 0.4134,6 2.5703,6 3.0593,0 8.0957,-5.9677 8.0957,-9.5918 0,-1.41098 0.6007,-2.1954 1.334,-1.74219 0.7333,0.45321 1.334,4.58822 1.334,9.18945 0,4.60103 0.3195,8.68674 0.7109,9.07813 0.3912,0.39139 2.6197,0.32056 4.9512,-0.15625 5.5188,-1.12882 6.1114,-3.64495 5.2774,-22.4043 -0.7622,-17.14146 -0.242,-18.40269 8.1367,-19.69336 3.0744,-0.47345 8.7353,-1.73533 12.5801,-2.80468 6.0907,-1.69399 7.356,-2.66026 9.8261,-7.50196 5.8186,-11.4056 0.8612,-32.97705 -10.959,-47.68554 -4.6889,-5.83488 -6.1638,-6.28296 -11.5898,-3.52344 -1.9801,1.00712 -5.1003,2.27387 -6.9336,2.8164 -2.7852,0.82428 -2.5878,0.46876 1.207,-2.16406 6.7021,-4.64991 7.9948,-7.29345 4.7637,-9.75195 -6.3949,-4.86585 -17.2869,-7.82963 -30.9961,-8.4336 -1.7777,-0.0783 -3.4701,-0.12534 -5.0859,-0.14062 z m 147.6211,1.42773 c -4.3345,-0.0596 -8.7686,0.28059 -13.2422,1.03516 -10.7201,1.80821 -11.5982,4.04688 -1.5879,4.04688 9.2956,0 19.3514,2.4213 21.9414,5.2832 2.1033,2.32411 1.988,2.52154 -2.2012,3.79687 -2.4312,0.74016 -6.2189,1.74989 -8.4179,2.24219 -3.8206,0.85527 -3.8836,0.97796 -1.4122,2.78516 3.6517,2.67007 11.458,2.34704 18.7422,-0.77539 8.0404,-3.44651 9.2406,-3.36877 13.1485,0.8457 3.4453,3.7157 5.2947,9.78222 4.0058,13.14062 -1.1596,3.02203 -2.6077,2.46093 -5.5175,-2.13476 -3.3029,-5.2168 -4.9146,-3.07759 -3.0098,3.99609 1.6456,6.11142 8.2327,12.46313 15.3691,14.81836 4.3597,1.43878 4.7961,1.98798 4.0235,5.06641 -1.7546,6.99065 -4.6788,12.49304 -6.334,11.91797 -1.8635,-0.6476 -1.9805,-3.12044 -0.5117,-10.73828 0.9396,-4.87337 0.8629,-5.02502 -1.8262,-3.58594 -3.8211,2.04506 -5.3477,6.67511 -5.3477,16.22656 0,9.62784 -2.6,15.71195 -8.1035,18.96289 -5.87,3.46747 -13.1384,1.2355 -13.209,-4.05664 -0.011,-0.84783 2.9594,-3.68218 6.6016,-6.29883 3.6421,-2.61665 7.7857,-7.0382 9.207,-9.82422 2.5047,-4.90931 5.2141,-17.66796 3.752,-17.66796 -0.3973,0 -4.4984,2.25001 -9.1133,5 -9.0412,5.38763 -14.1192,6.01814 -30.4668,3.78906 -6.5298,-0.89042 -8.1357,-0.5868 -14.6582,2.77148 -13.7051,7.05638 -20.0017,22.60628 -15.4688,38.19922 3.4903,12.00601 12.7524,20.61281 25.459,23.65625 9.5967,2.29854 39.6715,-1.1728 49.6348,-5.72851 l 6.3652,-2.91016 -9.6035,-0.72266 c -18.2628,-1.37373 -15.3174,-5.26737 6.6953,-8.84961 14.8663,-2.41948 19.7224,-4.46537 23.8828,-10.06445 3.0148,-4.05745 6.3594,-11.78255 6.3594,-14.6875 0,-0.63147 -3.1863,0.96737 -7.0801,3.55273 -6.8672,4.55959 -15.6329,8.07665 -15.541,6.23438 0.025,-0.49877 3.6278,-4.77309 8.0059,-9.49805 10.7737,-11.62717 13.9519,-18.38917 13.8691,-29.50195 -0.036,-4.81785 -0.869,-10.81846 -1.8515,-13.33398 -2.2847,-5.84891 -12.0414,-21.24024 -13.4649,-21.24024 -0.5958,0 0.3743,3.58723 2.1563,7.97266 1.7818,4.38543 3.2258,9.93608 3.209,12.33398 -0.029,4.01058 -0.2852,3.7428 -3.1954,-3.33398 -4.0108,-9.75312 -8.7263,-15.92744 -16.5703,-21.70117 -9.5841,-7.05468 -21.69,-10.84084 -34.6933,-11.01954 z m -23.0879,6.80665 c -2.7692,-0.0318 -5.9452,1.10941 -9.0899,3.38671 -3.3822,2.44935 -12,14.20572 -12,16.3711 0,2.00567 2.7453,1.3157 6.4571,-1.62305 l 3.5429,-2.80469 1.2578,3.47266 c 1.3254,3.65976 3.4102,4.70216 3.4102,1.70508 0,-2.50579 5.2855,-7.00022 10,-8.50196 5.0187,-1.59865 5.8661,-5.86637 1.9434,-9.78906 -1.459,-1.45899 -3.3677,-2.19207 -5.5215,-2.21679 z m 14.6387,17.34374 c -0.4246,0.009 -0.7838,0.0916 -1.0528,0.25782 -1.2754,0.78832 10.4029,13.42878 13.3242,14.42187 5.3104,1.80523 12,-3.02587 12,-8.66601 0,-6.13682 -6.6271,-7.57357 -12.332,-2.67383 -2.0761,1.78305 -2.5919,1.78305 -4.668,0 -2.3569,-2.02425 -5.4317,-3.37862 -7.2714,-3.33985 z m -104.1329,15.85352 c 0.6821,0.009 1.3675,0.0582 2.0547,0.15039 6.0765,0.81499 11.0977,4.97159 13.8008,11.42383 2.5856,6.17188 2.3904,7.78329 -1.3906,11.56445 -2.9323,2.93182 -4.2849,3.24777 -13,3.03907 -5.35,-0.12814 -12.276,-0.46362 -15.3926,-0.74415 l -5.668,-0.50976 v -5.61328 c 0,-10.50536 9.3649,-19.44891 19.5957,-19.31055 z m -65.2265,0.23828 c 7.7808,-0.0597 16.7469,5.23815 20.3086,13.19336 2.9402,6.56718 1.917,9.37983 -4.1817,11.50586 -4.1761,1.45587 -19.3263,1.77314 -24.4961,0.51367 -4.1754,-1.01732 -7.332,-4.48066 -7.332,-8.04492 0,-5.15137 4.0801,-12.40985 8.5586,-15.22266 2.0864,-1.31038 4.549,-1.92539 7.1426,-1.94531 z m 28.2832,24.83985 c 0.5814,0 1.2816,4.45949 1.5566,9.91015 0.7932,15.70734 3.7775,15.93629 5.1309,0.39453 l 0.8398,-9.63867 2.4512,5.33399 c 1.3485,2.93333 2.7274,8.40469 3.0625,12.16015 0.3353,3.75534 0.092,7.05598 -0.541,7.33399 -0.6329,0.278 -4.6017,0.32552 -8.8184,0.10547 l -7.666,-0.4004 v -8.40039 c 0,-8.4 1.992,-16.79882 3.9844,-16.79882 z"
         style="fill:#000000;stroke-width:1.33333325"
         inkscape:connector-curvature="0" />
      <path
         id="path7296"
         transform="scale(0.238125)"
         d="m 2671.1562,-1347.6152 c -0.9034,-0.3073 -92.4052,151.0713 -94.2988,156.0058 -0.5232,1.3635 77.1895,133.4347 92.3262,156.9063 l 2.0801,3.2246 1.6953,-3.2246 c 0.9317,-1.7738 22.1858,-37.409 47.2324,-79.1895 37.9756,-63.3476 45.3306,-76.4147 44.2793,-78.6679 -2.6958,-5.7781 -92.3321,-154.7205 -93.3145,-155.0547 z m 91.6153,274.3535 -1.9317,4.623 c -1.0626,2.5432 -1.9316,4.9945 -1.9316,5.4473 0,0.454 4.3493,0.4699 9.666,0.037 5.3167,-0.4328 38.466,-2.2926 73.666,-4.1328 97.7695,-5.1113 98.1069,-5.5686 4.2657,-5.7832 z m -179.8633,22.666 -9.668,0.018 c -5.3167,0.01 -47.466,1.5053 -93.666,3.3242 -46.2,1.819 -90.0006,3.3833 -97.334,3.4766 -10.9273,0.1387 -12.3709,0.374 -8,1.3085 2.9334,0.6272 38.3346,1.6477 78.668,2.2657 40.3333,0.6179 86.0826,1.2317 101.666,1.3652 l 28.334,0.2422 v -6 z m 232.666,26.6191 -6.666,6.0957 -6.668,6.0977 30.668,-0.8086 c 25.7315,-0.6776 210.6768,-4.2602 250.4531,-4.8516 27.2755,-0.4055 1.4286,-1.1548 -106.4531,-3.0839 -62.3333,-1.1147 -124.134,-2.3469 -137.334,-2.7383 z m -283.7402,0.5293 c -0.3555,-0.3554 -237.691,8.421 -268.2598,9.92 -17.278,0.8472 14.9281,1.2347 114.9903,1.3867 l 138.9921,0.2129 7.2715,-5.627 c 3.9995,-3.0945 7.1524,-5.746 7.0059,-5.8926 z m 586.3965,20.1543 c -4.5313,0.01 -10.7813,0.083 -17.6563,0.2227 -13.75,0.279 -65.5,1.1022 -115,1.8281 -163.457,2.39699 -624.7857,9.37041 -692.666,10.47072 -43.6571,0.70765 83.6326,1.15466 368.8027,1.29492 l 435.4707,0.21484 14.1954,-6.69726 c 7.8081,-3.68311 14.1972,-6.90262 14.1972,-7.15622 0,-0.1269 -2.8125,-0.1862 -7.3437,-0.1778 z m 186.2265,25.06644 c -51.6779,0.008 -274.1049,0.92578 -538.3886,2.24023 -302.0386,1.50224 -555.7615,2.75576 -563.8282,2.78516 l -14.666,0.0527 -12.666,9.43555 -12.668,9.43555 39.334,-0.8418 c 21.6334,-0.46261 157.5334,-3.23768 302,-6.16602 144.4667,-2.92829 335.2667,-6.79967 424,-8.60351 88.7333,-1.80384 178.1327,-3.60649 198.666,-4.00586 20.5334,-0.3995 46.9347,-1.01055 58.668,-1.35742 11.7333,-0.34684 46.0995,-1.02387 76.3711,-1.50391 30.2716,-0.48004 54.7955,-1.11659 54.4961,-1.41602 -0.037,-0.0375 -3.9358,-0.0558 -11.3184,-0.0547 z m -196.6328,12.10742 c -0.2483,-0.24832 -64.0069,2.24046 -141.6855,5.53125 -117.0938,4.9605 -151.774,5.98429 -202.9004,5.98828 l -61.668,0.004 v 3.66797 c 0,2.01667 -0.6035,22.26668 -1.3379,45 -0.7344,22.73335 -3.4026,115.13201 -5.9297,205.33203 -2.5269,90.19998 -4.9568,171.9513 -5.4004,181.66797 v 0 c -0.4438,9.71666 -0.5364,17.66796 -0.205,17.66796 0.3314,0 4.3824,-5.85001 9.0019,-13 4.6195,-7.14998 24.6856,-37.90064 44.5899,-68.33398 107.1598,-163.84542 127.367,-195.0313 126.7675,-195.63086 -0.3614,-0.36141 -15.1389,2.76255 -32.8379,6.94141 -17.6989,4.17885 -32.3704,7.3944 -32.6035,7.14453 -0.2332,-0.24995 3.3158,-10.05573 7.8867,-21.78906 4.571,-11.73334 16.8762,-43.53267 27.3438,-70.66602 10.4676,-27.13331 19.4139,-50.03944 19.8809,-50.90234 0.5347,-0.98873 15.8117,10.23105 41.3066,30.33398 22.2524,17.54629 41.018,31.90234 41.7012,31.90234 0.6833,0 7.978,-4.90883 16.209,-10.9082 8.2309,-5.99937 28.1654,-20.49379 44.2988,-32.20898 16.1333,-11.71519 33.5326,-24.40323 38.666,-28.19532 5.1333,-3.79208 22.3913,-16.3888 38.3516,-27.99414 15.9601,-11.60533 28.8165,-21.30454 28.5683,-21.55273 z m -540.3262,11.52344 -8.1542,8.33398 c -7.1027,7.25854 -14.3633,19.20846 -56.295,92.65039 -26.4772,46.37418 -48.1406,84.81253 -48.1406,85.41797 0,1.5748 69.7122,50.39563 83.2461,58.29883 4.8919,2.85665 6.3654,3.28197 5.7422,1.6582 -0.461,-1.20126 -2.9979,-15.87417 -5.6387,-32.60547 -2.6408,-16.73129 -5.142,-31.61927 -5.5586,-33.08593 -0.5052,-1.77978 -0.3132,-2.22386 0.5781,-1.33399 0.7347,0.73336 9.7558,22.63272 20.0489,48.66602 10.2931,26.03334 37.1169,93.53331 59.6074,150 22.4907,56.46664 44.5853,112.05889 49.0996,123.53711 4.5143,11.47817 8.372,20.71325 8.5723,20.52343 0.2004,-0.18964 1.5471,-35.07993 2.9922,-77.53515 6.1876,-181.78877 14.6425,-435.89887 14.6425,-440.03711 v -4.48828 h -60.3711 z m -201.1308,7.33398 c -91.2299,0 -165.6462,0.36341 -165.3711,0.8086 0.2752,0.44518 3.6676,1.1637 7.5391,1.5957 8.447,0.94261 236.1224,35.23671 241.373,36.35742 2.4179,0.51612 3.666,1.63478 3.666,3.2832 0,1.37487 -2.9993,27.1554 -6.666,57.28907 -3.6663,30.13089 -6.6674,55.76181 -6.668,56.96093 0.032,1.13793 20.7198,-33.42917 46,-76.86523 25.3,-43.47007 46.0002,-79.1245 46,-79.23242 0,-0.10793 -74.643,-0.19727 -165.873,-0.19727 z"
         style="fill:#000000;stroke-width:1.33333325"
         inkscape:connector-curvature="0" />
    </g>
  </g>
</svg>
