<?xml version="1.0" encoding="UTF-8" standalone="no"?>
<!-- Created with Inkscape (http://www.inkscape.org/) -->

<svg
   xmlns:dc="http://purl.org/dc/elements/1.1/"
   xmlns:cc="http://creativecommons.org/ns#"
   xmlns:rdf="http://www.w3.org/1999/02/22-rdf-syntax-ns#"
   xmlns:svg="http://www.w3.org/2000/svg"
   xmlns="http://www.w3.org/2000/svg"
   xmlns:sodipodi="http://sodipodi.sourceforge.net/DTD/sodipodi-0.dtd"
   xmlns:inkscape="http://www.inkscape.org/namespaces/inkscape"
   width="164.92331mm"
   height="272.52136mm"
   viewBox="0 0 148.43098 245.26922"
   version="1.1"
   id="svg5768"
   inkscape:version="0.92.5 (2060ec1f9f, 2020-04-08)"
   sodipodi:docname="naya.svg">
  <defs
     id="defs5762">
    <inkscape:path-effect
       effect="simplify"
       id="path-effect4565"
       is_visible="true"
       steps="1"
       threshold="0.000408163"
       smooth_angles="360"
       helper_size="0"
       simplify_individual_paths="false"
       simplify_just_coalesce="false"
       simplifyindividualpaths="false"
       simplifyJustCoalesce="false" />
    <inkscape:path-effect
       effect="simplify"
       id="path-effect4543"
       is_visible="true"
       steps="1"
       threshold="0.000408163"
       smooth_angles="360"
       helper_size="0"
       simplify_individual_paths="false"
       simplify_just_coalesce="false"
       simplifyindividualpaths="false"
       simplifyJustCoalesce="false" />
    <inkscape:path-effect
       effect="simplify"
       id="path-effect8619"
       is_visible="true"
       steps="1"
       threshold="0.000408163"
       smooth_angles="360"
       helper_size="0"
       simplify_individual_paths="false"
       simplify_just_coalesce="false"
       simplifyindividualpaths="false"
       simplifyJustCoalesce="false" />
    <inkscape:path-effect
       effect="simplify"
       id="path-effect8615"
       is_visible="true"
       steps="1"
       threshold="0.000408163"
       smooth_angles="360"
       helper_size="0"
       simplify_individual_paths="false"
       simplify_just_coalesce="false"
       simplifyindividualpaths="false"
       simplifyJustCoalesce="false" />
    <inkscape:path-effect
       effect="simplify"
       id="path-effect8611"
       is_visible="true"
       steps="1"
       threshold="0.000408163"
       smooth_angles="360"
       helper_size="0"
       simplify_individual_paths="false"
       simplify_just_coalesce="false"
       simplifyindividualpaths="false"
       simplifyJustCoalesce="false" />
    <inkscape:path-effect
       effect="simplify"
       id="path-effect8607"
       is_visible="true"
       steps="1"
       threshold="0.000408163"
       smooth_angles="360"
       helper_size="0"
       simplify_individual_paths="false"
       simplify_just_coalesce="false"
       simplifyindividualpaths="false"
       simplifyJustCoalesce="false" />
    <inkscape:path-effect
       effect="simplify"
       id="path-effect8600"
       is_visible="true"
       steps="1"
       threshold="0.000408163"
       smooth_angles="360"
       helper_size="0"
       simplify_individual_paths="false"
       simplify_just_coalesce="false"
       simplifyindividualpaths="false"
       simplifyJustCoalesce="false" />
    <inkscape:path-effect
       effect="simplify"
       id="path-effect8584"
       is_visible="true"
       steps="1"
       threshold="0.000408163"
       smooth_angles="360"
       helper_size="0"
       simplify_individual_paths="false"
       simplify_just_coalesce="false"
       simplifyindividualpaths="false"
       simplifyJustCoalesce="false" />
    <inkscape:path-effect
       effect="simplify"
       id="path-effect8571"
       is_visible="true"
       steps="1"
       threshold="0.000408163"
       smooth_angles="360"
       helper_size="0"
       simplify_individual_paths="false"
       simplify_just_coalesce="false"
       simplifyindividualpaths="false"
       simplifyJustCoalesce="false" />
    <inkscape:path-effect
       effect="simplify"
       id="path-effect8556"
       is_visible="true"
       steps="1"
       threshold="0.000408163"
       smooth_angles="360"
       helper_size="0"
       simplify_individual_paths="false"
       simplify_just_coalesce="false"
       simplifyindividualpaths="false"
       simplifyJustCoalesce="false" />
    <inkscape:path-effect
       effect="simplify"
       id="path-effect8532"
       is_visible="true"
       steps="1"
       threshold="0.000408163"
       smooth_angles="360"
       helper_size="0"
       simplify_individual_paths="false"
       simplify_just_coalesce="false"
       simplifyindividualpaths="false"
       simplifyJustCoalesce="false" />
    <inkscape:path-effect
       effect="simplify"
       id="path-effect8528"
       is_visible="true"
       steps="1"
       threshold="0.000408163"
       smooth_angles="360"
       helper_size="0"
       simplify_individual_paths="false"
       simplify_just_coalesce="false"
       simplifyindividualpaths="false"
       simplifyJustCoalesce="false" />
    <inkscape:path-effect
       effect="simplify"
       id="path-effect8524"
       is_visible="true"
       steps="1"
       threshold="0.000408163"
       smooth_angles="360"
       helper_size="0"
       simplify_individual_paths="false"
       simplify_just_coalesce="false"
       simplifyindividualpaths="false"
       simplifyJustCoalesce="false" />
    <inkscape:path-effect
       effect="simplify"
       id="path-effect8449"
       is_visible="true"
       steps="1"
       threshold="0.000408163"
       smooth_angles="360"
       helper_size="0"
       simplify_individual_paths="false"
       simplify_just_coalesce="false"
       simplifyindividualpaths="false"
       simplifyJustCoalesce="false" />
    <inkscape:path-effect
       effect="simplify"
       id="path-effect8443"
       is_visible="true"
       steps="1"
       threshold="0.000408163"
       smooth_angles="360"
       helper_size="0"
       simplify_individual_paths="false"
       simplify_just_coalesce="false"
       simplifyindividualpaths="false"
       simplifyJustCoalesce="false" />
    <inkscape:path-effect
       effect="simplify"
       id="path-effect8434"
       is_visible="true"
       steps="1"
       threshold="0.000408163"
       smooth_angles="360"
       helper_size="0"
       simplify_individual_paths="false"
       simplify_just_coalesce="false"
       simplifyindividualpaths="false"
       simplifyJustCoalesce="false" />
    <inkscape:path-effect
       effect="simplify"
       id="path-effect8422"
       is_visible="true"
       steps="1"
       threshold="0.000408163"
       smooth_angles="360"
       helper_size="0"
       simplify_individual_paths="false"
       simplify_just_coalesce="false"
       simplifyindividualpaths="false"
       simplifyJustCoalesce="false" />
    <inkscape:path-effect
       effect="simplify"
       id="path-effect8418"
       is_visible="true"
       steps="1"
       threshold="0.000408163"
       smooth_angles="360"
       helper_size="0"
       simplify_individual_paths="false"
       simplify_just_coalesce="false"
       simplifyindividualpaths="false"
       simplifyJustCoalesce="false" />
    <inkscape:path-effect
       effect="simplify"
       id="path-effect8413"
       is_visible="true"
       steps="1"
       threshold="0.000408163"
       smooth_angles="360"
       helper_size="0"
       simplify_individual_paths="false"
       simplify_just_coalesce="false"
       simplifyindividualpaths="false"
       simplifyJustCoalesce="false" />
    <inkscape:path-effect
       effect="simplify"
       id="path-effect8391"
       is_visible="true"
       steps="1"
       threshold="0.000408163"
       smooth_angles="360"
       helper_size="0"
       simplify_individual_paths="false"
       simplify_just_coalesce="false"
       simplifyindividualpaths="false"
       simplifyJustCoalesce="false" />
    <inkscape:path-effect
       effect="simplify"
       id="path-effect8114"
       is_visible="true"
       steps="1"
       threshold="0.000408163"
       smooth_angles="360"
       helper_size="0"
       simplify_individual_paths="false"
       simplify_just_coalesce="false"
       simplifyindividualpaths="false"
       simplifyJustCoalesce="false" />
    <inkscape:path-effect
       effect="simplify"
       id="path-effect7808"
       is_visible="true"
       steps="1"
       threshold="0.000408163"
       smooth_angles="360"
       helper_size="0"
       simplify_individual_paths="false"
       simplify_just_coalesce="false"
       simplifyindividualpaths="false"
       simplifyJustCoalesce="false" />
    <inkscape:path-effect
       effect="simplify"
       id="path-effect6980"
       is_visible="true"
       steps="1"
       threshold="0.000408163"
       smooth_angles="360"
       helper_size="0"
       simplify_individual_paths="false"
       simplify_just_coalesce="false"
       simplifyindividualpaths="false"
       simplifyJustCoalesce="false" />
    <inkscape:path-effect
       effect="simplify"
       id="path-effect6741"
       is_visible="true"
       steps="1"
       threshold="0.000408163"
       smooth_angles="360"
       helper_size="0"
       simplify_individual_paths="false"
       simplify_just_coalesce="false"
       simplifyindividualpaths="false"
       simplifyJustCoalesce="false" />
  </defs>
  <sodipodi:namedview
     id="base"
     pagecolor="#ffffff"
     bordercolor="#666666"
     borderopacity="1.0"
     inkscape:pageopacity="0.0"
     inkscape:pageshadow="2"
     inkscape:zoom="0.35355339"
     inkscape:cx="-182.69375"
     inkscape:cy="315.95954"
     inkscape:document-units="mm"
     inkscape:current-layer="layer1"
     showgrid="false"
     inkscape:window-width="1920"
     inkscape:window-height="1012"
     inkscape:window-x="0"
     inkscape:window-y="1080"
     inkscape:window-maximized="1"
     units="mm"
     scale-x="0.9"
     showborder="true"
     inkscape:snap-global="false"
     fit-margin-top="0"
     fit-margin-left="0"
     fit-margin-right="0"
     fit-margin-bottom="0" />
  <metadata
     id="metadata5765">
    <rdf:RDF>
      <cc:Work
         rdf:about="">
        <dc:format>image/svg+xml</dc:format>
        <dc:type
           rdf:resource="http://purl.org/dc/dcmitype/StillImage" />
        <dc:title />
      </cc:Work>
    </rdf:RDF>
  </metadata>
  <g
     inkscape:label="Layer 1"
     inkscape:groupmode="layer"
     id="layer1"
     transform="translate(-756.16913,-39.545493)">
    <path
       style="fill:#000000;stroke-width:1.33333337"
       d="m 552.41797,0 4.63281,6 c 29.43181,38.12586 43.85264,76.708538 41.86524,112 -1.914,33.98787 -15.3981,62.0357 -44.14258,91.8125 -23.16721,23.99933 -56.85782,47.38806 -88.71289,61.58594 -5.50001,2.45148 -10.29945,4.70211 -10.66602,5.00195 -0.36661,0.29984 4.43269,5.26978 10.66602,11.04297 6.23328,5.77323 11.68546,10.51055 12.11523,10.52734 1.5428,0.0609 28.79129,-19.16391 40.55078,-28.60937 79.27858,-63.67786 105.38971,-133.72071 76.6543,-205.625002 -7.62818,-19.088001 -22.5627,-42.376499 -36.5957,-57.0683592 z M 201.64453,1.2421875 c -1.6779,0.40042 -16.75367,18.8297795 -23.19336,28.4316405 -8.1183,12.104824 -17.90901,31.978791 -22.16601,44.994141 -24.69813,75.515091 11.86911,148.686911 107.21875,214.544921 6.90578,4.76997 13.17126,8.69687 13.92187,8.73047 0.75049,0.0336 6.15051,-4.81209 12,-10.76367 7.63859,-7.77201 10.07124,-11.0194 8.63477,-11.52539 -7.482,-2.63559 -40.0959,-20.53415 -52.44336,-28.78125 C 196.58348,214.12239 166.89606,176.03904 158.64258,135.30664 155.31424,118.87981 156.51779,92.139717 161.3125,76 c 6.28011,-21.140284 19.92635,-47.248121 34.38086,-65.777344 3.62347,-4.6447873 6.35657,-8.6770485 6.07226,-8.9609372 -0.0252,-0.025617 -0.0673,-0.03255 -0.12109,-0.019531 z m 175.6543,72.9570315 c -0.38845,-0.06408 -0.99528,0.728632 -1.44727,1.943359 -0.51649,1.388263 -13.13617,34.315502 -28.04297,73.169922 l -27.10351,70.64453 28.33789,28.35938 28.33594,28.35937 L 405.6582,248.33789 433.9375,220 406.02539,147.4707 c -15.35181,-39.89124 -28.2105,-72.825767 -28.57422,-73.18945 -0.0449,-0.04548 -0.0969,-0.07292 -0.15234,-0.08203 z M 534.56055,299.33398 c -0.65449,0 -13.74578,12.56658 -29.0918,27.92579 l -27.90234,27.92578 27.91406,27.98047 c 15.35269,15.3888 28.17994,28.02214 28.50586,28.07421 1.04231,0.16672 89.28023,-55.20509 89.3457,-56.0664 0.076,-1.0083 -87.09299,-55.83985 -88.77148,-55.83985 z m -157.14453,12 -28.34375,28.32227 -28.34571,28.32227 28.32227,28.34375 28.32226,28.3457 28.34571,-28.32227 28.34375,-28.32226 -28.32227,-28.34375 z m -144.02149,0.11914 -102.66797,24.61915 c -56.466604,13.54011 -109.265341,26.2066 -117.332029,28.14843 -8.0667298,1.94188 -14.06729649,3.72993 -13.33398413,3.97266 0.73339636,0.24273 50.23327813,12.1457 110.00000313,26.45117 59.76668,14.30547 111.96669,26.8304 116,27.83399 l 7.33398,1.82421 28.21289,-28.01953 c 15.51761,-15.41106 27.86518,-28.67904 27.4375,-29.48437 -0.4278,-0.80546 -13.12504,-13.58721 -28.21484,-28.4043 z m 204.24024,108.21876 c -0.22594,-0.008 -0.36245,0.008 -0.40235,0.0469 -0.31748,0.31748 4.08771,2.23121 9.79102,4.25195 19.6359,6.95673 34.68722,16.1333 44.66992,27.23633 22.31509,24.81974 15.47931,56.64382 -20.1875,93.98438 -8.00399,8.37976 -27.09351,25.14383 -34.6875,30.46289 -2.78081,1.94776 -3.59085,5.28021 -8.23438,33.91992 -2.83216,17.46814 -5.15732,32.55205 -5.16992,33.51953 -0.0252,2.19574 15.22,-10.33951 37.17969,-30.57031 52.28271,-48.16626 78.8414,-93.57897 73.51563,-125.70508 -4.9915,-30.10986 -33.76626,-52.60677 -82.21876,-64.2832 -6.77711,-1.63322 -12.67454,-2.80794 -14.25585,-2.86328 z m -60.26368,39.6621 -28.30664,28.33399 -28.30859,28.33398 27.98633,219.8086 c 15.392,120.89504 28.05529,220.49581 28.14062,221.33398 0.41155,4.05531 -1.97885,22.516 40.45508,-312.47656 8.40659,-66.36666 15.5553,-122.52427 15.88672,-124.79492 0.56269,-3.85697 -1.25498,-5.98547 -27.625,-32.33399 z m -52.66797,141.43946 -5.65429,2.44922 c -25.74043,11.15254 -60.19876,29.50443 -82.32227,43.84375 -17.42492,11.29402 -20.14576,13.40451 -31.53515,24.45703 -13.22071,12.82948 -14.06026,18.84982 -3.97657,28.51172 11.98711,11.48569 38.24463,22.43591 99.48243,41.48632 22.35019,6.95295 40.90055,12.90447 41.22265,13.22657 1.91206,1.91198 2.93988,-0.0815 2.27539,-4.41407 -0.42171,-2.74998 -1.39982,-10.39997 -2.17383,-17 -0.774,-6.59997 -1.66842,-13.24732 -1.98632,-14.77148 -0.46741,-2.24239 -4.71621,-4.25085 -22.27539,-10.53125 -31.19921,-11.1588 -46.36524,-18.80108 -46.36524,-23.36523 0,-2.2516 16.00638,-12.14509 38.22656,-23.62696 l 21.95508,-11.3457 -0.74414,-4.8457 c -0.40903,-2.66545 -1.65772,-12.34698 -2.77344,-21.51368 -1.1158,-9.16665 -2.32609,-17.9922 -2.6914,-19.61328 z m 88.18165,141.22851 c -1.39322,0 -2.10544,3.65831 -4.39063,22.54688 -1.58501,13.10173 -1.54167,13.96424 0.79492,15.33398 18.1611,10.64626 24.77149,17.7646 24.77149,26.67383 0,4.54052 -0.87618,6.11115 -6.33399,11.36914 -3.48329,3.35589 -11.28201,8.67585 -17.33203,11.82227 -6.05001,3.14654 -11.02197,6.1415 -11.04297,6.65429 -0.021,0.51293 -0.90355,7.23165 -1.95703,14.93164 -1.05352,7.69999 -1.93799,14.45004 -1.95898,15 -0.0588,1.39973 -1.85483,1.91132 28.76757,-8.17578 55.45521,-18.26721 79.54849,-30.00365 87.41797,-42.58008 9.6181,-15.37091 -11.46662,-35.96692 -58.89453,-57.5332 -15.06142,-6.8488 -37.89479,-16.04297 -39.84179,-16.04297 z m -57.03516,110.32227 c -0.15558,-0.007 -0.33198,-0.004 -0.53125,0.008 -3.4539,0.21123 -13.63813,3.31849 -36.11914,10.89649 -86.34323,29.10547 -100.13646,44.47273 -62.63086,69.78125 18.73508,12.64239 38.91807,21.03484 87.49219,36.37695 14.66666,4.6324 27.18676,8.46429 27.82226,8.51758 1.08531,0.0899 -0.0378,-15.84312 -1.35937,-19.28711 -0.5755,-1.4998 -16.48668,-6.40363 -55.79688,-17.19922 -21.06969,-5.78629 -33.56687,-11.75324 -37.00976,-17.66992 -2.24668,-3.86113 -2.29259,-4.60661 -0.49219,-8.08789 4.18289,-8.08912 22.84031,-17.45401 59.33203,-29.78321 19.69911,-6.65558 24.13055,-8.60068 23.61133,-10.36718 -0.3515,-1.19618 -1.04163,-6.45408 -1.53125,-11.6836 -0.48958,-5.22948 -1.35923,-10.26788 -1.9336,-11.19726 -0.11149,-0.18048 -0.38678,-0.28444 -0.85351,-0.30469 z m 28.24414,109.60156 -0.89453,3.3457 c -0.49189,1.83958 -1.09894,6.1013 -1.34961,9.47071 l -0.45508,6.125 11.43555,4.42773 c 15.51408,6.00618 23.48014,10.17773 31.42383,16.45708 8.0396,6.3549 11.14062,12.3264 11.14062,21.4511 0,3.7392 0.2738,6.7989 0.60938,6.7989 0.33595,0 2.13581,-2.604 4,-5.7852 4.19838,-7.164 4.49751,-16.151 0.77929,-23.4395 -4.84388,-9.49468 -17.77638,-19.56011 -38.03906,-29.60542 z"
       transform="matrix(0.23812499,0,0,0.23812499,756.16916,39.545493)"
       id="path7632"
       inkscape:connector-curvature="0" />
  </g>
</svg>
