<?xml version="1.0" encoding="UTF-8" standalone="no"?>
<!-- Created with Inkscape (http://www.inkscape.org/) -->

<svg
   xmlns:dc="http://purl.org/dc/elements/1.1/"
   xmlns:cc="http://creativecommons.org/ns#"
   xmlns:rdf="http://www.w3.org/1999/02/22-rdf-syntax-ns#"
   xmlns:svg="http://www.w3.org/2000/svg"
   xmlns="http://www.w3.org/2000/svg"
   xmlns:sodipodi="http://sodipodi.sourceforge.net/DTD/sodipodi-0.dtd"
   xmlns:inkscape="http://www.inkscape.org/namespaces/inkscape"
   width="246.17924mm"
   height="246.85535mm"
   viewBox="0 0 221.56132 222.1698"
   version="1.1"
   id="svg5768"
   inkscape:version="0.92.5 (2060ec1f9f, 2020-04-08)"
   sodipodi:docname="orzhov.svg">
  <defs
     id="defs5762">
    <inkscape:path-effect
       effect="simplify"
       id="path-effect4565"
       is_visible="true"
       steps="1"
       threshold="0.000408163"
       smooth_angles="360"
       helper_size="0"
       simplify_individual_paths="false"
       simplify_just_coalesce="false"
       simplifyindividualpaths="false"
       simplifyJustCoalesce="false" />
    <inkscape:path-effect
       effect="simplify"
       id="path-effect4543"
       is_visible="true"
       steps="1"
       threshold="0.000408163"
       smooth_angles="360"
       helper_size="0"
       simplify_individual_paths="false"
       simplify_just_coalesce="false"
       simplifyindividualpaths="false"
       simplifyJustCoalesce="false" />
    <inkscape:path-effect
       effect="simplify"
       id="path-effect8619"
       is_visible="true"
       steps="1"
       threshold="0.000408163"
       smooth_angles="360"
       helper_size="0"
       simplify_individual_paths="false"
       simplify_just_coalesce="false"
       simplifyindividualpaths="false"
       simplifyJustCoalesce="false" />
    <inkscape:path-effect
       effect="simplify"
       id="path-effect8615"
       is_visible="true"
       steps="1"
       threshold="0.000408163"
       smooth_angles="360"
       helper_size="0"
       simplify_individual_paths="false"
       simplify_just_coalesce="false"
       simplifyindividualpaths="false"
       simplifyJustCoalesce="false" />
    <inkscape:path-effect
       effect="simplify"
       id="path-effect8611"
       is_visible="true"
       steps="1"
       threshold="0.000408163"
       smooth_angles="360"
       helper_size="0"
       simplify_individual_paths="false"
       simplify_just_coalesce="false"
       simplifyindividualpaths="false"
       simplifyJustCoalesce="false" />
    <inkscape:path-effect
       effect="simplify"
       id="path-effect8607"
       is_visible="true"
       steps="1"
       threshold="0.000408163"
       smooth_angles="360"
       helper_size="0"
       simplify_individual_paths="false"
       simplify_just_coalesce="false"
       simplifyindividualpaths="false"
       simplifyJustCoalesce="false" />
    <inkscape:path-effect
       effect="simplify"
       id="path-effect8600"
       is_visible="true"
       steps="1"
       threshold="0.000408163"
       smooth_angles="360"
       helper_size="0"
       simplify_individual_paths="false"
       simplify_just_coalesce="false"
       simplifyindividualpaths="false"
       simplifyJustCoalesce="false" />
    <inkscape:path-effect
       effect="simplify"
       id="path-effect8584"
       is_visible="true"
       steps="1"
       threshold="0.000408163"
       smooth_angles="360"
       helper_size="0"
       simplify_individual_paths="false"
       simplify_just_coalesce="false"
       simplifyindividualpaths="false"
       simplifyJustCoalesce="false" />
    <inkscape:path-effect
       effect="simplify"
       id="path-effect8571"
       is_visible="true"
       steps="1"
       threshold="0.000408163"
       smooth_angles="360"
       helper_size="0"
       simplify_individual_paths="false"
       simplify_just_coalesce="false"
       simplifyindividualpaths="false"
       simplifyJustCoalesce="false" />
    <inkscape:path-effect
       effect="simplify"
       id="path-effect8556"
       is_visible="true"
       steps="1"
       threshold="0.000408163"
       smooth_angles="360"
       helper_size="0"
       simplify_individual_paths="false"
       simplify_just_coalesce="false"
       simplifyindividualpaths="false"
       simplifyJustCoalesce="false" />
    <inkscape:path-effect
       effect="simplify"
       id="path-effect8532"
       is_visible="true"
       steps="1"
       threshold="0.000408163"
       smooth_angles="360"
       helper_size="0"
       simplify_individual_paths="false"
       simplify_just_coalesce="false"
       simplifyindividualpaths="false"
       simplifyJustCoalesce="false" />
    <inkscape:path-effect
       effect="simplify"
       id="path-effect8528"
       is_visible="true"
       steps="1"
       threshold="0.000408163"
       smooth_angles="360"
       helper_size="0"
       simplify_individual_paths="false"
       simplify_just_coalesce="false"
       simplifyindividualpaths="false"
       simplifyJustCoalesce="false" />
    <inkscape:path-effect
       effect="simplify"
       id="path-effect8524"
       is_visible="true"
       steps="1"
       threshold="0.000408163"
       smooth_angles="360"
       helper_size="0"
       simplify_individual_paths="false"
       simplify_just_coalesce="false"
       simplifyindividualpaths="false"
       simplifyJustCoalesce="false" />
    <inkscape:path-effect
       effect="simplify"
       id="path-effect8449"
       is_visible="true"
       steps="1"
       threshold="0.000408163"
       smooth_angles="360"
       helper_size="0"
       simplify_individual_paths="false"
       simplify_just_coalesce="false"
       simplifyindividualpaths="false"
       simplifyJustCoalesce="false" />
    <inkscape:path-effect
       effect="simplify"
       id="path-effect8443"
       is_visible="true"
       steps="1"
       threshold="0.000408163"
       smooth_angles="360"
       helper_size="0"
       simplify_individual_paths="false"
       simplify_just_coalesce="false"
       simplifyindividualpaths="false"
       simplifyJustCoalesce="false" />
    <inkscape:path-effect
       effect="simplify"
       id="path-effect8434"
       is_visible="true"
       steps="1"
       threshold="0.000408163"
       smooth_angles="360"
       helper_size="0"
       simplify_individual_paths="false"
       simplify_just_coalesce="false"
       simplifyindividualpaths="false"
       simplifyJustCoalesce="false" />
    <inkscape:path-effect
       effect="simplify"
       id="path-effect8422"
       is_visible="true"
       steps="1"
       threshold="0.000408163"
       smooth_angles="360"
       helper_size="0"
       simplify_individual_paths="false"
       simplify_just_coalesce="false"
       simplifyindividualpaths="false"
       simplifyJustCoalesce="false" />
    <inkscape:path-effect
       effect="simplify"
       id="path-effect8418"
       is_visible="true"
       steps="1"
       threshold="0.000408163"
       smooth_angles="360"
       helper_size="0"
       simplify_individual_paths="false"
       simplify_just_coalesce="false"
       simplifyindividualpaths="false"
       simplifyJustCoalesce="false" />
    <inkscape:path-effect
       effect="simplify"
       id="path-effect8413"
       is_visible="true"
       steps="1"
       threshold="0.000408163"
       smooth_angles="360"
       helper_size="0"
       simplify_individual_paths="false"
       simplify_just_coalesce="false"
       simplifyindividualpaths="false"
       simplifyJustCoalesce="false" />
    <inkscape:path-effect
       effect="simplify"
       id="path-effect8391"
       is_visible="true"
       steps="1"
       threshold="0.000408163"
       smooth_angles="360"
       helper_size="0"
       simplify_individual_paths="false"
       simplify_just_coalesce="false"
       simplifyindividualpaths="false"
       simplifyJustCoalesce="false" />
    <inkscape:path-effect
       effect="simplify"
       id="path-effect8114"
       is_visible="true"
       steps="1"
       threshold="0.000408163"
       smooth_angles="360"
       helper_size="0"
       simplify_individual_paths="false"
       simplify_just_coalesce="false"
       simplifyindividualpaths="false"
       simplifyJustCoalesce="false" />
    <inkscape:path-effect
       effect="simplify"
       id="path-effect7808"
       is_visible="true"
       steps="1"
       threshold="0.000408163"
       smooth_angles="360"
       helper_size="0"
       simplify_individual_paths="false"
       simplify_just_coalesce="false"
       simplifyindividualpaths="false"
       simplifyJustCoalesce="false" />
    <inkscape:path-effect
       effect="simplify"
       id="path-effect6980"
       is_visible="true"
       steps="1"
       threshold="0.000408163"
       smooth_angles="360"
       helper_size="0"
       simplify_individual_paths="false"
       simplify_just_coalesce="false"
       simplifyindividualpaths="false"
       simplifyJustCoalesce="false" />
    <inkscape:path-effect
       effect="simplify"
       id="path-effect6741"
       is_visible="true"
       steps="1"
       threshold="0.000408163"
       smooth_angles="360"
       helper_size="0"
       simplify_individual_paths="false"
       simplify_just_coalesce="false"
       simplifyindividualpaths="false"
       simplifyJustCoalesce="false" />
  </defs>
  <sodipodi:namedview
     id="base"
     pagecolor="#ffffff"
     bordercolor="#666666"
     borderopacity="1.0"
     inkscape:pageopacity="0.0"
     inkscape:pageshadow="2"
     inkscape:zoom="0.088388348"
     inkscape:cx="-5466.6067"
     inkscape:cy="-1451.3971"
     inkscape:document-units="mm"
     inkscape:current-layer="layer1"
     showgrid="false"
     inkscape:window-width="1920"
     inkscape:window-height="1012"
     inkscape:window-x="0"
     inkscape:window-y="1080"
     inkscape:window-maximized="1"
     units="mm"
     scale-x="0.9"
     showborder="true"
     inkscape:snap-global="false" />
  <metadata
     id="metadata5765">
    <rdf:RDF>
      <cc:Work
         rdf:about="">
        <dc:format>image/svg+xml</dc:format>
        <dc:type
           rdf:resource="http://purl.org/dc/dcmitype/StillImage" />
        <dc:title />
      </cc:Work>
    </rdf:RDF>
  </metadata>
  <g
     inkscape:label="Layer 1"
     inkscape:groupmode="layer"
     id="layer1"
     transform="translate(-2215.9517,-386.44522)">
    <path
       style="fill:#000000;stroke-width:15.02942848"
       d="m 9766.373,1622.8672 c -1.8225,-0.017 -3.6786,1.7059 -5.5566,5.1933 -6.3118,11.7208 -16.1666,66.5603 -21.8984,121.8653 -8.1113,78.2636 -15.1753,98.7306 -31.8653,92.3262 -11.7942,-4.5258 -21.4433,-0.7425 -21.4433,8.4082 0,9.1504 -13.5265,16.6367 -30.0586,16.6367 -16.5325,0 -30.0586,6.8607 -30.0586,15.2441 0,8.3835 -27.1893,-2.7517 -60.4219,-24.7441 -33.2334,-21.9924 -64.4481,-35.9624 -69.3652,-31.0449 -4.9176,4.9174 11.9917,34.3345 37.5761,65.373 25.5845,31.0385 41.5699,60.1306 35.5235,64.6484 -6.0464,4.5184 -20.4057,26.4909 -31.9102,48.8262 -12.1625,23.6146 -37.312,43.6501 -60.0937,47.877 -21.5475,3.9979 -72.4449,11.672 -113.1055,17.0527 -48.2427,6.3841 -66.9216,14.1129 -53.7617,22.2461 11.0912,6.8549 65.8814,17.0548 121.7559,22.666 78.4424,7.8776 99.7443,15.0157 93.4863,31.3242 -4.4578,11.6167 -0.6194,21.1211 8.5312,21.1211 9.1507,0 16.6387,12.963 16.6387,28.8067 0,15.8434 6.5942,31.0591 14.6543,33.8144 8.0596,2.7554 -6.3969,37.3334 -32.125,76.8399 -25.7281,39.5064 -43.5582,75.0488 -39.625,78.9824 3.9336,3.9336 26.843,-10.1654 50.9102,-31.3301 24.0671,-21.1647 55.595,-45.1086 70.0605,-53.209 17.3627,-9.7223 26.3008,-9.5998 26.3008,0.3594 0,8.2975 8.4543,12.1076 18.7871,8.4668 10.3328,-3.6409 30.6224,2.3893 45.0879,13.4004 15.8908,12.0959 29.66,49.1077 34.7871,93.5097 4.6669,40.4198 12.4211,90.3991 17.2324,111.0645 8.7383,37.5326 8.761,37.5254 20.9395,-7.5137 6.7053,-24.7985 16.2727,-77.2141 21.2617,-116.4785 6.0833,-47.8839 16.1896,-71.3906 30.6933,-71.3906 11.893,0 21.6231,-5.9733 21.6231,-13.2754 0,-7.3021 14.4814,-17.0631 32.1797,-21.6914 21.057,-5.5065 49.6282,4.8938 82.6621,30.0898 27.7652,21.1776 50.4826,31.3256 50.4826,22.5508 0,-8.7748 -14.195,-40.0119 -31.5432,-69.416 -17.5391,-29.7265 -24.2129,-53.4629 -15.0312,-53.4629 9.0826,0 16.5156,-13.1272 16.5156,-29.1719 0,-16.0444 6.8724,-33.4192 15.2738,-38.6113 8.402,-5.1921 11.721,-15.1918 7.377,-22.2207 -4.344,-7.0289 37.816,-17.1865 93.689,-22.5723 55.873,-5.3857 111.732,-13.4813 124.131,-17.9902 16.324,-5.9361 12.178,-11.5452 -15.029,-20.3281 -20.665,-6.6713 -76.306,-16.4955 -123.645,-21.8321 -47.341,-5.3367 -85.157,-14.3089 -84.035,-19.9375 1.122,-5.6287 -3.615,-23.7586 -10.5235,-40.291 -6.909,-16.5323 -17.993,-33.7589 -24.6328,-38.2793 -6.6398,-4.5202 4.9469,-33.264 25.7461,-63.875 20.8012,-30.6109 32.5032,-55.6108 26.0062,-55.5566 -6.499,0.055 -31.3183,12.9564 -55.1566,28.6719 -42.185,27.8107 -44.6522,27.8369 -92.4922,0.9668 -27.0345,-15.184 -52.5135,-24.2486 -56.6172,-20.1446 -4.1046,4.1043 -11.515,-20.0463 -16.4687,-53.6679 -4.9537,-33.6218 -13.1752,-89.3206 -18.2696,-123.7735 -4.5467,-30.7525 -9.7115,-46.4709 -15.1797,-46.5234 z m 1.6582,181.8984 c 0.929,-0.045 1.9786,1.9339 3.086,6.1719 3.7799,14.4659 3.7799,38.1377 0,52.6035 -3.7804,14.4659 -6.8731,2.6289 -6.8731,-26.3027 0,-19.8905 1.461,-31.6994 3.6036,-32.4375 0.059,-0.021 0.1225,-0.033 0.1855,-0.033 z m -208.3164,73.4903 c 1.6117,-0.022 3.5547,0.5057 5.6485,1.6621 8.375,4.6249 35,44 35,44 0,0 -33.375,-22.2501 -41.375,-32.75 -5.9657,-7.83 -4.1084,-12.8455 0.7265,-12.9121 z m 413.8399,4.6855 c 4.2011,0.1643 5.4982,4.6191 2.4629,10.1152 -4.6249,8.3751 -44,35 -44,35 0,0 22.252,-33.375 32.7519,-41.375 3.5887,-2.7342 6.5846,-3.8263 8.7852,-3.7402 z m -202.5,67.8301 a 138.59295,138.59295 0 0 1 138.5918,138.5937 138.59295,138.59295 0 0 1 -138.5918,138.5938 138.59295,138.59295 0 0 1 -138.5938,-138.5938 138.59295,138.59295 0 0 1 138.5938,-138.5937 z m -250.7676,128.7715 c 9.5341,0 19.0676,0.9458 26.3008,2.8359 14.4655,3.7803 2.6307,6.8731 -26.3008,6.8731 -28.9319,0 -40.7687,-3.0928 -26.3027,-6.8731 7.2327,-1.8901 16.7682,-2.8359 26.3027,-2.8359 z m 509.1969,0.086 c 8.172,0.1008 15.787,1.1935 20.875,3.252 10.175,4.1169 -1.79,7.2338 -26.588,6.9277 -24.7983,-0.3061 -33.1225,-3.6738 -18.5,-7.4844 7.311,-1.9053 16.041,-2.7962 24.213,-2.6953 z m -404.1988,163.3203 c 0.088,0.01 0.1608,0.034 0.207,0.084 0.7756,0.7758 -3.7661,6.8684 -13.1133,18.7871 -11.3449,14.4659 -23.1801,26.3008 -26.3008,26.3008 -3.121,0 -5.6738,-2.553 -5.6738,-5.6738 0,-3.121 11.8348,-14.9559 26.3008,-26.3008 11.1739,-8.7631 17.2278,-13.3032 18.5801,-13.1973 z m 296.8632,8.5742 c 0,0 33.375,22.2501 41.375,32.75 7.9543,10.4399 2.0001,15.8753 -6.375,11.25 -8.375,-4.6248 -35,-44 -35,-44 z m -154.4902,63.4903 c 1.0625,0.086 2.2635,2.4127 3.5137,7.2109 3.8106,14.6231 3.5597,34.9125 -0.5567,45.0879 -4.1171,10.1754 -7.2343,-1.7893 -6.9277,-26.5879 0.1932,-15.4991 1.581,-24.5628 3.5254,-25.6113 0.147,-0.079 0.2924,-0.1118 0.4453,-0.1 z"
       transform="scale(0.238125)"
       id="path8110"
       inkscape:connector-curvature="0" />
  </g>
</svg>
