<?xml version="1.0" encoding="UTF-8" standalone="no"?>
<!-- Created with Inkscape (http://www.inkscape.org/) -->

<svg
   xmlns:dc="http://purl.org/dc/elements/1.1/"
   xmlns:cc="http://creativecommons.org/ns#"
   xmlns:rdf="http://www.w3.org/1999/02/22-rdf-syntax-ns#"
   xmlns:svg="http://www.w3.org/2000/svg"
   xmlns="http://www.w3.org/2000/svg"
   xmlns:sodipodi="http://sodipodi.sourceforge.net/DTD/sodipodi-0.dtd"
   xmlns:inkscape="http://www.inkscape.org/namespaces/inkscape"
   width="278.68326mm"
   height="193.453mm"
   viewBox="0 0 250.81493 174.10769"
   version="1.1"
   id="svg5768"
   inkscape:version="0.92.5 (2060ec1f9f, 2020-04-08)"
   sodipodi:docname="rakdos.svg">
  <defs
     id="defs5762">
    <inkscape:path-effect
       effect="simplify"
       id="path-effect4565"
       is_visible="true"
       steps="1"
       threshold="0.000408163"
       smooth_angles="360"
       helper_size="0"
       simplify_individual_paths="false"
       simplify_just_coalesce="false"
       simplifyindividualpaths="false"
       simplifyJustCoalesce="false" />
    <inkscape:path-effect
       effect="simplify"
       id="path-effect4543"
       is_visible="true"
       steps="1"
       threshold="0.000408163"
       smooth_angles="360"
       helper_size="0"
       simplify_individual_paths="false"
       simplify_just_coalesce="false"
       simplifyindividualpaths="false"
       simplifyJustCoalesce="false" />
    <inkscape:path-effect
       effect="simplify"
       id="path-effect8619"
       is_visible="true"
       steps="1"
       threshold="0.000408163"
       smooth_angles="360"
       helper_size="0"
       simplify_individual_paths="false"
       simplify_just_coalesce="false"
       simplifyindividualpaths="false"
       simplifyJustCoalesce="false" />
    <inkscape:path-effect
       effect="simplify"
       id="path-effect8615"
       is_visible="true"
       steps="1"
       threshold="0.000408163"
       smooth_angles="360"
       helper_size="0"
       simplify_individual_paths="false"
       simplify_just_coalesce="false"
       simplifyindividualpaths="false"
       simplifyJustCoalesce="false" />
    <inkscape:path-effect
       effect="simplify"
       id="path-effect8611"
       is_visible="true"
       steps="1"
       threshold="0.000408163"
       smooth_angles="360"
       helper_size="0"
       simplify_individual_paths="false"
       simplify_just_coalesce="false"
       simplifyindividualpaths="false"
       simplifyJustCoalesce="false" />
    <inkscape:path-effect
       effect="simplify"
       id="path-effect8607"
       is_visible="true"
       steps="1"
       threshold="0.000408163"
       smooth_angles="360"
       helper_size="0"
       simplify_individual_paths="false"
       simplify_just_coalesce="false"
       simplifyindividualpaths="false"
       simplifyJustCoalesce="false" />
    <inkscape:path-effect
       effect="simplify"
       id="path-effect8600"
       is_visible="true"
       steps="1"
       threshold="0.000408163"
       smooth_angles="360"
       helper_size="0"
       simplify_individual_paths="false"
       simplify_just_coalesce="false"
       simplifyindividualpaths="false"
       simplifyJustCoalesce="false" />
    <inkscape:path-effect
       effect="simplify"
       id="path-effect8584"
       is_visible="true"
       steps="1"
       threshold="0.000408163"
       smooth_angles="360"
       helper_size="0"
       simplify_individual_paths="false"
       simplify_just_coalesce="false"
       simplifyindividualpaths="false"
       simplifyJustCoalesce="false" />
    <inkscape:path-effect
       effect="simplify"
       id="path-effect8571"
       is_visible="true"
       steps="1"
       threshold="0.000408163"
       smooth_angles="360"
       helper_size="0"
       simplify_individual_paths="false"
       simplify_just_coalesce="false"
       simplifyindividualpaths="false"
       simplifyJustCoalesce="false" />
    <inkscape:path-effect
       effect="simplify"
       id="path-effect8556"
       is_visible="true"
       steps="1"
       threshold="0.000408163"
       smooth_angles="360"
       helper_size="0"
       simplify_individual_paths="false"
       simplify_just_coalesce="false"
       simplifyindividualpaths="false"
       simplifyJustCoalesce="false" />
    <inkscape:path-effect
       effect="simplify"
       id="path-effect8532"
       is_visible="true"
       steps="1"
       threshold="0.000408163"
       smooth_angles="360"
       helper_size="0"
       simplify_individual_paths="false"
       simplify_just_coalesce="false"
       simplifyindividualpaths="false"
       simplifyJustCoalesce="false" />
    <inkscape:path-effect
       effect="simplify"
       id="path-effect8528"
       is_visible="true"
       steps="1"
       threshold="0.000408163"
       smooth_angles="360"
       helper_size="0"
       simplify_individual_paths="false"
       simplify_just_coalesce="false"
       simplifyindividualpaths="false"
       simplifyJustCoalesce="false" />
    <inkscape:path-effect
       effect="simplify"
       id="path-effect8524"
       is_visible="true"
       steps="1"
       threshold="0.000408163"
       smooth_angles="360"
       helper_size="0"
       simplify_individual_paths="false"
       simplify_just_coalesce="false"
       simplifyindividualpaths="false"
       simplifyJustCoalesce="false" />
    <inkscape:path-effect
       effect="simplify"
       id="path-effect8449"
       is_visible="true"
       steps="1"
       threshold="0.000408163"
       smooth_angles="360"
       helper_size="0"
       simplify_individual_paths="false"
       simplify_just_coalesce="false"
       simplifyindividualpaths="false"
       simplifyJustCoalesce="false" />
    <inkscape:path-effect
       effect="simplify"
       id="path-effect8443"
       is_visible="true"
       steps="1"
       threshold="0.000408163"
       smooth_angles="360"
       helper_size="0"
       simplify_individual_paths="false"
       simplify_just_coalesce="false"
       simplifyindividualpaths="false"
       simplifyJustCoalesce="false" />
    <inkscape:path-effect
       effect="simplify"
       id="path-effect8434"
       is_visible="true"
       steps="1"
       threshold="0.000408163"
       smooth_angles="360"
       helper_size="0"
       simplify_individual_paths="false"
       simplify_just_coalesce="false"
       simplifyindividualpaths="false"
       simplifyJustCoalesce="false" />
    <inkscape:path-effect
       effect="simplify"
       id="path-effect8422"
       is_visible="true"
       steps="1"
       threshold="0.000408163"
       smooth_angles="360"
       helper_size="0"
       simplify_individual_paths="false"
       simplify_just_coalesce="false"
       simplifyindividualpaths="false"
       simplifyJustCoalesce="false" />
    <inkscape:path-effect
       effect="simplify"
       id="path-effect8418"
       is_visible="true"
       steps="1"
       threshold="0.000408163"
       smooth_angles="360"
       helper_size="0"
       simplify_individual_paths="false"
       simplify_just_coalesce="false"
       simplifyindividualpaths="false"
       simplifyJustCoalesce="false" />
    <inkscape:path-effect
       effect="simplify"
       id="path-effect8413"
       is_visible="true"
       steps="1"
       threshold="0.000408163"
       smooth_angles="360"
       helper_size="0"
       simplify_individual_paths="false"
       simplify_just_coalesce="false"
       simplifyindividualpaths="false"
       simplifyJustCoalesce="false" />
    <inkscape:path-effect
       effect="simplify"
       id="path-effect8391"
       is_visible="true"
       steps="1"
       threshold="0.000408163"
       smooth_angles="360"
       helper_size="0"
       simplify_individual_paths="false"
       simplify_just_coalesce="false"
       simplifyindividualpaths="false"
       simplifyJustCoalesce="false" />
    <inkscape:path-effect
       effect="simplify"
       id="path-effect8114"
       is_visible="true"
       steps="1"
       threshold="0.000408163"
       smooth_angles="360"
       helper_size="0"
       simplify_individual_paths="false"
       simplify_just_coalesce="false"
       simplifyindividualpaths="false"
       simplifyJustCoalesce="false" />
    <inkscape:path-effect
       effect="simplify"
       id="path-effect7808"
       is_visible="true"
       steps="1"
       threshold="0.000408163"
       smooth_angles="360"
       helper_size="0"
       simplify_individual_paths="false"
       simplify_just_coalesce="false"
       simplifyindividualpaths="false"
       simplifyJustCoalesce="false" />
    <inkscape:path-effect
       effect="simplify"
       id="path-effect6980"
       is_visible="true"
       steps="1"
       threshold="0.000408163"
       smooth_angles="360"
       helper_size="0"
       simplify_individual_paths="false"
       simplify_just_coalesce="false"
       simplifyindividualpaths="false"
       simplifyJustCoalesce="false" />
    <inkscape:path-effect
       effect="simplify"
       id="path-effect6741"
       is_visible="true"
       steps="1"
       threshold="0.000408163"
       smooth_angles="360"
       helper_size="0"
       simplify_individual_paths="false"
       simplify_just_coalesce="false"
       simplifyindividualpaths="false"
       simplifyJustCoalesce="false" />
  </defs>
  <sodipodi:namedview
     id="base"
     pagecolor="#ffffff"
     bordercolor="#666666"
     borderopacity="1.0"
     inkscape:pageopacity="0.0"
     inkscape:pageshadow="2"
     inkscape:zoom="0.088388348"
     inkscape:cx="-4172.4135"
     inkscape:cy="451.11168"
     inkscape:document-units="mm"
     inkscape:current-layer="layer1"
     showgrid="false"
     inkscape:window-width="1920"
     inkscape:window-height="1012"
     inkscape:window-x="0"
     inkscape:window-y="1080"
     inkscape:window-maximized="1"
     units="mm"
     scale-x="0.9"
     showborder="true"
     inkscape:snap-global="false" />
  <metadata
     id="metadata5765">
    <rdf:RDF>
      <cc:Work
         rdf:about="">
        <dc:format>image/svg+xml</dc:format>
        <dc:type
           rdf:resource="http://purl.org/dc/dcmitype/StillImage" />
        <dc:title />
      </cc:Work>
    </rdf:RDF>
  </metadata>
  <g
     inkscape:label="Layer 1"
     inkscape:groupmode="layer"
     id="layer1"
     transform="translate(-1398.5914,-938.72968)">
    <path
       style="fill:#000000;stroke-width:15.02942848"
       d="m 6308.1465,3942.1719 c -7.0194,0.108 -5.4746,10.3046 0.123,35.791 8.0941,36.8513 1.214,51.0813 -45.0507,93.1816 -46.2552,42.0908 -53.6938,57.4747 -48.6583,100.6094 3.2698,28.0066 2.7618,50.9219 -1.1269,50.9219 -3.8887,0 -19.4398,-11.1926 -34.5566,-24.8731 -15.1165,-13.6803 -27.4844,-40.2944 -27.4844,-59.1406 0,-18.8461 6.3319,-50.9179 14.0703,-71.2715 7.7384,-20.3536 10.2092,-40.8671 5.4902,-45.5859 -4.7185,-4.7188 -34.3327,9.8017 -65.8086,32.2695 -31.4759,22.4678 -64.3814,56.3872 -73.123,75.375 -8.7416,18.9879 -15.8926,40.7553 -15.8926,48.3731 0,7.6178 10.1436,9.9572 22.543,5.1992 16.5656,-6.357 22.5449,1.9771 22.5449,31.4258 0,24.2108 -22.3132,66.977 -56.3613,108.0273 -30.9985,37.3728 -73.2684,77.0087 -93.9336,88.0781 l -37.5723,20.127 45.0879,17.5723 c 36.4002,14.1866 58.1208,12.9563 112.7207,-6.3848 37.1981,-13.1767 72.037,-23.929 77.4199,-23.8828 5.3833,0.041 24.2303,24.5535 41.8828,54.4726 29.9339,50.7343 30.4807,56.8609 8.1231,90.9825 -13.1847,20.1226 -33.723,40.3291 -45.6406,44.9023 -11.9173,4.5732 -21.668,14.3545 -21.668,21.7363 0,7.3819 18.5979,13.5306 41.3301,13.6524 22.7317,0.1264 51.476,6.7854 63.875,14.7988 12.3993,8.013 37.8923,14.6728 56.6484,14.7988 28.9046,0.1953 32.6647,-5.497 24.6719,-37.3437 -7.1874,-28.6367 -3.5686,-37.5742 15.2148,-37.5742 13.5551,0 28.6136,-10.3423 33.4649,-22.9844 7.6569,-19.953 11.3457,-19.5327 27.9609,3.1894 16.1965,22.1502 22.8574,23.0915 43.3106,6.1172 15.9764,-13.2598 24.1718,-14.3423 24.1718,-3.1914 0,9.2783 9.3559,16.8692 20.791,16.8692 11.4352,0 25.8201,-15.2176 31.9668,-33.8164 l 11.1758,-33.8145 6.4512,32.2832 c 3.5481,17.7562 20.1029,35.8552 36.7891,40.2187 26.2055,6.8532 27.9256,12.4443 12.6211,41.0411 -16.9907,31.7476 -15.648,32.6895 32.6914,22.9433 27.7257,-5.5899 72.3905,-13.9639 99.2558,-18.6094 26.8649,-4.645 48.8457,-14.4679 48.8457,-21.83 0,-7.3617 -6.3023,-13.3867 -14.0058,-13.3867 -7.7031,0 -28.0777,-19.7597 -45.2754,-43.9122 l -31.2696,-43.9121 32.5098,-55.0976 c 25.1872,-42.6889 39.6137,-53.3162 64.0605,-47.1875 17.3544,4.3511 57.207,16.7801 88.5626,27.6211 13.5166,4.6734 23.5527,8.6707 31.2363,12.6367 0.1393,0 0.2828,-0.047 0.4199,-0.016 0.3347,0.077 0.3888,0.5295 0.7539,0.582 0.467,0.067 0.9565,-0.2575 1.4004,-0.023 0.5417,0.2855 0.9128,0.9456 1.5332,1.0019 0.6291,0.057 1.2767,-0.199 1.8887,-0.039 0.3246,0.085 0.3725,0.6044 0.75,0.5585 0.511,-0.062 1.0284,-0.032 1.5429,-0.033 1.6928,0 3.3879,0.043 5.0801,0 0.871,-0.024 1.7924,-0.2383 2.6211,0.1133 0.3603,0.1529 0.6893,0.3979 1.0332,0.6035 0.344,0.2056 0.7031,0.3713 1.1192,0.3594 0.4858,-0.014 0.9675,-0.062 1.455,-0.062 7.0875,0 14.2318,-0.63 21.3477,-0.9453 3.5579,-0.1577 7.1094,-0.2354 10.6426,-0.1172 3.5331,0.1183 7.048,0.4318 10.5351,1.0625 0.3553,0.064 0.6959,-0.049 1.0274,-0.1699 0.48,-0.1747 0.9731,-0.4244 1.5019,-0.3242 0.5035,0.095 0.9748,-0.16 1.4121,-0.3692 0.7438,-0.3557 1.5126,-0.7544 2.3653,-0.7148 0.4879,0.023 0.9836,-0.01 1.4629,0.084 0.3867,0.073 0.6932,-0.2477 0.9785,-0.4571 0.2906,-0.2133 0.55,-0.6656 0.9062,-0.5937 0.3519,0.071 0.6935,-0.031 1.0156,-0.1778 0.4754,-0.2162 0.9845,-0.3478 1.5118,-0.3496 0.6328,0 1.2803,0.1866 1.8984,0.055 0.078,-0.016 0.152,-0.072 0.2285,-0.1035 0.5822,-3.2298 1.1964,-6.4024 1.8789,-9.4199 -0.1687,-0.4553 -0.7046,-0.6223 -0.9668,-1.0195 -0.1931,-0.3255 0.097,-0.6892 0,-1.0293 -0.1348,-0.4737 -0.7279,-0.5933 -0.9883,-0.9922 -0.2351,-0.3263 0.054,-0.6892 -0.043,-1.0293 -0.1348,-0.4737 -0.7279,-0.5913 -0.9883,-0.9903 -0.2352,-0.3263 0.054,-0.6891 -0.043,-1.0293 -0.1512,-0.5312 -0.8794,-0.6303 -1.0683,-1.1542 -0.2142,-0.5884 0.2387,-1.189 0.092,-1.7891 -0.1281,-0.5207 -0.7444,-0.6582 -1.0215,-1.0781 -0.2352,-0.3255 0.056,-0.6892 -0.041,-1.0293 -0.1512,-0.5313 -0.8814,-0.6302 -1.0703,-1.1543 -0.2142,-0.5884 0.2387,-1.189 0.092,-1.7891 -0.1281,-0.5207 -0.7444,-0.6582 -1.0215,-1.0781 -0.2352,-0.3255 0.056,-0.6892 -0.041,-1.0293 -0.1348,-0.4737 -0.7298,-0.5913 -0.9902,-0.9903 -0.1932,-0.3262 0.097,-0.6891 0,-1.0292 -0.1541,-0.5405 -0.9079,-0.6364 -1.0801,-1.1836 -0.1889,-0.5926 0.2618,-1.1926 0.094,-1.7911 -0.1537,-0.5467 -0.6527,-0.917 -1.084,-1.2656 -0.6606,-0.535 -1.4321,-0.9809 -1.9004,-1.7129 -0.1512,-0.2641 -0.2111,-0.5807 -0.1523,-0.8789 0.1008,-0.4241 0.2579,-0.8886 0.061,-1.3086 -0.1512,-0.3212 -0.4696,-0.5326 -0.709,-0.7929 -0.7009,-0.7572 -1.4414,-1.4822 -2.2187,-2.1622 -0.1735,-0.1511 -0.4045,-0.1095 -0.5977,-0.051 -0.186,0.055 -0.4633,0.1226 -0.5683,-0.096 -0.1386,-0.3095 0.2277,-0.6616 0.043,-0.9766 -0.451,-0.7752 -1.3815,-1.0674 -1.8867,-1.791 -0.1386,-0.1982 -0.1816,-0.4301 -0.098,-0.6484 0.067,-0.1819 0.139,-0.4597 -0.062,-0.5899 -0.2831,-0.1848 -0.6229,0.16 -0.9336,0.051 -0.5737,-0.1982 -1.0968,-0.5312 -1.6035,-0.8672 -0.2856,-0.2016 0.1979,-0.1602 0.3281,-0.1602 0.2419,0.025 0.6495,0.067 0.7461,-0.2265 0.087,-0.2675 -0.2439,-0.4859 -0.416,-0.6875 -0.1542,-0.1764 -0.3716,-0.1853 -0.5606,-0.1055 -0.1764,0.067 -0.4499,0.1586 -0.5801,-0.043 -0.1805,-0.2738 0.1384,-0.5977 0.059,-0.9043 -0.1302,-0.506 -0.798,-0.611 -1.0332,-1.0683 -0.1554,-0.3099 0.1942,-0.6479 0.043,-0.9629 -0.1037,-0.2226 -0.3976,-0.096 -0.5781,-0.041 -0.197,0.059 -0.4408,0.096 -0.5625,-0.1055 -0.1344,-0.2276 -0.4161,-0.4061 -0.4161,-0.6875 -0.015,-0.3065 0.5026,-0.2226 0.7461,-0.2226 0.1092,0 0.4915,0.079 0.3907,-0.1055 -0.2205,-0.3998 -0.7886,-0.4633 -1.1875,-0.6817 -0.3545,-0.1931 -0.7374,-0.4528 -1.1641,-0.373 -0.2284,0.042 -0.3879,0.3447 -0.623,0.2187 -0.2432,-0.131 -0.3322,-0.4367 -0.4707,-0.6718 -0.2016,-0.3444 -0.4485,-0.737 -0.3477,-1.1582 0.05,-0.2138 0.3571,-0.3865 0.1934,-0.6133 -0.2218,-0.3036 -0.62,-0.4171 -0.9434,-0.5977 -0.1856,-0.105 -0.3908,-0.1179 -0.584,-0.051 -0.1864,0.063 -0.4596,0.139 -0.5898,-0.062 -0.1428,-0.2159 0.066,-0.4758 0.066,-0.711 0.025,-0.2851 -0.206,-0.4709 -0.3614,-0.664 -1.0423,-1.2981 -2.3727,-2.3333 -3.5683,-3.4903 -0.37,-0.3582 -0.8303,-0.6277 -1.1074,-1.0703 -0.189,-0.3301 0.097,-0.6911 0,-1.0312 -0.1336,-0.4742 -0.7279,-0.5913 -0.9883,-0.9903 -0.1424,-0.2073 -0.069,-0.4314 -0.027,-0.6523 -13.9499,-5.9748 -46.4893,-36.452 -77.2656,-72.9512 -44.763,-53.086 -62.4707,-87.6872 -62.4707,-122.0742 0,-40.9532 3.3063,-45.246 22.5449,-29.2793 14.5038,12.037 22.543,12.945 22.543,2.5469 0,-8.8895 -7.7304,-33.1304 -17.1797,-53.8692 -9.4492,-20.739 -43.7414,-55.2842 -76.2051,-76.7676 l -59.0254,-39.0605 10.2832,68.5723 c 7.725,51.5144 4.1632,77.9131 -14.3183,106.1191 -13.5307,20.6506 -29.8497,37.5469 -36.2656,37.5469 -6.416,0 -8.8305,-24.2736 -5.3672,-53.9414 5.5345,-47.4053 -0.4311,-59.4877 -49.2285,-99.711 -44.1638,-36.4032 -53.7011,-53.0457 -46.6036,-81.3242 6.2098,-24.7411 2.5066,-35.5527 -12.1777,-35.5527 -11.6061,0 -32.0249,16.6703 -45.375,37.0449 -13.3501,20.3746 -24.2715,46.5148 -24.2715,58.0898 0,11.5755 13.5265,38.2424 30.0586,59.2598 16.5325,21.0175 30.0586,51.5748 30.0586,67.9063 0,19.7381 -12.5978,32.1025 -37.5742,36.8769 -20.6656,3.9505 -54.4813,3.9505 -75.1465,0 -20.6656,-3.9504 -37.5742,-16.8894 -37.5742,-28.7539 0,-11.8645 14.9456,-47.5412 33.2129,-79.2812 27.9555,-48.5738 30.4538,-63.7688 15.7754,-95.9844 -9.5916,-21.0511 -31.9698,-46.0507 -49.7285,-55.5547 -11.3523,-6.0756 -18.6478,-9.6429 -22.8594,-9.5781 z m 272.4199,415.7676 c 3.814,0 -1.4314,13.3966 -11.6562,29.7695 -10.2249,16.3725 -26.5285,32.8138 -36.2305,36.5371 -9.7025,3.7228 -21.6835,2.7266 -26.625,-2.2149 -4.9411,-4.9411 -8.9844,-13.5339 -8.9844,-19.0957 0,-5.5613 17.2268,-17.9598 38.2813,-27.5527 21.0545,-9.5933 41.4004,-17.4433 45.2148,-17.4433 z m -332.5879,7.9824 c 7.3642,-0.085 20.9726,3.0373 34.9219,8.3144 18.599,7.0362 33.8164,19.375 33.8164,27.4199 0,8.0451 -5.8601,18.2496 -13.0215,22.6758 -7.1614,4.4259 -25.1554,-5.3619 -39.9863,-21.75 -14.8313,-16.388 -24.1885,-32.3478 -20.7949,-35.4668 0.8484,-0.7797 2.6097,-1.1651 5.0644,-1.1933 z"
       id="path8239"
       transform="scale(0.238125)"
       inkscape:connector-curvature="0" />
  </g>
</svg>
