<?xml version="1.0" encoding="UTF-8" standalone="no"?>
<!-- Created with Inkscape (http://www.inkscape.org/) -->

<svg
   xmlns:dc="http://purl.org/dc/elements/1.1/"
   xmlns:cc="http://creativecommons.org/ns#"
   xmlns:rdf="http://www.w3.org/1999/02/22-rdf-syntax-ns#"
   xmlns:svg="http://www.w3.org/2000/svg"
   xmlns="http://www.w3.org/2000/svg"
   xmlns:sodipodi="http://sodipodi.sourceforge.net/DTD/sodipodi-0.dtd"
   xmlns:inkscape="http://www.inkscape.org/namespaces/inkscape"
   width="29.889606mm"
   height="33.392319mm"
   viewBox="0 0 26.900646 30.053086"
   version="1.1"
   id="svg5768"
   inkscape:version="0.92.5 (2060ec1f9f, 2020-04-08)"
   sodipodi:docname="red.svg">
  <defs
     id="defs5762">
    <inkscape:path-effect
       effect="simplify"
       id="path-effect8619"
       is_visible="true"
       steps="1"
       threshold="0.000408163"
       smooth_angles="360"
       helper_size="0"
       simplify_individual_paths="false"
       simplify_just_coalesce="false"
       simplifyindividualpaths="false"
       simplifyJustCoalesce="false" />
    <inkscape:path-effect
       effect="simplify"
       id="path-effect8615"
       is_visible="true"
       steps="1"
       threshold="0.000408163"
       smooth_angles="360"
       helper_size="0"
       simplify_individual_paths="false"
       simplify_just_coalesce="false"
       simplifyindividualpaths="false"
       simplifyJustCoalesce="false" />
    <inkscape:path-effect
       effect="simplify"
       id="path-effect8611"
       is_visible="true"
       steps="1"
       threshold="0.000408163"
       smooth_angles="360"
       helper_size="0"
       simplify_individual_paths="false"
       simplify_just_coalesce="false"
       simplifyindividualpaths="false"
       simplifyJustCoalesce="false" />
    <inkscape:path-effect
       effect="simplify"
       id="path-effect8607"
       is_visible="true"
       steps="1"
       threshold="0.000408163"
       smooth_angles="360"
       helper_size="0"
       simplify_individual_paths="false"
       simplify_just_coalesce="false"
       simplifyindividualpaths="false"
       simplifyJustCoalesce="false" />
    <inkscape:path-effect
       effect="simplify"
       id="path-effect8600"
       is_visible="true"
       steps="1"
       threshold="0.000408163"
       smooth_angles="360"
       helper_size="0"
       simplify_individual_paths="false"
       simplify_just_coalesce="false"
       simplifyindividualpaths="false"
       simplifyJustCoalesce="false" />
    <inkscape:path-effect
       effect="simplify"
       id="path-effect8584"
       is_visible="true"
       steps="1"
       threshold="0.000408163"
       smooth_angles="360"
       helper_size="0"
       simplify_individual_paths="false"
       simplify_just_coalesce="false"
       simplifyindividualpaths="false"
       simplifyJustCoalesce="false" />
    <inkscape:path-effect
       effect="simplify"
       id="path-effect8571"
       is_visible="true"
       steps="1"
       threshold="0.000408163"
       smooth_angles="360"
       helper_size="0"
       simplify_individual_paths="false"
       simplify_just_coalesce="false"
       simplifyindividualpaths="false"
       simplifyJustCoalesce="false" />
    <inkscape:path-effect
       effect="simplify"
       id="path-effect8556"
       is_visible="true"
       steps="1"
       threshold="0.000408163"
       smooth_angles="360"
       helper_size="0"
       simplify_individual_paths="false"
       simplify_just_coalesce="false"
       simplifyindividualpaths="false"
       simplifyJustCoalesce="false" />
    <inkscape:path-effect
       effect="simplify"
       id="path-effect8532"
       is_visible="true"
       steps="1"
       threshold="0.000408163"
       smooth_angles="360"
       helper_size="0"
       simplify_individual_paths="false"
       simplify_just_coalesce="false"
       simplifyindividualpaths="false"
       simplifyJustCoalesce="false" />
    <inkscape:path-effect
       effect="simplify"
       id="path-effect8528"
       is_visible="true"
       steps="1"
       threshold="0.000408163"
       smooth_angles="360"
       helper_size="0"
       simplify_individual_paths="false"
       simplify_just_coalesce="false"
       simplifyindividualpaths="false"
       simplifyJustCoalesce="false" />
    <inkscape:path-effect
       effect="simplify"
       id="path-effect8524"
       is_visible="true"
       steps="1"
       threshold="0.000408163"
       smooth_angles="360"
       helper_size="0"
       simplify_individual_paths="false"
       simplify_just_coalesce="false"
       simplifyindividualpaths="false"
       simplifyJustCoalesce="false" />
    <inkscape:path-effect
       effect="simplify"
       id="path-effect8449"
       is_visible="true"
       steps="1"
       threshold="0.000408163"
       smooth_angles="360"
       helper_size="0"
       simplify_individual_paths="false"
       simplify_just_coalesce="false"
       simplifyindividualpaths="false"
       simplifyJustCoalesce="false" />
    <inkscape:path-effect
       effect="simplify"
       id="path-effect8443"
       is_visible="true"
       steps="1"
       threshold="0.000408163"
       smooth_angles="360"
       helper_size="0"
       simplify_individual_paths="false"
       simplify_just_coalesce="false"
       simplifyindividualpaths="false"
       simplifyJustCoalesce="false" />
    <inkscape:path-effect
       effect="simplify"
       id="path-effect8434"
       is_visible="true"
       steps="1"
       threshold="0.000408163"
       smooth_angles="360"
       helper_size="0"
       simplify_individual_paths="false"
       simplify_just_coalesce="false"
       simplifyindividualpaths="false"
       simplifyJustCoalesce="false" />
    <inkscape:path-effect
       effect="simplify"
       id="path-effect8422"
       is_visible="true"
       steps="1"
       threshold="0.000408163"
       smooth_angles="360"
       helper_size="0"
       simplify_individual_paths="false"
       simplify_just_coalesce="false"
       simplifyindividualpaths="false"
       simplifyJustCoalesce="false" />
    <inkscape:path-effect
       effect="simplify"
       id="path-effect8418"
       is_visible="true"
       steps="1"
       threshold="0.000408163"
       smooth_angles="360"
       helper_size="0"
       simplify_individual_paths="false"
       simplify_just_coalesce="false"
       simplifyindividualpaths="false"
       simplifyJustCoalesce="false" />
    <inkscape:path-effect
       effect="simplify"
       id="path-effect8413"
       is_visible="true"
       steps="1"
       threshold="0.000408163"
       smooth_angles="360"
       helper_size="0"
       simplify_individual_paths="false"
       simplify_just_coalesce="false"
       simplifyindividualpaths="false"
       simplifyJustCoalesce="false" />
    <inkscape:path-effect
       effect="simplify"
       id="path-effect8391"
       is_visible="true"
       steps="1"
       threshold="0.000408163"
       smooth_angles="360"
       helper_size="0"
       simplify_individual_paths="false"
       simplify_just_coalesce="false"
       simplifyindividualpaths="false"
       simplifyJustCoalesce="false" />
    <inkscape:path-effect
       effect="simplify"
       id="path-effect8114"
       is_visible="true"
       steps="1"
       threshold="0.000408163"
       smooth_angles="360"
       helper_size="0"
       simplify_individual_paths="false"
       simplify_just_coalesce="false"
       simplifyindividualpaths="false"
       simplifyJustCoalesce="false" />
    <inkscape:path-effect
       effect="simplify"
       id="path-effect7808"
       is_visible="true"
       steps="1"
       threshold="0.000408163"
       smooth_angles="360"
       helper_size="0"
       simplify_individual_paths="false"
       simplify_just_coalesce="false"
       simplifyindividualpaths="false"
       simplifyJustCoalesce="false" />
    <inkscape:path-effect
       effect="simplify"
       id="path-effect6980"
       is_visible="true"
       steps="1"
       threshold="0.000408163"
       smooth_angles="360"
       helper_size="0"
       simplify_individual_paths="false"
       simplify_just_coalesce="false"
       simplifyindividualpaths="false"
       simplifyJustCoalesce="false" />
    <inkscape:path-effect
       effect="simplify"
       id="path-effect6741"
       is_visible="true"
       steps="1"
       threshold="0.000408163"
       smooth_angles="360"
       helper_size="0"
       simplify_individual_paths="false"
       simplify_just_coalesce="false"
       simplifyindividualpaths="false"
       simplifyJustCoalesce="false" />
  </defs>
  <sodipodi:namedview
     id="base"
     pagecolor="#ffffff"
     bordercolor="#666666"
     borderopacity="1.0"
     inkscape:pageopacity="0.0"
     inkscape:pageshadow="2"
     inkscape:zoom="0.35"
     inkscape:cx="-645.46844"
     inkscape:cy="417.65602"
     inkscape:document-units="mm"
     inkscape:current-layer="layer1"
     showgrid="false"
     inkscape:window-width="1920"
     inkscape:window-height="1020"
     inkscape:window-x="0"
     inkscape:window-y="0"
     inkscape:window-maximized="1"
     units="mm"
     scale-x="0.9"
     showborder="true"
     inkscape:snap-global="false" />
  <metadata
     id="metadata5765">
    <rdf:RDF>
      <cc:Work
         rdf:about="">
        <dc:format>image/svg+xml</dc:format>
        <dc:type
           rdf:resource="http://purl.org/dc/dcmitype/StillImage" />
        <dc:title></dc:title>
      </cc:Work>
    </rdf:RDF>
  </metadata>
  <g
     inkscape:label="Layer 1"
     inkscape:groupmode="layer"
     id="layer1"
     transform="translate(-190.44395,-698.16423)">
    <path
       style="fill:#000000;stroke-width:0.3175"
       d="m 201.13683,698.16423 c -1.39141,0 -3.20026,0.17064 -4.01976,0.37905 -1.34136,0.34109 -1.41082,0.40112 -0.69623,0.60322 0.43655,0.12349 1.43683,0.23965 2.22265,0.25765 2.74653,0.0642 5.46504,1.24146 4.44485,1.92452 -0.26194,0.17534 -0.97616,0.40346 -1.58735,0.50697 -1.97942,0.33521 -2.14408,0.45751 -1.27015,0.94412 1.14059,0.6352 2.87005,0.5635 4.57181,-0.18929 1.67878,-0.74261 2.43402,-0.61731 3.35747,0.55672 0.62249,0.79126 0.92887,3.26467 0.40509,3.27467 -0.13097,0.002 -0.64191,-0.46246 -1.13528,-1.03156 l -0.89669,-1.03482 0.15395,1.36131 c 0.20461,1.80821 1.37489,3.27189 3.37281,4.21789 1.78643,0.84589 1.83777,1.08197 0.74042,3.40257 -0.89314,1.88849 -1.49022,0.7924 -0.95808,-1.75849 0.23403,-1.1218 0.0334,-1.26284 -0.86367,-0.60695 -0.45184,0.3304 -0.63421,1.06234 -0.81855,3.28724 -0.13037,1.5742 -0.39545,3.15756 -0.5888,3.51887 -0.55253,1.03239 -1.94488,1.97615 -2.91564,1.97615 -0.87357,0 -1.885,-0.70163 -1.885,-1.30783 0,-0.40691 1.51261,-1.80048 2.18638,-2.0143 1.17437,-0.37269 3.44787,-5.43718 2.75285,-6.13217 -0.11688,-0.11692 -0.59752,0.026 -1.06784,0.31718 -2.75318,1.7045 -4.24178,2.22885 -5.72802,2.01895 -4.0536,-0.5726 -4.52055,-0.57736 -5.87267,-0.0609 -1.53517,0.5862 -3.17785,2.05188 -3.92999,3.5063 -0.66347,1.28309 -0.88752,4.7555 -0.41858,6.48891 0.72145,2.66678 3.35513,4.79748 6.83912,5.53266 2.08431,0.4398 9.10958,-0.46058 11.42163,-1.46408 l 1.59618,-0.69297 -2.46078,-0.17443 c -4.60172,-0.3264 -3.89128,-1.25854 1.67199,-2.19382 4.42136,-0.74331 5.37161,-1.31204 6.69866,-4.00764 0.55516,-1.12769 0.94945,-2.11062 0.87623,-2.18361 -0.0732,-0.0732 -0.84416,0.33699 -1.71339,0.91159 -1.49416,0.9875 -3.61789,1.90598 -3.85604,1.6678 -0.06,-0.0599 0.81895,-1.16333 1.95337,-2.45242 2.47924,-2.81721 3.09699,-4.0185 3.27422,-6.36751 0.17645,-2.33889 -0.53453,-4.71547 -2.16498,-7.23817 -1.39109,-2.1522 -2.02918,-2.40694 -1.0925,-0.43624 0.31423,0.6611 0.6175,1.91647 0.67391,2.78958 0.076,1.17622 0.0335,1.38201 -0.16417,0.79391 -1.85666,-5.52121 -6.82464,-8.89016 -13.10943,-8.89016 z m -5.4327,1.61758 c -0.5169,-0.008 -1.11179,0.17926 -1.81988,0.55903 -1.21189,0.64991 -3.17727,3.25893 -3.17841,4.21881 0,0.5684 0.0845,0.55424 1.19062,-0.20045 l 1.19063,-0.81251 0.10045,0.80089 c 0.12816,1.02238 0.48013,1.01567 1.15993,-0.0219 0.29678,-0.45292 1.17021,-1.10264 1.94128,-1.44364 1.57584,-0.69711 1.80844,-1.4537 0.76693,-2.49519 -0.39586,-0.39576 -0.83466,-0.5976 -1.35155,-0.60508 z m 3.35701,4.08532 c -0.32561,0.0409 0.1255,0.75767 1.35294,2.1608 1.10104,1.2587 1.66794,1.6613 2.33846,1.6613 1.80882,0 3.24174,-2.04723 2.17754,-3.11144 -0.5273,-0.5273 -1.88138,-0.47653 -2.70634,0.1014 -0.62596,0.43836 -0.78345,0.42412 -1.73757,-0.15769 -0.75474,-0.46013 -1.22967,-0.67889 -1.42503,-0.65437 z"
       id="path7680-5"
       inkscape:connector-curvature="0" />
  </g>
</svg>
