<?xml version="1.0" encoding="UTF-8" standalone="no"?>
<!-- Created with Inkscape (http://www.inkscape.org/) -->

<svg
   xmlns:dc="http://purl.org/dc/elements/1.1/"
   xmlns:cc="http://creativecommons.org/ns#"
   xmlns:rdf="http://www.w3.org/1999/02/22-rdf-syntax-ns#"
   xmlns:svg="http://www.w3.org/2000/svg"
   xmlns="http://www.w3.org/2000/svg"
   xmlns:sodipodi="http://sodipodi.sourceforge.net/DTD/sodipodi-0.dtd"
   xmlns:inkscape="http://www.inkscape.org/namespaces/inkscape"
   width="514.35205mm"
   height="217.03268mm"
   viewBox="0 0 462.91685 195.32941"
   version="1.1"
   id="svg5768"
   inkscape:version="0.92.5 (2060ec1f9f, 2020-04-08)"
   sodipodi:docname="selesnya.svg">
  <defs
     id="defs5762">
    <inkscape:path-effect
       effect="simplify"
       id="path-effect4565"
       is_visible="true"
       steps="1"
       threshold="0.000408163"
       smooth_angles="360"
       helper_size="0"
       simplify_individual_paths="false"
       simplify_just_coalesce="false"
       simplifyindividualpaths="false"
       simplifyJustCoalesce="false" />
    <inkscape:path-effect
       effect="simplify"
       id="path-effect4543"
       is_visible="true"
       steps="1"
       threshold="0.000408163"
       smooth_angles="360"
       helper_size="0"
       simplify_individual_paths="false"
       simplify_just_coalesce="false"
       simplifyindividualpaths="false"
       simplifyJustCoalesce="false" />
    <inkscape:path-effect
       effect="simplify"
       id="path-effect8619"
       is_visible="true"
       steps="1"
       threshold="0.000408163"
       smooth_angles="360"
       helper_size="0"
       simplify_individual_paths="false"
       simplify_just_coalesce="false"
       simplifyindividualpaths="false"
       simplifyJustCoalesce="false" />
    <inkscape:path-effect
       effect="simplify"
       id="path-effect8615"
       is_visible="true"
       steps="1"
       threshold="0.000408163"
       smooth_angles="360"
       helper_size="0"
       simplify_individual_paths="false"
       simplify_just_coalesce="false"
       simplifyindividualpaths="false"
       simplifyJustCoalesce="false" />
    <inkscape:path-effect
       effect="simplify"
       id="path-effect8611"
       is_visible="true"
       steps="1"
       threshold="0.000408163"
       smooth_angles="360"
       helper_size="0"
       simplify_individual_paths="false"
       simplify_just_coalesce="false"
       simplifyindividualpaths="false"
       simplifyJustCoalesce="false" />
    <inkscape:path-effect
       effect="simplify"
       id="path-effect8607"
       is_visible="true"
       steps="1"
       threshold="0.000408163"
       smooth_angles="360"
       helper_size="0"
       simplify_individual_paths="false"
       simplify_just_coalesce="false"
       simplifyindividualpaths="false"
       simplifyJustCoalesce="false" />
    <inkscape:path-effect
       effect="simplify"
       id="path-effect8600"
       is_visible="true"
       steps="1"
       threshold="0.000408163"
       smooth_angles="360"
       helper_size="0"
       simplify_individual_paths="false"
       simplify_just_coalesce="false"
       simplifyindividualpaths="false"
       simplifyJustCoalesce="false" />
    <inkscape:path-effect
       effect="simplify"
       id="path-effect8584"
       is_visible="true"
       steps="1"
       threshold="0.000408163"
       smooth_angles="360"
       helper_size="0"
       simplify_individual_paths="false"
       simplify_just_coalesce="false"
       simplifyindividualpaths="false"
       simplifyJustCoalesce="false" />
    <inkscape:path-effect
       effect="simplify"
       id="path-effect8571"
       is_visible="true"
       steps="1"
       threshold="0.000408163"
       smooth_angles="360"
       helper_size="0"
       simplify_individual_paths="false"
       simplify_just_coalesce="false"
       simplifyindividualpaths="false"
       simplifyJustCoalesce="false" />
    <inkscape:path-effect
       effect="simplify"
       id="path-effect8556"
       is_visible="true"
       steps="1"
       threshold="0.000408163"
       smooth_angles="360"
       helper_size="0"
       simplify_individual_paths="false"
       simplify_just_coalesce="false"
       simplifyindividualpaths="false"
       simplifyJustCoalesce="false" />
    <inkscape:path-effect
       effect="simplify"
       id="path-effect8532"
       is_visible="true"
       steps="1"
       threshold="0.000408163"
       smooth_angles="360"
       helper_size="0"
       simplify_individual_paths="false"
       simplify_just_coalesce="false"
       simplifyindividualpaths="false"
       simplifyJustCoalesce="false" />
    <inkscape:path-effect
       effect="simplify"
       id="path-effect8528"
       is_visible="true"
       steps="1"
       threshold="0.000408163"
       smooth_angles="360"
       helper_size="0"
       simplify_individual_paths="false"
       simplify_just_coalesce="false"
       simplifyindividualpaths="false"
       simplifyJustCoalesce="false" />
    <inkscape:path-effect
       effect="simplify"
       id="path-effect8524"
       is_visible="true"
       steps="1"
       threshold="0.000408163"
       smooth_angles="360"
       helper_size="0"
       simplify_individual_paths="false"
       simplify_just_coalesce="false"
       simplifyindividualpaths="false"
       simplifyJustCoalesce="false" />
    <inkscape:path-effect
       effect="simplify"
       id="path-effect8449"
       is_visible="true"
       steps="1"
       threshold="0.000408163"
       smooth_angles="360"
       helper_size="0"
       simplify_individual_paths="false"
       simplify_just_coalesce="false"
       simplifyindividualpaths="false"
       simplifyJustCoalesce="false" />
    <inkscape:path-effect
       effect="simplify"
       id="path-effect8443"
       is_visible="true"
       steps="1"
       threshold="0.000408163"
       smooth_angles="360"
       helper_size="0"
       simplify_individual_paths="false"
       simplify_just_coalesce="false"
       simplifyindividualpaths="false"
       simplifyJustCoalesce="false" />
    <inkscape:path-effect
       effect="simplify"
       id="path-effect8434"
       is_visible="true"
       steps="1"
       threshold="0.000408163"
       smooth_angles="360"
       helper_size="0"
       simplify_individual_paths="false"
       simplify_just_coalesce="false"
       simplifyindividualpaths="false"
       simplifyJustCoalesce="false" />
    <inkscape:path-effect
       effect="simplify"
       id="path-effect8422"
       is_visible="true"
       steps="1"
       threshold="0.000408163"
       smooth_angles="360"
       helper_size="0"
       simplify_individual_paths="false"
       simplify_just_coalesce="false"
       simplifyindividualpaths="false"
       simplifyJustCoalesce="false" />
    <inkscape:path-effect
       effect="simplify"
       id="path-effect8418"
       is_visible="true"
       steps="1"
       threshold="0.000408163"
       smooth_angles="360"
       helper_size="0"
       simplify_individual_paths="false"
       simplify_just_coalesce="false"
       simplifyindividualpaths="false"
       simplifyJustCoalesce="false" />
    <inkscape:path-effect
       effect="simplify"
       id="path-effect8413"
       is_visible="true"
       steps="1"
       threshold="0.000408163"
       smooth_angles="360"
       helper_size="0"
       simplify_individual_paths="false"
       simplify_just_coalesce="false"
       simplifyindividualpaths="false"
       simplifyJustCoalesce="false" />
    <inkscape:path-effect
       effect="simplify"
       id="path-effect8391"
       is_visible="true"
       steps="1"
       threshold="0.000408163"
       smooth_angles="360"
       helper_size="0"
       simplify_individual_paths="false"
       simplify_just_coalesce="false"
       simplifyindividualpaths="false"
       simplifyJustCoalesce="false" />
    <inkscape:path-effect
       effect="simplify"
       id="path-effect8114"
       is_visible="true"
       steps="1"
       threshold="0.000408163"
       smooth_angles="360"
       helper_size="0"
       simplify_individual_paths="false"
       simplify_just_coalesce="false"
       simplifyindividualpaths="false"
       simplifyJustCoalesce="false" />
    <inkscape:path-effect
       effect="simplify"
       id="path-effect7808"
       is_visible="true"
       steps="1"
       threshold="0.000408163"
       smooth_angles="360"
       helper_size="0"
       simplify_individual_paths="false"
       simplify_just_coalesce="false"
       simplifyindividualpaths="false"
       simplifyJustCoalesce="false" />
    <inkscape:path-effect
       effect="simplify"
       id="path-effect6980"
       is_visible="true"
       steps="1"
       threshold="0.000408163"
       smooth_angles="360"
       helper_size="0"
       simplify_individual_paths="false"
       simplify_just_coalesce="false"
       simplifyindividualpaths="false"
       simplifyJustCoalesce="false" />
    <inkscape:path-effect
       effect="simplify"
       id="path-effect6741"
       is_visible="true"
       steps="1"
       threshold="0.000408163"
       smooth_angles="360"
       helper_size="0"
       simplify_individual_paths="false"
       simplify_just_coalesce="false"
       simplifyindividualpaths="false"
       simplifyJustCoalesce="false" />
  </defs>
  <sodipodi:namedview
     id="base"
     pagecolor="#ffffff"
     bordercolor="#666666"
     borderopacity="1.0"
     inkscape:pageopacity="0.0"
     inkscape:pageshadow="2"
     inkscape:zoom="0.088388348"
     inkscape:cx="-3561.0569"
     inkscape:cy="2759.3655"
     inkscape:document-units="mm"
     inkscape:current-layer="layer1"
     showgrid="false"
     inkscape:window-width="1920"
     inkscape:window-height="1020"
     inkscape:window-x="0"
     inkscape:window-y="0"
     inkscape:window-maximized="1"
     units="mm"
     scale-x="0.9"
     showborder="true"
     inkscape:snap-global="false" />
  <metadata
     id="metadata5765">
    <rdf:RDF>
      <cc:Work
         rdf:about="">
        <dc:format>image/svg+xml</dc:format>
        <dc:type
           rdf:resource="http://purl.org/dc/dcmitype/StillImage" />
        <dc:title></dc:title>
      </cc:Work>
    </rdf:RDF>
  </metadata>
  <g
     inkscape:label="Layer 1"
     inkscape:groupmode="layer"
     id="layer1"
     transform="translate(-1425.433,-1477.9372)">
    <path
       style="fill:#000000;stroke-width:15.02942848"
       d="m 6396.7754,6206.5605 c -9.8537,0 -22.2078,13.5266 -27.4551,30.0586 -5.2472,16.5325 -15.0199,30.0586 -21.7168,30.0586 -6.6969,0 -20.5963,-10.1436 -30.8867,-22.5429 -10.2904,-12.3994 -28.0272,-22.545 -39.4141,-22.545 -12.1629,0 -20.7031,15.7806 -20.7031,38.254 0,35.5078 -3.7417,37.5528 -52.0898,28.4824 -51.2626,-9.6168 -51.9935,-9.0254 -46.1289,37.3125 3.8307,30.271 -0.3785,46.2991 -11.7871,44.8847 -9.7604,-1.2107 -32.7954,-1.4 -51.1895,-0.4199 -29.8751,1.5904 -31.8166,6.0569 -18.2031,41.8633 11.3671,29.8973 10.3161,43.2068 -4.1309,52.373 -10.6528,6.7587 -27.8234,12.3978 -38.1562,12.5196 -10.3324,0.1264 -18.7852,6.1661 -18.7852,13.4199 0,7.2542 10.1436,21.608 22.543,31.8984 12.3989,10.2904 22.5449,24.7898 22.5449,32.2207 0,7.4314 -16.909,21.2153 -37.5742,30.6309 -20.6656,9.4161 -37.5723,21.3391 -37.5723,26.4961 0,5.1574 18.5979,19.7266 41.3301,32.375 22.7322,12.6484 54.8581,20.5526 71.3906,17.5664 16.5325,-2.9867 64.9537,-9.1058 107.6035,-13.5996 65.2498,-6.8758 82.5268,-3.1896 108.9629,23.2461 18.1346,18.1346 31.418,50.7957 31.418,77.2519 0,25.2091 -10.2239,65.6072 -22.7207,89.7735 -16.5846,32.0701 -41.9587,49.7074 -93.9356,65.2929 -59.5519,17.8575 -66.2895,23.3369 -41.1523,33.461 16.5325,6.6587 42.6372,23.7868 58.0098,38.0625 15.3726,14.2761 37.3514,22.3478 48.8437,17.9375 11.4927,-4.4099 20.8965,0.2566 20.8965,10.3711 0,10.9879 12.0923,15.2293 30.043,10.5351 16.5241,-4.3212 34.0348,-1.4014 38.9121,6.4903 v 0 c 5.5643,9.0033 15.6602,8.7101 27.0996,-0.7832 10.0267,-8.3217 33.095,-11.2415 51.2637,-6.4902 19.04,4.9789 33.0351,1.7286 33.0351,-7.6719 0,-8.9705 10.1436,-12.4182 22.543,-7.6602 12.3994,4.7585 22.5449,1.164 22.5449,-7.9863 0,-9.1506 8.4547,-14.9474 18.7871,-12.8808 10.3328,2.0665 17.0959,-4.6965 15.0293,-15.0293 -2.0666,-10.3328 9.7683,-18.7871 26.3008,-18.7871 16.5321,0 30.0586,-9.9325 30.0586,-22.0723 0,-12.1709 -8.9494,-18.6378 -19.9512,-14.416 -10.9741,4.2108 -37.6732,0.9203 -59.332,-7.3145 -21.6584,-8.2347 -51.1956,-33.0063 -65.6367,-55.0469 -14.4416,-22.0401 -25.603,-63.1191 -24.8047,-91.2871 0.7983,-28.1679 10.2913,-61.8644 21.0957,-74.8828 10.8044,-13.0188 36.1128,-29.9328 56.2422,-37.5859 23.6229,-8.9814 54.2938,-8.0743 86.5058,2.5566 27.4486,9.0587 70.8966,17.0679 96.5508,17.7969 29.0688,0.8265 58.8408,-10.8725 79.0176,-31.0488 26.2034,-26.2039 27.7924,-32.375 8.332,-32.375 -13.2241,0 -32.5694,-10.2719 -42.9883,-22.8262 -15.5216,-18.7028 -13.9259,-28.3721 8.834,-53.5215 23.7926,-26.2904 24.6296,-32.6866 5.832,-44.5762 -12.0709,-7.635 -34.5051,-13.9895 -49.8554,-14.1113 -20.6543,-0.1705 -25.0954,-7.0667 -17.082,-26.5312 5.9552,-14.4655 13.9434,-37.0399 17.7519,-50.1641 5.5316,-19.0618 -2.3976,-22.4934 -39.416,-17.0605 -19.6027,2.877 -42.4191,0.3969 -57.5215,-5.5528 3.1283,-5.3412 9.6937,-17.5217 10.3652,-26.7871 0.039,-0.5395 0.018,-1.0405 -0.029,-1.5234 0.7236,-4.1527 1.1192,-9.0213 1.1192,-14.5039 0,-21.5379 -8.5958,-38.461 -19.5371,-38.461 -10.7461,0 -27.33,7.7929 -36.8535,17.3164 -13.068,13.0684 -21.927,6.6168 -36.1094,-26.3007 -10.3358,-23.9895 -20.2171,-45.8491 -21.959,-48.5762 -1.7424,-2.7272 -20.2778,6.253 -41.1895,19.9551 -36.1595,23.6926 -38.9753,23.3829 -57.5214,-6.3145 -10.7255,-17.1746 -27.5639,-31.2266 -37.418,-31.2266 z m 10.1172,30.0586 c 8.2662,0 15.0312,6.7631 15.0312,15.0293 0,8.2663 -6.765,15.0293 -15.0312,15.0293 -8.2663,0 -15.0293,-6.763 -15.0293,-15.0293 0,-8.2662 6.763,-15.0293 15.0293,-15.0293 z m -112.3731,20.92 c 2.849,-0.024 5.6821,0.705 8.2071,2.2656 7.6951,4.7559 13.9902,11.6298 13.9902,15.2754 0,3.6451 -10.5447,6.6269 -23.4316,6.6269 -12.8874,0 -19.1825,-6.8743 -13.9903,-15.2754 3.2449,-5.2506 8.5799,-8.3849 14.0039,-8.8359 0.4068,-0.034 0.8137,-0.053 1.2207,-0.057 z m 220.9278,1.748 c 6.7129,0.084 13.5954,5.7283 17.1504,14.9922 4.7395,12.3519 7.139,22.3483 5.332,22.2266 -1.807,-0.1269 -12.4626,-6.0437 -23.6777,-13.1504 -12.5384,-7.9446 -14.5919,-16.504 -5.3321,-22.2266 2.0706,-1.2798 4.2897,-1.8697 6.5274,-1.8418 z m -196.8399,37.4492 h 65.4571 c 36.0021,0 75.1852,3.7315 87.0722,8.293 16.1634,6.2022 19.0325,22.4061 11.3789,64.2598 -5.6285,30.7804 -18.6052,69.3189 -28.8359,85.6406 -16.1982,25.8419 -17.7008,21.9073 -11.6309,-30.4434 3.8341,-33.065 11.7424,-71.952 17.5742,-86.4179 7.2861,-18.0721 3.5512,-26.3028 -11.9394,-26.3028 -12.3994,0 -27.1046,11.8368 -32.6777,26.3028 -9.6513,25.049 -10.8361,25.049 -24.8985,0 -8.1209,-14.466 -24.7485,-26.3028 -36.9492,-26.3028 -19.2,0 -18.9781,6.1985 1.6484,46.086 13.1074,25.3476 21.7344,63.7377 19.1719,85.3125 l -4.6582,39.2265 -17.5898,-36.4668 c -9.6735,-20.0567 -21.083,-61.8281 -25.3555,-92.8261 z m 299.586,15.0293 c 8.7538,0 12.0234,6.2975 7.2675,13.9922 -0.1775,0.2873 -0.3224,0.586 -0.4785,0.8809 -0.01,8e-4 -0.1,0.01 -0.1,0.01 0,0 -8.5588,13.8435 -14.8008,14.7559 -4.7656,-6.3786 -7.8066,-12.4737 -7.8066,-16.4492 0,-7.2542 7.1637,-13.1895 15.918,-13.1895 z m -331.5352,1.0137 v 37.0684 c 0,20.3863 -5.4105,37.0664 -12.0234,37.0664 -6.6129,0 -19.3769,-7.3534 -28.3633,-16.3399 -11.7657,-11.7661 -19.2368,-11.6491 -26.6934,0.416 -5.6953,9.2154 10.4492,36.1884 35.877,59.9414 25.4278,23.7531 46.2324,50.8569 46.2324,60.2305 0,12.5233 -8.1704,12.672 -30.8047,0.5586 -16.9419,-9.0671 -38.3166,-32.9774 -47.5,-53.1328 -9.1834,-20.1554 -25.885,-36.6465 -37.1152,-36.6465 -14.274,0 -17.5811,11.3065 -10.9883,37.5742 7.7048,30.6978 3.9312,37.5742 -20.627,37.5742 -20.1516,0 -33.4299,13.4284 -40.2851,40.7422 -7.3478,29.2767 -3.2286,45.858 14.6406,58.9239 22.5902,16.5186 21.8062,19.822 -8.5762,36.082 -32.7479,17.5265 -33.2796,16.4513 -25.5996,-51.6856 4.3137,-38.271 24.9991,-95.5097 45.9688,-127.1972 20.9696,-31.6876 62.3661,-71.9151 91.9922,-89.3946 z m -97.6426,4.0039 c 2.2026,0.016 4.7525,0.8218 7.4649,2.498 8.2662,5.1092 15.0312,12.2709 15.0312,15.9161 0,3.6451 -6.765,6.6269 -15.0312,6.6269 -8.2663,0 -15.0293,-7.1618 -15.0293,-15.916 0,-5.4714 2.6425,-8.6882 6.6426,-9.084 0.2999,-0.03 0.6072,-0.043 0.9218,-0.041 z m 336.0352,4.0332 c 5.1187,-0.2553 14.9917,4.628 32.1367,13.4941 22.3446,11.5549 61.9195,45.2608 87.9453,74.9024 26.0254,29.6416 47.3203,59.4843 47.3203,66.3164 0,6.8321 -15.8584,9.3907 -35.2402,5.6855 -27.9794,-5.3484 -33.8113,-14.2081 -28.3067,-43.0039 3.9026,-20.4103 -0.2362,-36.2695 -9.4628,-36.2695 -9.0176,0 -26.4639,19.4708 -38.7696,43.2676 -12.3057,23.7967 -33.3223,47.4688 -46.7031,52.6035 -13.3812,5.1347 -27.0128,9.3359 -30.293,9.3359 -3.2798,0 1.4001,-16.1621 10.4004,-35.916 9.0008,-19.7539 32.5274,-43.2809 52.2813,-52.2812 19.7539,-9.0003 35.916,-22.1453 35.916,-29.211 0,-7.066 -4.2703,-17.1175 -9.4902,-22.3379 -5.22,-5.2199 -21.3717,-3.1328 -35.8926,4.6387 -21.3132,11.4062 -27.7445,7.1085 -33.3672,-22.3047 -3.7793,-19.7693 -5.0558,-28.5916 1.5254,-28.9199 z m -419.6328,66.0977 c 8.7542,0 15.916,6.7615 15.916,15.0273 0,8.2663 -2.9818,15.0313 -6.627,15.0313 -3.6451,0 -10.8073,-6.765 -15.916,-15.0313 -5.1086,-8.2658 -2.1268,-15.0273 6.627,-15.0273 z m 568.084,6.6543 c 2.6678,0.095 6.2657,0.9545 10.6542,2.6386 12.8296,4.9227 23.3262,11.6087 23.3262,14.8575 0,3.2487 -6.3643,5.9082 -14.1426,5.9082 -7.7782,0 -18.2739,-6.6857 -23.3242,-14.8575 -3.2908,-5.3246 -2.1695,-8.3071 2.4004,-8.541 0.3428,-0.017 0.7048,-0.019 1.086,-0.01 z m 78.875,91.8847 c 0.7838,-0.058 1.567,0.059 2.3515,0.059 3.199,0 6.3987,0.058 9.5977,0 0.5394,0 1.0922,-0.093 1.6289,0 0.3277,0.058 0.3874,0.5118 0.6933,0.5176 0.4029,0 0.8272,-0.1279 1.211,0 0.3482,0.1279 0.5188,0.4362 0.7304,0.6816 0.1571,0.1861 0.4023,0.3608 0.711,0.2852 0.3072,-0.076 0.5385,0.1791 0.7051,0.3535 0.2185,0.2384 0.3824,0.5849 0.7402,0.6524 0.2253,0.058 0.4719,-0.112 0.6699,0.062 0.198,0.1686 0.3344,0.4473 0.6621,0.4589 0.3005,0 0.6012,-0.1497 0.8887,-0.062 0.3277,0.099 0.4838,0.3765 0.7207,0.5743 0.198,0.1628 0.6161,0.3207 0.5273,0.5859 -0.068,0.1628 -0.068,0.3196 0.068,0.4824 0.1434,0.221 0.135,0.6769 0.4356,0.6641 0.1229,-0.01 0.068,-0.1509 0.068,-0.2149 0,-0.1163 2e-4,-0.4057 0.1777,-0.3359 0.1844,0.064 0.4776,0.1732 0.4571,0.3535 0,0.1628 -0.1229,0.3371 0.068,0.4942 0.1844,0.1686 0.6288,0.297 0.5059,0.5703 -0.075,0.1686 -0.068,0.3602 0.1504,0.4765 0.2117,0.1338 0.4365,0.2735 0.4433,0.5352 0,0.6251 -0.068,1.2499 0,1.875 0,0.5699 -0.068,1.1463 0,1.7168 0,0.2209 -0.2384,0.3428 -0.4023,0.4765 -0.065,0.05 -0.091,0.072 -0.1934,0.1504 0.081,-0.056 0.1534,-0.084 0.1739,-0.017 0.068,0.1977 -0.082,0.4075 -0.2051,0.5761 -0.1571,0.2152 -0.6435,0.2913 -0.582,0.5762 0.068,0.1744 0.096,0.3663 -0.1016,0.5117 -0.198,0.1512 -0.6014,0.3009 -0.4648,0.5742 0.1024,0.1977 -0.068,0.3954 -0.2383,0.5 -0.2049,0.1105 -0.4296,0.2851 -0.334,0.5235 0.096,0.2268 -0.1028,0.4366 -0.2871,0.582 -0.2868,0.2268 -0.7212,0.087 -1.0332,0.2441 -0.2254,0.1163 -0.5273,0.3377 -0.4453,0.5586 0.068,0.1745 0.068,0.3489 -0.096,0.5059 -0.4166,0.471 -1.023,0.7495 -1.5098,1.1641 -0.1639,0.1395 -0.1094,0.3197 -0.096,0.5058 0,0.2733 -0.3206,0.4197 -0.5254,0.586 -0.2253,0.1802 -0.4446,0.3647 -0.6562,0.5507 -0.5123,0.4536 -1.0589,0.882 -1.543,1.3594 -0.1298,0.1221 -0.3205,0.1908 -0.4981,0.1094 -0.1365,-0.058 -0.3632,0 -0.3086,0.1582 0.068,0.1279 0.1717,0.4119 -0.088,0.3887 -0.1911,0 -0.4162,-0.1217 -0.58,0.059 -0.1844,0.186 -0.3284,0.4414 -0.67,0.4414 -0.3072,0 -0.6347,-0.1672 -0.914,-0.057 -0.2527,0.1163 0.2106,0.4945 -0.09,0.5352 -0.2116,0.058 -0.4026,-0.087 -0.6347,0 -0.28,0.1279 -0.8444,0.1212 -0.8301,0.3945 0.01,0.1047 0.1768,0.059 0.252,0.059 0.1365,0 0.4715,-8e-4 0.3964,0.1504 -0.068,0.1512 -0.1848,0.3906 -0.3828,0.3848 -0.1912,0 -0.3957,-0.1411 -0.5664,0.057 -0.089,0.093 -0.3562,0.3208 -0.1445,0.3906 0.1843,0.064 0.5059,-0.1221 0.5742,0 0.068,0.099 -0.1231,0.139 -0.2051,0.1739 -0.2594,0.1221 -0.5043,0.2856 -0.789,0.3496 -0.3414,0.081 -0.6975,-0.1575 -1.0293,-0.059 -0.3346,0.1163 -0.5726,0.3604 -0.7891,0.5976 -0.2936,0.3199 -0.5807,0.6567 -0.9863,0.8946 -0.2254,0.1337 -0.4717,0.058 -0.7168,-0.059 -0.3005,-0.093 -0.6006,0.081 -0.8184,0.2441 -0.2868,0.2093 -0.1837,0.5574 -0.2929,0.8301 -0.096,0.2326 -0.349,0.5018 -0.629,0.4785 -0.2185,0 -0.4572,-0.094 -0.6347,0.086 -0.1776,0.1745 -0.3552,0.5069 -0.6836,0.3848 -0.1297,-0.058 -0.3623,-0.059 -0.3555,0.1152 0,0.1338 0.2049,0.385 0,0.4141 -0.2185,0.058 -0.4367,-0.1236 -0.6484,0.057 -0.198,0.157 -0.349,0.5364 -0.6699,0.4317 -0.1981,-0.064 -0.4221,-0.059 -0.5586,0.1269 -0.1571,0.1861 -0.3353,0.379 -0.6426,0.3848 -0.6077,0 -1.2095,-0.059 -1.8145,-0.059 -2.6117,0 -5.2248,-0.058 -7.8359,0 h -2.1035 c -0.3687,0 -0.4796,-0.3255 -0.7227,-0.4941 -0.2048,-0.1396 -0.6075,0.1797 -0.6621,-0.07 -0.068,-0.1803 0.1365,-0.3667 -0.068,-0.5469 -0.4575,-0.4303 -0.997,-0.7936 -1.4395,-1.2344 -0.1229,-0.1221 -0.3069,-0.2202 -0.498,-0.1504 -0.2937,0.1047 -0.4993,-0.134 -0.6836,-0.2851 -0.691,-0.5699 -1.3234,-1.1905 -2.0137,-1.7598 -0.6924,-0.5699 -1.3426,-1.1807 -2.0664,-1.7227 -0.1434,-0.1104 -0.2529,-0.2669 -0.1778,-0.4355 0.068,-0.1338 0,-0.2489 -0.1289,-0.3535 -0.1283,-0.1059 -0.2466,-0.2216 -0.3711,-0.3301 -0.073,-0.038 -0.1609,-0.1145 -0.2167,-0.1484 l -0.068,-0.057 c 0.1099,0.053 0.1977,0.1288 0.2851,0.2051 0.052,0.027 0.097,0.038 0.1114,-0.01 0.068,-0.1977 -0.082,-0.4076 -0.2051,-0.5762 -0.157,-0.2151 -0.6415,-0.2912 -0.5801,-0.5762 0.068,-0.1744 0.097,-0.3663 -0.1015,-0.5117 -0.1981,-0.1512 -0.5946,-0.3009 -0.4649,-0.5683 0.1229,-0.2501 -0.1027,-0.4718 -0.2324,-0.6817 -0.089,-0.1337 -0.095,-0.4062 -0.2793,-0.4004 -0.1229,0.01 -0.068,0.1509 -0.068,0.2149 0,0.1163 -2e-4,0.4057 -0.1777,0.3359 -0.1844,-0.064 -0.4775,-0.1732 -0.457,-0.3535 0,-0.1628 0.1296,-0.343 -0.068,-0.4941 -0.1843,-0.1687 -0.621,-0.2912 -0.5117,-0.5645 0.082,-0.1977 0,-0.4017 -0.068,-0.5977 -0.1502,-0.5698 -0.3498,-1.1303 -0.5136,-1.6972 v 0 l -0.023,0.1133 c 0,-1.8131 0.068,-3.627 0,-5.4395 0,-0.4594 -0.089,-0.9248 0,-1.3848 0.068,-0.2907 0.4845,-0.3429 0.6074,-0.5918 0.089,-0.1977 -0.1218,-0.4071 0.09,-0.5996 0.1844,-0.1686 0.6064,-0.2912 0.5039,-0.5703 -0.068,-0.1454 -0.068,-0.2901 0.096,-0.4238 0.6692,-0.5943 1.5079,-1.0699 2.0528,-1.752 0.1092,-0.1395 0.3068,-0.1694 0.4844,-0.1113 0.2799,0.087 0.4367,-0.1573 0.5937,-0.3027 0.071,-0.063 0.1033,-0.094 0.2051,-0.1914 -0.064,0.068 -0.097,0.1273 -0.019,0.1445 0.2321,0.058 0.4777,-0.075 0.6757,-0.1738 0.4712,-0.2384 0.6066,-0.7804 1.1153,-0.9688 0.3345,-0.1279 0.7106,-0.058 1.0508,0 0.3209,0.058 0.6631,6e-4 0.9335,-0.1855 0.1366,-0.099 0.2043,-0.3379 0.375,-0.3379 0.3756,0 0.7659,0.1227 1.125,0 0.3141,-0.1047 0.361,-0.4828 0.7188,-0.5352 0.478,-0.07 0.9354,0.117 1.4141,0.088 0.3618,0 0.4501,-0.3897 0.7246,-0.5234 0.3209,-0.1512 0.6999,-0.059 1.0351,0 0.3141,0.058 0.7432,0.1054 0.9453,-0.1563 0.1639,-0.2151 0.3896,-0.414 0.7344,-0.414 0.4234,0 0.8299,0.1577 1.2539,0.1 0.3551,-0.058 0.4244,-0.4189 0.7207,-0.5352 0.2049,-0.081 0.4231,0 0.6348,0 0.4575,0 0.9206,0 1.3808,0 h 2.3575 c 0.2731,0 0.52,-0.1102 0.748,-0.2207 0.2936,-0.1395 0.5807,-0.3146 0.9317,-0.3379 z m -692.0469,6.666 c 8.7538,0 15.916,6.7631 15.916,15.0293 0,8.2663 -2.9833,15.0293 -6.6289,15.0293 -3.6452,0 -10.8069,-6.763 -15.916,-15.0293 -5.1087,-8.2662 -2.1253,-15.0293 6.6289,-15.0293 z m 586.5312,30.3555 c 34.7369,-0.065 33.8394,2.0592 7.6055,20.1836 -16.3053,11.2647 -52.4334,23.7396 -80.2852,27.7207 l -50.6406,7.2363 35.6094,-27.3847 c 19.5855,-15.0619 55.7136,-27.534 80.2851,-27.7188 2.6356,-0.02 5.11,-0.033 7.4258,-0.037 z m -472.9238,0.6602 c 24.7987,0 58.2159,9.9284 74.2617,22.0644 27.7401,20.9814 26.9576,22.0664 -15.914,22.0664 -24.7988,0 -58.216,-9.9299 -74.2618,-22.0664 -27.7396,-20.9806 -26.9579,-22.0644 15.9141,-22.0644 z m 541.5801,24.0488 c 0.2144,-0.014 0.4215,-0.013 0.623,0 6.0468,0.3993 6.3711,13.0165 6.3711,42.7734 0,28.8508 -2.3337,52.4571 -5.1855,52.4571 -2.8519,0 -16.2024,-12.1756 -29.668,-27.0547 -22.7179,-25.1028 -22.3443,-28.8839 5.1856,-52.4551 10.7711,-9.2227 17.6361,-14.8657 22.0097,-15.6387 0.2278,-0.04 0.4496,-0.068 0.6641,-0.082 z m -669.3301,50.1406 c 8.2662,0 15.0293,6.7631 15.0293,15.0293 0,8.2663 -6.7631,15.0313 -15.0293,15.0313 -8.2662,0 -15.0293,-6.765 -15.0293,-15.0313 0,-8.2662 6.7631,-15.0293 15.0293,-15.0293 z m 705.4961,0 c 7.7783,0 18.323,6.7631 23.4316,15.0293 5.1091,8.2663 -1.2556,15.0313 -14.1425,15.0313 -12.8874,0 -23.4317,-6.765 -23.4317,-15.0313 0,-8.2662 6.3643,-15.0293 14.1426,-15.0293 z"
       transform="scale(0.238125)"
       id="path8339"
       inkscape:connector-curvature="0" />
    <text
       xml:space="preserve"
       style="font-style:normal;font-weight:normal;font-size:45.71999741px;line-height:1.25;font-family:sans-serif;letter-spacing:0px;word-spacing:0px;fill:#000000;fill-opacity:1;stroke:none;stroke-width:0.238125"
       x="1686.6505"
       y="1650.2295"
       id="text4623-2-0"><tspan
         sodipodi:role="line"
         x="1686.6505"
         y="1650.2295"
         style="font-size:45.71999741px;stroke-width:0.238125"
         id="tspan4643-3">Selesnya</tspan><tspan
         sodipodi:role="line"
         x="1686.6505"
         y="1707.3795"
         style="font-size:45.71999741px;stroke-width:0.238125"
         id="tspan4668" /></text>
  </g>
</svg>
