<?xml version="1.0" encoding="UTF-8" standalone="no"?>
<!-- Created with Inkscape (http://www.inkscape.org/) -->

<svg
   xmlns:dc="http://purl.org/dc/elements/1.1/"
   xmlns:cc="http://creativecommons.org/ns#"
   xmlns:rdf="http://www.w3.org/1999/02/22-rdf-syntax-ns#"
   xmlns:svg="http://www.w3.org/2000/svg"
   xmlns="http://www.w3.org/2000/svg"
   xmlns:sodipodi="http://sodipodi.sourceforge.net/DTD/sodipodi-0.dtd"
   xmlns:inkscape="http://www.inkscape.org/namespaces/inkscape"
   width="450.31595mm"
   height="206.72548mm"
   viewBox="0 0 405.28435 186.05292"
   version="1.1"
   id="svg5768"
   inkscape:version="0.92.5 (2060ec1f9f, 2020-04-08)"
   sodipodi:docname="simic.svg">
  <defs
     id="defs5762">
    <inkscape:path-effect
       effect="simplify"
       id="path-effect4565"
       is_visible="true"
       steps="1"
       threshold="0.000408163"
       smooth_angles="360"
       helper_size="0"
       simplify_individual_paths="false"
       simplify_just_coalesce="false"
       simplifyindividualpaths="false"
       simplifyJustCoalesce="false" />
    <inkscape:path-effect
       effect="simplify"
       id="path-effect4543"
       is_visible="true"
       steps="1"
       threshold="0.000408163"
       smooth_angles="360"
       helper_size="0"
       simplify_individual_paths="false"
       simplify_just_coalesce="false"
       simplifyindividualpaths="false"
       simplifyJustCoalesce="false" />
    <inkscape:path-effect
       effect="simplify"
       id="path-effect8619"
       is_visible="true"
       steps="1"
       threshold="0.000408163"
       smooth_angles="360"
       helper_size="0"
       simplify_individual_paths="false"
       simplify_just_coalesce="false"
       simplifyindividualpaths="false"
       simplifyJustCoalesce="false" />
    <inkscape:path-effect
       effect="simplify"
       id="path-effect8615"
       is_visible="true"
       steps="1"
       threshold="0.000408163"
       smooth_angles="360"
       helper_size="0"
       simplify_individual_paths="false"
       simplify_just_coalesce="false"
       simplifyindividualpaths="false"
       simplifyJustCoalesce="false" />
    <inkscape:path-effect
       effect="simplify"
       id="path-effect8611"
       is_visible="true"
       steps="1"
       threshold="0.000408163"
       smooth_angles="360"
       helper_size="0"
       simplify_individual_paths="false"
       simplify_just_coalesce="false"
       simplifyindividualpaths="false"
       simplifyJustCoalesce="false" />
    <inkscape:path-effect
       effect="simplify"
       id="path-effect8607"
       is_visible="true"
       steps="1"
       threshold="0.000408163"
       smooth_angles="360"
       helper_size="0"
       simplify_individual_paths="false"
       simplify_just_coalesce="false"
       simplifyindividualpaths="false"
       simplifyJustCoalesce="false" />
    <inkscape:path-effect
       effect="simplify"
       id="path-effect8600"
       is_visible="true"
       steps="1"
       threshold="0.000408163"
       smooth_angles="360"
       helper_size="0"
       simplify_individual_paths="false"
       simplify_just_coalesce="false"
       simplifyindividualpaths="false"
       simplifyJustCoalesce="false" />
    <inkscape:path-effect
       effect="simplify"
       id="path-effect8584"
       is_visible="true"
       steps="1"
       threshold="0.000408163"
       smooth_angles="360"
       helper_size="0"
       simplify_individual_paths="false"
       simplify_just_coalesce="false"
       simplifyindividualpaths="false"
       simplifyJustCoalesce="false" />
    <inkscape:path-effect
       effect="simplify"
       id="path-effect8571"
       is_visible="true"
       steps="1"
       threshold="0.000408163"
       smooth_angles="360"
       helper_size="0"
       simplify_individual_paths="false"
       simplify_just_coalesce="false"
       simplifyindividualpaths="false"
       simplifyJustCoalesce="false" />
    <inkscape:path-effect
       effect="simplify"
       id="path-effect8556"
       is_visible="true"
       steps="1"
       threshold="0.000408163"
       smooth_angles="360"
       helper_size="0"
       simplify_individual_paths="false"
       simplify_just_coalesce="false"
       simplifyindividualpaths="false"
       simplifyJustCoalesce="false" />
    <inkscape:path-effect
       effect="simplify"
       id="path-effect8532"
       is_visible="true"
       steps="1"
       threshold="0.000408163"
       smooth_angles="360"
       helper_size="0"
       simplify_individual_paths="false"
       simplify_just_coalesce="false"
       simplifyindividualpaths="false"
       simplifyJustCoalesce="false" />
    <inkscape:path-effect
       effect="simplify"
       id="path-effect8528"
       is_visible="true"
       steps="1"
       threshold="0.000408163"
       smooth_angles="360"
       helper_size="0"
       simplify_individual_paths="false"
       simplify_just_coalesce="false"
       simplifyindividualpaths="false"
       simplifyJustCoalesce="false" />
    <inkscape:path-effect
       effect="simplify"
       id="path-effect8524"
       is_visible="true"
       steps="1"
       threshold="0.000408163"
       smooth_angles="360"
       helper_size="0"
       simplify_individual_paths="false"
       simplify_just_coalesce="false"
       simplifyindividualpaths="false"
       simplifyJustCoalesce="false" />
    <inkscape:path-effect
       effect="simplify"
       id="path-effect8449"
       is_visible="true"
       steps="1"
       threshold="0.000408163"
       smooth_angles="360"
       helper_size="0"
       simplify_individual_paths="false"
       simplify_just_coalesce="false"
       simplifyindividualpaths="false"
       simplifyJustCoalesce="false" />
    <inkscape:path-effect
       effect="simplify"
       id="path-effect8443"
       is_visible="true"
       steps="1"
       threshold="0.000408163"
       smooth_angles="360"
       helper_size="0"
       simplify_individual_paths="false"
       simplify_just_coalesce="false"
       simplifyindividualpaths="false"
       simplifyJustCoalesce="false" />
    <inkscape:path-effect
       effect="simplify"
       id="path-effect8434"
       is_visible="true"
       steps="1"
       threshold="0.000408163"
       smooth_angles="360"
       helper_size="0"
       simplify_individual_paths="false"
       simplify_just_coalesce="false"
       simplifyindividualpaths="false"
       simplifyJustCoalesce="false" />
    <inkscape:path-effect
       effect="simplify"
       id="path-effect8422"
       is_visible="true"
       steps="1"
       threshold="0.000408163"
       smooth_angles="360"
       helper_size="0"
       simplify_individual_paths="false"
       simplify_just_coalesce="false"
       simplifyindividualpaths="false"
       simplifyJustCoalesce="false" />
    <inkscape:path-effect
       effect="simplify"
       id="path-effect8418"
       is_visible="true"
       steps="1"
       threshold="0.000408163"
       smooth_angles="360"
       helper_size="0"
       simplify_individual_paths="false"
       simplify_just_coalesce="false"
       simplifyindividualpaths="false"
       simplifyJustCoalesce="false" />
    <inkscape:path-effect
       effect="simplify"
       id="path-effect8413"
       is_visible="true"
       steps="1"
       threshold="0.000408163"
       smooth_angles="360"
       helper_size="0"
       simplify_individual_paths="false"
       simplify_just_coalesce="false"
       simplifyindividualpaths="false"
       simplifyJustCoalesce="false" />
    <inkscape:path-effect
       effect="simplify"
       id="path-effect8391"
       is_visible="true"
       steps="1"
       threshold="0.000408163"
       smooth_angles="360"
       helper_size="0"
       simplify_individual_paths="false"
       simplify_just_coalesce="false"
       simplifyindividualpaths="false"
       simplifyJustCoalesce="false" />
    <inkscape:path-effect
       effect="simplify"
       id="path-effect8114"
       is_visible="true"
       steps="1"
       threshold="0.000408163"
       smooth_angles="360"
       helper_size="0"
       simplify_individual_paths="false"
       simplify_just_coalesce="false"
       simplifyindividualpaths="false"
       simplifyJustCoalesce="false" />
    <inkscape:path-effect
       effect="simplify"
       id="path-effect7808"
       is_visible="true"
       steps="1"
       threshold="0.000408163"
       smooth_angles="360"
       helper_size="0"
       simplify_individual_paths="false"
       simplify_just_coalesce="false"
       simplifyindividualpaths="false"
       simplifyJustCoalesce="false" />
    <inkscape:path-effect
       effect="simplify"
       id="path-effect6980"
       is_visible="true"
       steps="1"
       threshold="0.000408163"
       smooth_angles="360"
       helper_size="0"
       simplify_individual_paths="false"
       simplify_just_coalesce="false"
       simplifyindividualpaths="false"
       simplifyJustCoalesce="false" />
    <inkscape:path-effect
       effect="simplify"
       id="path-effect6741"
       is_visible="true"
       steps="1"
       threshold="0.000408163"
       smooth_angles="360"
       helper_size="0"
       simplify_individual_paths="false"
       simplify_just_coalesce="false"
       simplifyindividualpaths="false"
       simplifyJustCoalesce="false" />
  </defs>
  <sodipodi:namedview
     id="base"
     pagecolor="#ffffff"
     bordercolor="#666666"
     borderopacity="1.0"
     inkscape:pageopacity="0.0"
     inkscape:pageshadow="2"
     inkscape:zoom="0.1767767"
     inkscape:cx="-23.703418"
     inkscape:cy="255.9728"
     inkscape:document-units="mm"
     inkscape:current-layer="layer1"
     showgrid="false"
     inkscape:window-width="1920"
     inkscape:window-height="1020"
     inkscape:window-x="0"
     inkscape:window-y="0"
     inkscape:window-maximized="1"
     units="mm"
     scale-x="0.9"
     showborder="true"
     inkscape:snap-global="false" />
  <metadata
     id="metadata5765">
    <rdf:RDF>
      <cc:Work
         rdf:about="">
        <dc:format>image/svg+xml</dc:format>
        <dc:type
           rdf:resource="http://purl.org/dc/dcmitype/StillImage" />
        <dc:title></dc:title>
      </cc:Work>
    </rdf:RDF>
  </metadata>
  <g
     inkscape:label="Layer 1"
     inkscape:groupmode="layer"
     id="layer1"
     transform="translate(-2240.4078,-1460.778)">
    <path
       style="fill:#000000;stroke-width:3.57888269"
       d="m 2307.2075,1460.7808 c -0.457,0 -0.9136,0 -1.366,0 -1.2063,0.011 -2.3825,0.044 -3.4565,0.1028 -4.4236,0.2401 -8.7966,3.5284 -10.0831,7.5818 -1.2495,3.9368 -4.5228,7.1577 -7.2735,7.1577 -2.7506,0 -6.7247,3.221 -8.8316,7.1577 -2.4826,4.6388 -7.4938,7.1577 -14.2387,7.1577 -6.6981,0 -12.3935,2.8355 -15.979,7.9544 -3.0642,4.3747 -5.5713,11.2635 -5.5713,15.3084 0,4.045 2.5071,10.9341 5.5713,15.3088 3.3561,4.7916 9.3143,7.9539 14.9852,7.9539 h 9.4138 l -9.3892,9.8423 c -5.164,5.413 -11.1019,14.3751 -13.1955,19.9164 -2.0936,5.5411 -3.8067,14.8816 -3.8067,20.7564 0,5.8747 2.5246,15.5634 5.6103,21.5303 3.4179,6.6096 7.5418,10.1077 10.5534,8.952 2.7927,-1.0716 5.8409,0.9327 7.007,4.6067 1.1352,3.5767 4.8413,9.0056 8.2357,12.0644 3.3945,3.0588 10.8656,6.7334 16.6023,8.1656 8.9228,2.2275 10.0894,1.7148 8.0707,-3.5459 -1.931,-5.0318 -0.5745,-4.7369 7.4637,1.6204 v -5e-4 c 8.1149,6.4179 12.8451,7.4165 27.1904,5.7392 9.5515,-1.1167 24.2198,-6.0469 32.5966,-10.9561 8.3769,-4.9091 17.8753,-12.9615 21.1071,-17.8937 3.2318,-4.9324 5.876,-11.4909 5.876,-14.5745 0,-3.0836 -2.4856,-6.5605 -5.5229,-7.726 -3.0375,-1.1655 -6.6146,-1.0275 -7.9488,0.3069 -1.3346,1.3344 -0.057,3.9782 2.8384,5.875 4.3794,2.8688 3.5764,4.9427 -4.7765,12.3318 -5.5228,4.8855 -14.3806,9.1255 -19.6839,9.4222 -5.3032,0.2968 -14.4481,0.1435 -20.3216,-0.3409 -5.8736,-0.4844 -14.8948,-3.0608 -20.0471,-5.7252 -5.1524,-2.6644 -12.0231,-8.8962 -15.2679,-13.8485 -3.2449,-4.9524 -5.8997,-16.0663 -5.8997,-24.698 0,-11.7212 2.6896,-19.4066 10.6245,-30.3605 5.8434,-8.0665 13.7897,-16.3607 17.6589,-18.4314 3.8691,-2.0708 11.9353,-3.7649 17.9245,-3.7649 7.6956,0 12.6265,2.6512 16.812,9.039 5.546,8.4643 5.5157,9.4883 -0.4725,16.105 -3.517,3.8865 -8.5607,7.0661 -11.2082,7.0661 -2.6475,0 -4.8136,-2.0938 -4.8136,-4.6527 0,-2.5589 1.9325,-6.5853 4.2946,-8.9474 3.3403,-3.3403 2.2325,-4.2946 -4.9853,-4.2946 -5.1041,0 -10.2145,2.4349 -11.3565,5.4108 -1.142,2.9759 -0.3193,9.2663 1.8278,13.9787 2.1471,4.7125 7.4844,9.2527 11.8607,10.0892 4.3763,0.8366 11.5054,0.2083 15.8427,-1.3962 4.3374,-1.6045 10.2058,-8.4691 13.0411,-15.2549 2.8353,-6.7858 6.6448,-13.2587 8.4655,-14.3838 1.8207,-1.1252 5.8712,-1.0629 9.0013,0.1381 3.1302,1.2013 5.6912,5.2328 5.6912,8.959 0,3.7262 -1.5602,6.7745 -3.4666,6.7745 -1.9067,0 -2.4551,-2.6352 -1.2192,-5.8564 1.5454,-4.0272 0.672,-5.3316 -2.7965,-4.1755 -2.7739,0.9247 -5.0438,5.5735 -5.0438,10.3305 0,6.043 2.251,8.9703 7.4712,9.7162 4.1089,0.5871 9.5641,-1.4549 12.123,-4.5379 2.5586,-3.0831 4.9268,-9.2002 5.2623,-13.5936 0.336,-4.3935 -0.9756,-10.1072 -2.9147,-12.6974 -1.939,-2.5901 -3.643,-10.5866 -3.7866,-17.7696 -0.1951,-9.7584 -2.271,-14.0669 -8.2125,-17.0436 -5.9855,-2.9986 -6.9354,-4.9999 -3.8421,-8.093 3.093,-3.0932 2.4884,-5.9 -2.4451,-11.3514 -3.6047,-3.9833 -10.939,-7.2423 -16.298,-7.2423 -5.3591,0 -11.7487,-2.4159 -14.1991,-5.3685 -2.4504,-2.9527 -8.6867,-5.3427 -13.8587,-5.3137 -5.1721,0.03 -11.7771,1.5557 -14.6777,3.3901 -2.9006,1.8342 -6.1215,1.9705 -7.1577,0.3027 -1.0362,-1.6677 -4.3,-3.3838 -7.2526,-3.8137 -1.9377,-0.2819 -5.1576,-0.4481 -8.3567,-0.4632 z m 6.0819,16.0832 c 0.3255,0.049 0.7125,0.599 1.1409,1.6697 1.034,2.5834 0.9069,5.6702 -0.2823,6.8595 -1.1893,1.1892 -2.0353,-0.9247 -1.8799,-4.6974 0.1073,-2.6057 0.4788,-3.9139 1.0213,-3.8318 z m 25.8482,0.2093 c 0.2317,-0.012 0.1339,0.4384 -0.3534,1.3934 -1.2996,2.5467 -0.5795,6.7791 1.5999,9.405 3.0481,3.6727 2.2931,5.211 -3.271,6.6661 -4.328,1.1317 -7.2331,0.1444 -7.2331,-2.458 0,-2.3921 2.5351,-7.4752 5.6337,-11.2961 1.9366,-2.388 3.2377,-3.6909 3.6239,-3.7104 z m 37.4791,5.7103 c 2.0846,0 2.7947,1.6105 1.5781,3.5789 -1.2165,1.9684 -2.9219,3.5788 -3.79,3.5788 -0.868,0 -1.5785,-1.6104 -1.5785,-3.5788 0,-1.9684 1.7059,-3.5789 3.7904,-3.5789 z m -15.4041,1.7227 c 0.7868,0.01 1.698,0.1901 2.6668,0.5618 2.9526,1.133 5.368,2.6932 5.368,3.4668 0,0.7736 -2.4154,1.4064 -5.368,1.4064 -2.9526,0 -5.3685,-1.5597 -5.3685,-3.4663 0,-1.1916 0.9438,-1.8858 2.3724,-1.9622 0.1071,-0.01 0.2169,-0.01 0.3293,-0.01 z m -10.9654,19.8053 c 2.3443,-0.03 5.258,1.556 6.4745,3.5245 1.2166,1.9683 1.7142,3.5529 1.106,3.5239 -0.6084,-0.03 -3.5219,-1.6159 -6.4745,-3.5239 -3.2256,-2.0845 -3.6671,-3.4925 -1.106,-3.5245 z m -82.8857,10.6821 c 2.8908,10e-5 5.2565,1.5156 5.2565,3.3677 0,1.8523 -1.4419,4.2586 -3.204,5.3476 -1.7621,1.0891 -4.1273,-0.4265 -5.256,-3.3677 -1.2465,-3.2484 0.011,-5.3475 3.2035,-5.3476 z m 125.3603,0 c 0.868,10e-5 1.5781,1.6105 1.5781,3.5789 0,1.9684 -1.7055,3.5788 -3.79,3.5788 -2.0846,0 -2.7952,-1.6104 -1.5786,-3.5788 1.2166,-1.9684 2.9225,-3.5789 3.7905,-3.5789 z"
       id="path8535"
       inkscape:connector-curvature="0" />
    <text
       xml:space="preserve"
       style="font-style:normal;font-weight:normal;font-size:45.71999741px;line-height:1.25;font-family:sans-serif;letter-spacing:0px;word-spacing:0px;fill:#000000;fill-opacity:1;stroke:none;stroke-width:0.238125"
       x="2524.427"
       y="1601.9244"
       id="text4623-2"><tspan
         sodipodi:role="line"
         id="tspan4621-7"
         x="2524.427"
         y="1601.9244"
         style="font-size:45.71999741px;stroke-width:0.238125">Simic</tspan><tspan
         sodipodi:role="line"
         x="2524.427"
         y="1659.0745"
         style="font-size:45.71999741px;stroke-width:0.238125"
         id="tspan4643" /></text>
  </g>
</svg>
