<?xml version="1.0" encoding="UTF-8" standalone="no"?>
<!-- Created with Inkscape (http://www.inkscape.org/) -->

<svg
   xmlns:dc="http://purl.org/dc/elements/1.1/"
   xmlns:cc="http://creativecommons.org/ns#"
   xmlns:rdf="http://www.w3.org/1999/02/22-rdf-syntax-ns#"
   xmlns:svg="http://www.w3.org/2000/svg"
   xmlns="http://www.w3.org/2000/svg"
   xmlns:sodipodi="http://sodipodi.sourceforge.net/DTD/sodipodi-0.dtd"
   xmlns:inkscape="http://www.inkscape.org/namespaces/inkscape"
   width="36.776421mm"
   height="36.990444mm"
   viewBox="0 0 33.098779 33.291399"
   version="1.1"
   id="svg5768"
   inkscape:version="0.92.5 (2060ec1f9f, 2020-04-08)"
   sodipodi:docname="white.svg">
  <defs
     id="defs5762">
    <inkscape:path-effect
       effect="simplify"
       id="path-effect8619"
       is_visible="true"
       steps="1"
       threshold="0.000408163"
       smooth_angles="360"
       helper_size="0"
       simplify_individual_paths="false"
       simplify_just_coalesce="false"
       simplifyindividualpaths="false"
       simplifyJustCoalesce="false" />
    <inkscape:path-effect
       effect="simplify"
       id="path-effect8615"
       is_visible="true"
       steps="1"
       threshold="0.000408163"
       smooth_angles="360"
       helper_size="0"
       simplify_individual_paths="false"
       simplify_just_coalesce="false"
       simplifyindividualpaths="false"
       simplifyJustCoalesce="false" />
    <inkscape:path-effect
       effect="simplify"
       id="path-effect8611"
       is_visible="true"
       steps="1"
       threshold="0.000408163"
       smooth_angles="360"
       helper_size="0"
       simplify_individual_paths="false"
       simplify_just_coalesce="false"
       simplifyindividualpaths="false"
       simplifyJustCoalesce="false" />
    <inkscape:path-effect
       effect="simplify"
       id="path-effect8607"
       is_visible="true"
       steps="1"
       threshold="0.000408163"
       smooth_angles="360"
       helper_size="0"
       simplify_individual_paths="false"
       simplify_just_coalesce="false"
       simplifyindividualpaths="false"
       simplifyJustCoalesce="false" />
    <inkscape:path-effect
       effect="simplify"
       id="path-effect8600"
       is_visible="true"
       steps="1"
       threshold="0.000408163"
       smooth_angles="360"
       helper_size="0"
       simplify_individual_paths="false"
       simplify_just_coalesce="false"
       simplifyindividualpaths="false"
       simplifyJustCoalesce="false" />
    <inkscape:path-effect
       effect="simplify"
       id="path-effect8584"
       is_visible="true"
       steps="1"
       threshold="0.000408163"
       smooth_angles="360"
       helper_size="0"
       simplify_individual_paths="false"
       simplify_just_coalesce="false"
       simplifyindividualpaths="false"
       simplifyJustCoalesce="false" />
    <inkscape:path-effect
       effect="simplify"
       id="path-effect8571"
       is_visible="true"
       steps="1"
       threshold="0.000408163"
       smooth_angles="360"
       helper_size="0"
       simplify_individual_paths="false"
       simplify_just_coalesce="false"
       simplifyindividualpaths="false"
       simplifyJustCoalesce="false" />
    <inkscape:path-effect
       effect="simplify"
       id="path-effect8556"
       is_visible="true"
       steps="1"
       threshold="0.000408163"
       smooth_angles="360"
       helper_size="0"
       simplify_individual_paths="false"
       simplify_just_coalesce="false"
       simplifyindividualpaths="false"
       simplifyJustCoalesce="false" />
    <inkscape:path-effect
       effect="simplify"
       id="path-effect8532"
       is_visible="true"
       steps="1"
       threshold="0.000408163"
       smooth_angles="360"
       helper_size="0"
       simplify_individual_paths="false"
       simplify_just_coalesce="false"
       simplifyindividualpaths="false"
       simplifyJustCoalesce="false" />
    <inkscape:path-effect
       effect="simplify"
       id="path-effect8528"
       is_visible="true"
       steps="1"
       threshold="0.000408163"
       smooth_angles="360"
       helper_size="0"
       simplify_individual_paths="false"
       simplify_just_coalesce="false"
       simplifyindividualpaths="false"
       simplifyJustCoalesce="false" />
    <inkscape:path-effect
       effect="simplify"
       id="path-effect8524"
       is_visible="true"
       steps="1"
       threshold="0.000408163"
       smooth_angles="360"
       helper_size="0"
       simplify_individual_paths="false"
       simplify_just_coalesce="false"
       simplifyindividualpaths="false"
       simplifyJustCoalesce="false" />
    <inkscape:path-effect
       effect="simplify"
       id="path-effect8449"
       is_visible="true"
       steps="1"
       threshold="0.000408163"
       smooth_angles="360"
       helper_size="0"
       simplify_individual_paths="false"
       simplify_just_coalesce="false"
       simplifyindividualpaths="false"
       simplifyJustCoalesce="false" />
    <inkscape:path-effect
       effect="simplify"
       id="path-effect8443"
       is_visible="true"
       steps="1"
       threshold="0.000408163"
       smooth_angles="360"
       helper_size="0"
       simplify_individual_paths="false"
       simplify_just_coalesce="false"
       simplifyindividualpaths="false"
       simplifyJustCoalesce="false" />
    <inkscape:path-effect
       effect="simplify"
       id="path-effect8434"
       is_visible="true"
       steps="1"
       threshold="0.000408163"
       smooth_angles="360"
       helper_size="0"
       simplify_individual_paths="false"
       simplify_just_coalesce="false"
       simplifyindividualpaths="false"
       simplifyJustCoalesce="false" />
    <inkscape:path-effect
       effect="simplify"
       id="path-effect8422"
       is_visible="true"
       steps="1"
       threshold="0.000408163"
       smooth_angles="360"
       helper_size="0"
       simplify_individual_paths="false"
       simplify_just_coalesce="false"
       simplifyindividualpaths="false"
       simplifyJustCoalesce="false" />
    <inkscape:path-effect
       effect="simplify"
       id="path-effect8418"
       is_visible="true"
       steps="1"
       threshold="0.000408163"
       smooth_angles="360"
       helper_size="0"
       simplify_individual_paths="false"
       simplify_just_coalesce="false"
       simplifyindividualpaths="false"
       simplifyJustCoalesce="false" />
    <inkscape:path-effect
       effect="simplify"
       id="path-effect8413"
       is_visible="true"
       steps="1"
       threshold="0.000408163"
       smooth_angles="360"
       helper_size="0"
       simplify_individual_paths="false"
       simplify_just_coalesce="false"
       simplifyindividualpaths="false"
       simplifyJustCoalesce="false" />
    <inkscape:path-effect
       effect="simplify"
       id="path-effect8391"
       is_visible="true"
       steps="1"
       threshold="0.000408163"
       smooth_angles="360"
       helper_size="0"
       simplify_individual_paths="false"
       simplify_just_coalesce="false"
       simplifyindividualpaths="false"
       simplifyJustCoalesce="false" />
    <inkscape:path-effect
       effect="simplify"
       id="path-effect8114"
       is_visible="true"
       steps="1"
       threshold="0.000408163"
       smooth_angles="360"
       helper_size="0"
       simplify_individual_paths="false"
       simplify_just_coalesce="false"
       simplifyindividualpaths="false"
       simplifyJustCoalesce="false" />
    <inkscape:path-effect
       effect="simplify"
       id="path-effect7808"
       is_visible="true"
       steps="1"
       threshold="0.000408163"
       smooth_angles="360"
       helper_size="0"
       simplify_individual_paths="false"
       simplify_just_coalesce="false"
       simplifyindividualpaths="false"
       simplifyJustCoalesce="false" />
    <inkscape:path-effect
       effect="simplify"
       id="path-effect6980"
       is_visible="true"
       steps="1"
       threshold="0.000408163"
       smooth_angles="360"
       helper_size="0"
       simplify_individual_paths="false"
       simplify_just_coalesce="false"
       simplifyindividualpaths="false"
       simplifyJustCoalesce="false" />
    <inkscape:path-effect
       effect="simplify"
       id="path-effect6741"
       is_visible="true"
       steps="1"
       threshold="0.000408163"
       smooth_angles="360"
       helper_size="0"
       simplify_individual_paths="false"
       simplify_just_coalesce="false"
       simplifyindividualpaths="false"
       simplifyJustCoalesce="false" />
  </defs>
  <sodipodi:namedview
     id="base"
     pagecolor="#ffffff"
     bordercolor="#666666"
     borderopacity="1.0"
     inkscape:pageopacity="0.0"
     inkscape:pageshadow="2"
     inkscape:zoom="0.16"
     inkscape:cx="-2162.0865"
     inkscape:cy="-653.38688"
     inkscape:document-units="mm"
     inkscape:current-layer="layer1"
     showgrid="false"
     inkscape:window-width="1920"
     inkscape:window-height="1020"
     inkscape:window-x="0"
     inkscape:window-y="0"
     inkscape:window-maximized="1"
     units="mm"
     scale-x="0.9"
     showborder="true"
     inkscape:snap-global="false" />
  <metadata
     id="metadata5765">
    <rdf:RDF>
      <cc:Work
         rdf:about="">
        <dc:format>image/svg+xml</dc:format>
        <dc:type
           rdf:resource="http://purl.org/dc/dcmitype/StillImage" />
        <dc:title></dc:title>
      </cc:Work>
    </rdf:RDF>
  </metadata>
  <g
     inkscape:label="Layer 1"
     inkscape:groupmode="layer"
     id="layer1"
     transform="translate(-243.34704,-520.75608)">
    <path
       style="fill:#000000;stroke-width:0.3175"
       d="m 262.08298,520.75921 c -0.70604,-0.13495 -5.59129,4.13085 -5.59129,4.92852 0,0.15411 0.35735,0.51385 0.79391,0.79995 0.989,0.64801 1.06649,2.13751 0.15859,3.04541 -0.90897,0.90899 -1.43287,0.79107 -2.19104,-0.49394 -0.65465,-1.10979 -0.69802,-1.12803 -2.49193,-1.03201 l -1.82594,0.0972 -0.66042,-2.04778 -0.66041,-2.04781 -0.57208,2.72589 c -0.35966,1.714 -0.48987,3.16473 -0.35066,3.90675 0.20893,1.1135 0.27804,1.17153 1.23247,1.02644 0.55623,-0.0846 1.26827,-0.0195 1.58224,0.14464 0.84487,0.44232 1.22946,1.69904 0.80505,2.63054 -0.31654,0.6948 -0.49823,0.76072 -1.65942,0.60181 -1.19386,-0.16328 -1.39179,-0.082 -2.34358,0.9646 -0.57176,0.62882 -1.2161,1.14367 -1.43153,1.14367 -0.21543,0 -1.06259,-0.35743 -1.88269,-0.79391 -0.82006,-0.4366 -1.55584,-0.79391 -1.63525,-0.79391 -0.22753,0 2.86152,4.59522 3.33841,4.96622 0.98634,0.76719 1.54879,0.72121 2.61333,-0.21348 1.32102,-1.15991 2.23702,-1.19727 2.94261,-0.12047 0.5289,0.8072 0.52016,0.83584 -0.46928,1.61013 -0.85144,0.66642 -1.00738,0.99905 -1.00738,2.14546 0,1.60301 -0.52271,2.18513 -2.70682,3.01423 -0.84744,0.32171 -1.35195,0.66782 -1.15248,0.79112 0.53143,0.32831 5.56153,0.62668 6.51868,0.38648 0.74526,-0.18709 0.83296,-0.36059 0.83296,-1.63989 0,-1.2648 0.10011,-1.46847 0.86413,-1.75896 1.2503,-0.4753 2.46247,0.10325 2.00546,0.95714 -0.54637,1.02101 -0.38276,1.63223 0.78182,2.92122 1.31842,1.45931 1.35571,1.89886 0.31394,3.72116 -0.43448,0.76 -0.79019,1.507 -0.79019,1.6599 0,0.48561 4.90337,-3.38821 5.35362,-4.22951 0.38576,-0.7208 0.36128,-0.87592 -0.23067,-1.4678 -1.30321,-1.30321 -1.15727,-3.25269 0.27115,-3.62631 0.48232,-0.12609 0.76745,0.0547 1.09992,0.69763 0.77917,1.50681 1.32624,1.78561 2.59845,1.3255 1.42834,-0.51649 2.09695,0.0188 2.66495,2.13198 0.2206,0.8207 0.50128,1.60554 0.62322,1.74453 0.28784,0.32802 0.95436,-3.71634 0.95436,-5.79034 v -1.60594 h -1.19946 c -1.71205,0 -2.67115,-0.75795 -2.54915,-2.01475 0.0903,-0.92981 0.18814,-1.00529 1.36736,-1.0553 0.69851,-0.029 1.49721,-0.0646 1.77477,-0.0786 0.27755,-0.0143 0.66556,-0.3793 0.86227,-0.8111 0.5409,-1.1871 1.66414,-1.30468 3.67282,-0.38509 l 1.73802,0.79529 -1.39108,-2.29103 c -2.3099,-3.80478 -3.31422,-4.32361 -4.9704,-2.5682 -1.14753,1.21639 -1.72769,1.24135 -2.43752,0.10463 -0.37279,-0.59688 -0.33066,-0.74776 0.37393,-1.34316 1.12149,-0.94779 1.56481,-1.9818 1.32271,-3.08401 -0.28246,-1.28618 0.20312,-1.76503 2.25428,-2.22404 0.94695,-0.212 1.72129,-0.47399 1.72129,-0.58229 0,-0.2069 -4.42629,-0.97202 -5.62337,-0.97202 -1.51857,0 -2.27593,0.64565 -2.37706,2.02544 -0.10287,1.40291 -0.55471,1.6995 -2.02825,1.32969 -0.6935,-0.17409 -0.7521,-0.3142 -0.57996,-1.3906 0.16783,-1.04951 0.0507,-1.36617 -0.94971,-2.56358 -1.3572,-1.62449 -1.41542,-2.34287 -0.31952,-3.95557 0.45208,-0.6653 0.7655,-1.2658 0.69671,-1.33481 -0.0138,-0.0138 -0.0321,-0.0226 -0.0549,-0.0269 z m -2.08266,9.66266 c 3.90998,0 6.97701,3.11974 6.9656,7.08514 -0.008,2.60671 -2.46557,5.81111 -5.05222,6.58611 -3.78448,1.13391 -7.72268,-0.95843 -8.80367,-4.67692 -1.39282,-4.79109 1.82706,-8.99433 6.89029,-8.99433 z m 0.059,0.73623 c -2.89453,-0.0412 -5.06659,1.2247 -6.14567,3.60024 -1.67833,3.69479 0.45243,7.72222 4.64158,8.77202 1.3504,0.3385 3.2826,0.0229 4.75878,-0.77762 2.57547,-1.39641 3.73273,-5.43377 2.32825,-8.12137 -1.13631,-2.1743 -2.74449,-3.28453 -4.99413,-3.44722 -0.19928,-0.0145 -0.39583,-0.0233 -0.58881,-0.026 z"
       id="path7686-3"
       inkscape:connector-curvature="0" />
  </g>
</svg>
