<?xml version="1.0" encoding="UTF-8" standalone="no"?>
<!-- Created with Inkscape (http://www.inkscape.org/) -->

<svg
   xmlns:dc="http://purl.org/dc/elements/1.1/"
   xmlns:cc="http://creativecommons.org/ns#"
   xmlns:rdf="http://www.w3.org/1999/02/22-rdf-syntax-ns#"
   xmlns:svg="http://www.w3.org/2000/svg"
   xmlns="http://www.w3.org/2000/svg"
   xmlns:sodipodi="http://sodipodi.sourceforge.net/DTD/sodipodi-0.dtd"
   xmlns:inkscape="http://www.inkscape.org/namespaces/inkscape"
   width="234.61615mm"
   height="204.1292mm"
   viewBox="0 0 211.15454 183.71627"
   version="1.1"
   id="svg5768"
   inkscape:version="0.92.5 (2060ec1f9f, 2020-04-08)"
   sodipodi:docname="WU.svg">
  <defs
     id="defs5762">
    <inkscape:path-effect
       effect="simplify"
       id="path-effect4565"
       is_visible="true"
       steps="1"
       threshold="0.000408163"
       smooth_angles="360"
       helper_size="0"
       simplify_individual_paths="false"
       simplify_just_coalesce="false"
       simplifyindividualpaths="false"
       simplifyJustCoalesce="false" />
    <inkscape:path-effect
       effect="simplify"
       id="path-effect4543"
       is_visible="true"
       steps="1"
       threshold="0.000408163"
       smooth_angles="360"
       helper_size="0"
       simplify_individual_paths="false"
       simplify_just_coalesce="false"
       simplifyindividualpaths="false"
       simplifyJustCoalesce="false" />
    <inkscape:path-effect
       effect="simplify"
       id="path-effect8619"
       is_visible="true"
       steps="1"
       threshold="0.000408163"
       smooth_angles="360"
       helper_size="0"
       simplify_individual_paths="false"
       simplify_just_coalesce="false"
       simplifyindividualpaths="false"
       simplifyJustCoalesce="false" />
    <inkscape:path-effect
       effect="simplify"
       id="path-effect8615"
       is_visible="true"
       steps="1"
       threshold="0.000408163"
       smooth_angles="360"
       helper_size="0"
       simplify_individual_paths="false"
       simplify_just_coalesce="false"
       simplifyindividualpaths="false"
       simplifyJustCoalesce="false" />
    <inkscape:path-effect
       effect="simplify"
       id="path-effect8611"
       is_visible="true"
       steps="1"
       threshold="0.000408163"
       smooth_angles="360"
       helper_size="0"
       simplify_individual_paths="false"
       simplify_just_coalesce="false"
       simplifyindividualpaths="false"
       simplifyJustCoalesce="false" />
    <inkscape:path-effect
       effect="simplify"
       id="path-effect8607"
       is_visible="true"
       steps="1"
       threshold="0.000408163"
       smooth_angles="360"
       helper_size="0"
       simplify_individual_paths="false"
       simplify_just_coalesce="false"
       simplifyindividualpaths="false"
       simplifyJustCoalesce="false" />
    <inkscape:path-effect
       effect="simplify"
       id="path-effect8600"
       is_visible="true"
       steps="1"
       threshold="0.000408163"
       smooth_angles="360"
       helper_size="0"
       simplify_individual_paths="false"
       simplify_just_coalesce="false"
       simplifyindividualpaths="false"
       simplifyJustCoalesce="false" />
    <inkscape:path-effect
       effect="simplify"
       id="path-effect8584"
       is_visible="true"
       steps="1"
       threshold="0.000408163"
       smooth_angles="360"
       helper_size="0"
       simplify_individual_paths="false"
       simplify_just_coalesce="false"
       simplifyindividualpaths="false"
       simplifyJustCoalesce="false" />
    <inkscape:path-effect
       effect="simplify"
       id="path-effect8571"
       is_visible="true"
       steps="1"
       threshold="0.000408163"
       smooth_angles="360"
       helper_size="0"
       simplify_individual_paths="false"
       simplify_just_coalesce="false"
       simplifyindividualpaths="false"
       simplifyJustCoalesce="false" />
    <inkscape:path-effect
       effect="simplify"
       id="path-effect8556"
       is_visible="true"
       steps="1"
       threshold="0.000408163"
       smooth_angles="360"
       helper_size="0"
       simplify_individual_paths="false"
       simplify_just_coalesce="false"
       simplifyindividualpaths="false"
       simplifyJustCoalesce="false" />
    <inkscape:path-effect
       effect="simplify"
       id="path-effect8532"
       is_visible="true"
       steps="1"
       threshold="0.000408163"
       smooth_angles="360"
       helper_size="0"
       simplify_individual_paths="false"
       simplify_just_coalesce="false"
       simplifyindividualpaths="false"
       simplifyJustCoalesce="false" />
    <inkscape:path-effect
       effect="simplify"
       id="path-effect8528"
       is_visible="true"
       steps="1"
       threshold="0.000408163"
       smooth_angles="360"
       helper_size="0"
       simplify_individual_paths="false"
       simplify_just_coalesce="false"
       simplifyindividualpaths="false"
       simplifyJustCoalesce="false" />
    <inkscape:path-effect
       effect="simplify"
       id="path-effect8524"
       is_visible="true"
       steps="1"
       threshold="0.000408163"
       smooth_angles="360"
       helper_size="0"
       simplify_individual_paths="false"
       simplify_just_coalesce="false"
       simplifyindividualpaths="false"
       simplifyJustCoalesce="false" />
    <inkscape:path-effect
       effect="simplify"
       id="path-effect8449"
       is_visible="true"
       steps="1"
       threshold="0.000408163"
       smooth_angles="360"
       helper_size="0"
       simplify_individual_paths="false"
       simplify_just_coalesce="false"
       simplifyindividualpaths="false"
       simplifyJustCoalesce="false" />
    <inkscape:path-effect
       effect="simplify"
       id="path-effect8443"
       is_visible="true"
       steps="1"
       threshold="0.000408163"
       smooth_angles="360"
       helper_size="0"
       simplify_individual_paths="false"
       simplify_just_coalesce="false"
       simplifyindividualpaths="false"
       simplifyJustCoalesce="false" />
    <inkscape:path-effect
       effect="simplify"
       id="path-effect8434"
       is_visible="true"
       steps="1"
       threshold="0.000408163"
       smooth_angles="360"
       helper_size="0"
       simplify_individual_paths="false"
       simplify_just_coalesce="false"
       simplifyindividualpaths="false"
       simplifyJustCoalesce="false" />
    <inkscape:path-effect
       effect="simplify"
       id="path-effect8422"
       is_visible="true"
       steps="1"
       threshold="0.000408163"
       smooth_angles="360"
       helper_size="0"
       simplify_individual_paths="false"
       simplify_just_coalesce="false"
       simplifyindividualpaths="false"
       simplifyJustCoalesce="false" />
    <inkscape:path-effect
       effect="simplify"
       id="path-effect8418"
       is_visible="true"
       steps="1"
       threshold="0.000408163"
       smooth_angles="360"
       helper_size="0"
       simplify_individual_paths="false"
       simplify_just_coalesce="false"
       simplifyindividualpaths="false"
       simplifyJustCoalesce="false" />
    <inkscape:path-effect
       effect="simplify"
       id="path-effect8413"
       is_visible="true"
       steps="1"
       threshold="0.000408163"
       smooth_angles="360"
       helper_size="0"
       simplify_individual_paths="false"
       simplify_just_coalesce="false"
       simplifyindividualpaths="false"
       simplifyJustCoalesce="false" />
    <inkscape:path-effect
       effect="simplify"
       id="path-effect8391"
       is_visible="true"
       steps="1"
       threshold="0.000408163"
       smooth_angles="360"
       helper_size="0"
       simplify_individual_paths="false"
       simplify_just_coalesce="false"
       simplifyindividualpaths="false"
       simplifyJustCoalesce="false" />
    <inkscape:path-effect
       effect="simplify"
       id="path-effect8114"
       is_visible="true"
       steps="1"
       threshold="0.000408163"
       smooth_angles="360"
       helper_size="0"
       simplify_individual_paths="false"
       simplify_just_coalesce="false"
       simplifyindividualpaths="false"
       simplifyJustCoalesce="false" />
    <inkscape:path-effect
       effect="simplify"
       id="path-effect7808"
       is_visible="true"
       steps="1"
       threshold="0.000408163"
       smooth_angles="360"
       helper_size="0"
       simplify_individual_paths="false"
       simplify_just_coalesce="false"
       simplifyindividualpaths="false"
       simplifyJustCoalesce="false" />
    <inkscape:path-effect
       effect="simplify"
       id="path-effect6980"
       is_visible="true"
       steps="1"
       threshold="0.000408163"
       smooth_angles="360"
       helper_size="0"
       simplify_individual_paths="false"
       simplify_just_coalesce="false"
       simplifyindividualpaths="false"
       simplifyJustCoalesce="false" />
    <inkscape:path-effect
       effect="simplify"
       id="path-effect6741"
       is_visible="true"
       steps="1"
       threshold="0.000408163"
       smooth_angles="360"
       helper_size="0"
       simplify_individual_paths="false"
       simplify_just_coalesce="false"
       simplifyindividualpaths="false"
       simplifyJustCoalesce="false" />
  </defs>
  <sodipodi:namedview
     id="base"
     pagecolor="#ffffff"
     bordercolor="#666666"
     borderopacity="1.0"
     inkscape:pageopacity="0.0"
     inkscape:pageshadow="2"
     inkscape:zoom="0.088388348"
     inkscape:cx="-1905.5379"
     inkscape:cy="-1527.999"
     inkscape:document-units="mm"
     inkscape:current-layer="layer1"
     showgrid="false"
     inkscape:window-width="1920"
     inkscape:window-height="1020"
     inkscape:window-x="0"
     inkscape:window-y="1080"
     inkscape:window-maximized="1"
     units="mm"
     scale-x="0.9"
     showborder="true"
     inkscape:snap-global="false" />
  <metadata
     id="metadata5765">
    <rdf:RDF>
      <cc:Work
         rdf:about="">
        <dc:format>image/svg+xml</dc:format>
        <dc:type
           rdf:resource="http://purl.org/dc/dcmitype/StillImage" />
        <dc:title />
      </cc:Work>
    </rdf:RDF>
  </metadata>
  <g
     inkscape:label="Layer 1"
     inkscape:groupmode="layer"
     id="layer1"
     transform="translate(-1421.8537,-406.65792)">
    <path
       style="fill:#000000;stroke-width:15.02942848"
       d="m 6407.6211,1707.75 c -0.273,0 -0.5327,0.02 -0.7773,0.076 -0.522,0.119 -0.9792,0.3761 -1.3653,0.7773 -6.1774,6.4195 -45.801,71.7601 -88.0527,145.2012 -42.2522,73.4411 -74.2627,136.0891 -71.1328,139.2187 3.1294,3.1297 31.8982,-5.2589 63.9297,-18.6425 37.9573,-15.8598 83.6399,-21.8941 131.1796,-17.3262 40.1172,3.8548 83.982,18.0506 97.4766,31.5449 13.5433,13.5435 30.2803,18.7897 37.3594,11.7109 7.0786,-7.0788 -6.7659,-42.3794 -30.9024,-78.7968 -24.0487,-36.2854 -62.8279,-101.6601 -86.1757,-145.2774 -21.2046,-39.6133 -43.0749,-68.3526 -51.5391,-68.4863 z m -1.2559,270.9609 c -9.6239,0.08 -21.2016,1.5312 -33.207,4.4102 -26.9094,6.4529 -60.7241,16.6027 -75.1426,22.5547 -14.418,5.9519 -22.1338,17.4243 -17.1465,25.4941 4.9873,8.0698 25.8057,10.4721 46.2618,5.3379 23.9265,-6.0051 33.746,-3.759 27.5312,6.2969 -5.3136,8.5975 -17.1826,15.6328 -26.3769,15.6328 -9.194,0 -29.9842,11.835 -46.1993,26.3008 -28.4514,25.3816 -29.1138,25.1178 -18.957,-7.5156 6.2875,-20.2004 4.2063,-33.8145 -5.1699,-33.8145 -8.6325,0 -25.2924,15.2155 -37.0215,33.8145 -11.7291,18.5989 -25.8671,49.0339 -31.418,67.6328 -7.3197,24.5248 -3.8986,33.8164 12.4512,33.8164 12.3994,0 26.8372,-13.5262 32.084,-30.0586 5.2472,-16.5324 15.8477,-30.0586 23.5566,-30.0586 7.7094,0 14.0176,6.7631 14.0176,15.0293 0,8.2662 -6.7635,15.0293 -15.0293,15.0293 -8.2662,0 -15.0293,9.3558 -15.0293,20.791 0,11.4352 -14.3583,24.546 -31.9062,29.1348 -27.8388,7.28 -30.5806,15.4005 -21.5157,63.7207 5.7138,30.4576 18.3169,68.0712 28.0059,83.5859 9.689,15.5148 25.5708,28.209 35.293,28.209 9.7218,0 20.1142,-7.3129 23.0937,-16.252 3.4511,-10.3526 22.6494,-6.364 52.8848,10.9883 26.1073,14.9835 51.9327,22.7782 57.3887,17.3223 5.4559,-5.4559 -12.707,-30.3637 -40.3614,-55.3516 -42.7561,-38.6338 -45.2207,-44.1542 -16.4648,-36.8906 18.5986,4.6998 33.8164,4.6907 33.8164,-0.018 0,-4.7082 -7.7096,-25.4821 -17.1328,-46.164 -13.128,-28.8125 -12.5979,-48.5502 2.2636,-84.4297 15.8069,-38.1579 25.7604,-45.229 53.7852,-38.1953 18.914,4.7471 38.6137,1.7943 43.7773,-6.5606 5.1637,-8.3549 -0.9943,-19.1748 -13.6855,-24.0449 -12.6912,-4.8702 -43.5791,0.2201 -68.6387,11.3125 -29.5727,13.09 -51.3002,37.5514 -61.9101,69.6992 -8.9903,27.2418 -12.4249,59.7486 -7.6328,72.2363 4.9448,12.8863 2.288,18.733 -6.1446,13.5215 -8.1713,-5.0503 -14.8574,-31.2745 -14.8574,-58.2773 0,-32.2145 12.2443,-60.6005 35.6094,-82.5508 19.5851,-18.3993 55.092,-38.7996 78.9043,-45.334 24.682,-6.7729 57.8336,-5.4022 77.1113,3.1875 18.5991,8.2872 33.8164,20.7462 33.8164,27.6856 0,6.9393 9.4052,12.6152 20.9004,12.6152 12.8302,0 23.3522,21.0197 27.2539,54.4394 3.688,31.5911 -3.5069,74.1688 -17.1426,101.4493 -12.9239,25.8556 -45.3311,57.1534 -72.0175,69.5527 -26.686,12.3993 -48.6652,28.4624 -48.8457,35.6953 -0.1789,7.2329 19.9653,9.0925 44.7636,4.1328 25.4346,-5.0869 45.0879,-2.6295 45.0879,5.6367 0,8.0595 -30.8796,14.6543 -68.6211,14.6543 -37.7411,0 -82.2303,-7.2847 -98.8652,-16.1875 -16.6346,-8.9027 -41.553,-11.7491 -55.3731,-6.3261 -20.0613,7.872 -14.5211,15.5522 27.4766,38.0996 28.9319,15.5325 78.0574,28.5246 109.168,28.8711 31.1101,0.3465 71.6888,-7.8255 90.1757,-18.1582 18.4866,-10.3328 45.7634,-28.5741 60.6153,-40.5371 14.8514,-11.9631 36.5347,-42.398 48.1836,-67.6329 11.6493,-25.2348 23.1685,-65.461 25.5996,-89.3925 2.4306,-23.9315 -3.5137,-46.301 -13.209,-49.711 -9.6953,-3.41 -20.6088,9.4071 -24.2539,28.4824 -5.0427,26.394 -7.1162,23.1202 -8.6738,-13.6933 -1.5782,-37.2923 3.1185,-46.3919 20.498,-39.7227 13.2237,5.0744 22.5303,0.2187 22.4883,-11.7441 -0.031,-11.2171 -12.7597,-41.2254 -28.2852,-66.6856 -15.5254,-25.4601 -52.7725,-57.9382 -82.7714,-72.1738 -29.999,-14.2354 -60.7656,-22.037 -68.3692,-17.3379 -7.6036,4.6992 -17.6367,2.3745 -22.2969,-5.166 -2.3762,-3.8448 -9.8659,-5.9841 -20.1914,-6.3398 -1.2907,-0.044 -2.6251,-0.06 -4,-0.049 z m 14.6602,29.1739 c 13.1372,-0.2195 29.3156,4.8567 40.7676,13.5332 15.2693,11.5686 20.9982,20.5747 12.7324,20.0136 -8.2663,-0.5611 -31.9364,-5.7281 -52.6016,-11.4843 -30.1732,-8.4045 -32.6823,-12.3484 -12.7343,-20.0157 3.4156,-1.3128 7.4568,-1.9737 11.8359,-2.0468 z m 136.1797,80.9199 c 3.2806,0.011 6.5653,1.2646 9.0625,3.7617 4.994,4.9942 6.2329,17.6242 2.7519,28.0664 -5.091,15.2731 -8.6302,15.2627 -18.0996,-0.059 -6.4739,-10.4755 -7.7128,-23.1055 -2.7519,-28.0664 2.4804,-2.4807 5.7564,-3.714 9.0371,-3.7031 z m -85.7559,24.7461 c -3.7653,0.1762 -7.222,1.7765 -10.2754,4.8301 -9.306,9.306 -4.9894,24.9943 12.0567,43.83 18.345,20.2707 23.1822,40.1206 15.6543,64.2305 -5.9927,19.1913 -17.613,39.2089 -25.8243,44.4844 -8.2108,5.2754 -10.2837,17.1123 -4.6035,26.3027 5.6798,9.1904 16.4538,16.709 23.9414,16.709 7.4877,0 21.0088,-13.8171 30.0469,-30.7051 9.0381,-16.888 14.3482,-52.3481 11.8008,-78.8008 -2.5478,-26.4525 -14.5206,-59.8966 -26.6055,-74.3203 -8.8173,-10.5235 -17.2224,-16.1107 -24.5586,-16.5488 -0.5502,-0.033 -1.0949,-0.037 -1.6328,-0.012 z m -327.5703,45.8867 -86.4199,143.7773 c -47.5309,79.0776 -86.4199,151.0377 -86.4199,159.9122 0,10.5587 59.7366,16.1347 172.8398,16.1347 95.0614,0 172.8379,-5.6778 172.8379,-12.6172 0,-6.9393 -16.6332,-20.1961 -36.9629,-29.459 -20.3297,-9.2627 -55.6236,-45.0373 -78.4297,-79.5 -22.9371,-34.66 -45.0351,-92.9544 -49.4551,-130.455 z m 538.3242,14.6738 c -3.4508,-0.3216 -4.5919,5.8963 -4.6386,17.8477 -0.078,19.7064 -8.337,63.1832 -18.3536,96.6152 -10.0166,33.432 -40.6758,83.2501 -68.1328,110.707 -27.4566,27.457 -60.2401,49.9219 -72.8515,49.9219 -12.6115,0 -18.7513,6.7631 -13.6426,15.0293 5.3169,8.6026 82.818,15.0293 181.2402,15.0293 94.5735,0 171.9531,-2.5311 171.9531,-5.625 0,-0.6124 -0.6741,-3.0893 -1.4082,-5.7226 -2.5023,-5.6734 -5.0111,-11.3551 -7.8007,-17.2735 -3.7078,-7.8663 -7.6518,-15.9244 -11.7832,-24.1172 -4.1314,-8.1927 -8.451,-16.5184 -12.9102,-24.916 -4.4592,-8.3976 -9.0588,-16.8686 -13.75,-25.3496 -9.3823,-16.9619 -19.1319,-33.9692 -28.8672,-50.5351 -9.7352,-16.566 -19.4558,-32.6892 -28.7773,-47.8868 -2.1338,-3.4789 -3.9517,-6.3135 -6.0391,-9.6894 -6.3995,-8.3267 -15.1456,-22.5834 -28.498,-44.8672 -2.1959,-3.6647 -3.9743,-6.5248 -5.9454,-9.7598 -2.4387,-3.7876 -5.4283,-8.511 -7.5976,-11.8535 -7.0707,-10.8943 -8.0167,-12.231 -11.4805,-17.4512 -4.9135,-6.6023 -8.3557,-9.8834 -10.7168,-10.1035 z m -89.5449,86.125 c 0.1946,-0.023 0.3802,-0.021 0.5586,0.01 2.8549,0.4548 3.7107,7.4986 4.7637,21.4786 1.2342,16.3831 -7.4381,33.5033 -19.2735,38.0449 -11.8349,4.5416 -21.5195,2.9991 -21.5195,-3.4278 0,-6.4268 8.6742,-23.547 19.2754,-38.0449 8.4807,-11.5981 13.2767,-17.714 16.1953,-18.0586 z m -167.6875,25.2344 c -1.9142,0.1378 -2.7376,3.6776 -2.8184,10.5664 -0.1268,10.8207 -6.9935,15.4955 -15.2597,10.3867 -8.2663,-5.1087 -21.9017,-5.0417 -30.3028,0.1504 -8.4006,5.1922 -11.3843,15.7367 -6.6289,23.4317 4.7559,7.695 21.3751,13.9902 36.9317,13.9902 15.5565,0 31.6201,-5.394 35.6953,-11.9883 4.0756,-6.5943 1.1978,-21.8118 -6.3965,-33.8164 -5.1572,-8.1521 -8.6237,-12.3659 -10.8223,-12.7031 -0.1374,-0.021 -0.2708,-0.027 -0.3984,-0.018 z"
       transform="scale(0.238125)"
       id="path8622"
       inkscape:connector-curvature="0" />
  </g>
</svg>
